G04 #@! TF.GenerationSoftware,KiCad,Pcbnew,(5.1.6)-1*
G04 #@! TF.CreationDate,2020-09-03T19:38:07+03:00*
G04 #@! TF.ProjectId,4116 dram tester,34313136-2064-4726-916d-207465737465,rev?*
G04 #@! TF.SameCoordinates,Original*
G04 #@! TF.FileFunction,Legend,Top*
G04 #@! TF.FilePolarity,Positive*
%FSLAX46Y46*%
G04 Gerber Fmt 4.6, Leading zero omitted, Abs format (unit mm)*
G04 Created by KiCad (PCBNEW (5.1.6)-1) date 2020-09-03 19:38:07*
%MOMM*%
%LPD*%
G01*
G04 APERTURE LIST*
%ADD10C,0.250000*%
%ADD11C,0.300000*%
%ADD12C,0.350000*%
%ADD13C,0.010000*%
%ADD14C,0.120000*%
%ADD15C,0.150000*%
G04 APERTURE END LIST*
D10*
X138414285Y-87325580D02*
X139128571Y-87414866D01*
X137628571Y-87727366D02*
X138414285Y-87325580D01*
X137628571Y-86727366D01*
X139128571Y-86200580D02*
X139057142Y-86334508D01*
X138985714Y-86397008D01*
X138842857Y-86450580D01*
X138414285Y-86397008D01*
X138271428Y-86307723D01*
X138200000Y-86227366D01*
X138128571Y-86075580D01*
X138128571Y-85861294D01*
X138200000Y-85727366D01*
X138271428Y-85664866D01*
X138414285Y-85611294D01*
X138842857Y-85664866D01*
X138985714Y-85754151D01*
X139057142Y-85834508D01*
X139128571Y-85986294D01*
X139128571Y-86200580D01*
X138128571Y-84289866D02*
X139128571Y-84414866D01*
X138128571Y-84932723D02*
X138914285Y-85030937D01*
X139057142Y-84977366D01*
X139128571Y-84843437D01*
X139128571Y-84629151D01*
X139057142Y-84477366D01*
X138985714Y-84397008D01*
X139057142Y-81905937D02*
X139128571Y-82057723D01*
X139128571Y-82343437D01*
X139057142Y-82477366D01*
X138985714Y-82539866D01*
X138842857Y-82593437D01*
X138414285Y-82539866D01*
X138271428Y-82450580D01*
X138200000Y-82370223D01*
X138128571Y-82218437D01*
X138128571Y-81932723D01*
X138200000Y-81798794D01*
X139128571Y-80629151D02*
X138342857Y-80530937D01*
X138200000Y-80584508D01*
X138128571Y-80718437D01*
X138128571Y-81004151D01*
X138200000Y-81155937D01*
X139057142Y-80620223D02*
X139128571Y-80772008D01*
X139128571Y-81129151D01*
X139057142Y-81263080D01*
X138914285Y-81316651D01*
X138771428Y-81298794D01*
X138628571Y-81209508D01*
X138557142Y-81057723D01*
X138557142Y-80700580D01*
X138485714Y-80548794D01*
X138128571Y-79789866D02*
X139128571Y-79914866D01*
X138271428Y-79807723D02*
X138200000Y-79727366D01*
X138128571Y-79575580D01*
X138128571Y-79361294D01*
X138200000Y-79227366D01*
X138342857Y-79173794D01*
X139128571Y-79272008D01*
X138128571Y-77289866D02*
X139628571Y-77477366D01*
X138200000Y-77298794D02*
X138128571Y-77147008D01*
X138128571Y-76861294D01*
X138200000Y-76727366D01*
X138271428Y-76664866D01*
X138414285Y-76611294D01*
X138842857Y-76664866D01*
X138985714Y-76754151D01*
X139057142Y-76834508D01*
X139128571Y-76986294D01*
X139128571Y-77272008D01*
X139057142Y-77405937D01*
X139128571Y-75843437D02*
X139057142Y-75977366D01*
X138985714Y-76039866D01*
X138842857Y-76093437D01*
X138414285Y-76039866D01*
X138271428Y-75950580D01*
X138200000Y-75870223D01*
X138128571Y-75718437D01*
X138128571Y-75504151D01*
X138200000Y-75370223D01*
X138271428Y-75307723D01*
X138414285Y-75254151D01*
X138842857Y-75307723D01*
X138985714Y-75397008D01*
X139057142Y-75477366D01*
X139128571Y-75629151D01*
X139128571Y-75843437D01*
X138128571Y-74718437D02*
X139128571Y-74557723D01*
X138414285Y-74182723D01*
X139128571Y-73986294D01*
X138128571Y-73575580D01*
X139057142Y-72548794D02*
X139128571Y-72700580D01*
X139128571Y-72986294D01*
X139057142Y-73120223D01*
X138914285Y-73173794D01*
X138342857Y-73102366D01*
X138200000Y-73013080D01*
X138128571Y-72861294D01*
X138128571Y-72575580D01*
X138200000Y-72441651D01*
X138342857Y-72388080D01*
X138485714Y-72405937D01*
X138628571Y-73138080D01*
X139128571Y-71843437D02*
X138128571Y-71718437D01*
X138414285Y-71754151D02*
X138271428Y-71664866D01*
X138200000Y-71584508D01*
X138128571Y-71432723D01*
X138128571Y-71289866D01*
X138128571Y-69004151D02*
X139128571Y-69129151D01*
X138128571Y-69647008D02*
X138914285Y-69745223D01*
X139057142Y-69691651D01*
X139128571Y-69557723D01*
X139128571Y-69343437D01*
X139057142Y-69191651D01*
X138985714Y-69111294D01*
X138128571Y-68289866D02*
X139628571Y-68477366D01*
X138200000Y-68298794D02*
X138128571Y-68147008D01*
X138128571Y-67861294D01*
X138200000Y-67727366D01*
X138271428Y-67664866D01*
X138414285Y-67611294D01*
X138842857Y-67664866D01*
X138985714Y-67754151D01*
X139057142Y-67834508D01*
X139128571Y-67986294D01*
X139128571Y-68272008D01*
X139057142Y-68405937D01*
X138128571Y-66004151D02*
X138128571Y-65432723D01*
X137628571Y-65727366D02*
X138914285Y-65888080D01*
X139057142Y-65834508D01*
X139128571Y-65700580D01*
X139128571Y-65557723D01*
X139128571Y-65057723D02*
X137628571Y-64870223D01*
X139128571Y-64414866D02*
X138342857Y-64316651D01*
X138200000Y-64370223D01*
X138128571Y-64504151D01*
X138128571Y-64718437D01*
X138200000Y-64870223D01*
X138271428Y-64950580D01*
X139057142Y-63120223D02*
X139128571Y-63272008D01*
X139128571Y-63557723D01*
X139057142Y-63691651D01*
X138914285Y-63745223D01*
X138342857Y-63673794D01*
X138200000Y-63584508D01*
X138128571Y-63432723D01*
X138128571Y-63147008D01*
X138200000Y-63013080D01*
X138342857Y-62959508D01*
X138485714Y-62977366D01*
X138628571Y-63709508D01*
X138128571Y-61361294D02*
X138128571Y-60789866D01*
X137628571Y-61084508D02*
X138914285Y-61245223D01*
X139057142Y-61191651D01*
X139128571Y-61057723D01*
X139128571Y-60914866D01*
X139057142Y-59834508D02*
X139128571Y-59986294D01*
X139128571Y-60272008D01*
X139057142Y-60405937D01*
X138914285Y-60459508D01*
X138342857Y-60388080D01*
X138200000Y-60298794D01*
X138128571Y-60147008D01*
X138128571Y-59861294D01*
X138200000Y-59727366D01*
X138342857Y-59673794D01*
X138485714Y-59691651D01*
X138628571Y-60423794D01*
X139057142Y-59191651D02*
X139128571Y-59057723D01*
X139128571Y-58772008D01*
X139057142Y-58620223D01*
X138914285Y-58530937D01*
X138842857Y-58522008D01*
X138700000Y-58575580D01*
X138628571Y-58709508D01*
X138628571Y-58923794D01*
X138557142Y-59057723D01*
X138414285Y-59111294D01*
X138342857Y-59102366D01*
X138200000Y-59013080D01*
X138128571Y-58861294D01*
X138128571Y-58647008D01*
X138200000Y-58513080D01*
X138128571Y-58004151D02*
X138128571Y-57432723D01*
X137628571Y-57727366D02*
X138914285Y-57888080D01*
X139057142Y-57834508D01*
X139128571Y-57700580D01*
X139128571Y-57557723D01*
X139057142Y-56477366D02*
X139128571Y-56629151D01*
X139128571Y-56914866D01*
X139057142Y-57048794D01*
X138914285Y-57102366D01*
X138342857Y-57030937D01*
X138200000Y-56941651D01*
X138128571Y-56789866D01*
X138128571Y-56504151D01*
X138200000Y-56370223D01*
X138342857Y-56316651D01*
X138485714Y-56334508D01*
X138628571Y-57066651D01*
X139128571Y-55772008D02*
X138128571Y-55647008D01*
X138414285Y-55682723D02*
X138271428Y-55593437D01*
X138200000Y-55513080D01*
X138128571Y-55361294D01*
X138128571Y-55218437D01*
X139057142Y-54763080D02*
X139128571Y-54772008D01*
X139271428Y-54861294D01*
X139342857Y-54941651D01*
X141628571Y-84807723D02*
X140842857Y-84709508D01*
X140700000Y-84763080D01*
X140628571Y-84897008D01*
X140628571Y-85182723D01*
X140700000Y-85334508D01*
X141557142Y-84798794D02*
X141628571Y-84950580D01*
X141628571Y-85307723D01*
X141557142Y-85441651D01*
X141414285Y-85495223D01*
X141271428Y-85477366D01*
X141128571Y-85388080D01*
X141057142Y-85236294D01*
X141057142Y-84879151D01*
X140985714Y-84727366D01*
X141628571Y-83879151D02*
X141557142Y-84013080D01*
X141414285Y-84066651D01*
X140128571Y-83905937D01*
X141557142Y-83370223D02*
X141628571Y-83236294D01*
X141628571Y-82950580D01*
X141557142Y-82798794D01*
X141414285Y-82709508D01*
X141342857Y-82700580D01*
X141200000Y-82754151D01*
X141128571Y-82888080D01*
X141128571Y-83102366D01*
X141057142Y-83236294D01*
X140914285Y-83289866D01*
X140842857Y-83280937D01*
X140700000Y-83191651D01*
X140628571Y-83039866D01*
X140628571Y-82825580D01*
X140700000Y-82691651D01*
X141628571Y-81879151D02*
X141557142Y-82013080D01*
X141485714Y-82075580D01*
X141342857Y-82129151D01*
X140914285Y-82075580D01*
X140771428Y-81986294D01*
X140700000Y-81905937D01*
X140628571Y-81754151D01*
X140628571Y-81539866D01*
X140700000Y-81405937D01*
X140771428Y-81343437D01*
X140914285Y-81289866D01*
X141342857Y-81343437D01*
X141485714Y-81432723D01*
X141557142Y-81513080D01*
X141628571Y-81664866D01*
X141628571Y-81879151D01*
X140628571Y-79611294D02*
X141628571Y-79379151D01*
X140628571Y-78897008D01*
X141628571Y-78450580D02*
X140628571Y-78325580D01*
X140128571Y-78263080D02*
X140200000Y-78343437D01*
X140271428Y-78280937D01*
X140200000Y-78200580D01*
X140128571Y-78263080D01*
X140271428Y-78280937D01*
X141628571Y-77093437D02*
X140842857Y-76995223D01*
X140700000Y-77048794D01*
X140628571Y-77182723D01*
X140628571Y-77468437D01*
X140700000Y-77620223D01*
X141557142Y-77084508D02*
X141628571Y-77236294D01*
X141628571Y-77593437D01*
X141557142Y-77727366D01*
X141414285Y-77780937D01*
X141271428Y-77763080D01*
X141128571Y-77673794D01*
X141057142Y-77522008D01*
X141057142Y-77164866D01*
X140985714Y-77013080D01*
X140628571Y-75325580D02*
X140628571Y-74754151D01*
X140128571Y-75048794D02*
X141414285Y-75209508D01*
X141557142Y-75155937D01*
X141628571Y-75022008D01*
X141628571Y-74879151D01*
X141628571Y-74379151D02*
X140128571Y-74191651D01*
X141628571Y-73736294D02*
X140842857Y-73638080D01*
X140700000Y-73691651D01*
X140628571Y-73825580D01*
X140628571Y-74039866D01*
X140700000Y-74191651D01*
X140771428Y-74272008D01*
X141557142Y-72441651D02*
X141628571Y-72593437D01*
X141628571Y-72879151D01*
X141557142Y-73013080D01*
X141414285Y-73066651D01*
X140842857Y-72995223D01*
X140700000Y-72905937D01*
X140628571Y-72754151D01*
X140628571Y-72468437D01*
X140700000Y-72334508D01*
X140842857Y-72280937D01*
X140985714Y-72298794D01*
X141128571Y-73030937D01*
X141628571Y-69950580D02*
X140842857Y-69852366D01*
X140700000Y-69905937D01*
X140628571Y-70039866D01*
X140628571Y-70325580D01*
X140700000Y-70477366D01*
X141557142Y-69941651D02*
X141628571Y-70093437D01*
X141628571Y-70450580D01*
X141557142Y-70584508D01*
X141414285Y-70638080D01*
X141271428Y-70620223D01*
X141128571Y-70530937D01*
X141057142Y-70379151D01*
X141057142Y-70022008D01*
X140985714Y-69870223D01*
X141628571Y-69236294D02*
X140628571Y-69111294D01*
X140914285Y-69147008D02*
X140771428Y-69057723D01*
X140700000Y-68977366D01*
X140628571Y-68825580D01*
X140628571Y-68682723D01*
X141628571Y-67664866D02*
X140128571Y-67477366D01*
X141557142Y-67655937D02*
X141628571Y-67807723D01*
X141628571Y-68093437D01*
X141557142Y-68227366D01*
X141485714Y-68289866D01*
X141342857Y-68343437D01*
X140914285Y-68289866D01*
X140771428Y-68200580D01*
X140700000Y-68120223D01*
X140628571Y-67968437D01*
X140628571Y-67682723D01*
X140700000Y-67548794D01*
X140628571Y-66182723D02*
X141628571Y-66307723D01*
X140628571Y-66825580D02*
X141414285Y-66923794D01*
X141557142Y-66870223D01*
X141628571Y-66736294D01*
X141628571Y-66522008D01*
X141557142Y-66370223D01*
X141485714Y-66289866D01*
X141628571Y-65593437D02*
X140628571Y-65468437D01*
X140128571Y-65405937D02*
X140200000Y-65486294D01*
X140271428Y-65423794D01*
X140200000Y-65343437D01*
X140128571Y-65405937D01*
X140271428Y-65423794D01*
X140628571Y-64754151D02*
X141628571Y-64879151D01*
X140771428Y-64772008D02*
X140700000Y-64691651D01*
X140628571Y-64539866D01*
X140628571Y-64325580D01*
X140700000Y-64191651D01*
X140842857Y-64138080D01*
X141628571Y-64236294D01*
X141628571Y-63307723D02*
X141557142Y-63441651D01*
X141485714Y-63504151D01*
X141342857Y-63557723D01*
X140914285Y-63504151D01*
X140771428Y-63414866D01*
X140700000Y-63334508D01*
X140628571Y-63182723D01*
X140628571Y-62968437D01*
X140700000Y-62834508D01*
X140771428Y-62772008D01*
X140914285Y-62718437D01*
X141342857Y-62772008D01*
X141485714Y-62861294D01*
X141557142Y-62941651D01*
X141628571Y-63093437D01*
X141628571Y-63307723D01*
X140628571Y-60254151D02*
X141628571Y-60379151D01*
X140628571Y-60897008D02*
X141414285Y-60995223D01*
X141557142Y-60941651D01*
X141628571Y-60807723D01*
X141628571Y-60593437D01*
X141557142Y-60441651D01*
X141485714Y-60361294D01*
X141557142Y-59727366D02*
X141628571Y-59593437D01*
X141628571Y-59307723D01*
X141557142Y-59155937D01*
X141414285Y-59066651D01*
X141342857Y-59057723D01*
X141200000Y-59111294D01*
X141128571Y-59245223D01*
X141128571Y-59459508D01*
X141057142Y-59593437D01*
X140914285Y-59647008D01*
X140842857Y-59638080D01*
X140700000Y-59548794D01*
X140628571Y-59397008D01*
X140628571Y-59182723D01*
X140700000Y-59048794D01*
X141628571Y-58450580D02*
X140128571Y-58263080D01*
X140700000Y-58334508D02*
X140628571Y-58182723D01*
X140628571Y-57897008D01*
X140700000Y-57763080D01*
X140771428Y-57700580D01*
X140914285Y-57647008D01*
X141342857Y-57700580D01*
X141485714Y-57789866D01*
X141557142Y-57870223D01*
X141628571Y-58022008D01*
X141628571Y-58307723D01*
X141557142Y-58441651D01*
X141485714Y-57075580D02*
X141557142Y-57013080D01*
X141628571Y-57093437D01*
X141557142Y-57155937D01*
X141485714Y-57075580D01*
X141628571Y-57093437D01*
D11*
X118057440Y-140164285D02*
X117987797Y-140226190D01*
X117794345Y-140288095D01*
X117670535Y-140288095D01*
X117492559Y-140226190D01*
X117384226Y-140102380D01*
X117337797Y-139978571D01*
X117306845Y-139730952D01*
X117330059Y-139545238D01*
X117422916Y-139297619D01*
X117500297Y-139173809D01*
X117639583Y-139050000D01*
X117833035Y-138988095D01*
X117956845Y-138988095D01*
X118134821Y-139050000D01*
X118188988Y-139111904D01*
X118599107Y-140288095D02*
X118707440Y-139421428D01*
X118676488Y-139669047D02*
X118753869Y-139545238D01*
X118823511Y-139483333D01*
X118955059Y-139421428D01*
X119078869Y-139421428D01*
X119906845Y-140226190D02*
X119775297Y-140288095D01*
X119527678Y-140288095D01*
X119411607Y-140226190D01*
X119365178Y-140102380D01*
X119427083Y-139607142D01*
X119504464Y-139483333D01*
X119636011Y-139421428D01*
X119883630Y-139421428D01*
X119999702Y-139483333D01*
X120046130Y-139607142D01*
X120030654Y-139730952D01*
X119396130Y-139854761D01*
X121075297Y-140288095D02*
X121160416Y-139607142D01*
X121113988Y-139483333D01*
X120997916Y-139421428D01*
X120750297Y-139421428D01*
X120618750Y-139483333D01*
X121083035Y-140226190D02*
X120951488Y-140288095D01*
X120641964Y-140288095D01*
X120525892Y-140226190D01*
X120479464Y-140102380D01*
X120494940Y-139978571D01*
X120572321Y-139854761D01*
X120703869Y-139792857D01*
X121013392Y-139792857D01*
X121144940Y-139730952D01*
X121616964Y-139421428D02*
X122112202Y-139421428D01*
X121856845Y-138988095D02*
X121717559Y-140102380D01*
X121763988Y-140226190D01*
X121880059Y-140288095D01*
X122003869Y-140288095D01*
X122940178Y-140226190D02*
X122808630Y-140288095D01*
X122561011Y-140288095D01*
X122444940Y-140226190D01*
X122398511Y-140102380D01*
X122460416Y-139607142D01*
X122537797Y-139483333D01*
X122669345Y-139421428D01*
X122916964Y-139421428D01*
X123033035Y-139483333D01*
X123079464Y-139607142D01*
X123063988Y-139730952D01*
X122429464Y-139854761D01*
X124108630Y-140288095D02*
X124271130Y-138988095D01*
X124116369Y-140226190D02*
X123984821Y-140288095D01*
X123737202Y-140288095D01*
X123621130Y-140226190D01*
X123566964Y-140164285D01*
X123520535Y-140040476D01*
X123566964Y-139669047D01*
X123644345Y-139545238D01*
X123713988Y-139483333D01*
X123845535Y-139421428D01*
X124093154Y-139421428D01*
X124209226Y-139483333D01*
X125718154Y-140288095D02*
X125880654Y-138988095D01*
X125818750Y-139483333D02*
X125950297Y-139421428D01*
X126197916Y-139421428D01*
X126313988Y-139483333D01*
X126368154Y-139545238D01*
X126414583Y-139669047D01*
X126368154Y-140040476D01*
X126290773Y-140164285D01*
X126221130Y-140226190D01*
X126089583Y-140288095D01*
X125841964Y-140288095D01*
X125725892Y-140226190D01*
X126878869Y-139421428D02*
X127080059Y-140288095D01*
X127497916Y-139421428D02*
X127080059Y-140288095D01*
X126917559Y-140597619D01*
X126847916Y-140659523D01*
X126716369Y-140721428D01*
X128875297Y-140288095D02*
X129037797Y-138988095D01*
X129355059Y-139916666D01*
X129904464Y-138988095D01*
X129741964Y-140288095D01*
X131026488Y-139421428D02*
X130918154Y-140288095D01*
X130469345Y-139421428D02*
X130384226Y-140102380D01*
X130430654Y-140226190D01*
X130546726Y-140288095D01*
X130732440Y-140288095D01*
X130863988Y-140226190D01*
X130933630Y-140164285D01*
X131459821Y-139421428D02*
X131955059Y-139421428D01*
X131699702Y-138988095D02*
X131560416Y-140102380D01*
X131606845Y-140226190D01*
X131722916Y-140288095D01*
X131846726Y-140288095D01*
X132202678Y-139421428D02*
X132697916Y-139421428D01*
X132442559Y-138988095D02*
X132303273Y-140102380D01*
X132349702Y-140226190D01*
X132465773Y-140288095D01*
X132589583Y-140288095D01*
X133208630Y-140288095D02*
X133092559Y-140226190D01*
X133046130Y-140102380D01*
X133185416Y-138988095D01*
X134206845Y-140226190D02*
X134075297Y-140288095D01*
X133827678Y-140288095D01*
X133711607Y-140226190D01*
X133665178Y-140102380D01*
X133727083Y-139607142D01*
X133804464Y-139483333D01*
X133936011Y-139421428D01*
X134183630Y-139421428D01*
X134299702Y-139483333D01*
X134346130Y-139607142D01*
X134330654Y-139730952D01*
X133696130Y-139854761D01*
X134802678Y-139421428D02*
X135003869Y-140288095D01*
X135421726Y-139421428D02*
X135003869Y-140288095D01*
X134841369Y-140597619D01*
X134771726Y-140659523D01*
X134640178Y-140721428D01*
X137317559Y-139607142D02*
X137495535Y-139669047D01*
X137549702Y-139730952D01*
X137596130Y-139854761D01*
X137572916Y-140040476D01*
X137495535Y-140164285D01*
X137425892Y-140226190D01*
X137294345Y-140288095D01*
X136799107Y-140288095D01*
X136961607Y-138988095D01*
X137394940Y-138988095D01*
X137511011Y-139050000D01*
X137565178Y-139111904D01*
X137611607Y-139235714D01*
X137596130Y-139359523D01*
X137518750Y-139483333D01*
X137449107Y-139545238D01*
X137317559Y-139607142D01*
X136884226Y-139607142D01*
X138284821Y-140288095D02*
X138168750Y-140226190D01*
X138122321Y-140102380D01*
X138261607Y-138988095D01*
X139337202Y-140288095D02*
X139422321Y-139607142D01*
X139375892Y-139483333D01*
X139259821Y-139421428D01*
X139012202Y-139421428D01*
X138880654Y-139483333D01*
X139344940Y-140226190D02*
X139213392Y-140288095D01*
X138903869Y-140288095D01*
X138787797Y-140226190D01*
X138741369Y-140102380D01*
X138756845Y-139978571D01*
X138834226Y-139854761D01*
X138965773Y-139792857D01*
X139275297Y-139792857D01*
X139406845Y-139730952D01*
X140521130Y-140226190D02*
X140389583Y-140288095D01*
X140141964Y-140288095D01*
X140025892Y-140226190D01*
X139971726Y-140164285D01*
X139925297Y-140040476D01*
X139971726Y-139669047D01*
X140049107Y-139545238D01*
X140118750Y-139483333D01*
X140250297Y-139421428D01*
X140497916Y-139421428D01*
X140613988Y-139483333D01*
X141070535Y-140288095D02*
X141233035Y-138988095D01*
X141256250Y-139792857D02*
X141565773Y-140288095D01*
X141674107Y-139421428D02*
X141116964Y-139916666D01*
D10*
X69171428Y-67135714D02*
X70671428Y-67135714D01*
X70671428Y-67707142D01*
X70600000Y-67850000D01*
X70528571Y-67921428D01*
X70385714Y-67992857D01*
X70171428Y-67992857D01*
X70028571Y-67921428D01*
X69957142Y-67850000D01*
X69885714Y-67707142D01*
X69885714Y-67135714D01*
X69171428Y-68635714D02*
X70171428Y-68635714D01*
X70671428Y-68635714D02*
X70600000Y-68564285D01*
X70528571Y-68635714D01*
X70600000Y-68707142D01*
X70671428Y-68635714D01*
X70528571Y-68635714D01*
X70171428Y-69350000D02*
X69171428Y-69350000D01*
X70028571Y-69350000D02*
X70100000Y-69421428D01*
X70171428Y-69564285D01*
X70171428Y-69778571D01*
X70100000Y-69921428D01*
X69957142Y-69992857D01*
X69171428Y-69992857D01*
X69171428Y-72635714D02*
X69171428Y-71778571D01*
X69171428Y-72207142D02*
X70671428Y-72207142D01*
X70457142Y-72064285D01*
X70314285Y-71921428D01*
X70242857Y-71778571D01*
X154118571Y-64011428D02*
X155618571Y-63511428D01*
X154118571Y-63011428D01*
X155547142Y-61940000D02*
X155618571Y-62082857D01*
X155618571Y-62368571D01*
X155547142Y-62511428D01*
X155404285Y-62582857D01*
X154832857Y-62582857D01*
X154690000Y-62511428D01*
X154618571Y-62368571D01*
X154618571Y-62082857D01*
X154690000Y-61940000D01*
X154832857Y-61868571D01*
X154975714Y-61868571D01*
X155118571Y-62582857D01*
X155618571Y-61225714D02*
X154618571Y-61225714D01*
X154904285Y-61225714D02*
X154761428Y-61154285D01*
X154690000Y-61082857D01*
X154618571Y-60940000D01*
X154618571Y-60797142D01*
X155475714Y-60297142D02*
X155547142Y-60225714D01*
X155618571Y-60297142D01*
X155547142Y-60368571D01*
X155475714Y-60297142D01*
X155618571Y-60297142D01*
X154690000Y-60297142D02*
X154761428Y-60225714D01*
X154832857Y-60297142D01*
X154761428Y-60368571D01*
X154690000Y-60297142D01*
X154832857Y-60297142D01*
X154118571Y-58582857D02*
X154118571Y-57654285D01*
X154690000Y-58154285D01*
X154690000Y-57940000D01*
X154761428Y-57797142D01*
X154832857Y-57725714D01*
X154975714Y-57654285D01*
X155332857Y-57654285D01*
X155475714Y-57725714D01*
X155547142Y-57797142D01*
X155618571Y-57940000D01*
X155618571Y-58368571D01*
X155547142Y-58511428D01*
X155475714Y-58582857D01*
X155475714Y-57011428D02*
X155547142Y-56940000D01*
X155618571Y-57011428D01*
X155547142Y-57082857D01*
X155475714Y-57011428D01*
X155618571Y-57011428D01*
X154118571Y-56011428D02*
X154118571Y-55868571D01*
X154190000Y-55725714D01*
X154261428Y-55654285D01*
X154404285Y-55582857D01*
X154690000Y-55511428D01*
X155047142Y-55511428D01*
X155332857Y-55582857D01*
X155475714Y-55654285D01*
X155547142Y-55725714D01*
X155618571Y-55868571D01*
X155618571Y-56011428D01*
X155547142Y-56154285D01*
X155475714Y-56225714D01*
X155332857Y-56297142D01*
X155047142Y-56368571D01*
X154690000Y-56368571D01*
X154404285Y-56297142D01*
X154261428Y-56225714D01*
X154190000Y-56154285D01*
X154118571Y-56011428D01*
D12*
X123438348Y-133278333D02*
X124533586Y-133278333D01*
X123147872Y-133849761D02*
X124164538Y-131849761D01*
X124681205Y-133849761D01*
X125447872Y-133849761D02*
X125614538Y-132516428D01*
X125566919Y-132897380D02*
X125700252Y-132706904D01*
X125821681Y-132611666D01*
X126052633Y-132516428D01*
X126271681Y-132516428D01*
X127857395Y-133849761D02*
X128107395Y-131849761D01*
X127869300Y-133754523D02*
X127638348Y-133849761D01*
X127200252Y-133849761D01*
X126993110Y-133754523D01*
X126895491Y-133659285D01*
X126809776Y-133468809D01*
X126881205Y-132897380D01*
X127014538Y-132706904D01*
X127135967Y-132611666D01*
X127366919Y-132516428D01*
X127805014Y-132516428D01*
X128012157Y-132611666D01*
X130105014Y-132516428D02*
X129938348Y-133849761D01*
X129119300Y-132516428D02*
X128988348Y-133564047D01*
X129074062Y-133754523D01*
X129281205Y-133849761D01*
X129609776Y-133849761D01*
X129840729Y-133754523D01*
X129962157Y-133659285D01*
X131033586Y-133849761D02*
X131200252Y-132516428D01*
X131283586Y-131849761D02*
X131162157Y-131945000D01*
X131259776Y-132040238D01*
X131381205Y-131945000D01*
X131283586Y-131849761D01*
X131259776Y-132040238D01*
X132295491Y-132516428D02*
X132128824Y-133849761D01*
X132271681Y-132706904D02*
X132393110Y-132611666D01*
X132624062Y-132516428D01*
X132952633Y-132516428D01*
X133159776Y-132611666D01*
X133245491Y-132802142D01*
X133114538Y-133849761D01*
X134538348Y-133849761D02*
X134331205Y-133754523D01*
X134233586Y-133659285D01*
X134147872Y-133468809D01*
X134219300Y-132897380D01*
X134352633Y-132706904D01*
X134474062Y-132611666D01*
X134705014Y-132516428D01*
X135033586Y-132516428D01*
X135240729Y-132611666D01*
X135338348Y-132706904D01*
X135424062Y-132897380D01*
X135352633Y-133468809D01*
X135219300Y-133659285D01*
X135097872Y-133754523D01*
X134866919Y-133849761D01*
X134538348Y-133849761D01*
X115319300Y-135866428D02*
X115152633Y-137199761D01*
X114866919Y-135104523D02*
X114140729Y-136533095D01*
X115564538Y-136533095D01*
X117562157Y-137199761D02*
X116247872Y-137199761D01*
X116905014Y-137199761D02*
X117155014Y-135199761D01*
X116900252Y-135485476D01*
X116657395Y-135675952D01*
X116426443Y-135771190D01*
X119752633Y-137199761D02*
X118438348Y-137199761D01*
X119095491Y-137199761D02*
X119345491Y-135199761D01*
X119090729Y-135485476D01*
X118847872Y-135675952D01*
X118616919Y-135771190D01*
X121974062Y-135199761D02*
X121535967Y-135199761D01*
X121305014Y-135295000D01*
X121183586Y-135390238D01*
X120928824Y-135675952D01*
X120771681Y-136056904D01*
X120676443Y-136818809D01*
X120762157Y-137009285D01*
X120859776Y-137104523D01*
X121066919Y-137199761D01*
X121505014Y-137199761D01*
X121735967Y-137104523D01*
X121857395Y-137009285D01*
X121990729Y-136818809D01*
X122050252Y-136342619D01*
X121964538Y-136152142D01*
X121866919Y-136056904D01*
X121659776Y-135961666D01*
X121221681Y-135961666D01*
X120990729Y-136056904D01*
X120869300Y-136152142D01*
X120735967Y-136342619D01*
X124681205Y-137199761D02*
X124931205Y-135199761D01*
X125478824Y-135199761D01*
X125795491Y-135295000D01*
X125990729Y-135485476D01*
X126076443Y-135675952D01*
X126138348Y-136056904D01*
X126102633Y-136342619D01*
X125945491Y-136723571D01*
X125812157Y-136914047D01*
X125569300Y-137104523D01*
X125228824Y-137199761D01*
X124681205Y-137199761D01*
X126981205Y-137199761D02*
X127147872Y-135866428D01*
X127100252Y-136247380D02*
X127233586Y-136056904D01*
X127355014Y-135961666D01*
X127585967Y-135866428D01*
X127805014Y-135866428D01*
X129390729Y-137199761D02*
X129521681Y-136152142D01*
X129435967Y-135961666D01*
X129228824Y-135866428D01*
X128790729Y-135866428D01*
X128559776Y-135961666D01*
X129402633Y-137104523D02*
X129171681Y-137199761D01*
X128624062Y-137199761D01*
X128416919Y-137104523D01*
X128331205Y-136914047D01*
X128355014Y-136723571D01*
X128488348Y-136533095D01*
X128719300Y-136437857D01*
X129266919Y-136437857D01*
X129497872Y-136342619D01*
X130485967Y-137199761D02*
X130652633Y-135866428D01*
X130628824Y-136056904D02*
X130750252Y-135961666D01*
X130981205Y-135866428D01*
X131309776Y-135866428D01*
X131516919Y-135961666D01*
X131602633Y-136152142D01*
X131471681Y-137199761D01*
X131602633Y-136152142D02*
X131735967Y-135961666D01*
X131966919Y-135866428D01*
X132295491Y-135866428D01*
X132502633Y-135961666D01*
X132588348Y-136152142D01*
X132457395Y-137199761D01*
X135226443Y-135199761D02*
X136540729Y-135199761D01*
X135633586Y-137199761D02*
X135883586Y-135199761D01*
X137945491Y-137104523D02*
X137714538Y-137199761D01*
X137276443Y-137199761D01*
X137069300Y-137104523D01*
X136983586Y-136914047D01*
X137078824Y-136152142D01*
X137212157Y-135961666D01*
X137443110Y-135866428D01*
X137881205Y-135866428D01*
X138088348Y-135961666D01*
X138174062Y-136152142D01*
X138150252Y-136342619D01*
X137031205Y-136533095D01*
X138931205Y-137104523D02*
X139138348Y-137199761D01*
X139576443Y-137199761D01*
X139807395Y-137104523D01*
X139940729Y-136914047D01*
X139952633Y-136818809D01*
X139866919Y-136628333D01*
X139659776Y-136533095D01*
X139331205Y-136533095D01*
X139124062Y-136437857D01*
X139038348Y-136247380D01*
X139050252Y-136152142D01*
X139183586Y-135961666D01*
X139414538Y-135866428D01*
X139743110Y-135866428D01*
X139950252Y-135961666D01*
X140728824Y-135866428D02*
X141605014Y-135866428D01*
X141140729Y-135199761D02*
X140926443Y-136914047D01*
X141012157Y-137104523D01*
X141219300Y-137199761D01*
X141438348Y-137199761D01*
X143093110Y-137104523D02*
X142862157Y-137199761D01*
X142424062Y-137199761D01*
X142216919Y-137104523D01*
X142131205Y-136914047D01*
X142226443Y-136152142D01*
X142359776Y-135961666D01*
X142590729Y-135866428D01*
X143028824Y-135866428D01*
X143235967Y-135961666D01*
X143321681Y-136152142D01*
X143297872Y-136342619D01*
X142178824Y-136533095D01*
X144176443Y-137199761D02*
X144343110Y-135866428D01*
X144295491Y-136247380D02*
X144428824Y-136056904D01*
X144550252Y-135961666D01*
X144781205Y-135866428D01*
X145000252Y-135866428D01*
D13*
G36*
X96113600Y-134649054D02*
G01*
X96124465Y-134762993D01*
X96156082Y-134870616D01*
X96206985Y-134969615D01*
X96275707Y-135057684D01*
X96360781Y-135132516D01*
X96457768Y-135190384D01*
X96564036Y-135230005D01*
X96671050Y-135248573D01*
X96776700Y-135247434D01*
X96878875Y-135227930D01*
X96975466Y-135191406D01*
X97064362Y-135139205D01*
X97143454Y-135072673D01*
X97210631Y-134993152D01*
X97263783Y-134901987D01*
X97300801Y-134800523D01*
X97319573Y-134690102D01*
X97321511Y-134640206D01*
X97321511Y-134552267D01*
X97373440Y-134552267D01*
X97409747Y-134555111D01*
X97436645Y-134566911D01*
X97463751Y-134590649D01*
X97502133Y-134629031D01*
X97502133Y-136820602D01*
X97502124Y-137082739D01*
X97502092Y-137323241D01*
X97502028Y-137543048D01*
X97501924Y-137743101D01*
X97501773Y-137924344D01*
X97501566Y-138087716D01*
X97501294Y-138234160D01*
X97500950Y-138364617D01*
X97500526Y-138480029D01*
X97500013Y-138581338D01*
X97499403Y-138669484D01*
X97498688Y-138745410D01*
X97497860Y-138810057D01*
X97496911Y-138864367D01*
X97495833Y-138909280D01*
X97494617Y-138945740D01*
X97493255Y-138974687D01*
X97491739Y-138997063D01*
X97490062Y-139013809D01*
X97488214Y-139025868D01*
X97486187Y-139034180D01*
X97483975Y-139039687D01*
X97482892Y-139041537D01*
X97478729Y-139048549D01*
X97475195Y-139054996D01*
X97471365Y-139060900D01*
X97466318Y-139066286D01*
X97459129Y-139071178D01*
X97448877Y-139075598D01*
X97434636Y-139079572D01*
X97415486Y-139083121D01*
X97390501Y-139086270D01*
X97358760Y-139089042D01*
X97319338Y-139091461D01*
X97271314Y-139093551D01*
X97213763Y-139095335D01*
X97145763Y-139096837D01*
X97066390Y-139098080D01*
X96974721Y-139099089D01*
X96869834Y-139099885D01*
X96750804Y-139100494D01*
X96616710Y-139100939D01*
X96466627Y-139101243D01*
X96299633Y-139101430D01*
X96114804Y-139101524D01*
X95911217Y-139101548D01*
X95687950Y-139101525D01*
X95444078Y-139101480D01*
X95178679Y-139101437D01*
X95140296Y-139101432D01*
X94873318Y-139101389D01*
X94627998Y-139101318D01*
X94403417Y-139101213D01*
X94198655Y-139101066D01*
X94012794Y-139100869D01*
X93844912Y-139100616D01*
X93694092Y-139100300D01*
X93559413Y-139099913D01*
X93439956Y-139099447D01*
X93334801Y-139098897D01*
X93243029Y-139098253D01*
X93163721Y-139097511D01*
X93095957Y-139096661D01*
X93038818Y-139095697D01*
X92991383Y-139094611D01*
X92952734Y-139093397D01*
X92921951Y-139092047D01*
X92898115Y-139090555D01*
X92880306Y-139088911D01*
X92867605Y-139087111D01*
X92859092Y-139085145D01*
X92854734Y-139083477D01*
X92846272Y-139079906D01*
X92838503Y-139077270D01*
X92831398Y-139074634D01*
X92824927Y-139071062D01*
X92819061Y-139065621D01*
X92813771Y-139057375D01*
X92809026Y-139045390D01*
X92804798Y-139028731D01*
X92801057Y-139006463D01*
X92797773Y-138977652D01*
X92794917Y-138941363D01*
X92792460Y-138896661D01*
X92790371Y-138842611D01*
X92788622Y-138778279D01*
X92787183Y-138702730D01*
X92786024Y-138615030D01*
X92785117Y-138514243D01*
X92784431Y-138399434D01*
X92783937Y-138269670D01*
X92783605Y-138124015D01*
X92783407Y-137961535D01*
X92783313Y-137781295D01*
X92783292Y-137582360D01*
X92783315Y-137363796D01*
X92783354Y-137124668D01*
X92783378Y-136864040D01*
X92783378Y-136821889D01*
X92783364Y-136558992D01*
X92783339Y-136317732D01*
X92783329Y-136097165D01*
X92783358Y-135896352D01*
X92783452Y-135714349D01*
X92783638Y-135550216D01*
X92783941Y-135403011D01*
X92784386Y-135271792D01*
X92784966Y-135161867D01*
X93087803Y-135161867D01*
X93127593Y-135219711D01*
X93138764Y-135235479D01*
X93148834Y-135249441D01*
X93157862Y-135262784D01*
X93165903Y-135276693D01*
X93173014Y-135292356D01*
X93179253Y-135310958D01*
X93184675Y-135333686D01*
X93189338Y-135361727D01*
X93193299Y-135396267D01*
X93196615Y-135438492D01*
X93199341Y-135489589D01*
X93201536Y-135550744D01*
X93203255Y-135623144D01*
X93204556Y-135707975D01*
X93205495Y-135806422D01*
X93206130Y-135919674D01*
X93206516Y-136048916D01*
X93206712Y-136195334D01*
X93206773Y-136360116D01*
X93206757Y-136544447D01*
X93206720Y-136749513D01*
X93206711Y-136872133D01*
X93206735Y-137089082D01*
X93206769Y-137284642D01*
X93206757Y-137459999D01*
X93206642Y-137616341D01*
X93206370Y-137754857D01*
X93205882Y-137876734D01*
X93205124Y-137983160D01*
X93204038Y-138075322D01*
X93202569Y-138154409D01*
X93200660Y-138221608D01*
X93198256Y-138278107D01*
X93195299Y-138325093D01*
X93191734Y-138363755D01*
X93187505Y-138395280D01*
X93182554Y-138420855D01*
X93176827Y-138441670D01*
X93170267Y-138458911D01*
X93162817Y-138473765D01*
X93154421Y-138487422D01*
X93145024Y-138501069D01*
X93134568Y-138515893D01*
X93128477Y-138524783D01*
X93089704Y-138582400D01*
X93621268Y-138582400D01*
X93744517Y-138582365D01*
X93847013Y-138582215D01*
X93930580Y-138581878D01*
X93997044Y-138581286D01*
X94048229Y-138580367D01*
X94085959Y-138579051D01*
X94112060Y-138577269D01*
X94128356Y-138574951D01*
X94136672Y-138572026D01*
X94138832Y-138568424D01*
X94136661Y-138564075D01*
X94135465Y-138562645D01*
X94110315Y-138525573D01*
X94084417Y-138472772D01*
X94060808Y-138410770D01*
X94052539Y-138384357D01*
X94047922Y-138366416D01*
X94044021Y-138345355D01*
X94040752Y-138319089D01*
X94038034Y-138285532D01*
X94035785Y-138242599D01*
X94033923Y-138188204D01*
X94032364Y-138120262D01*
X94031028Y-138036688D01*
X94029831Y-137935395D01*
X94028692Y-137814300D01*
X94028315Y-137769600D01*
X94027298Y-137644449D01*
X94026540Y-137540082D01*
X94026097Y-137454707D01*
X94026030Y-137386533D01*
X94026395Y-137333765D01*
X94027252Y-137294614D01*
X94028659Y-137267285D01*
X94030675Y-137249986D01*
X94033357Y-137240926D01*
X94036764Y-137238312D01*
X94040956Y-137240351D01*
X94045429Y-137244667D01*
X94055784Y-137257602D01*
X94077842Y-137286676D01*
X94110043Y-137329759D01*
X94150826Y-137384718D01*
X94198630Y-137449423D01*
X94251895Y-137521742D01*
X94309060Y-137599544D01*
X94368563Y-137680698D01*
X94428845Y-137763072D01*
X94488345Y-137844536D01*
X94545502Y-137922957D01*
X94598755Y-137996204D01*
X94646543Y-138062147D01*
X94687307Y-138118654D01*
X94719484Y-138163593D01*
X94741515Y-138194834D01*
X94746083Y-138201466D01*
X94769004Y-138238369D01*
X94795812Y-138286359D01*
X94821211Y-138335897D01*
X94824432Y-138342577D01*
X94846110Y-138390772D01*
X94858696Y-138428334D01*
X94864426Y-138464160D01*
X94865544Y-138506200D01*
X94864910Y-138582400D01*
X96019349Y-138582400D01*
X95928185Y-138488669D01*
X95881388Y-138438775D01*
X95831101Y-138382295D01*
X95785056Y-138328026D01*
X95764631Y-138302673D01*
X95734193Y-138263128D01*
X95694138Y-138209916D01*
X95645639Y-138144667D01*
X95589865Y-138069011D01*
X95527989Y-137984577D01*
X95461181Y-137892994D01*
X95390613Y-137795892D01*
X95317455Y-137694901D01*
X95242879Y-137591650D01*
X95168056Y-137487768D01*
X95094157Y-137384885D01*
X95022354Y-137284631D01*
X94953816Y-137188636D01*
X94889716Y-137098527D01*
X94831225Y-137015936D01*
X94779514Y-136942492D01*
X94735753Y-136879824D01*
X94701115Y-136829561D01*
X94676770Y-136793334D01*
X94663889Y-136772771D01*
X94662131Y-136768668D01*
X94670090Y-136757342D01*
X94690885Y-136730162D01*
X94723153Y-136688829D01*
X94765530Y-136635044D01*
X94816653Y-136570506D01*
X94875159Y-136496918D01*
X94939686Y-136415978D01*
X95008869Y-136329388D01*
X95081347Y-136238848D01*
X95155754Y-136146060D01*
X95215483Y-136071702D01*
X96226489Y-136071702D01*
X96232398Y-136084659D01*
X96246728Y-136106908D01*
X96247775Y-136108391D01*
X96266562Y-136138544D01*
X96286209Y-136175375D01*
X96290108Y-136183511D01*
X96293644Y-136191940D01*
X96296770Y-136202059D01*
X96299514Y-136215260D01*
X96301908Y-136232938D01*
X96303981Y-136256484D01*
X96305765Y-136287293D01*
X96307288Y-136326757D01*
X96308581Y-136376269D01*
X96309674Y-136437223D01*
X96310597Y-136511011D01*
X96311381Y-136599028D01*
X96312055Y-136702665D01*
X96312650Y-136823316D01*
X96313195Y-136962374D01*
X96313721Y-137121232D01*
X96314255Y-137300089D01*
X96314794Y-137485207D01*
X96315228Y-137649145D01*
X96315491Y-137793303D01*
X96315516Y-137919079D01*
X96315235Y-138027871D01*
X96314581Y-138121077D01*
X96313486Y-138200097D01*
X96311882Y-138266328D01*
X96309703Y-138321170D01*
X96306881Y-138366021D01*
X96303349Y-138402278D01*
X96299039Y-138431341D01*
X96293883Y-138454609D01*
X96287815Y-138473479D01*
X96280767Y-138489351D01*
X96272671Y-138503622D01*
X96263460Y-138517691D01*
X96254960Y-138530158D01*
X96237824Y-138556452D01*
X96227678Y-138574037D01*
X96226489Y-138577257D01*
X96237396Y-138578334D01*
X96268589Y-138579335D01*
X96317777Y-138580235D01*
X96382667Y-138581010D01*
X96460970Y-138581637D01*
X96550393Y-138582091D01*
X96648644Y-138582349D01*
X96717555Y-138582400D01*
X96822548Y-138582180D01*
X96919390Y-138581548D01*
X97005893Y-138580549D01*
X97079868Y-138579227D01*
X97139126Y-138577626D01*
X97181480Y-138575791D01*
X97204740Y-138573765D01*
X97208622Y-138572493D01*
X97200924Y-138557591D01*
X97192926Y-138549560D01*
X97179754Y-138532434D01*
X97162515Y-138502183D01*
X97150593Y-138477622D01*
X97123955Y-138418711D01*
X97120880Y-137241845D01*
X97117805Y-136064978D01*
X96672147Y-136064978D01*
X96574330Y-136065142D01*
X96483936Y-136065611D01*
X96403370Y-136066347D01*
X96335038Y-136067316D01*
X96281344Y-136068480D01*
X96244695Y-136069803D01*
X96227496Y-136071249D01*
X96226489Y-136071702D01*
X95215483Y-136071702D01*
X95230730Y-136052722D01*
X95304910Y-135960537D01*
X95376931Y-135871204D01*
X95445431Y-135786424D01*
X95509045Y-135707898D01*
X95566412Y-135637326D01*
X95616167Y-135576409D01*
X95656948Y-135526847D01*
X95674112Y-135506178D01*
X95760404Y-135405516D01*
X95837003Y-135322259D01*
X95905817Y-135254438D01*
X95968752Y-135200089D01*
X95978133Y-135192722D01*
X96017644Y-135162117D01*
X94885884Y-135161867D01*
X94891173Y-135209844D01*
X94887870Y-135267188D01*
X94866339Y-135335463D01*
X94826365Y-135415212D01*
X94781057Y-135487495D01*
X94764839Y-135510140D01*
X94736786Y-135547696D01*
X94698570Y-135598021D01*
X94651863Y-135658973D01*
X94598339Y-135728411D01*
X94539669Y-135804194D01*
X94477525Y-135884180D01*
X94413579Y-135966228D01*
X94349505Y-136048196D01*
X94286973Y-136127943D01*
X94227657Y-136203327D01*
X94173229Y-136272207D01*
X94125361Y-136332442D01*
X94085725Y-136381889D01*
X94055994Y-136418408D01*
X94037839Y-136439858D01*
X94034780Y-136443156D01*
X94031921Y-136435149D01*
X94029707Y-136404855D01*
X94028143Y-136352556D01*
X94027233Y-136278531D01*
X94026980Y-136183063D01*
X94027387Y-136066434D01*
X94028296Y-135946445D01*
X94029618Y-135814333D01*
X94031143Y-135702594D01*
X94033119Y-135609025D01*
X94035794Y-135531419D01*
X94039418Y-135467574D01*
X94044239Y-135415283D01*
X94050506Y-135372344D01*
X94058468Y-135336551D01*
X94068373Y-135305700D01*
X94080469Y-135277586D01*
X94095007Y-135250005D01*
X94109689Y-135224966D01*
X94147686Y-135161867D01*
X93087803Y-135161867D01*
X92784966Y-135161867D01*
X92784999Y-135155617D01*
X92785805Y-135053544D01*
X92786830Y-134964633D01*
X92788100Y-134887941D01*
X92789640Y-134822527D01*
X92791476Y-134767449D01*
X92793633Y-134721765D01*
X92796137Y-134684534D01*
X92799013Y-134654813D01*
X92802287Y-134631662D01*
X92805985Y-134614139D01*
X92810131Y-134601301D01*
X92814753Y-134592208D01*
X92819874Y-134585918D01*
X92825522Y-134581488D01*
X92831721Y-134577978D01*
X92838496Y-134574445D01*
X92844492Y-134570876D01*
X92849725Y-134568300D01*
X92857901Y-134565972D01*
X92870114Y-134563878D01*
X92887459Y-134562007D01*
X92911031Y-134560347D01*
X92941923Y-134558884D01*
X92981232Y-134557608D01*
X93030050Y-134556504D01*
X93089473Y-134555561D01*
X93160596Y-134554767D01*
X93244512Y-134554109D01*
X93342317Y-134553575D01*
X93455106Y-134553153D01*
X93583971Y-134552829D01*
X93730009Y-134552592D01*
X93894314Y-134552430D01*
X94077980Y-134552330D01*
X94282103Y-134552280D01*
X94493247Y-134552267D01*
X96113600Y-134552267D01*
X96113600Y-134649054D01*
G37*
X96113600Y-134649054D02*
X96124465Y-134762993D01*
X96156082Y-134870616D01*
X96206985Y-134969615D01*
X96275707Y-135057684D01*
X96360781Y-135132516D01*
X96457768Y-135190384D01*
X96564036Y-135230005D01*
X96671050Y-135248573D01*
X96776700Y-135247434D01*
X96878875Y-135227930D01*
X96975466Y-135191406D01*
X97064362Y-135139205D01*
X97143454Y-135072673D01*
X97210631Y-134993152D01*
X97263783Y-134901987D01*
X97300801Y-134800523D01*
X97319573Y-134690102D01*
X97321511Y-134640206D01*
X97321511Y-134552267D01*
X97373440Y-134552267D01*
X97409747Y-134555111D01*
X97436645Y-134566911D01*
X97463751Y-134590649D01*
X97502133Y-134629031D01*
X97502133Y-136820602D01*
X97502124Y-137082739D01*
X97502092Y-137323241D01*
X97502028Y-137543048D01*
X97501924Y-137743101D01*
X97501773Y-137924344D01*
X97501566Y-138087716D01*
X97501294Y-138234160D01*
X97500950Y-138364617D01*
X97500526Y-138480029D01*
X97500013Y-138581338D01*
X97499403Y-138669484D01*
X97498688Y-138745410D01*
X97497860Y-138810057D01*
X97496911Y-138864367D01*
X97495833Y-138909280D01*
X97494617Y-138945740D01*
X97493255Y-138974687D01*
X97491739Y-138997063D01*
X97490062Y-139013809D01*
X97488214Y-139025868D01*
X97486187Y-139034180D01*
X97483975Y-139039687D01*
X97482892Y-139041537D01*
X97478729Y-139048549D01*
X97475195Y-139054996D01*
X97471365Y-139060900D01*
X97466318Y-139066286D01*
X97459129Y-139071178D01*
X97448877Y-139075598D01*
X97434636Y-139079572D01*
X97415486Y-139083121D01*
X97390501Y-139086270D01*
X97358760Y-139089042D01*
X97319338Y-139091461D01*
X97271314Y-139093551D01*
X97213763Y-139095335D01*
X97145763Y-139096837D01*
X97066390Y-139098080D01*
X96974721Y-139099089D01*
X96869834Y-139099885D01*
X96750804Y-139100494D01*
X96616710Y-139100939D01*
X96466627Y-139101243D01*
X96299633Y-139101430D01*
X96114804Y-139101524D01*
X95911217Y-139101548D01*
X95687950Y-139101525D01*
X95444078Y-139101480D01*
X95178679Y-139101437D01*
X95140296Y-139101432D01*
X94873318Y-139101389D01*
X94627998Y-139101318D01*
X94403417Y-139101213D01*
X94198655Y-139101066D01*
X94012794Y-139100869D01*
X93844912Y-139100616D01*
X93694092Y-139100300D01*
X93559413Y-139099913D01*
X93439956Y-139099447D01*
X93334801Y-139098897D01*
X93243029Y-139098253D01*
X93163721Y-139097511D01*
X93095957Y-139096661D01*
X93038818Y-139095697D01*
X92991383Y-139094611D01*
X92952734Y-139093397D01*
X92921951Y-139092047D01*
X92898115Y-139090555D01*
X92880306Y-139088911D01*
X92867605Y-139087111D01*
X92859092Y-139085145D01*
X92854734Y-139083477D01*
X92846272Y-139079906D01*
X92838503Y-139077270D01*
X92831398Y-139074634D01*
X92824927Y-139071062D01*
X92819061Y-139065621D01*
X92813771Y-139057375D01*
X92809026Y-139045390D01*
X92804798Y-139028731D01*
X92801057Y-139006463D01*
X92797773Y-138977652D01*
X92794917Y-138941363D01*
X92792460Y-138896661D01*
X92790371Y-138842611D01*
X92788622Y-138778279D01*
X92787183Y-138702730D01*
X92786024Y-138615030D01*
X92785117Y-138514243D01*
X92784431Y-138399434D01*
X92783937Y-138269670D01*
X92783605Y-138124015D01*
X92783407Y-137961535D01*
X92783313Y-137781295D01*
X92783292Y-137582360D01*
X92783315Y-137363796D01*
X92783354Y-137124668D01*
X92783378Y-136864040D01*
X92783378Y-136821889D01*
X92783364Y-136558992D01*
X92783339Y-136317732D01*
X92783329Y-136097165D01*
X92783358Y-135896352D01*
X92783452Y-135714349D01*
X92783638Y-135550216D01*
X92783941Y-135403011D01*
X92784386Y-135271792D01*
X92784966Y-135161867D01*
X93087803Y-135161867D01*
X93127593Y-135219711D01*
X93138764Y-135235479D01*
X93148834Y-135249441D01*
X93157862Y-135262784D01*
X93165903Y-135276693D01*
X93173014Y-135292356D01*
X93179253Y-135310958D01*
X93184675Y-135333686D01*
X93189338Y-135361727D01*
X93193299Y-135396267D01*
X93196615Y-135438492D01*
X93199341Y-135489589D01*
X93201536Y-135550744D01*
X93203255Y-135623144D01*
X93204556Y-135707975D01*
X93205495Y-135806422D01*
X93206130Y-135919674D01*
X93206516Y-136048916D01*
X93206712Y-136195334D01*
X93206773Y-136360116D01*
X93206757Y-136544447D01*
X93206720Y-136749513D01*
X93206711Y-136872133D01*
X93206735Y-137089082D01*
X93206769Y-137284642D01*
X93206757Y-137459999D01*
X93206642Y-137616341D01*
X93206370Y-137754857D01*
X93205882Y-137876734D01*
X93205124Y-137983160D01*
X93204038Y-138075322D01*
X93202569Y-138154409D01*
X93200660Y-138221608D01*
X93198256Y-138278107D01*
X93195299Y-138325093D01*
X93191734Y-138363755D01*
X93187505Y-138395280D01*
X93182554Y-138420855D01*
X93176827Y-138441670D01*
X93170267Y-138458911D01*
X93162817Y-138473765D01*
X93154421Y-138487422D01*
X93145024Y-138501069D01*
X93134568Y-138515893D01*
X93128477Y-138524783D01*
X93089704Y-138582400D01*
X93621268Y-138582400D01*
X93744517Y-138582365D01*
X93847013Y-138582215D01*
X93930580Y-138581878D01*
X93997044Y-138581286D01*
X94048229Y-138580367D01*
X94085959Y-138579051D01*
X94112060Y-138577269D01*
X94128356Y-138574951D01*
X94136672Y-138572026D01*
X94138832Y-138568424D01*
X94136661Y-138564075D01*
X94135465Y-138562645D01*
X94110315Y-138525573D01*
X94084417Y-138472772D01*
X94060808Y-138410770D01*
X94052539Y-138384357D01*
X94047922Y-138366416D01*
X94044021Y-138345355D01*
X94040752Y-138319089D01*
X94038034Y-138285532D01*
X94035785Y-138242599D01*
X94033923Y-138188204D01*
X94032364Y-138120262D01*
X94031028Y-138036688D01*
X94029831Y-137935395D01*
X94028692Y-137814300D01*
X94028315Y-137769600D01*
X94027298Y-137644449D01*
X94026540Y-137540082D01*
X94026097Y-137454707D01*
X94026030Y-137386533D01*
X94026395Y-137333765D01*
X94027252Y-137294614D01*
X94028659Y-137267285D01*
X94030675Y-137249986D01*
X94033357Y-137240926D01*
X94036764Y-137238312D01*
X94040956Y-137240351D01*
X94045429Y-137244667D01*
X94055784Y-137257602D01*
X94077842Y-137286676D01*
X94110043Y-137329759D01*
X94150826Y-137384718D01*
X94198630Y-137449423D01*
X94251895Y-137521742D01*
X94309060Y-137599544D01*
X94368563Y-137680698D01*
X94428845Y-137763072D01*
X94488345Y-137844536D01*
X94545502Y-137922957D01*
X94598755Y-137996204D01*
X94646543Y-138062147D01*
X94687307Y-138118654D01*
X94719484Y-138163593D01*
X94741515Y-138194834D01*
X94746083Y-138201466D01*
X94769004Y-138238369D01*
X94795812Y-138286359D01*
X94821211Y-138335897D01*
X94824432Y-138342577D01*
X94846110Y-138390772D01*
X94858696Y-138428334D01*
X94864426Y-138464160D01*
X94865544Y-138506200D01*
X94864910Y-138582400D01*
X96019349Y-138582400D01*
X95928185Y-138488669D01*
X95881388Y-138438775D01*
X95831101Y-138382295D01*
X95785056Y-138328026D01*
X95764631Y-138302673D01*
X95734193Y-138263128D01*
X95694138Y-138209916D01*
X95645639Y-138144667D01*
X95589865Y-138069011D01*
X95527989Y-137984577D01*
X95461181Y-137892994D01*
X95390613Y-137795892D01*
X95317455Y-137694901D01*
X95242879Y-137591650D01*
X95168056Y-137487768D01*
X95094157Y-137384885D01*
X95022354Y-137284631D01*
X94953816Y-137188636D01*
X94889716Y-137098527D01*
X94831225Y-137015936D01*
X94779514Y-136942492D01*
X94735753Y-136879824D01*
X94701115Y-136829561D01*
X94676770Y-136793334D01*
X94663889Y-136772771D01*
X94662131Y-136768668D01*
X94670090Y-136757342D01*
X94690885Y-136730162D01*
X94723153Y-136688829D01*
X94765530Y-136635044D01*
X94816653Y-136570506D01*
X94875159Y-136496918D01*
X94939686Y-136415978D01*
X95008869Y-136329388D01*
X95081347Y-136238848D01*
X95155754Y-136146060D01*
X95215483Y-136071702D01*
X96226489Y-136071702D01*
X96232398Y-136084659D01*
X96246728Y-136106908D01*
X96247775Y-136108391D01*
X96266562Y-136138544D01*
X96286209Y-136175375D01*
X96290108Y-136183511D01*
X96293644Y-136191940D01*
X96296770Y-136202059D01*
X96299514Y-136215260D01*
X96301908Y-136232938D01*
X96303981Y-136256484D01*
X96305765Y-136287293D01*
X96307288Y-136326757D01*
X96308581Y-136376269D01*
X96309674Y-136437223D01*
X96310597Y-136511011D01*
X96311381Y-136599028D01*
X96312055Y-136702665D01*
X96312650Y-136823316D01*
X96313195Y-136962374D01*
X96313721Y-137121232D01*
X96314255Y-137300089D01*
X96314794Y-137485207D01*
X96315228Y-137649145D01*
X96315491Y-137793303D01*
X96315516Y-137919079D01*
X96315235Y-138027871D01*
X96314581Y-138121077D01*
X96313486Y-138200097D01*
X96311882Y-138266328D01*
X96309703Y-138321170D01*
X96306881Y-138366021D01*
X96303349Y-138402278D01*
X96299039Y-138431341D01*
X96293883Y-138454609D01*
X96287815Y-138473479D01*
X96280767Y-138489351D01*
X96272671Y-138503622D01*
X96263460Y-138517691D01*
X96254960Y-138530158D01*
X96237824Y-138556452D01*
X96227678Y-138574037D01*
X96226489Y-138577257D01*
X96237396Y-138578334D01*
X96268589Y-138579335D01*
X96317777Y-138580235D01*
X96382667Y-138581010D01*
X96460970Y-138581637D01*
X96550393Y-138582091D01*
X96648644Y-138582349D01*
X96717555Y-138582400D01*
X96822548Y-138582180D01*
X96919390Y-138581548D01*
X97005893Y-138580549D01*
X97079868Y-138579227D01*
X97139126Y-138577626D01*
X97181480Y-138575791D01*
X97204740Y-138573765D01*
X97208622Y-138572493D01*
X97200924Y-138557591D01*
X97192926Y-138549560D01*
X97179754Y-138532434D01*
X97162515Y-138502183D01*
X97150593Y-138477622D01*
X97123955Y-138418711D01*
X97120880Y-137241845D01*
X97117805Y-136064978D01*
X96672147Y-136064978D01*
X96574330Y-136065142D01*
X96483936Y-136065611D01*
X96403370Y-136066347D01*
X96335038Y-136067316D01*
X96281344Y-136068480D01*
X96244695Y-136069803D01*
X96227496Y-136071249D01*
X96226489Y-136071702D01*
X95215483Y-136071702D01*
X95230730Y-136052722D01*
X95304910Y-135960537D01*
X95376931Y-135871204D01*
X95445431Y-135786424D01*
X95509045Y-135707898D01*
X95566412Y-135637326D01*
X95616167Y-135576409D01*
X95656948Y-135526847D01*
X95674112Y-135506178D01*
X95760404Y-135405516D01*
X95837003Y-135322259D01*
X95905817Y-135254438D01*
X95968752Y-135200089D01*
X95978133Y-135192722D01*
X96017644Y-135162117D01*
X94885884Y-135161867D01*
X94891173Y-135209844D01*
X94887870Y-135267188D01*
X94866339Y-135335463D01*
X94826365Y-135415212D01*
X94781057Y-135487495D01*
X94764839Y-135510140D01*
X94736786Y-135547696D01*
X94698570Y-135598021D01*
X94651863Y-135658973D01*
X94598339Y-135728411D01*
X94539669Y-135804194D01*
X94477525Y-135884180D01*
X94413579Y-135966228D01*
X94349505Y-136048196D01*
X94286973Y-136127943D01*
X94227657Y-136203327D01*
X94173229Y-136272207D01*
X94125361Y-136332442D01*
X94085725Y-136381889D01*
X94055994Y-136418408D01*
X94037839Y-136439858D01*
X94034780Y-136443156D01*
X94031921Y-136435149D01*
X94029707Y-136404855D01*
X94028143Y-136352556D01*
X94027233Y-136278531D01*
X94026980Y-136183063D01*
X94027387Y-136066434D01*
X94028296Y-135946445D01*
X94029618Y-135814333D01*
X94031143Y-135702594D01*
X94033119Y-135609025D01*
X94035794Y-135531419D01*
X94039418Y-135467574D01*
X94044239Y-135415283D01*
X94050506Y-135372344D01*
X94058468Y-135336551D01*
X94068373Y-135305700D01*
X94080469Y-135277586D01*
X94095007Y-135250005D01*
X94109689Y-135224966D01*
X94147686Y-135161867D01*
X93087803Y-135161867D01*
X92784966Y-135161867D01*
X92784999Y-135155617D01*
X92785805Y-135053544D01*
X92786830Y-134964633D01*
X92788100Y-134887941D01*
X92789640Y-134822527D01*
X92791476Y-134767449D01*
X92793633Y-134721765D01*
X92796137Y-134684534D01*
X92799013Y-134654813D01*
X92802287Y-134631662D01*
X92805985Y-134614139D01*
X92810131Y-134601301D01*
X92814753Y-134592208D01*
X92819874Y-134585918D01*
X92825522Y-134581488D01*
X92831721Y-134577978D01*
X92838496Y-134574445D01*
X92844492Y-134570876D01*
X92849725Y-134568300D01*
X92857901Y-134565972D01*
X92870114Y-134563878D01*
X92887459Y-134562007D01*
X92911031Y-134560347D01*
X92941923Y-134558884D01*
X92981232Y-134557608D01*
X93030050Y-134556504D01*
X93089473Y-134555561D01*
X93160596Y-134554767D01*
X93244512Y-134554109D01*
X93342317Y-134553575D01*
X93455106Y-134553153D01*
X93583971Y-134552829D01*
X93730009Y-134552592D01*
X93894314Y-134552430D01*
X94077980Y-134552330D01*
X94282103Y-134552280D01*
X94493247Y-134552267D01*
X96113600Y-134552267D01*
X96113600Y-134649054D01*
G36*
X99388429Y-135109071D02*
G01*
X99548570Y-135130245D01*
X99712510Y-135170385D01*
X99882313Y-135229889D01*
X100060043Y-135309154D01*
X100071310Y-135314699D01*
X100129005Y-135342725D01*
X100180552Y-135366802D01*
X100222191Y-135385249D01*
X100250162Y-135396386D01*
X100259733Y-135398933D01*
X100278950Y-135403941D01*
X100283561Y-135408147D01*
X100278458Y-135418580D01*
X100262418Y-135444868D01*
X100237288Y-135484257D01*
X100204914Y-135533991D01*
X100167143Y-135591315D01*
X100125822Y-135653476D01*
X100082798Y-135717718D01*
X100039917Y-135781285D01*
X99999026Y-135841425D01*
X99961971Y-135895380D01*
X99930600Y-135940397D01*
X99906759Y-135973721D01*
X99892294Y-135992597D01*
X99890309Y-135994787D01*
X99880191Y-135990138D01*
X99857850Y-135972962D01*
X99827280Y-135946440D01*
X99811536Y-135931964D01*
X99715047Y-135856682D01*
X99608336Y-135801241D01*
X99492832Y-135766141D01*
X99369962Y-135751880D01*
X99300561Y-135753051D01*
X99179423Y-135770212D01*
X99070205Y-135806094D01*
X98972582Y-135860959D01*
X98886228Y-135935070D01*
X98810815Y-136028688D01*
X98746018Y-136142076D01*
X98708601Y-136228667D01*
X98664748Y-136364366D01*
X98632428Y-136511850D01*
X98611557Y-136667314D01*
X98602051Y-136826956D01*
X98603827Y-136986973D01*
X98616803Y-137143561D01*
X98640894Y-137292918D01*
X98676018Y-137431240D01*
X98722092Y-137554724D01*
X98738373Y-137588978D01*
X98806620Y-137703064D01*
X98887079Y-137799557D01*
X98978570Y-137877670D01*
X99079911Y-137936617D01*
X99189920Y-137975612D01*
X99307415Y-137993868D01*
X99348883Y-137995211D01*
X99470441Y-137984290D01*
X99590878Y-137951474D01*
X99708666Y-137897439D01*
X99822277Y-137822865D01*
X99913685Y-137744539D01*
X99960215Y-137700008D01*
X100141483Y-137997271D01*
X100186580Y-138071433D01*
X100227819Y-138139646D01*
X100263735Y-138199459D01*
X100292866Y-138248420D01*
X100313750Y-138284079D01*
X100324924Y-138303984D01*
X100326375Y-138307079D01*
X100318146Y-138316718D01*
X100292567Y-138333999D01*
X100252873Y-138357283D01*
X100202297Y-138384934D01*
X100144074Y-138415315D01*
X100081437Y-138446790D01*
X100017621Y-138477722D01*
X99955860Y-138506473D01*
X99899388Y-138531408D01*
X99851438Y-138550889D01*
X99827986Y-138559318D01*
X99694221Y-138597133D01*
X99556327Y-138622136D01*
X99408622Y-138635140D01*
X99281833Y-138637468D01*
X99213878Y-138636373D01*
X99148277Y-138634275D01*
X99090847Y-138631434D01*
X99047403Y-138628106D01*
X99033298Y-138626422D01*
X98894284Y-138597587D01*
X98752757Y-138552468D01*
X98615275Y-138493750D01*
X98488394Y-138424120D01*
X98410889Y-138371441D01*
X98283481Y-138263239D01*
X98165178Y-138136671D01*
X98058172Y-137994866D01*
X97964652Y-137840951D01*
X97886810Y-137678053D01*
X97842956Y-137560756D01*
X97792708Y-137377128D01*
X97759209Y-137182581D01*
X97742449Y-136981325D01*
X97742416Y-136777568D01*
X97759101Y-136575521D01*
X97792493Y-136379392D01*
X97842580Y-136193391D01*
X97846397Y-136181803D01*
X97909281Y-136019750D01*
X97986028Y-135871832D01*
X98079242Y-135733865D01*
X98191527Y-135601661D01*
X98235392Y-135556399D01*
X98371534Y-135432457D01*
X98511491Y-135329915D01*
X98657411Y-135247656D01*
X98811442Y-135184564D01*
X98975732Y-135139523D01*
X99071289Y-135122033D01*
X99230023Y-135106466D01*
X99388429Y-135109071D01*
G37*
X99388429Y-135109071D02*
X99548570Y-135130245D01*
X99712510Y-135170385D01*
X99882313Y-135229889D01*
X100060043Y-135309154D01*
X100071310Y-135314699D01*
X100129005Y-135342725D01*
X100180552Y-135366802D01*
X100222191Y-135385249D01*
X100250162Y-135396386D01*
X100259733Y-135398933D01*
X100278950Y-135403941D01*
X100283561Y-135408147D01*
X100278458Y-135418580D01*
X100262418Y-135444868D01*
X100237288Y-135484257D01*
X100204914Y-135533991D01*
X100167143Y-135591315D01*
X100125822Y-135653476D01*
X100082798Y-135717718D01*
X100039917Y-135781285D01*
X99999026Y-135841425D01*
X99961971Y-135895380D01*
X99930600Y-135940397D01*
X99906759Y-135973721D01*
X99892294Y-135992597D01*
X99890309Y-135994787D01*
X99880191Y-135990138D01*
X99857850Y-135972962D01*
X99827280Y-135946440D01*
X99811536Y-135931964D01*
X99715047Y-135856682D01*
X99608336Y-135801241D01*
X99492832Y-135766141D01*
X99369962Y-135751880D01*
X99300561Y-135753051D01*
X99179423Y-135770212D01*
X99070205Y-135806094D01*
X98972582Y-135860959D01*
X98886228Y-135935070D01*
X98810815Y-136028688D01*
X98746018Y-136142076D01*
X98708601Y-136228667D01*
X98664748Y-136364366D01*
X98632428Y-136511850D01*
X98611557Y-136667314D01*
X98602051Y-136826956D01*
X98603827Y-136986973D01*
X98616803Y-137143561D01*
X98640894Y-137292918D01*
X98676018Y-137431240D01*
X98722092Y-137554724D01*
X98738373Y-137588978D01*
X98806620Y-137703064D01*
X98887079Y-137799557D01*
X98978570Y-137877670D01*
X99079911Y-137936617D01*
X99189920Y-137975612D01*
X99307415Y-137993868D01*
X99348883Y-137995211D01*
X99470441Y-137984290D01*
X99590878Y-137951474D01*
X99708666Y-137897439D01*
X99822277Y-137822865D01*
X99913685Y-137744539D01*
X99960215Y-137700008D01*
X100141483Y-137997271D01*
X100186580Y-138071433D01*
X100227819Y-138139646D01*
X100263735Y-138199459D01*
X100292866Y-138248420D01*
X100313750Y-138284079D01*
X100324924Y-138303984D01*
X100326375Y-138307079D01*
X100318146Y-138316718D01*
X100292567Y-138333999D01*
X100252873Y-138357283D01*
X100202297Y-138384934D01*
X100144074Y-138415315D01*
X100081437Y-138446790D01*
X100017621Y-138477722D01*
X99955860Y-138506473D01*
X99899388Y-138531408D01*
X99851438Y-138550889D01*
X99827986Y-138559318D01*
X99694221Y-138597133D01*
X99556327Y-138622136D01*
X99408622Y-138635140D01*
X99281833Y-138637468D01*
X99213878Y-138636373D01*
X99148277Y-138634275D01*
X99090847Y-138631434D01*
X99047403Y-138628106D01*
X99033298Y-138626422D01*
X98894284Y-138597587D01*
X98752757Y-138552468D01*
X98615275Y-138493750D01*
X98488394Y-138424120D01*
X98410889Y-138371441D01*
X98283481Y-138263239D01*
X98165178Y-138136671D01*
X98058172Y-137994866D01*
X97964652Y-137840951D01*
X97886810Y-137678053D01*
X97842956Y-137560756D01*
X97792708Y-137377128D01*
X97759209Y-137182581D01*
X97742449Y-136981325D01*
X97742416Y-136777568D01*
X97759101Y-136575521D01*
X97792493Y-136379392D01*
X97842580Y-136193391D01*
X97846397Y-136181803D01*
X97909281Y-136019750D01*
X97986028Y-135871832D01*
X98079242Y-135733865D01*
X98191527Y-135601661D01*
X98235392Y-135556399D01*
X98371534Y-135432457D01*
X98511491Y-135329915D01*
X98657411Y-135247656D01*
X98811442Y-135184564D01*
X98975732Y-135139523D01*
X99071289Y-135122033D01*
X99230023Y-135106466D01*
X99388429Y-135109071D01*
G36*
X101733574Y-136026552D02*
G01*
X101885492Y-136046567D01*
X102020756Y-136080202D01*
X102140239Y-136127725D01*
X102244815Y-136189405D01*
X102322424Y-136252965D01*
X102391265Y-136327099D01*
X102445006Y-136406871D01*
X102487910Y-136499091D01*
X102503384Y-136542161D01*
X102516244Y-136581142D01*
X102527446Y-136617289D01*
X102537120Y-136652434D01*
X102545396Y-136688410D01*
X102552403Y-136727050D01*
X102558272Y-136770185D01*
X102563131Y-136819649D01*
X102567110Y-136877273D01*
X102570340Y-136944891D01*
X102572949Y-137024334D01*
X102575067Y-137117436D01*
X102576824Y-137226027D01*
X102578349Y-137351942D01*
X102579772Y-137497012D01*
X102581025Y-137639778D01*
X102582351Y-137795968D01*
X102583556Y-137931239D01*
X102584766Y-138047246D01*
X102586106Y-138145645D01*
X102587700Y-138228093D01*
X102589675Y-138296246D01*
X102592156Y-138351760D01*
X102595269Y-138396292D01*
X102599138Y-138431498D01*
X102603889Y-138459034D01*
X102609648Y-138480556D01*
X102616539Y-138497722D01*
X102624689Y-138512186D01*
X102634223Y-138525606D01*
X102645266Y-138539638D01*
X102649566Y-138545071D01*
X102665386Y-138567910D01*
X102672422Y-138583463D01*
X102672444Y-138583922D01*
X102661567Y-138586121D01*
X102630582Y-138588147D01*
X102581957Y-138589942D01*
X102518163Y-138591451D01*
X102441669Y-138592616D01*
X102354944Y-138593380D01*
X102260457Y-138593686D01*
X102249550Y-138593689D01*
X101826657Y-138593689D01*
X101823395Y-138497622D01*
X101820133Y-138401556D01*
X101758044Y-138452543D01*
X101660714Y-138520057D01*
X101550813Y-138574749D01*
X101464349Y-138604978D01*
X101395278Y-138619666D01*
X101311925Y-138629659D01*
X101222159Y-138634646D01*
X101133845Y-138634313D01*
X101054851Y-138628351D01*
X101018622Y-138622638D01*
X100878603Y-138584776D01*
X100752178Y-138529932D01*
X100640260Y-138458924D01*
X100543762Y-138372568D01*
X100463600Y-138271679D01*
X100400687Y-138157076D01*
X100356312Y-138030984D01*
X100343978Y-137974401D01*
X100336368Y-137912202D01*
X100332739Y-137837363D01*
X100332245Y-137803467D01*
X100332310Y-137800282D01*
X101092248Y-137800282D01*
X101101541Y-137875333D01*
X101129728Y-137939160D01*
X101178197Y-137994798D01*
X101183254Y-137999211D01*
X101231548Y-138034037D01*
X101283257Y-138056620D01*
X101343989Y-138068540D01*
X101419352Y-138071383D01*
X101437459Y-138070978D01*
X101491278Y-138068325D01*
X101531308Y-138062909D01*
X101566324Y-138052745D01*
X101605103Y-138035850D01*
X101615745Y-138030672D01*
X101676396Y-137994844D01*
X101723215Y-137952212D01*
X101735952Y-137936973D01*
X101780622Y-137880462D01*
X101780622Y-137684586D01*
X101780086Y-137605939D01*
X101778396Y-137547988D01*
X101775428Y-137508875D01*
X101771057Y-137486741D01*
X101766972Y-137480274D01*
X101751047Y-137477111D01*
X101717264Y-137474488D01*
X101670340Y-137472655D01*
X101614993Y-137471857D01*
X101606106Y-137471842D01*
X101485330Y-137477096D01*
X101382660Y-137493263D01*
X101296106Y-137520961D01*
X101223681Y-137560808D01*
X101168751Y-137607758D01*
X101124204Y-137665645D01*
X101099480Y-137728693D01*
X101092248Y-137800282D01*
X100332310Y-137800282D01*
X100334178Y-137709712D01*
X100342522Y-137630812D01*
X100358768Y-137559590D01*
X100384405Y-137488864D01*
X100408401Y-137436493D01*
X100467020Y-137341196D01*
X100545117Y-137253170D01*
X100640315Y-137174017D01*
X100750238Y-137105340D01*
X100872510Y-137048741D01*
X101004755Y-137005821D01*
X101069422Y-136990882D01*
X101205604Y-136968777D01*
X101354049Y-136954194D01*
X101505505Y-136947813D01*
X101632064Y-136949445D01*
X101793950Y-136956224D01*
X101786530Y-136897245D01*
X101767238Y-136798092D01*
X101736104Y-136717372D01*
X101692269Y-136654466D01*
X101634871Y-136608756D01*
X101563048Y-136579622D01*
X101475941Y-136566447D01*
X101372686Y-136568611D01*
X101334711Y-136572612D01*
X101193520Y-136597780D01*
X101056707Y-136638814D01*
X100962178Y-136676815D01*
X100917018Y-136696190D01*
X100878585Y-136711760D01*
X100852234Y-136721405D01*
X100844546Y-136723452D01*
X100834802Y-136714374D01*
X100818083Y-136685405D01*
X100794232Y-136636217D01*
X100763093Y-136566484D01*
X100724507Y-136475879D01*
X100717910Y-136460089D01*
X100687853Y-136387772D01*
X100660874Y-136322425D01*
X100638136Y-136266906D01*
X100620806Y-136224072D01*
X100610048Y-136196781D01*
X100606941Y-136187942D01*
X100616940Y-136183187D01*
X100643217Y-136177910D01*
X100671489Y-136174231D01*
X100701646Y-136169474D01*
X100749433Y-136160028D01*
X100810612Y-136146820D01*
X100880946Y-136130776D01*
X100956194Y-136112820D01*
X100984755Y-136105797D01*
X101089816Y-136080209D01*
X101177480Y-136060147D01*
X101252068Y-136044969D01*
X101317903Y-136034035D01*
X101379307Y-136026704D01*
X101440602Y-136022335D01*
X101506110Y-136020287D01*
X101564128Y-136019889D01*
X101733574Y-136026552D01*
G37*
X101733574Y-136026552D02*
X101885492Y-136046567D01*
X102020756Y-136080202D01*
X102140239Y-136127725D01*
X102244815Y-136189405D01*
X102322424Y-136252965D01*
X102391265Y-136327099D01*
X102445006Y-136406871D01*
X102487910Y-136499091D01*
X102503384Y-136542161D01*
X102516244Y-136581142D01*
X102527446Y-136617289D01*
X102537120Y-136652434D01*
X102545396Y-136688410D01*
X102552403Y-136727050D01*
X102558272Y-136770185D01*
X102563131Y-136819649D01*
X102567110Y-136877273D01*
X102570340Y-136944891D01*
X102572949Y-137024334D01*
X102575067Y-137117436D01*
X102576824Y-137226027D01*
X102578349Y-137351942D01*
X102579772Y-137497012D01*
X102581025Y-137639778D01*
X102582351Y-137795968D01*
X102583556Y-137931239D01*
X102584766Y-138047246D01*
X102586106Y-138145645D01*
X102587700Y-138228093D01*
X102589675Y-138296246D01*
X102592156Y-138351760D01*
X102595269Y-138396292D01*
X102599138Y-138431498D01*
X102603889Y-138459034D01*
X102609648Y-138480556D01*
X102616539Y-138497722D01*
X102624689Y-138512186D01*
X102634223Y-138525606D01*
X102645266Y-138539638D01*
X102649566Y-138545071D01*
X102665386Y-138567910D01*
X102672422Y-138583463D01*
X102672444Y-138583922D01*
X102661567Y-138586121D01*
X102630582Y-138588147D01*
X102581957Y-138589942D01*
X102518163Y-138591451D01*
X102441669Y-138592616D01*
X102354944Y-138593380D01*
X102260457Y-138593686D01*
X102249550Y-138593689D01*
X101826657Y-138593689D01*
X101823395Y-138497622D01*
X101820133Y-138401556D01*
X101758044Y-138452543D01*
X101660714Y-138520057D01*
X101550813Y-138574749D01*
X101464349Y-138604978D01*
X101395278Y-138619666D01*
X101311925Y-138629659D01*
X101222159Y-138634646D01*
X101133845Y-138634313D01*
X101054851Y-138628351D01*
X101018622Y-138622638D01*
X100878603Y-138584776D01*
X100752178Y-138529932D01*
X100640260Y-138458924D01*
X100543762Y-138372568D01*
X100463600Y-138271679D01*
X100400687Y-138157076D01*
X100356312Y-138030984D01*
X100343978Y-137974401D01*
X100336368Y-137912202D01*
X100332739Y-137837363D01*
X100332245Y-137803467D01*
X100332310Y-137800282D01*
X101092248Y-137800282D01*
X101101541Y-137875333D01*
X101129728Y-137939160D01*
X101178197Y-137994798D01*
X101183254Y-137999211D01*
X101231548Y-138034037D01*
X101283257Y-138056620D01*
X101343989Y-138068540D01*
X101419352Y-138071383D01*
X101437459Y-138070978D01*
X101491278Y-138068325D01*
X101531308Y-138062909D01*
X101566324Y-138052745D01*
X101605103Y-138035850D01*
X101615745Y-138030672D01*
X101676396Y-137994844D01*
X101723215Y-137952212D01*
X101735952Y-137936973D01*
X101780622Y-137880462D01*
X101780622Y-137684586D01*
X101780086Y-137605939D01*
X101778396Y-137547988D01*
X101775428Y-137508875D01*
X101771057Y-137486741D01*
X101766972Y-137480274D01*
X101751047Y-137477111D01*
X101717264Y-137474488D01*
X101670340Y-137472655D01*
X101614993Y-137471857D01*
X101606106Y-137471842D01*
X101485330Y-137477096D01*
X101382660Y-137493263D01*
X101296106Y-137520961D01*
X101223681Y-137560808D01*
X101168751Y-137607758D01*
X101124204Y-137665645D01*
X101099480Y-137728693D01*
X101092248Y-137800282D01*
X100332310Y-137800282D01*
X100334178Y-137709712D01*
X100342522Y-137630812D01*
X100358768Y-137559590D01*
X100384405Y-137488864D01*
X100408401Y-137436493D01*
X100467020Y-137341196D01*
X100545117Y-137253170D01*
X100640315Y-137174017D01*
X100750238Y-137105340D01*
X100872510Y-137048741D01*
X101004755Y-137005821D01*
X101069422Y-136990882D01*
X101205604Y-136968777D01*
X101354049Y-136954194D01*
X101505505Y-136947813D01*
X101632064Y-136949445D01*
X101793950Y-136956224D01*
X101786530Y-136897245D01*
X101767238Y-136798092D01*
X101736104Y-136717372D01*
X101692269Y-136654466D01*
X101634871Y-136608756D01*
X101563048Y-136579622D01*
X101475941Y-136566447D01*
X101372686Y-136568611D01*
X101334711Y-136572612D01*
X101193520Y-136597780D01*
X101056707Y-136638814D01*
X100962178Y-136676815D01*
X100917018Y-136696190D01*
X100878585Y-136711760D01*
X100852234Y-136721405D01*
X100844546Y-136723452D01*
X100834802Y-136714374D01*
X100818083Y-136685405D01*
X100794232Y-136636217D01*
X100763093Y-136566484D01*
X100724507Y-136475879D01*
X100717910Y-136460089D01*
X100687853Y-136387772D01*
X100660874Y-136322425D01*
X100638136Y-136266906D01*
X100620806Y-136224072D01*
X100610048Y-136196781D01*
X100606941Y-136187942D01*
X100616940Y-136183187D01*
X100643217Y-136177910D01*
X100671489Y-136174231D01*
X100701646Y-136169474D01*
X100749433Y-136160028D01*
X100810612Y-136146820D01*
X100880946Y-136130776D01*
X100956194Y-136112820D01*
X100984755Y-136105797D01*
X101089816Y-136080209D01*
X101177480Y-136060147D01*
X101252068Y-136044969D01*
X101317903Y-136034035D01*
X101379307Y-136026704D01*
X101440602Y-136022335D01*
X101506110Y-136020287D01*
X101564128Y-136019889D01*
X101733574Y-136026552D01*
G36*
X105246507Y-136632245D02*
G01*
X105246526Y-136866662D01*
X105246552Y-137079603D01*
X105246625Y-137272168D01*
X105246782Y-137445459D01*
X105247064Y-137600576D01*
X105247509Y-137738620D01*
X105248156Y-137860692D01*
X105249045Y-137967894D01*
X105250213Y-138061326D01*
X105251701Y-138142090D01*
X105253546Y-138211286D01*
X105255789Y-138270015D01*
X105258469Y-138319379D01*
X105261623Y-138360478D01*
X105265292Y-138394413D01*
X105269513Y-138422286D01*
X105274327Y-138445198D01*
X105279773Y-138464249D01*
X105285888Y-138480540D01*
X105292712Y-138495173D01*
X105300285Y-138509249D01*
X105308645Y-138523868D01*
X105313839Y-138532974D01*
X105348104Y-138593689D01*
X104489955Y-138593689D01*
X104489955Y-138497733D01*
X104489224Y-138454370D01*
X104487272Y-138421205D01*
X104484463Y-138403424D01*
X104483221Y-138401778D01*
X104471799Y-138408662D01*
X104449084Y-138426505D01*
X104426385Y-138445879D01*
X104371800Y-138486614D01*
X104302321Y-138527617D01*
X104225270Y-138565123D01*
X104147965Y-138595364D01*
X104117113Y-138605012D01*
X104048616Y-138619578D01*
X103965764Y-138629539D01*
X103876371Y-138634583D01*
X103788248Y-138634396D01*
X103709207Y-138628666D01*
X103671511Y-138622858D01*
X103533414Y-138584797D01*
X103406113Y-138527073D01*
X103290292Y-138450211D01*
X103186637Y-138354739D01*
X103095833Y-138241179D01*
X103029031Y-138130381D01*
X102974164Y-138013625D01*
X102932163Y-137894276D01*
X102902167Y-137768283D01*
X102883311Y-137631594D01*
X102874732Y-137480158D01*
X102874006Y-137402711D01*
X102876100Y-137345934D01*
X103705217Y-137345934D01*
X103705424Y-137439002D01*
X103708337Y-137526692D01*
X103714000Y-137603772D01*
X103722455Y-137665009D01*
X103725038Y-137677350D01*
X103756840Y-137784633D01*
X103798498Y-137871658D01*
X103850363Y-137938642D01*
X103912781Y-137985805D01*
X103986100Y-138013365D01*
X104070669Y-138021541D01*
X104166835Y-138010551D01*
X104230311Y-137994829D01*
X104279454Y-137976639D01*
X104333583Y-137950791D01*
X104374244Y-137927089D01*
X104444800Y-137880721D01*
X104444800Y-136730530D01*
X104377392Y-136686962D01*
X104298867Y-136646040D01*
X104214681Y-136619389D01*
X104129557Y-136607465D01*
X104048216Y-136610722D01*
X103975380Y-136629615D01*
X103943426Y-136645184D01*
X103885501Y-136688181D01*
X103836544Y-136744953D01*
X103795390Y-136817575D01*
X103760874Y-136908121D01*
X103731833Y-137018666D01*
X103730552Y-137024533D01*
X103720381Y-137086788D01*
X103712739Y-137164594D01*
X103707670Y-137252720D01*
X103705217Y-137345934D01*
X102876100Y-137345934D01*
X102881857Y-137189895D01*
X102903802Y-136994059D01*
X102939786Y-136815332D01*
X102989759Y-136653845D01*
X103053668Y-136509726D01*
X103131462Y-136383106D01*
X103223089Y-136274115D01*
X103328497Y-136182883D01*
X103373662Y-136151932D01*
X103474611Y-136095785D01*
X103577901Y-136056174D01*
X103687989Y-136032014D01*
X103809330Y-136022219D01*
X103901836Y-136023265D01*
X104031490Y-136034231D01*
X104144084Y-136056046D01*
X104242875Y-136089714D01*
X104331121Y-136136236D01*
X104379986Y-136170448D01*
X104409353Y-136192362D01*
X104431043Y-136207333D01*
X104439253Y-136211733D01*
X104440868Y-136200904D01*
X104442159Y-136170251D01*
X104443138Y-136122526D01*
X104443817Y-136060479D01*
X104444210Y-135986862D01*
X104444330Y-135904427D01*
X104444188Y-135815925D01*
X104443797Y-135724107D01*
X104443171Y-135631724D01*
X104442320Y-135541528D01*
X104441260Y-135456271D01*
X104440001Y-135378703D01*
X104438556Y-135311576D01*
X104436938Y-135257641D01*
X104435161Y-135219650D01*
X104434669Y-135212667D01*
X104427092Y-135142251D01*
X104415531Y-135087102D01*
X104397792Y-135039981D01*
X104371682Y-134993647D01*
X104365415Y-134984067D01*
X104340983Y-134947378D01*
X105246311Y-134947378D01*
X105246507Y-136632245D01*
G37*
X105246507Y-136632245D02*
X105246526Y-136866662D01*
X105246552Y-137079603D01*
X105246625Y-137272168D01*
X105246782Y-137445459D01*
X105247064Y-137600576D01*
X105247509Y-137738620D01*
X105248156Y-137860692D01*
X105249045Y-137967894D01*
X105250213Y-138061326D01*
X105251701Y-138142090D01*
X105253546Y-138211286D01*
X105255789Y-138270015D01*
X105258469Y-138319379D01*
X105261623Y-138360478D01*
X105265292Y-138394413D01*
X105269513Y-138422286D01*
X105274327Y-138445198D01*
X105279773Y-138464249D01*
X105285888Y-138480540D01*
X105292712Y-138495173D01*
X105300285Y-138509249D01*
X105308645Y-138523868D01*
X105313839Y-138532974D01*
X105348104Y-138593689D01*
X104489955Y-138593689D01*
X104489955Y-138497733D01*
X104489224Y-138454370D01*
X104487272Y-138421205D01*
X104484463Y-138403424D01*
X104483221Y-138401778D01*
X104471799Y-138408662D01*
X104449084Y-138426505D01*
X104426385Y-138445879D01*
X104371800Y-138486614D01*
X104302321Y-138527617D01*
X104225270Y-138565123D01*
X104147965Y-138595364D01*
X104117113Y-138605012D01*
X104048616Y-138619578D01*
X103965764Y-138629539D01*
X103876371Y-138634583D01*
X103788248Y-138634396D01*
X103709207Y-138628666D01*
X103671511Y-138622858D01*
X103533414Y-138584797D01*
X103406113Y-138527073D01*
X103290292Y-138450211D01*
X103186637Y-138354739D01*
X103095833Y-138241179D01*
X103029031Y-138130381D01*
X102974164Y-138013625D01*
X102932163Y-137894276D01*
X102902167Y-137768283D01*
X102883311Y-137631594D01*
X102874732Y-137480158D01*
X102874006Y-137402711D01*
X102876100Y-137345934D01*
X103705217Y-137345934D01*
X103705424Y-137439002D01*
X103708337Y-137526692D01*
X103714000Y-137603772D01*
X103722455Y-137665009D01*
X103725038Y-137677350D01*
X103756840Y-137784633D01*
X103798498Y-137871658D01*
X103850363Y-137938642D01*
X103912781Y-137985805D01*
X103986100Y-138013365D01*
X104070669Y-138021541D01*
X104166835Y-138010551D01*
X104230311Y-137994829D01*
X104279454Y-137976639D01*
X104333583Y-137950791D01*
X104374244Y-137927089D01*
X104444800Y-137880721D01*
X104444800Y-136730530D01*
X104377392Y-136686962D01*
X104298867Y-136646040D01*
X104214681Y-136619389D01*
X104129557Y-136607465D01*
X104048216Y-136610722D01*
X103975380Y-136629615D01*
X103943426Y-136645184D01*
X103885501Y-136688181D01*
X103836544Y-136744953D01*
X103795390Y-136817575D01*
X103760874Y-136908121D01*
X103731833Y-137018666D01*
X103730552Y-137024533D01*
X103720381Y-137086788D01*
X103712739Y-137164594D01*
X103707670Y-137252720D01*
X103705217Y-137345934D01*
X102876100Y-137345934D01*
X102881857Y-137189895D01*
X102903802Y-136994059D01*
X102939786Y-136815332D01*
X102989759Y-136653845D01*
X103053668Y-136509726D01*
X103131462Y-136383106D01*
X103223089Y-136274115D01*
X103328497Y-136182883D01*
X103373662Y-136151932D01*
X103474611Y-136095785D01*
X103577901Y-136056174D01*
X103687989Y-136032014D01*
X103809330Y-136022219D01*
X103901836Y-136023265D01*
X104031490Y-136034231D01*
X104144084Y-136056046D01*
X104242875Y-136089714D01*
X104331121Y-136136236D01*
X104379986Y-136170448D01*
X104409353Y-136192362D01*
X104431043Y-136207333D01*
X104439253Y-136211733D01*
X104440868Y-136200904D01*
X104442159Y-136170251D01*
X104443138Y-136122526D01*
X104443817Y-136060479D01*
X104444210Y-135986862D01*
X104444330Y-135904427D01*
X104444188Y-135815925D01*
X104443797Y-135724107D01*
X104443171Y-135631724D01*
X104442320Y-135541528D01*
X104441260Y-135456271D01*
X104440001Y-135378703D01*
X104438556Y-135311576D01*
X104436938Y-135257641D01*
X104435161Y-135219650D01*
X104434669Y-135212667D01*
X104427092Y-135142251D01*
X104415531Y-135087102D01*
X104397792Y-135039981D01*
X104371682Y-134993647D01*
X104365415Y-134984067D01*
X104340983Y-134947378D01*
X105246311Y-134947378D01*
X105246507Y-136632245D01*
G36*
X96786957Y-134186571D02*
G01*
X96883232Y-134210809D01*
X96969816Y-134253641D01*
X97044627Y-134313419D01*
X97105582Y-134388494D01*
X97150601Y-134477220D01*
X97176864Y-134573530D01*
X97182714Y-134670795D01*
X97167860Y-134764654D01*
X97134160Y-134852511D01*
X97083472Y-134931770D01*
X97017655Y-134999836D01*
X96938566Y-135054112D01*
X96848066Y-135092002D01*
X96796800Y-135104426D01*
X96752302Y-135111947D01*
X96718001Y-135114919D01*
X96685040Y-135113094D01*
X96644566Y-135106225D01*
X96611469Y-135099250D01*
X96518053Y-135067741D01*
X96434381Y-135016617D01*
X96362335Y-134947429D01*
X96303800Y-134861728D01*
X96289852Y-134834489D01*
X96273414Y-134798122D01*
X96263106Y-134767582D01*
X96257540Y-134735450D01*
X96255331Y-134694307D01*
X96255052Y-134648222D01*
X96259139Y-134563865D01*
X96272554Y-134494586D01*
X96297744Y-134433961D01*
X96337154Y-134375567D01*
X96375702Y-134331302D01*
X96447594Y-134265484D01*
X96522687Y-134220053D01*
X96605438Y-134192850D01*
X96683072Y-134182576D01*
X96786957Y-134186571D01*
G37*
X96786957Y-134186571D02*
X96883232Y-134210809D01*
X96969816Y-134253641D01*
X97044627Y-134313419D01*
X97105582Y-134388494D01*
X97150601Y-134477220D01*
X97176864Y-134573530D01*
X97182714Y-134670795D01*
X97167860Y-134764654D01*
X97134160Y-134852511D01*
X97083472Y-134931770D01*
X97017655Y-134999836D01*
X96938566Y-135054112D01*
X96848066Y-135092002D01*
X96796800Y-135104426D01*
X96752302Y-135111947D01*
X96718001Y-135114919D01*
X96685040Y-135113094D01*
X96644566Y-135106225D01*
X96611469Y-135099250D01*
X96518053Y-135067741D01*
X96434381Y-135016617D01*
X96362335Y-134947429D01*
X96303800Y-134861728D01*
X96289852Y-134834489D01*
X96273414Y-134798122D01*
X96263106Y-134767582D01*
X96257540Y-134735450D01*
X96255331Y-134694307D01*
X96255052Y-134648222D01*
X96259139Y-134563865D01*
X96272554Y-134494586D01*
X96297744Y-134433961D01*
X96337154Y-134375567D01*
X96375702Y-134331302D01*
X96447594Y-134265484D01*
X96522687Y-134220053D01*
X96605438Y-134192850D01*
X96683072Y-134182576D01*
X96786957Y-134186571D01*
G36*
X92938629Y-139429066D02*
G01*
X92978111Y-139429467D01*
X93093800Y-139432259D01*
X93190689Y-139440550D01*
X93272081Y-139455232D01*
X93341277Y-139477193D01*
X93401580Y-139507322D01*
X93456292Y-139546510D01*
X93475833Y-139563532D01*
X93508250Y-139603363D01*
X93537480Y-139657413D01*
X93560009Y-139717323D01*
X93572321Y-139774739D01*
X93573600Y-139795956D01*
X93565583Y-139854769D01*
X93544101Y-139919013D01*
X93513001Y-139979821D01*
X93476134Y-140028330D01*
X93470146Y-140034182D01*
X93419421Y-140075321D01*
X93363875Y-140107435D01*
X93300304Y-140131365D01*
X93225506Y-140147953D01*
X93136278Y-140158041D01*
X93029418Y-140162469D01*
X92980472Y-140162845D01*
X92918238Y-140162545D01*
X92874472Y-140161292D01*
X92845069Y-140158554D01*
X92825921Y-140153801D01*
X92812923Y-140146501D01*
X92805955Y-140140267D01*
X92799374Y-140132694D01*
X92794212Y-140122924D01*
X92790297Y-140108340D01*
X92787457Y-140086326D01*
X92785520Y-140054264D01*
X92784316Y-140009536D01*
X92783672Y-139949526D01*
X92783417Y-139871617D01*
X92783378Y-139795956D01*
X92783130Y-139695041D01*
X92783183Y-139614427D01*
X92784143Y-139575822D01*
X92930133Y-139575822D01*
X92930133Y-140016089D01*
X93023266Y-140016004D01*
X93079307Y-140014396D01*
X93138001Y-140010256D01*
X93186972Y-140004464D01*
X93188462Y-140004226D01*
X93267608Y-139985090D01*
X93328998Y-139955287D01*
X93375695Y-139912878D01*
X93405365Y-139866961D01*
X93423647Y-139816026D01*
X93422229Y-139768200D01*
X93401012Y-139716933D01*
X93359511Y-139663899D01*
X93302002Y-139624600D01*
X93227250Y-139598331D01*
X93177292Y-139589035D01*
X93120584Y-139582507D01*
X93060481Y-139577782D01*
X93009361Y-139575817D01*
X93006333Y-139575808D01*
X92930133Y-139575822D01*
X92784143Y-139575822D01*
X92784740Y-139551851D01*
X92789002Y-139505055D01*
X92797170Y-139471778D01*
X92810444Y-139449759D01*
X92830026Y-139436739D01*
X92857117Y-139430457D01*
X92892918Y-139428653D01*
X92938629Y-139429066D01*
G37*
X92938629Y-139429066D02*
X92978111Y-139429467D01*
X93093800Y-139432259D01*
X93190689Y-139440550D01*
X93272081Y-139455232D01*
X93341277Y-139477193D01*
X93401580Y-139507322D01*
X93456292Y-139546510D01*
X93475833Y-139563532D01*
X93508250Y-139603363D01*
X93537480Y-139657413D01*
X93560009Y-139717323D01*
X93572321Y-139774739D01*
X93573600Y-139795956D01*
X93565583Y-139854769D01*
X93544101Y-139919013D01*
X93513001Y-139979821D01*
X93476134Y-140028330D01*
X93470146Y-140034182D01*
X93419421Y-140075321D01*
X93363875Y-140107435D01*
X93300304Y-140131365D01*
X93225506Y-140147953D01*
X93136278Y-140158041D01*
X93029418Y-140162469D01*
X92980472Y-140162845D01*
X92918238Y-140162545D01*
X92874472Y-140161292D01*
X92845069Y-140158554D01*
X92825921Y-140153801D01*
X92812923Y-140146501D01*
X92805955Y-140140267D01*
X92799374Y-140132694D01*
X92794212Y-140122924D01*
X92790297Y-140108340D01*
X92787457Y-140086326D01*
X92785520Y-140054264D01*
X92784316Y-140009536D01*
X92783672Y-139949526D01*
X92783417Y-139871617D01*
X92783378Y-139795956D01*
X92783130Y-139695041D01*
X92783183Y-139614427D01*
X92784143Y-139575822D01*
X92930133Y-139575822D01*
X92930133Y-140016089D01*
X93023266Y-140016004D01*
X93079307Y-140014396D01*
X93138001Y-140010256D01*
X93186972Y-140004464D01*
X93188462Y-140004226D01*
X93267608Y-139985090D01*
X93328998Y-139955287D01*
X93375695Y-139912878D01*
X93405365Y-139866961D01*
X93423647Y-139816026D01*
X93422229Y-139768200D01*
X93401012Y-139716933D01*
X93359511Y-139663899D01*
X93302002Y-139624600D01*
X93227250Y-139598331D01*
X93177292Y-139589035D01*
X93120584Y-139582507D01*
X93060481Y-139577782D01*
X93009361Y-139575817D01*
X93006333Y-139575808D01*
X92930133Y-139575822D01*
X92784143Y-139575822D01*
X92784740Y-139551851D01*
X92789002Y-139505055D01*
X92797170Y-139471778D01*
X92810444Y-139449759D01*
X92830026Y-139436739D01*
X92857117Y-139430457D01*
X92892918Y-139428653D01*
X92938629Y-139429066D01*
G36*
X94347206Y-139429146D02*
G01*
X94416614Y-139429518D01*
X94469003Y-139430385D01*
X94507153Y-139431946D01*
X94533841Y-139434403D01*
X94551847Y-139437957D01*
X94563951Y-139442810D01*
X94572931Y-139449161D01*
X94576182Y-139452084D01*
X94595957Y-139483142D01*
X94599518Y-139518828D01*
X94586509Y-139550510D01*
X94580494Y-139556913D01*
X94570765Y-139563121D01*
X94555099Y-139567910D01*
X94530592Y-139571514D01*
X94494339Y-139574164D01*
X94443435Y-139576095D01*
X94374974Y-139577539D01*
X94312383Y-139578418D01*
X94064666Y-139581467D01*
X94061281Y-139646378D01*
X94057895Y-139711289D01*
X94226042Y-139711289D01*
X94299041Y-139711919D01*
X94352483Y-139714553D01*
X94389372Y-139720309D01*
X94412712Y-139730304D01*
X94425506Y-139745656D01*
X94430758Y-139767482D01*
X94431555Y-139787738D01*
X94429077Y-139812592D01*
X94419723Y-139830906D01*
X94400617Y-139843637D01*
X94368882Y-139851741D01*
X94321641Y-139856176D01*
X94256017Y-139857899D01*
X94220199Y-139858045D01*
X94059022Y-139858045D01*
X94059022Y-140016089D01*
X94307378Y-140016089D01*
X94388787Y-140016202D01*
X94450658Y-140016712D01*
X94496032Y-140017870D01*
X94527946Y-140019930D01*
X94549441Y-140023146D01*
X94563557Y-140027772D01*
X94573332Y-140034059D01*
X94578311Y-140038667D01*
X94595390Y-140065560D01*
X94600889Y-140089467D01*
X94593037Y-140118667D01*
X94578311Y-140140267D01*
X94570454Y-140147066D01*
X94560312Y-140152346D01*
X94545156Y-140156298D01*
X94522259Y-140159113D01*
X94488891Y-140160982D01*
X94442325Y-140162098D01*
X94379833Y-140162651D01*
X94298686Y-140162833D01*
X94256578Y-140162845D01*
X94166402Y-140162765D01*
X94096076Y-140162398D01*
X94042871Y-140161552D01*
X94004060Y-140160036D01*
X93976913Y-140157659D01*
X93958702Y-140154229D01*
X93946700Y-140149554D01*
X93938178Y-140143444D01*
X93934844Y-140140267D01*
X93928245Y-140132670D01*
X93923073Y-140122870D01*
X93919154Y-140108239D01*
X93916316Y-140086152D01*
X93914385Y-140053982D01*
X93913188Y-140009103D01*
X93912552Y-139948889D01*
X93912303Y-139870713D01*
X93912266Y-139797923D01*
X93912300Y-139704707D01*
X93912535Y-139631431D01*
X93913170Y-139575458D01*
X93914406Y-139534151D01*
X93916444Y-139504872D01*
X93919483Y-139484984D01*
X93923723Y-139471850D01*
X93929365Y-139462832D01*
X93936609Y-139455293D01*
X93938394Y-139453612D01*
X93947055Y-139446172D01*
X93957118Y-139440409D01*
X93971375Y-139436112D01*
X93992617Y-139433064D01*
X94023636Y-139431051D01*
X94067223Y-139429860D01*
X94126169Y-139429275D01*
X94203266Y-139429083D01*
X94257999Y-139429067D01*
X94347206Y-139429146D01*
G37*
X94347206Y-139429146D02*
X94416614Y-139429518D01*
X94469003Y-139430385D01*
X94507153Y-139431946D01*
X94533841Y-139434403D01*
X94551847Y-139437957D01*
X94563951Y-139442810D01*
X94572931Y-139449161D01*
X94576182Y-139452084D01*
X94595957Y-139483142D01*
X94599518Y-139518828D01*
X94586509Y-139550510D01*
X94580494Y-139556913D01*
X94570765Y-139563121D01*
X94555099Y-139567910D01*
X94530592Y-139571514D01*
X94494339Y-139574164D01*
X94443435Y-139576095D01*
X94374974Y-139577539D01*
X94312383Y-139578418D01*
X94064666Y-139581467D01*
X94061281Y-139646378D01*
X94057895Y-139711289D01*
X94226042Y-139711289D01*
X94299041Y-139711919D01*
X94352483Y-139714553D01*
X94389372Y-139720309D01*
X94412712Y-139730304D01*
X94425506Y-139745656D01*
X94430758Y-139767482D01*
X94431555Y-139787738D01*
X94429077Y-139812592D01*
X94419723Y-139830906D01*
X94400617Y-139843637D01*
X94368882Y-139851741D01*
X94321641Y-139856176D01*
X94256017Y-139857899D01*
X94220199Y-139858045D01*
X94059022Y-139858045D01*
X94059022Y-140016089D01*
X94307378Y-140016089D01*
X94388787Y-140016202D01*
X94450658Y-140016712D01*
X94496032Y-140017870D01*
X94527946Y-140019930D01*
X94549441Y-140023146D01*
X94563557Y-140027772D01*
X94573332Y-140034059D01*
X94578311Y-140038667D01*
X94595390Y-140065560D01*
X94600889Y-140089467D01*
X94593037Y-140118667D01*
X94578311Y-140140267D01*
X94570454Y-140147066D01*
X94560312Y-140152346D01*
X94545156Y-140156298D01*
X94522259Y-140159113D01*
X94488891Y-140160982D01*
X94442325Y-140162098D01*
X94379833Y-140162651D01*
X94298686Y-140162833D01*
X94256578Y-140162845D01*
X94166402Y-140162765D01*
X94096076Y-140162398D01*
X94042871Y-140161552D01*
X94004060Y-140160036D01*
X93976913Y-140157659D01*
X93958702Y-140154229D01*
X93946700Y-140149554D01*
X93938178Y-140143444D01*
X93934844Y-140140267D01*
X93928245Y-140132670D01*
X93923073Y-140122870D01*
X93919154Y-140108239D01*
X93916316Y-140086152D01*
X93914385Y-140053982D01*
X93913188Y-140009103D01*
X93912552Y-139948889D01*
X93912303Y-139870713D01*
X93912266Y-139797923D01*
X93912300Y-139704707D01*
X93912535Y-139631431D01*
X93913170Y-139575458D01*
X93914406Y-139534151D01*
X93916444Y-139504872D01*
X93919483Y-139484984D01*
X93923723Y-139471850D01*
X93929365Y-139462832D01*
X93936609Y-139455293D01*
X93938394Y-139453612D01*
X93947055Y-139446172D01*
X93957118Y-139440409D01*
X93971375Y-139436112D01*
X93992617Y-139433064D01*
X94023636Y-139431051D01*
X94067223Y-139429860D01*
X94126169Y-139429275D01*
X94203266Y-139429083D01*
X94257999Y-139429067D01*
X94347206Y-139429146D01*
G36*
X95368297Y-139430351D02*
G01*
X95443112Y-139435581D01*
X95512694Y-139443750D01*
X95572998Y-139454550D01*
X95619980Y-139467673D01*
X95649594Y-139482813D01*
X95654140Y-139487269D01*
X95669946Y-139521850D01*
X95665153Y-139557351D01*
X95640636Y-139587725D01*
X95639466Y-139588596D01*
X95625046Y-139597954D01*
X95609992Y-139602876D01*
X95588995Y-139603473D01*
X95556743Y-139599861D01*
X95507927Y-139592154D01*
X95504000Y-139591505D01*
X95431261Y-139582569D01*
X95352783Y-139578161D01*
X95274073Y-139578119D01*
X95200639Y-139582279D01*
X95137989Y-139590479D01*
X95091630Y-139602557D01*
X95088584Y-139603771D01*
X95054952Y-139622615D01*
X95043136Y-139641685D01*
X95052386Y-139660439D01*
X95081953Y-139678337D01*
X95131089Y-139694837D01*
X95199043Y-139709396D01*
X95244355Y-139716406D01*
X95338544Y-139729889D01*
X95413456Y-139742214D01*
X95472283Y-139754449D01*
X95518215Y-139767661D01*
X95554445Y-139782917D01*
X95584162Y-139801285D01*
X95610558Y-139823831D01*
X95631770Y-139845971D01*
X95656935Y-139876819D01*
X95669319Y-139903345D01*
X95673192Y-139936026D01*
X95673333Y-139947995D01*
X95670424Y-139987712D01*
X95658798Y-140017259D01*
X95638677Y-140043486D01*
X95597784Y-140083576D01*
X95552183Y-140114149D01*
X95498487Y-140136203D01*
X95433308Y-140150735D01*
X95353256Y-140158741D01*
X95254943Y-140161218D01*
X95238711Y-140161177D01*
X95173151Y-140159818D01*
X95108134Y-140156730D01*
X95050748Y-140152356D01*
X95008078Y-140147140D01*
X95004628Y-140146541D01*
X94962204Y-140136491D01*
X94926220Y-140123796D01*
X94905850Y-140112190D01*
X94886893Y-140081572D01*
X94885573Y-140045918D01*
X94901915Y-140014144D01*
X94905571Y-140010551D01*
X94920685Y-139999876D01*
X94939585Y-139995276D01*
X94968838Y-139996059D01*
X95004349Y-140000127D01*
X95044030Y-140003762D01*
X95099655Y-140006828D01*
X95164594Y-140009053D01*
X95232215Y-140010164D01*
X95250000Y-140010237D01*
X95317872Y-140009964D01*
X95367546Y-140008646D01*
X95403390Y-140005827D01*
X95429776Y-140001050D01*
X95451074Y-139993857D01*
X95463874Y-139987867D01*
X95492000Y-139971233D01*
X95509932Y-139956168D01*
X95512553Y-139951897D01*
X95507024Y-139934263D01*
X95480740Y-139917192D01*
X95435522Y-139901458D01*
X95373192Y-139887838D01*
X95354829Y-139884804D01*
X95258910Y-139869738D01*
X95182359Y-139857146D01*
X95122220Y-139846111D01*
X95075540Y-139835720D01*
X95039363Y-139825056D01*
X95010735Y-139813205D01*
X94986702Y-139799251D01*
X94964308Y-139782281D01*
X94940598Y-139761378D01*
X94932620Y-139754049D01*
X94904647Y-139726699D01*
X94889840Y-139705029D01*
X94884048Y-139680232D01*
X94883111Y-139648983D01*
X94893425Y-139587705D01*
X94924248Y-139535640D01*
X94975405Y-139492958D01*
X95046717Y-139459825D01*
X95097600Y-139444964D01*
X95152900Y-139435366D01*
X95219147Y-139429936D01*
X95292294Y-139428367D01*
X95368297Y-139430351D01*
G37*
X95368297Y-139430351D02*
X95443112Y-139435581D01*
X95512694Y-139443750D01*
X95572998Y-139454550D01*
X95619980Y-139467673D01*
X95649594Y-139482813D01*
X95654140Y-139487269D01*
X95669946Y-139521850D01*
X95665153Y-139557351D01*
X95640636Y-139587725D01*
X95639466Y-139588596D01*
X95625046Y-139597954D01*
X95609992Y-139602876D01*
X95588995Y-139603473D01*
X95556743Y-139599861D01*
X95507927Y-139592154D01*
X95504000Y-139591505D01*
X95431261Y-139582569D01*
X95352783Y-139578161D01*
X95274073Y-139578119D01*
X95200639Y-139582279D01*
X95137989Y-139590479D01*
X95091630Y-139602557D01*
X95088584Y-139603771D01*
X95054952Y-139622615D01*
X95043136Y-139641685D01*
X95052386Y-139660439D01*
X95081953Y-139678337D01*
X95131089Y-139694837D01*
X95199043Y-139709396D01*
X95244355Y-139716406D01*
X95338544Y-139729889D01*
X95413456Y-139742214D01*
X95472283Y-139754449D01*
X95518215Y-139767661D01*
X95554445Y-139782917D01*
X95584162Y-139801285D01*
X95610558Y-139823831D01*
X95631770Y-139845971D01*
X95656935Y-139876819D01*
X95669319Y-139903345D01*
X95673192Y-139936026D01*
X95673333Y-139947995D01*
X95670424Y-139987712D01*
X95658798Y-140017259D01*
X95638677Y-140043486D01*
X95597784Y-140083576D01*
X95552183Y-140114149D01*
X95498487Y-140136203D01*
X95433308Y-140150735D01*
X95353256Y-140158741D01*
X95254943Y-140161218D01*
X95238711Y-140161177D01*
X95173151Y-140159818D01*
X95108134Y-140156730D01*
X95050748Y-140152356D01*
X95008078Y-140147140D01*
X95004628Y-140146541D01*
X94962204Y-140136491D01*
X94926220Y-140123796D01*
X94905850Y-140112190D01*
X94886893Y-140081572D01*
X94885573Y-140045918D01*
X94901915Y-140014144D01*
X94905571Y-140010551D01*
X94920685Y-139999876D01*
X94939585Y-139995276D01*
X94968838Y-139996059D01*
X95004349Y-140000127D01*
X95044030Y-140003762D01*
X95099655Y-140006828D01*
X95164594Y-140009053D01*
X95232215Y-140010164D01*
X95250000Y-140010237D01*
X95317872Y-140009964D01*
X95367546Y-140008646D01*
X95403390Y-140005827D01*
X95429776Y-140001050D01*
X95451074Y-139993857D01*
X95463874Y-139987867D01*
X95492000Y-139971233D01*
X95509932Y-139956168D01*
X95512553Y-139951897D01*
X95507024Y-139934263D01*
X95480740Y-139917192D01*
X95435522Y-139901458D01*
X95373192Y-139887838D01*
X95354829Y-139884804D01*
X95258910Y-139869738D01*
X95182359Y-139857146D01*
X95122220Y-139846111D01*
X95075540Y-139835720D01*
X95039363Y-139825056D01*
X95010735Y-139813205D01*
X94986702Y-139799251D01*
X94964308Y-139782281D01*
X94940598Y-139761378D01*
X94932620Y-139754049D01*
X94904647Y-139726699D01*
X94889840Y-139705029D01*
X94884048Y-139680232D01*
X94883111Y-139648983D01*
X94893425Y-139587705D01*
X94924248Y-139535640D01*
X94975405Y-139492958D01*
X95046717Y-139459825D01*
X95097600Y-139444964D01*
X95152900Y-139435366D01*
X95219147Y-139429936D01*
X95292294Y-139428367D01*
X95368297Y-139430351D01*
G36*
X96136178Y-139451645D02*
G01*
X96142758Y-139459218D01*
X96147921Y-139468987D01*
X96151836Y-139483571D01*
X96154676Y-139505585D01*
X96156613Y-139537648D01*
X96157817Y-139582375D01*
X96158461Y-139642385D01*
X96158716Y-139720294D01*
X96158755Y-139795956D01*
X96158686Y-139889802D01*
X96158362Y-139963689D01*
X96157614Y-140020232D01*
X96156268Y-140062049D01*
X96154154Y-140091757D01*
X96151100Y-140111973D01*
X96146934Y-140125314D01*
X96141484Y-140134398D01*
X96136178Y-140140267D01*
X96103174Y-140159947D01*
X96068009Y-140158181D01*
X96036545Y-140136717D01*
X96029316Y-140128337D01*
X96023666Y-140118614D01*
X96019401Y-140104861D01*
X96016327Y-140084389D01*
X96014248Y-140054512D01*
X96012970Y-140012541D01*
X96012299Y-139955789D01*
X96012041Y-139881567D01*
X96012000Y-139797537D01*
X96012000Y-139484485D01*
X96039709Y-139456776D01*
X96073863Y-139433463D01*
X96106994Y-139432623D01*
X96136178Y-139451645D01*
G37*
X96136178Y-139451645D02*
X96142758Y-139459218D01*
X96147921Y-139468987D01*
X96151836Y-139483571D01*
X96154676Y-139505585D01*
X96156613Y-139537648D01*
X96157817Y-139582375D01*
X96158461Y-139642385D01*
X96158716Y-139720294D01*
X96158755Y-139795956D01*
X96158686Y-139889802D01*
X96158362Y-139963689D01*
X96157614Y-140020232D01*
X96156268Y-140062049D01*
X96154154Y-140091757D01*
X96151100Y-140111973D01*
X96146934Y-140125314D01*
X96141484Y-140134398D01*
X96136178Y-140140267D01*
X96103174Y-140159947D01*
X96068009Y-140158181D01*
X96036545Y-140136717D01*
X96029316Y-140128337D01*
X96023666Y-140118614D01*
X96019401Y-140104861D01*
X96016327Y-140084389D01*
X96014248Y-140054512D01*
X96012970Y-140012541D01*
X96012299Y-139955789D01*
X96012041Y-139881567D01*
X96012000Y-139797537D01*
X96012000Y-139484485D01*
X96039709Y-139456776D01*
X96073863Y-139433463D01*
X96106994Y-139432623D01*
X96136178Y-139451645D01*
G36*
X97109919Y-139434599D02*
G01*
X97178435Y-139446095D01*
X97231057Y-139463967D01*
X97265292Y-139487499D01*
X97274621Y-139500924D01*
X97284107Y-139532148D01*
X97277723Y-139560395D01*
X97257570Y-139587182D01*
X97226255Y-139599713D01*
X97180817Y-139598696D01*
X97145674Y-139591906D01*
X97067581Y-139578971D01*
X96987774Y-139577742D01*
X96898445Y-139588241D01*
X96873771Y-139592690D01*
X96790709Y-139616108D01*
X96725727Y-139650945D01*
X96679539Y-139696604D01*
X96652855Y-139752494D01*
X96647337Y-139781388D01*
X96650949Y-139840012D01*
X96674271Y-139891879D01*
X96715176Y-139935978D01*
X96771541Y-139971299D01*
X96841240Y-139996829D01*
X96922148Y-140011559D01*
X97012140Y-140014478D01*
X97109090Y-140004575D01*
X97114564Y-140003641D01*
X97153125Y-139996459D01*
X97174506Y-139989521D01*
X97183773Y-139979227D01*
X97185994Y-139961976D01*
X97186044Y-139952841D01*
X97186044Y-139914489D01*
X97117569Y-139914489D01*
X97057100Y-139910347D01*
X97015835Y-139897147D01*
X96991825Y-139873730D01*
X96983123Y-139838936D01*
X96983017Y-139834394D01*
X96988108Y-139804654D01*
X97005567Y-139783419D01*
X97038061Y-139769366D01*
X97088257Y-139761173D01*
X97136877Y-139758161D01*
X97207544Y-139756433D01*
X97258802Y-139759070D01*
X97293761Y-139768800D01*
X97315530Y-139788353D01*
X97327220Y-139820456D01*
X97331940Y-139867838D01*
X97332800Y-139930071D01*
X97331391Y-139999535D01*
X97327152Y-140046786D01*
X97320064Y-140072012D01*
X97318689Y-140073988D01*
X97279772Y-140105508D01*
X97222714Y-140130470D01*
X97151131Y-140148340D01*
X97068642Y-140158586D01*
X96978861Y-140160673D01*
X96885408Y-140154068D01*
X96830444Y-140145956D01*
X96744234Y-140121554D01*
X96664108Y-140081662D01*
X96597023Y-140029887D01*
X96586827Y-140019539D01*
X96553698Y-139976035D01*
X96523806Y-139922118D01*
X96500643Y-139865592D01*
X96487702Y-139814259D01*
X96486142Y-139794544D01*
X96492782Y-139753419D01*
X96510432Y-139702252D01*
X96535703Y-139648394D01*
X96565211Y-139599195D01*
X96591281Y-139566334D01*
X96652235Y-139517452D01*
X96731031Y-139478545D01*
X96824843Y-139450494D01*
X96930850Y-139434179D01*
X97028000Y-139430192D01*
X97109919Y-139434599D01*
G37*
X97109919Y-139434599D02*
X97178435Y-139446095D01*
X97231057Y-139463967D01*
X97265292Y-139487499D01*
X97274621Y-139500924D01*
X97284107Y-139532148D01*
X97277723Y-139560395D01*
X97257570Y-139587182D01*
X97226255Y-139599713D01*
X97180817Y-139598696D01*
X97145674Y-139591906D01*
X97067581Y-139578971D01*
X96987774Y-139577742D01*
X96898445Y-139588241D01*
X96873771Y-139592690D01*
X96790709Y-139616108D01*
X96725727Y-139650945D01*
X96679539Y-139696604D01*
X96652855Y-139752494D01*
X96647337Y-139781388D01*
X96650949Y-139840012D01*
X96674271Y-139891879D01*
X96715176Y-139935978D01*
X96771541Y-139971299D01*
X96841240Y-139996829D01*
X96922148Y-140011559D01*
X97012140Y-140014478D01*
X97109090Y-140004575D01*
X97114564Y-140003641D01*
X97153125Y-139996459D01*
X97174506Y-139989521D01*
X97183773Y-139979227D01*
X97185994Y-139961976D01*
X97186044Y-139952841D01*
X97186044Y-139914489D01*
X97117569Y-139914489D01*
X97057100Y-139910347D01*
X97015835Y-139897147D01*
X96991825Y-139873730D01*
X96983123Y-139838936D01*
X96983017Y-139834394D01*
X96988108Y-139804654D01*
X97005567Y-139783419D01*
X97038061Y-139769366D01*
X97088257Y-139761173D01*
X97136877Y-139758161D01*
X97207544Y-139756433D01*
X97258802Y-139759070D01*
X97293761Y-139768800D01*
X97315530Y-139788353D01*
X97327220Y-139820456D01*
X97331940Y-139867838D01*
X97332800Y-139930071D01*
X97331391Y-139999535D01*
X97327152Y-140046786D01*
X97320064Y-140072012D01*
X97318689Y-140073988D01*
X97279772Y-140105508D01*
X97222714Y-140130470D01*
X97151131Y-140148340D01*
X97068642Y-140158586D01*
X96978861Y-140160673D01*
X96885408Y-140154068D01*
X96830444Y-140145956D01*
X96744234Y-140121554D01*
X96664108Y-140081662D01*
X96597023Y-140029887D01*
X96586827Y-140019539D01*
X96553698Y-139976035D01*
X96523806Y-139922118D01*
X96500643Y-139865592D01*
X96487702Y-139814259D01*
X96486142Y-139794544D01*
X96492782Y-139753419D01*
X96510432Y-139702252D01*
X96535703Y-139648394D01*
X96565211Y-139599195D01*
X96591281Y-139566334D01*
X96652235Y-139517452D01*
X96731031Y-139478545D01*
X96824843Y-139450494D01*
X96930850Y-139434179D01*
X97028000Y-139430192D01*
X97109919Y-139434599D01*
G36*
X97759886Y-139433448D02*
G01*
X97783452Y-139447273D01*
X97814265Y-139469881D01*
X97853922Y-139502338D01*
X97904020Y-139545708D01*
X97966157Y-139601058D01*
X98041928Y-139669451D01*
X98128666Y-139748084D01*
X98309289Y-139911878D01*
X98314933Y-139692029D01*
X98316971Y-139616351D01*
X98318937Y-139559994D01*
X98321266Y-139519706D01*
X98324394Y-139492235D01*
X98328755Y-139474329D01*
X98334784Y-139462737D01*
X98342916Y-139454208D01*
X98347228Y-139450623D01*
X98381759Y-139431670D01*
X98414617Y-139434441D01*
X98440682Y-139450633D01*
X98467333Y-139472199D01*
X98470648Y-139787151D01*
X98471565Y-139879779D01*
X98472032Y-139952544D01*
X98471887Y-140008161D01*
X98470968Y-140049342D01*
X98469113Y-140078803D01*
X98466161Y-140099255D01*
X98461950Y-140113413D01*
X98456318Y-140123991D01*
X98450073Y-140132474D01*
X98436561Y-140148207D01*
X98423117Y-140158636D01*
X98407876Y-140162639D01*
X98388974Y-140159094D01*
X98364545Y-140146879D01*
X98332727Y-140124871D01*
X98291652Y-140091949D01*
X98239458Y-140046991D01*
X98174278Y-139988875D01*
X98100444Y-139922099D01*
X97835155Y-139681458D01*
X97829511Y-139900589D01*
X97827469Y-139976128D01*
X97825498Y-140032354D01*
X97823161Y-140072524D01*
X97820019Y-140099896D01*
X97815636Y-140117728D01*
X97809576Y-140129279D01*
X97801400Y-140137807D01*
X97797216Y-140141282D01*
X97760235Y-140160372D01*
X97725292Y-140157493D01*
X97694864Y-140133100D01*
X97687903Y-140123286D01*
X97682477Y-140111826D01*
X97678397Y-140095968D01*
X97675471Y-140072963D01*
X97673508Y-140040062D01*
X97672317Y-139994516D01*
X97671708Y-139933573D01*
X97671489Y-139854486D01*
X97671466Y-139795956D01*
X97671540Y-139704407D01*
X97671887Y-139632687D01*
X97672699Y-139578045D01*
X97674167Y-139537732D01*
X97676481Y-139508998D01*
X97679833Y-139489093D01*
X97684412Y-139475268D01*
X97690411Y-139464772D01*
X97694864Y-139458811D01*
X97706150Y-139444691D01*
X97716699Y-139434029D01*
X97728107Y-139427892D01*
X97741970Y-139427343D01*
X97759886Y-139433448D01*
G37*
X97759886Y-139433448D02*
X97783452Y-139447273D01*
X97814265Y-139469881D01*
X97853922Y-139502338D01*
X97904020Y-139545708D01*
X97966157Y-139601058D01*
X98041928Y-139669451D01*
X98128666Y-139748084D01*
X98309289Y-139911878D01*
X98314933Y-139692029D01*
X98316971Y-139616351D01*
X98318937Y-139559994D01*
X98321266Y-139519706D01*
X98324394Y-139492235D01*
X98328755Y-139474329D01*
X98334784Y-139462737D01*
X98342916Y-139454208D01*
X98347228Y-139450623D01*
X98381759Y-139431670D01*
X98414617Y-139434441D01*
X98440682Y-139450633D01*
X98467333Y-139472199D01*
X98470648Y-139787151D01*
X98471565Y-139879779D01*
X98472032Y-139952544D01*
X98471887Y-140008161D01*
X98470968Y-140049342D01*
X98469113Y-140078803D01*
X98466161Y-140099255D01*
X98461950Y-140113413D01*
X98456318Y-140123991D01*
X98450073Y-140132474D01*
X98436561Y-140148207D01*
X98423117Y-140158636D01*
X98407876Y-140162639D01*
X98388974Y-140159094D01*
X98364545Y-140146879D01*
X98332727Y-140124871D01*
X98291652Y-140091949D01*
X98239458Y-140046991D01*
X98174278Y-139988875D01*
X98100444Y-139922099D01*
X97835155Y-139681458D01*
X97829511Y-139900589D01*
X97827469Y-139976128D01*
X97825498Y-140032354D01*
X97823161Y-140072524D01*
X97820019Y-140099896D01*
X97815636Y-140117728D01*
X97809576Y-140129279D01*
X97801400Y-140137807D01*
X97797216Y-140141282D01*
X97760235Y-140160372D01*
X97725292Y-140157493D01*
X97694864Y-140133100D01*
X97687903Y-140123286D01*
X97682477Y-140111826D01*
X97678397Y-140095968D01*
X97675471Y-140072963D01*
X97673508Y-140040062D01*
X97672317Y-139994516D01*
X97671708Y-139933573D01*
X97671489Y-139854486D01*
X97671466Y-139795956D01*
X97671540Y-139704407D01*
X97671887Y-139632687D01*
X97672699Y-139578045D01*
X97674167Y-139537732D01*
X97676481Y-139508998D01*
X97679833Y-139489093D01*
X97684412Y-139475268D01*
X97690411Y-139464772D01*
X97694864Y-139458811D01*
X97706150Y-139444691D01*
X97716699Y-139434029D01*
X97728107Y-139427892D01*
X97741970Y-139427343D01*
X97759886Y-139433448D01*
G36*
X99290343Y-139429260D02*
G01*
X99366701Y-139430174D01*
X99425217Y-139432311D01*
X99468255Y-139436175D01*
X99498183Y-139442267D01*
X99517368Y-139451090D01*
X99528176Y-139463146D01*
X99532973Y-139478939D01*
X99534127Y-139498970D01*
X99534133Y-139501335D01*
X99533131Y-139523992D01*
X99528396Y-139541503D01*
X99517333Y-139554574D01*
X99497348Y-139563913D01*
X99465846Y-139570227D01*
X99420232Y-139574222D01*
X99357913Y-139576606D01*
X99276293Y-139578086D01*
X99251277Y-139578414D01*
X99009200Y-139581467D01*
X99005814Y-139646378D01*
X99002429Y-139711289D01*
X99170576Y-139711289D01*
X99236266Y-139711531D01*
X99283172Y-139712556D01*
X99315083Y-139714811D01*
X99335791Y-139718742D01*
X99349084Y-139724798D01*
X99358755Y-139733424D01*
X99358817Y-139733493D01*
X99376356Y-139767112D01*
X99375722Y-139803448D01*
X99357314Y-139834423D01*
X99353671Y-139837607D01*
X99340741Y-139845812D01*
X99323024Y-139851521D01*
X99296570Y-139855162D01*
X99257432Y-139857167D01*
X99201662Y-139857964D01*
X99165994Y-139858045D01*
X99003555Y-139858045D01*
X99003555Y-140016089D01*
X99250161Y-140016089D01*
X99331580Y-140016231D01*
X99393410Y-140016814D01*
X99438637Y-140018068D01*
X99470248Y-140020227D01*
X99491231Y-140023523D01*
X99504573Y-140028189D01*
X99513261Y-140034457D01*
X99515450Y-140036733D01*
X99531614Y-140068280D01*
X99532797Y-140104168D01*
X99519536Y-140135285D01*
X99509043Y-140145271D01*
X99498129Y-140150769D01*
X99481217Y-140155022D01*
X99455633Y-140158180D01*
X99418701Y-140160392D01*
X99367746Y-140161806D01*
X99300094Y-140162572D01*
X99213069Y-140162838D01*
X99193394Y-140162845D01*
X99104911Y-140162787D01*
X99036227Y-140162467D01*
X98984564Y-140161667D01*
X98947145Y-140160167D01*
X98921190Y-140157749D01*
X98903922Y-140154194D01*
X98892562Y-140149282D01*
X98884332Y-140142795D01*
X98879817Y-140138138D01*
X98873021Y-140129889D01*
X98867712Y-140119669D01*
X98863706Y-140104800D01*
X98860821Y-140082602D01*
X98858874Y-140050393D01*
X98857681Y-140005496D01*
X98857061Y-139945228D01*
X98856829Y-139866911D01*
X98856800Y-139800994D01*
X98856871Y-139708628D01*
X98857208Y-139636117D01*
X98857998Y-139580737D01*
X98859426Y-139539765D01*
X98861679Y-139510478D01*
X98864943Y-139490153D01*
X98869404Y-139476066D01*
X98875248Y-139465495D01*
X98880197Y-139458811D01*
X98903594Y-139429067D01*
X99193774Y-139429067D01*
X99290343Y-139429260D01*
G37*
X99290343Y-139429260D02*
X99366701Y-139430174D01*
X99425217Y-139432311D01*
X99468255Y-139436175D01*
X99498183Y-139442267D01*
X99517368Y-139451090D01*
X99528176Y-139463146D01*
X99532973Y-139478939D01*
X99534127Y-139498970D01*
X99534133Y-139501335D01*
X99533131Y-139523992D01*
X99528396Y-139541503D01*
X99517333Y-139554574D01*
X99497348Y-139563913D01*
X99465846Y-139570227D01*
X99420232Y-139574222D01*
X99357913Y-139576606D01*
X99276293Y-139578086D01*
X99251277Y-139578414D01*
X99009200Y-139581467D01*
X99005814Y-139646378D01*
X99002429Y-139711289D01*
X99170576Y-139711289D01*
X99236266Y-139711531D01*
X99283172Y-139712556D01*
X99315083Y-139714811D01*
X99335791Y-139718742D01*
X99349084Y-139724798D01*
X99358755Y-139733424D01*
X99358817Y-139733493D01*
X99376356Y-139767112D01*
X99375722Y-139803448D01*
X99357314Y-139834423D01*
X99353671Y-139837607D01*
X99340741Y-139845812D01*
X99323024Y-139851521D01*
X99296570Y-139855162D01*
X99257432Y-139857167D01*
X99201662Y-139857964D01*
X99165994Y-139858045D01*
X99003555Y-139858045D01*
X99003555Y-140016089D01*
X99250161Y-140016089D01*
X99331580Y-140016231D01*
X99393410Y-140016814D01*
X99438637Y-140018068D01*
X99470248Y-140020227D01*
X99491231Y-140023523D01*
X99504573Y-140028189D01*
X99513261Y-140034457D01*
X99515450Y-140036733D01*
X99531614Y-140068280D01*
X99532797Y-140104168D01*
X99519536Y-140135285D01*
X99509043Y-140145271D01*
X99498129Y-140150769D01*
X99481217Y-140155022D01*
X99455633Y-140158180D01*
X99418701Y-140160392D01*
X99367746Y-140161806D01*
X99300094Y-140162572D01*
X99213069Y-140162838D01*
X99193394Y-140162845D01*
X99104911Y-140162787D01*
X99036227Y-140162467D01*
X98984564Y-140161667D01*
X98947145Y-140160167D01*
X98921190Y-140157749D01*
X98903922Y-140154194D01*
X98892562Y-140149282D01*
X98884332Y-140142795D01*
X98879817Y-140138138D01*
X98873021Y-140129889D01*
X98867712Y-140119669D01*
X98863706Y-140104800D01*
X98860821Y-140082602D01*
X98858874Y-140050393D01*
X98857681Y-140005496D01*
X98857061Y-139945228D01*
X98856829Y-139866911D01*
X98856800Y-139800994D01*
X98856871Y-139708628D01*
X98857208Y-139636117D01*
X98857998Y-139580737D01*
X98859426Y-139539765D01*
X98861679Y-139510478D01*
X98864943Y-139490153D01*
X98869404Y-139476066D01*
X98875248Y-139465495D01*
X98880197Y-139458811D01*
X98903594Y-139429067D01*
X99193774Y-139429067D01*
X99290343Y-139429260D01*
G36*
X100078309Y-139429275D02*
G01*
X100207288Y-139433636D01*
X100316991Y-139446861D01*
X100409226Y-139469741D01*
X100485802Y-139503070D01*
X100548527Y-139547638D01*
X100599212Y-139604236D01*
X100639663Y-139673658D01*
X100640459Y-139675351D01*
X100664601Y-139737483D01*
X100673203Y-139792509D01*
X100666231Y-139847887D01*
X100643654Y-139911073D01*
X100639372Y-139920689D01*
X100610172Y-139976966D01*
X100577356Y-140020451D01*
X100535002Y-140057417D01*
X100477190Y-140094135D01*
X100473831Y-140096052D01*
X100423504Y-140120227D01*
X100366621Y-140138282D01*
X100299527Y-140150839D01*
X100218565Y-140158522D01*
X100120082Y-140161953D01*
X100085286Y-140162251D01*
X99919594Y-140162845D01*
X99896197Y-140133100D01*
X99889257Y-140123319D01*
X99883842Y-140111897D01*
X99879765Y-140096095D01*
X99876837Y-140073175D01*
X99874867Y-140040396D01*
X99874225Y-140016089D01*
X100030844Y-140016089D01*
X100124726Y-140016089D01*
X100179664Y-140014483D01*
X100236060Y-140010255D01*
X100282345Y-140004292D01*
X100285139Y-140003790D01*
X100367348Y-139981736D01*
X100431114Y-139948600D01*
X100478452Y-139902847D01*
X100511382Y-139842939D01*
X100517108Y-139827061D01*
X100522721Y-139802333D01*
X100520291Y-139777902D01*
X100508467Y-139745400D01*
X100501340Y-139729434D01*
X100478000Y-139687006D01*
X100449880Y-139657240D01*
X100418940Y-139636511D01*
X100356966Y-139609537D01*
X100277651Y-139589998D01*
X100185253Y-139578746D01*
X100118333Y-139576270D01*
X100030844Y-139575822D01*
X100030844Y-140016089D01*
X99874225Y-140016089D01*
X99873668Y-139995021D01*
X99873050Y-139934311D01*
X99872825Y-139855526D01*
X99872800Y-139793920D01*
X99872800Y-139484485D01*
X99900509Y-139456776D01*
X99912806Y-139445544D01*
X99926103Y-139437853D01*
X99944672Y-139433040D01*
X99972786Y-139430446D01*
X100014717Y-139429410D01*
X100074737Y-139429270D01*
X100078309Y-139429275D01*
G37*
X100078309Y-139429275D02*
X100207288Y-139433636D01*
X100316991Y-139446861D01*
X100409226Y-139469741D01*
X100485802Y-139503070D01*
X100548527Y-139547638D01*
X100599212Y-139604236D01*
X100639663Y-139673658D01*
X100640459Y-139675351D01*
X100664601Y-139737483D01*
X100673203Y-139792509D01*
X100666231Y-139847887D01*
X100643654Y-139911073D01*
X100639372Y-139920689D01*
X100610172Y-139976966D01*
X100577356Y-140020451D01*
X100535002Y-140057417D01*
X100477190Y-140094135D01*
X100473831Y-140096052D01*
X100423504Y-140120227D01*
X100366621Y-140138282D01*
X100299527Y-140150839D01*
X100218565Y-140158522D01*
X100120082Y-140161953D01*
X100085286Y-140162251D01*
X99919594Y-140162845D01*
X99896197Y-140133100D01*
X99889257Y-140123319D01*
X99883842Y-140111897D01*
X99879765Y-140096095D01*
X99876837Y-140073175D01*
X99874867Y-140040396D01*
X99874225Y-140016089D01*
X100030844Y-140016089D01*
X100124726Y-140016089D01*
X100179664Y-140014483D01*
X100236060Y-140010255D01*
X100282345Y-140004292D01*
X100285139Y-140003790D01*
X100367348Y-139981736D01*
X100431114Y-139948600D01*
X100478452Y-139902847D01*
X100511382Y-139842939D01*
X100517108Y-139827061D01*
X100522721Y-139802333D01*
X100520291Y-139777902D01*
X100508467Y-139745400D01*
X100501340Y-139729434D01*
X100478000Y-139687006D01*
X100449880Y-139657240D01*
X100418940Y-139636511D01*
X100356966Y-139609537D01*
X100277651Y-139589998D01*
X100185253Y-139578746D01*
X100118333Y-139576270D01*
X100030844Y-139575822D01*
X100030844Y-140016089D01*
X99874225Y-140016089D01*
X99873668Y-139995021D01*
X99873050Y-139934311D01*
X99872825Y-139855526D01*
X99872800Y-139793920D01*
X99872800Y-139484485D01*
X99900509Y-139456776D01*
X99912806Y-139445544D01*
X99926103Y-139437853D01*
X99944672Y-139433040D01*
X99972786Y-139430446D01*
X100014717Y-139429410D01*
X100074737Y-139429270D01*
X100078309Y-139429275D01*
G36*
X102804665Y-139431034D02*
G01*
X102824255Y-139438035D01*
X102825010Y-139438377D01*
X102851613Y-139458678D01*
X102866270Y-139479561D01*
X102869138Y-139489352D01*
X102868996Y-139502361D01*
X102864961Y-139520895D01*
X102856146Y-139547257D01*
X102841669Y-139583752D01*
X102820645Y-139632687D01*
X102792188Y-139696365D01*
X102755415Y-139777093D01*
X102735175Y-139821216D01*
X102698625Y-139899985D01*
X102664315Y-139972423D01*
X102633552Y-140035880D01*
X102607648Y-140087708D01*
X102587910Y-140125259D01*
X102575650Y-140145884D01*
X102573224Y-140148733D01*
X102542183Y-140161302D01*
X102507121Y-140159619D01*
X102479000Y-140144332D01*
X102477854Y-140143089D01*
X102466668Y-140126154D01*
X102447904Y-140093170D01*
X102423875Y-140048380D01*
X102396897Y-139996032D01*
X102387201Y-139976742D01*
X102314014Y-139830150D01*
X102234240Y-139989393D01*
X102205767Y-140044415D01*
X102179350Y-140092132D01*
X102157148Y-140128893D01*
X102141319Y-140151044D01*
X102135954Y-140155741D01*
X102094257Y-140162102D01*
X102059849Y-140148733D01*
X102049728Y-140134446D01*
X102032214Y-140102692D01*
X102008735Y-140056597D01*
X101980720Y-139999285D01*
X101949599Y-139933880D01*
X101916799Y-139863507D01*
X101883750Y-139791291D01*
X101851881Y-139720355D01*
X101822619Y-139653825D01*
X101797395Y-139594826D01*
X101777636Y-139546481D01*
X101764772Y-139511915D01*
X101760231Y-139494253D01*
X101760277Y-139493613D01*
X101771326Y-139471388D01*
X101793410Y-139448753D01*
X101794710Y-139447768D01*
X101821853Y-139432425D01*
X101846958Y-139432574D01*
X101856368Y-139435466D01*
X101867834Y-139441718D01*
X101880010Y-139454014D01*
X101894357Y-139474908D01*
X101912336Y-139506949D01*
X101935407Y-139552688D01*
X101965030Y-139614677D01*
X101991745Y-139671898D01*
X102022480Y-139738226D01*
X102050021Y-139797874D01*
X102072938Y-139847725D01*
X102089798Y-139884664D01*
X102099173Y-139905573D01*
X102100540Y-139908845D01*
X102106689Y-139903497D01*
X102120822Y-139881109D01*
X102141057Y-139844946D01*
X102165515Y-139798277D01*
X102175248Y-139779022D01*
X102208217Y-139714004D01*
X102233643Y-139666654D01*
X102253612Y-139634219D01*
X102270210Y-139613946D01*
X102285524Y-139603082D01*
X102301640Y-139598875D01*
X102312143Y-139598400D01*
X102330670Y-139600042D01*
X102346904Y-139606831D01*
X102363035Y-139621566D01*
X102381251Y-139647044D01*
X102403739Y-139686061D01*
X102432689Y-139741414D01*
X102448662Y-139772903D01*
X102474570Y-139823087D01*
X102497167Y-139864704D01*
X102514458Y-139894242D01*
X102524450Y-139908189D01*
X102525809Y-139908770D01*
X102532261Y-139897793D01*
X102546708Y-139869290D01*
X102567703Y-139826244D01*
X102593797Y-139771638D01*
X102623546Y-139708454D01*
X102638180Y-139677071D01*
X102676250Y-139596078D01*
X102706905Y-139533756D01*
X102731737Y-139488071D01*
X102752337Y-139456989D01*
X102770298Y-139438478D01*
X102787210Y-139430504D01*
X102804665Y-139431034D01*
G37*
X102804665Y-139431034D02*
X102824255Y-139438035D01*
X102825010Y-139438377D01*
X102851613Y-139458678D01*
X102866270Y-139479561D01*
X102869138Y-139489352D01*
X102868996Y-139502361D01*
X102864961Y-139520895D01*
X102856146Y-139547257D01*
X102841669Y-139583752D01*
X102820645Y-139632687D01*
X102792188Y-139696365D01*
X102755415Y-139777093D01*
X102735175Y-139821216D01*
X102698625Y-139899985D01*
X102664315Y-139972423D01*
X102633552Y-140035880D01*
X102607648Y-140087708D01*
X102587910Y-140125259D01*
X102575650Y-140145884D01*
X102573224Y-140148733D01*
X102542183Y-140161302D01*
X102507121Y-140159619D01*
X102479000Y-140144332D01*
X102477854Y-140143089D01*
X102466668Y-140126154D01*
X102447904Y-140093170D01*
X102423875Y-140048380D01*
X102396897Y-139996032D01*
X102387201Y-139976742D01*
X102314014Y-139830150D01*
X102234240Y-139989393D01*
X102205767Y-140044415D01*
X102179350Y-140092132D01*
X102157148Y-140128893D01*
X102141319Y-140151044D01*
X102135954Y-140155741D01*
X102094257Y-140162102D01*
X102059849Y-140148733D01*
X102049728Y-140134446D01*
X102032214Y-140102692D01*
X102008735Y-140056597D01*
X101980720Y-139999285D01*
X101949599Y-139933880D01*
X101916799Y-139863507D01*
X101883750Y-139791291D01*
X101851881Y-139720355D01*
X101822619Y-139653825D01*
X101797395Y-139594826D01*
X101777636Y-139546481D01*
X101764772Y-139511915D01*
X101760231Y-139494253D01*
X101760277Y-139493613D01*
X101771326Y-139471388D01*
X101793410Y-139448753D01*
X101794710Y-139447768D01*
X101821853Y-139432425D01*
X101846958Y-139432574D01*
X101856368Y-139435466D01*
X101867834Y-139441718D01*
X101880010Y-139454014D01*
X101894357Y-139474908D01*
X101912336Y-139506949D01*
X101935407Y-139552688D01*
X101965030Y-139614677D01*
X101991745Y-139671898D01*
X102022480Y-139738226D01*
X102050021Y-139797874D01*
X102072938Y-139847725D01*
X102089798Y-139884664D01*
X102099173Y-139905573D01*
X102100540Y-139908845D01*
X102106689Y-139903497D01*
X102120822Y-139881109D01*
X102141057Y-139844946D01*
X102165515Y-139798277D01*
X102175248Y-139779022D01*
X102208217Y-139714004D01*
X102233643Y-139666654D01*
X102253612Y-139634219D01*
X102270210Y-139613946D01*
X102285524Y-139603082D01*
X102301640Y-139598875D01*
X102312143Y-139598400D01*
X102330670Y-139600042D01*
X102346904Y-139606831D01*
X102363035Y-139621566D01*
X102381251Y-139647044D01*
X102403739Y-139686061D01*
X102432689Y-139741414D01*
X102448662Y-139772903D01*
X102474570Y-139823087D01*
X102497167Y-139864704D01*
X102514458Y-139894242D01*
X102524450Y-139908189D01*
X102525809Y-139908770D01*
X102532261Y-139897793D01*
X102546708Y-139869290D01*
X102567703Y-139826244D01*
X102593797Y-139771638D01*
X102623546Y-139708454D01*
X102638180Y-139677071D01*
X102676250Y-139596078D01*
X102706905Y-139533756D01*
X102731737Y-139488071D01*
X102752337Y-139456989D01*
X102770298Y-139438478D01*
X102787210Y-139430504D01*
X102804665Y-139431034D01*
G36*
X103248614Y-139435877D02*
G01*
X103272327Y-139450647D01*
X103298978Y-139472227D01*
X103298978Y-139793773D01*
X103298893Y-139887830D01*
X103298529Y-139961932D01*
X103297724Y-140018704D01*
X103296313Y-140060768D01*
X103294133Y-140090748D01*
X103291021Y-140111267D01*
X103286814Y-140124949D01*
X103281348Y-140134416D01*
X103277472Y-140139082D01*
X103246034Y-140159575D01*
X103210233Y-140158739D01*
X103178873Y-140141264D01*
X103152222Y-140119684D01*
X103152222Y-139472227D01*
X103178873Y-139450647D01*
X103204594Y-139434949D01*
X103225600Y-139429067D01*
X103248614Y-139435877D01*
G37*
X103248614Y-139435877D02*
X103272327Y-139450647D01*
X103298978Y-139472227D01*
X103298978Y-139793773D01*
X103298893Y-139887830D01*
X103298529Y-139961932D01*
X103297724Y-140018704D01*
X103296313Y-140060768D01*
X103294133Y-140090748D01*
X103291021Y-140111267D01*
X103286814Y-140124949D01*
X103281348Y-140134416D01*
X103277472Y-140139082D01*
X103246034Y-140159575D01*
X103210233Y-140158739D01*
X103178873Y-140141264D01*
X103152222Y-140119684D01*
X103152222Y-139472227D01*
X103178873Y-139450647D01*
X103204594Y-139434949D01*
X103225600Y-139429067D01*
X103248614Y-139435877D01*
G36*
X104023065Y-139429163D02*
G01*
X104101772Y-139429542D01*
X104162863Y-139430333D01*
X104208817Y-139431670D01*
X104242114Y-139433683D01*
X104265236Y-139436506D01*
X104280662Y-139440269D01*
X104290871Y-139445105D01*
X104295813Y-139448822D01*
X104321457Y-139481358D01*
X104324559Y-139515138D01*
X104308711Y-139545826D01*
X104298348Y-139558089D01*
X104287196Y-139566450D01*
X104271035Y-139571657D01*
X104245642Y-139574457D01*
X104206798Y-139575596D01*
X104150280Y-139575821D01*
X104139180Y-139575822D01*
X103993244Y-139575822D01*
X103993244Y-139846756D01*
X103993148Y-139932154D01*
X103992711Y-139997864D01*
X103991712Y-140046774D01*
X103989928Y-140081773D01*
X103987137Y-140105749D01*
X103983117Y-140121593D01*
X103977645Y-140132191D01*
X103970666Y-140140267D01*
X103937734Y-140160112D01*
X103903354Y-140158548D01*
X103872176Y-140135906D01*
X103869886Y-140133100D01*
X103862429Y-140122492D01*
X103856747Y-140110081D01*
X103852601Y-140092850D01*
X103849750Y-140067784D01*
X103847954Y-140031867D01*
X103846972Y-139982083D01*
X103846564Y-139915417D01*
X103846489Y-139839589D01*
X103846489Y-139575822D01*
X103707127Y-139575822D01*
X103647322Y-139575418D01*
X103605918Y-139573840D01*
X103578748Y-139570547D01*
X103561646Y-139564992D01*
X103550443Y-139556631D01*
X103549083Y-139555178D01*
X103532725Y-139521939D01*
X103534172Y-139484362D01*
X103552978Y-139451645D01*
X103560250Y-139445298D01*
X103569627Y-139440266D01*
X103583609Y-139436396D01*
X103604696Y-139433537D01*
X103635389Y-139431535D01*
X103678189Y-139430239D01*
X103735595Y-139429498D01*
X103810110Y-139429158D01*
X103904233Y-139429068D01*
X103924260Y-139429067D01*
X104023065Y-139429163D01*
G37*
X104023065Y-139429163D02*
X104101772Y-139429542D01*
X104162863Y-139430333D01*
X104208817Y-139431670D01*
X104242114Y-139433683D01*
X104265236Y-139436506D01*
X104280662Y-139440269D01*
X104290871Y-139445105D01*
X104295813Y-139448822D01*
X104321457Y-139481358D01*
X104324559Y-139515138D01*
X104308711Y-139545826D01*
X104298348Y-139558089D01*
X104287196Y-139566450D01*
X104271035Y-139571657D01*
X104245642Y-139574457D01*
X104206798Y-139575596D01*
X104150280Y-139575821D01*
X104139180Y-139575822D01*
X103993244Y-139575822D01*
X103993244Y-139846756D01*
X103993148Y-139932154D01*
X103992711Y-139997864D01*
X103991712Y-140046774D01*
X103989928Y-140081773D01*
X103987137Y-140105749D01*
X103983117Y-140121593D01*
X103977645Y-140132191D01*
X103970666Y-140140267D01*
X103937734Y-140160112D01*
X103903354Y-140158548D01*
X103872176Y-140135906D01*
X103869886Y-140133100D01*
X103862429Y-140122492D01*
X103856747Y-140110081D01*
X103852601Y-140092850D01*
X103849750Y-140067784D01*
X103847954Y-140031867D01*
X103846972Y-139982083D01*
X103846564Y-139915417D01*
X103846489Y-139839589D01*
X103846489Y-139575822D01*
X103707127Y-139575822D01*
X103647322Y-139575418D01*
X103605918Y-139573840D01*
X103578748Y-139570547D01*
X103561646Y-139564992D01*
X103550443Y-139556631D01*
X103549083Y-139555178D01*
X103532725Y-139521939D01*
X103534172Y-139484362D01*
X103552978Y-139451645D01*
X103560250Y-139445298D01*
X103569627Y-139440266D01*
X103583609Y-139436396D01*
X103604696Y-139433537D01*
X103635389Y-139431535D01*
X103678189Y-139430239D01*
X103735595Y-139429498D01*
X103810110Y-139429158D01*
X103904233Y-139429068D01*
X103924260Y-139429067D01*
X104023065Y-139429163D01*
G36*
X105288823Y-139434533D02*
G01*
X105320202Y-139456776D01*
X105347911Y-139484485D01*
X105347911Y-139793920D01*
X105347838Y-139885799D01*
X105347495Y-139957840D01*
X105346692Y-140012780D01*
X105345241Y-140053360D01*
X105342952Y-140082317D01*
X105339636Y-140102391D01*
X105335105Y-140116321D01*
X105329169Y-140126845D01*
X105324514Y-140133100D01*
X105293783Y-140157673D01*
X105258496Y-140160341D01*
X105226245Y-140145271D01*
X105215588Y-140136374D01*
X105208464Y-140124557D01*
X105204167Y-140105526D01*
X105201991Y-140074992D01*
X105201228Y-140028662D01*
X105201155Y-139992871D01*
X105201155Y-139858045D01*
X104704444Y-139858045D01*
X104704444Y-139980700D01*
X104703931Y-140036787D01*
X104701876Y-140075333D01*
X104697508Y-140101361D01*
X104690056Y-140119897D01*
X104681047Y-140133100D01*
X104650144Y-140157604D01*
X104615196Y-140160506D01*
X104581738Y-140143089D01*
X104572604Y-140133959D01*
X104566152Y-140121855D01*
X104561897Y-140103001D01*
X104559352Y-140073620D01*
X104558029Y-140029937D01*
X104557443Y-139968175D01*
X104557375Y-139954000D01*
X104556891Y-139837631D01*
X104556641Y-139741727D01*
X104556723Y-139664177D01*
X104557231Y-139602869D01*
X104558262Y-139555690D01*
X104559913Y-139520530D01*
X104562279Y-139495276D01*
X104565457Y-139477817D01*
X104569544Y-139466041D01*
X104574634Y-139457835D01*
X104580266Y-139451645D01*
X104612128Y-139431844D01*
X104645357Y-139434533D01*
X104676735Y-139456776D01*
X104689433Y-139471126D01*
X104697526Y-139486978D01*
X104702042Y-139509554D01*
X104704006Y-139544078D01*
X104704444Y-139595776D01*
X104704444Y-139711289D01*
X105201155Y-139711289D01*
X105201155Y-139592756D01*
X105201662Y-139538148D01*
X105203698Y-139501275D01*
X105208035Y-139477307D01*
X105215447Y-139461415D01*
X105223733Y-139451645D01*
X105255594Y-139431844D01*
X105288823Y-139434533D01*
G37*
X105288823Y-139434533D02*
X105320202Y-139456776D01*
X105347911Y-139484485D01*
X105347911Y-139793920D01*
X105347838Y-139885799D01*
X105347495Y-139957840D01*
X105346692Y-140012780D01*
X105345241Y-140053360D01*
X105342952Y-140082317D01*
X105339636Y-140102391D01*
X105335105Y-140116321D01*
X105329169Y-140126845D01*
X105324514Y-140133100D01*
X105293783Y-140157673D01*
X105258496Y-140160341D01*
X105226245Y-140145271D01*
X105215588Y-140136374D01*
X105208464Y-140124557D01*
X105204167Y-140105526D01*
X105201991Y-140074992D01*
X105201228Y-140028662D01*
X105201155Y-139992871D01*
X105201155Y-139858045D01*
X104704444Y-139858045D01*
X104704444Y-139980700D01*
X104703931Y-140036787D01*
X104701876Y-140075333D01*
X104697508Y-140101361D01*
X104690056Y-140119897D01*
X104681047Y-140133100D01*
X104650144Y-140157604D01*
X104615196Y-140160506D01*
X104581738Y-140143089D01*
X104572604Y-140133959D01*
X104566152Y-140121855D01*
X104561897Y-140103001D01*
X104559352Y-140073620D01*
X104558029Y-140029937D01*
X104557443Y-139968175D01*
X104557375Y-139954000D01*
X104556891Y-139837631D01*
X104556641Y-139741727D01*
X104556723Y-139664177D01*
X104557231Y-139602869D01*
X104558262Y-139555690D01*
X104559913Y-139520530D01*
X104562279Y-139495276D01*
X104565457Y-139477817D01*
X104569544Y-139466041D01*
X104574634Y-139457835D01*
X104580266Y-139451645D01*
X104612128Y-139431844D01*
X104645357Y-139434533D01*
X104676735Y-139456776D01*
X104689433Y-139471126D01*
X104697526Y-139486978D01*
X104702042Y-139509554D01*
X104704006Y-139544078D01*
X104704444Y-139595776D01*
X104704444Y-139711289D01*
X105201155Y-139711289D01*
X105201155Y-139592756D01*
X105201662Y-139538148D01*
X105203698Y-139501275D01*
X105208035Y-139477307D01*
X105215447Y-139461415D01*
X105223733Y-139451645D01*
X105255594Y-139431844D01*
X105288823Y-139434533D01*
G36*
X113094441Y-47792249D02*
G01*
X113126575Y-47816621D01*
X113137635Y-47880120D01*
X113138857Y-47969714D01*
X113138857Y-48151143D01*
X113320286Y-48151143D01*
X113427687Y-48153521D01*
X113481244Y-48168144D01*
X113499677Y-48206244D01*
X113501714Y-48260000D01*
X113497750Y-48324441D01*
X113473379Y-48356575D01*
X113409880Y-48367635D01*
X113320286Y-48368857D01*
X113138857Y-48368857D01*
X113138857Y-48550286D01*
X113136479Y-48657687D01*
X113121856Y-48711244D01*
X113083756Y-48729677D01*
X113030000Y-48731714D01*
X112965559Y-48727750D01*
X112933425Y-48703379D01*
X112922365Y-48639880D01*
X112921143Y-48550286D01*
X112921143Y-48368857D01*
X112739714Y-48368857D01*
X112632313Y-48366479D01*
X112578756Y-48351856D01*
X112560323Y-48313756D01*
X112558286Y-48260000D01*
X112562249Y-48195559D01*
X112586621Y-48163425D01*
X112650120Y-48152365D01*
X112739714Y-48151143D01*
X112921143Y-48151143D01*
X112921143Y-47969714D01*
X112923521Y-47862313D01*
X112938144Y-47808756D01*
X112976244Y-47790323D01*
X113030000Y-47788286D01*
X113094441Y-47792249D01*
G37*
X113094441Y-47792249D02*
X113126575Y-47816621D01*
X113137635Y-47880120D01*
X113138857Y-47969714D01*
X113138857Y-48151143D01*
X113320286Y-48151143D01*
X113427687Y-48153521D01*
X113481244Y-48168144D01*
X113499677Y-48206244D01*
X113501714Y-48260000D01*
X113497750Y-48324441D01*
X113473379Y-48356575D01*
X113409880Y-48367635D01*
X113320286Y-48368857D01*
X113138857Y-48368857D01*
X113138857Y-48550286D01*
X113136479Y-48657687D01*
X113121856Y-48711244D01*
X113083756Y-48729677D01*
X113030000Y-48731714D01*
X112965559Y-48727750D01*
X112933425Y-48703379D01*
X112922365Y-48639880D01*
X112921143Y-48550286D01*
X112921143Y-48368857D01*
X112739714Y-48368857D01*
X112632313Y-48366479D01*
X112578756Y-48351856D01*
X112560323Y-48313756D01*
X112558286Y-48260000D01*
X112562249Y-48195559D01*
X112586621Y-48163425D01*
X112650120Y-48152365D01*
X112739714Y-48151143D01*
X112921143Y-48151143D01*
X112921143Y-47969714D01*
X112923521Y-47862313D01*
X112938144Y-47808756D01*
X112976244Y-47790323D01*
X113030000Y-47788286D01*
X113094441Y-47792249D01*
G36*
X108421714Y-48368857D02*
G01*
X107478286Y-48368857D01*
X107478286Y-48151143D01*
X108421714Y-48151143D01*
X108421714Y-48368857D01*
G37*
X108421714Y-48368857D02*
X107478286Y-48368857D01*
X107478286Y-48151143D01*
X108421714Y-48151143D01*
X108421714Y-48368857D01*
G36*
X114136096Y-48259679D02*
G01*
X113610732Y-48785982D01*
X113450557Y-48944697D01*
X113306414Y-49084224D01*
X113186520Y-49196877D01*
X113099088Y-49274971D01*
X113052335Y-49310821D01*
X113048089Y-49312286D01*
X113011740Y-49287728D01*
X112933346Y-49219476D01*
X112821663Y-49115660D01*
X112685447Y-48984412D01*
X112540143Y-48840571D01*
X112069476Y-48368857D01*
X111461166Y-48368857D01*
X111260231Y-48370624D01*
X111087285Y-48375519D01*
X110954192Y-48382929D01*
X110872815Y-48392245D01*
X110852857Y-48400195D01*
X110829380Y-48444179D01*
X110771475Y-48512564D01*
X110757195Y-48527195D01*
X110632700Y-48604768D01*
X110484109Y-48629372D01*
X110336626Y-48600966D01*
X110223686Y-48528076D01*
X110132304Y-48392350D01*
X110103928Y-48243969D01*
X110104661Y-48240646D01*
X112231688Y-48240646D01*
X112621154Y-48631323D01*
X112757399Y-48766780D01*
X112875449Y-48881856D01*
X112965992Y-48967654D01*
X113019718Y-49015276D01*
X113030000Y-49022000D01*
X113061001Y-48997643D01*
X113133641Y-48930504D01*
X113238609Y-48829479D01*
X113366594Y-48703465D01*
X113438846Y-48631323D01*
X113828312Y-48240646D01*
X113429156Y-47842727D01*
X113030000Y-47444809D01*
X112630844Y-47842727D01*
X112231688Y-48240646D01*
X110104661Y-48240646D01*
X110135765Y-48099677D01*
X110225024Y-47976223D01*
X110327096Y-47907796D01*
X110473081Y-47872959D01*
X110620917Y-47894984D01*
X110747276Y-47967278D01*
X110810548Y-48044426D01*
X110871000Y-48150684D01*
X111451102Y-48150913D01*
X112031203Y-48151143D01*
X112530771Y-47652532D01*
X113030338Y-47153921D01*
X114136096Y-48259679D01*
G37*
X114136096Y-48259679D02*
X113610732Y-48785982D01*
X113450557Y-48944697D01*
X113306414Y-49084224D01*
X113186520Y-49196877D01*
X113099088Y-49274971D01*
X113052335Y-49310821D01*
X113048089Y-49312286D01*
X113011740Y-49287728D01*
X112933346Y-49219476D01*
X112821663Y-49115660D01*
X112685447Y-48984412D01*
X112540143Y-48840571D01*
X112069476Y-48368857D01*
X111461166Y-48368857D01*
X111260231Y-48370624D01*
X111087285Y-48375519D01*
X110954192Y-48382929D01*
X110872815Y-48392245D01*
X110852857Y-48400195D01*
X110829380Y-48444179D01*
X110771475Y-48512564D01*
X110757195Y-48527195D01*
X110632700Y-48604768D01*
X110484109Y-48629372D01*
X110336626Y-48600966D01*
X110223686Y-48528076D01*
X110132304Y-48392350D01*
X110103928Y-48243969D01*
X110104661Y-48240646D01*
X112231688Y-48240646D01*
X112621154Y-48631323D01*
X112757399Y-48766780D01*
X112875449Y-48881856D01*
X112965992Y-48967654D01*
X113019718Y-49015276D01*
X113030000Y-49022000D01*
X113061001Y-48997643D01*
X113133641Y-48930504D01*
X113238609Y-48829479D01*
X113366594Y-48703465D01*
X113438846Y-48631323D01*
X113828312Y-48240646D01*
X113429156Y-47842727D01*
X113030000Y-47444809D01*
X112630844Y-47842727D01*
X112231688Y-48240646D01*
X110104661Y-48240646D01*
X110135765Y-48099677D01*
X110225024Y-47976223D01*
X110327096Y-47907796D01*
X110473081Y-47872959D01*
X110620917Y-47894984D01*
X110747276Y-47967278D01*
X110810548Y-48044426D01*
X110871000Y-48150684D01*
X111451102Y-48150913D01*
X112031203Y-48151143D01*
X112530771Y-47652532D01*
X113030338Y-47153921D01*
X114136096Y-48259679D01*
G36*
X108431097Y-47670686D02*
G01*
X108912544Y-48151143D01*
X109604091Y-48151143D01*
X109646078Y-47996928D01*
X109736732Y-47791409D01*
X109878680Y-47624361D01*
X110059432Y-47499643D01*
X110266497Y-47421113D01*
X110487385Y-47392629D01*
X110709604Y-47418050D01*
X110920666Y-47501234D01*
X111024941Y-47571009D01*
X111103898Y-47646585D01*
X111184503Y-47744123D01*
X111250603Y-47841513D01*
X111286046Y-47916643D01*
X111288286Y-47931503D01*
X111260806Y-47967216D01*
X111195525Y-47972379D01*
X111118181Y-47951503D01*
X111054512Y-47909103D01*
X111038994Y-47887798D01*
X110959005Y-47791923D01*
X110833761Y-47698518D01*
X110688945Y-47625363D01*
X110631720Y-47605875D01*
X110440433Y-47586853D01*
X110249045Y-47632103D01*
X110073256Y-47735070D01*
X109928768Y-47889195D01*
X109919081Y-47903464D01*
X109840482Y-48083918D01*
X109819316Y-48285344D01*
X109855503Y-48484457D01*
X109921564Y-48620288D01*
X110060371Y-48770965D01*
X110232691Y-48868652D01*
X110423549Y-48912494D01*
X110617970Y-48901635D01*
X110800978Y-48835218D01*
X110957597Y-48712388D01*
X110984392Y-48681034D01*
X111079329Y-48586308D01*
X111170746Y-48551101D01*
X111188500Y-48550287D01*
X111260306Y-48554507D01*
X111282911Y-48578645D01*
X111261878Y-48639918D01*
X111234809Y-48693588D01*
X111110766Y-48859381D01*
X110936188Y-48991836D01*
X110728718Y-49082479D01*
X110506001Y-49122832D01*
X110353384Y-49117022D01*
X110142107Y-49055122D01*
X109948215Y-48937492D01*
X109787045Y-48777893D01*
X109673934Y-48590085D01*
X109636426Y-48473801D01*
X109613377Y-48368857D01*
X108946849Y-48368857D01*
X108458000Y-48858714D01*
X108304527Y-49011357D01*
X108168383Y-49144590D01*
X108057858Y-49250478D01*
X107981242Y-49321085D01*
X107946823Y-49348475D01*
X107946273Y-49348571D01*
X107915567Y-49323425D01*
X107842880Y-49253175D01*
X107735922Y-49145606D01*
X107602407Y-49008502D01*
X107450046Y-48849648D01*
X107404344Y-48801578D01*
X106887555Y-48256968D01*
X107173311Y-48256968D01*
X107552584Y-48651554D01*
X107931857Y-49046139D01*
X108330794Y-48653074D01*
X108729730Y-48260009D01*
X107950000Y-47480279D01*
X107173311Y-48256968D01*
X106887555Y-48256968D01*
X106885293Y-48254585D01*
X107417471Y-47722408D01*
X107949649Y-47190230D01*
X108431097Y-47670686D01*
G37*
X108431097Y-47670686D02*
X108912544Y-48151143D01*
X109604091Y-48151143D01*
X109646078Y-47996928D01*
X109736732Y-47791409D01*
X109878680Y-47624361D01*
X110059432Y-47499643D01*
X110266497Y-47421113D01*
X110487385Y-47392629D01*
X110709604Y-47418050D01*
X110920666Y-47501234D01*
X111024941Y-47571009D01*
X111103898Y-47646585D01*
X111184503Y-47744123D01*
X111250603Y-47841513D01*
X111286046Y-47916643D01*
X111288286Y-47931503D01*
X111260806Y-47967216D01*
X111195525Y-47972379D01*
X111118181Y-47951503D01*
X111054512Y-47909103D01*
X111038994Y-47887798D01*
X110959005Y-47791923D01*
X110833761Y-47698518D01*
X110688945Y-47625363D01*
X110631720Y-47605875D01*
X110440433Y-47586853D01*
X110249045Y-47632103D01*
X110073256Y-47735070D01*
X109928768Y-47889195D01*
X109919081Y-47903464D01*
X109840482Y-48083918D01*
X109819316Y-48285344D01*
X109855503Y-48484457D01*
X109921564Y-48620288D01*
X110060371Y-48770965D01*
X110232691Y-48868652D01*
X110423549Y-48912494D01*
X110617970Y-48901635D01*
X110800978Y-48835218D01*
X110957597Y-48712388D01*
X110984392Y-48681034D01*
X111079329Y-48586308D01*
X111170746Y-48551101D01*
X111188500Y-48550287D01*
X111260306Y-48554507D01*
X111282911Y-48578645D01*
X111261878Y-48639918D01*
X111234809Y-48693588D01*
X111110766Y-48859381D01*
X110936188Y-48991836D01*
X110728718Y-49082479D01*
X110506001Y-49122832D01*
X110353384Y-49117022D01*
X110142107Y-49055122D01*
X109948215Y-48937492D01*
X109787045Y-48777893D01*
X109673934Y-48590085D01*
X109636426Y-48473801D01*
X109613377Y-48368857D01*
X108946849Y-48368857D01*
X108458000Y-48858714D01*
X108304527Y-49011357D01*
X108168383Y-49144590D01*
X108057858Y-49250478D01*
X107981242Y-49321085D01*
X107946823Y-49348475D01*
X107946273Y-49348571D01*
X107915567Y-49323425D01*
X107842880Y-49253175D01*
X107735922Y-49145606D01*
X107602407Y-49008502D01*
X107450046Y-48849648D01*
X107404344Y-48801578D01*
X106887555Y-48256968D01*
X107173311Y-48256968D01*
X107552584Y-48651554D01*
X107931857Y-49046139D01*
X108330794Y-48653074D01*
X108729730Y-48260009D01*
X107950000Y-47480279D01*
X107173311Y-48256968D01*
X106887555Y-48256968D01*
X106885293Y-48254585D01*
X107417471Y-47722408D01*
X107949649Y-47190230D01*
X108431097Y-47670686D01*
D14*
X103100000Y-93980000D02*
X102330000Y-93980000D01*
X95020000Y-93980000D02*
X95790000Y-93980000D01*
X102330000Y-92610000D02*
X95790000Y-92610000D01*
X102330000Y-95350000D02*
X102330000Y-92610000D01*
X95790000Y-95350000D02*
X102330000Y-95350000D01*
X95790000Y-92610000D02*
X95790000Y-95350000D01*
X103100000Y-90170000D02*
X102330000Y-90170000D01*
X95020000Y-90170000D02*
X95790000Y-90170000D01*
X102330000Y-88800000D02*
X95790000Y-88800000D01*
X102330000Y-91540000D02*
X102330000Y-88800000D01*
X95790000Y-91540000D02*
X102330000Y-91540000D01*
X95790000Y-88800000D02*
X95790000Y-91540000D01*
X103100000Y-86360000D02*
X102330000Y-86360000D01*
X95020000Y-86360000D02*
X95790000Y-86360000D01*
X102330000Y-84990000D02*
X95790000Y-84990000D01*
X102330000Y-87730000D02*
X102330000Y-84990000D01*
X95790000Y-87730000D02*
X102330000Y-87730000D01*
X95790000Y-84990000D02*
X95790000Y-87730000D01*
X103100000Y-82550000D02*
X102330000Y-82550000D01*
X95020000Y-82550000D02*
X95790000Y-82550000D01*
X102330000Y-81180000D02*
X95790000Y-81180000D01*
X102330000Y-83920000D02*
X102330000Y-81180000D01*
X95790000Y-83920000D02*
X102330000Y-83920000D01*
X95790000Y-81180000D02*
X95790000Y-83920000D01*
X103100000Y-78740000D02*
X102330000Y-78740000D01*
X95020000Y-78740000D02*
X95790000Y-78740000D01*
X102330000Y-77370000D02*
X95790000Y-77370000D01*
X102330000Y-80110000D02*
X102330000Y-77370000D01*
X95790000Y-80110000D02*
X102330000Y-80110000D01*
X95790000Y-77370000D02*
X95790000Y-80110000D01*
X103100000Y-74930000D02*
X102330000Y-74930000D01*
X95020000Y-74930000D02*
X95790000Y-74930000D01*
X102330000Y-73560000D02*
X95790000Y-73560000D01*
X102330000Y-76300000D02*
X102330000Y-73560000D01*
X95790000Y-76300000D02*
X102330000Y-76300000D01*
X95790000Y-73560000D02*
X95790000Y-76300000D01*
X95020000Y-71120000D02*
X95790000Y-71120000D01*
X103100000Y-71120000D02*
X102330000Y-71120000D01*
X95790000Y-72490000D02*
X102330000Y-72490000D01*
X95790000Y-69750000D02*
X95790000Y-72490000D01*
X102330000Y-69750000D02*
X95790000Y-69750000D01*
X102330000Y-72490000D02*
X102330000Y-69750000D01*
X95020000Y-67310000D02*
X95790000Y-67310000D01*
X103100000Y-67310000D02*
X102330000Y-67310000D01*
X95790000Y-68680000D02*
X102330000Y-68680000D01*
X95790000Y-65940000D02*
X95790000Y-68680000D01*
X102330000Y-65940000D02*
X95790000Y-65940000D01*
X102330000Y-68680000D02*
X102330000Y-65940000D01*
X95020000Y-63500000D02*
X95790000Y-63500000D01*
X103100000Y-63500000D02*
X102330000Y-63500000D01*
X95790000Y-64870000D02*
X102330000Y-64870000D01*
X95790000Y-62130000D02*
X95790000Y-64870000D01*
X102330000Y-62130000D02*
X95790000Y-62130000D01*
X102330000Y-64870000D02*
X102330000Y-62130000D01*
X95020000Y-59690000D02*
X95790000Y-59690000D01*
X103100000Y-59690000D02*
X102330000Y-59690000D01*
X95790000Y-61060000D02*
X102330000Y-61060000D01*
X95790000Y-58320000D02*
X95790000Y-61060000D01*
X102330000Y-58320000D02*
X95790000Y-58320000D01*
X102330000Y-61060000D02*
X102330000Y-58320000D01*
X95020000Y-55880000D02*
X95790000Y-55880000D01*
X103100000Y-55880000D02*
X102330000Y-55880000D01*
X95790000Y-57250000D02*
X102330000Y-57250000D01*
X95790000Y-54510000D02*
X95790000Y-57250000D01*
X102330000Y-54510000D02*
X95790000Y-54510000D01*
X102330000Y-57250000D02*
X102330000Y-54510000D01*
X95020000Y-52070000D02*
X95790000Y-52070000D01*
X103100000Y-52070000D02*
X102330000Y-52070000D01*
X95790000Y-53440000D02*
X102330000Y-53440000D01*
X95790000Y-50700000D02*
X95790000Y-53440000D01*
X102330000Y-50700000D02*
X95790000Y-50700000D01*
X102330000Y-53440000D02*
X102330000Y-50700000D01*
X146050000Y-88900000D02*
X146050000Y-91440000D01*
X146050000Y-91440000D02*
X148720000Y-91440000D01*
X148720000Y-88900000D02*
X148720000Y-50670000D01*
X148720000Y-94110000D02*
X148720000Y-91440000D01*
X133350000Y-91440000D02*
X130680000Y-91440000D01*
X133350000Y-91440000D02*
X133350000Y-53340000D01*
X133350000Y-53340000D02*
X130680000Y-53340000D01*
X146050000Y-88900000D02*
X148720000Y-88900000D01*
X146050000Y-88900000D02*
X146050000Y-53340000D01*
X146050000Y-53340000D02*
X148720000Y-53340000D01*
X148720000Y-50670000D02*
X130680000Y-50670000D01*
X130680000Y-50670000D02*
X130680000Y-94110000D01*
X130680000Y-94110000D02*
X148720000Y-94110000D01*
X153980000Y-106040000D02*
G75*
G03*
X153980000Y-106040000I-4120000J0D01*
G01*
X153940000Y-106040000D02*
X145780000Y-106040000D01*
X153940000Y-106080000D02*
X145780000Y-106080000D01*
X153940000Y-106120000D02*
X145780000Y-106120000D01*
X153939000Y-106160000D02*
X145781000Y-106160000D01*
X153937000Y-106200000D02*
X145783000Y-106200000D01*
X153936000Y-106240000D02*
X145784000Y-106240000D01*
X153934000Y-106280000D02*
X145786000Y-106280000D01*
X153931000Y-106320000D02*
X145789000Y-106320000D01*
X153928000Y-106360000D02*
X145792000Y-106360000D01*
X153925000Y-106400000D02*
X145795000Y-106400000D01*
X153921000Y-106440000D02*
X145799000Y-106440000D01*
X153917000Y-106480000D02*
X145803000Y-106480000D01*
X153912000Y-106520000D02*
X145808000Y-106520000D01*
X153908000Y-106560000D02*
X145812000Y-106560000D01*
X153902000Y-106600000D02*
X145818000Y-106600000D01*
X153897000Y-106640000D02*
X145823000Y-106640000D01*
X153890000Y-106680000D02*
X145830000Y-106680000D01*
X153884000Y-106720000D02*
X145836000Y-106720000D01*
X153877000Y-106761000D02*
X145843000Y-106761000D01*
X153870000Y-106801000D02*
X145850000Y-106801000D01*
X153862000Y-106841000D02*
X145858000Y-106841000D01*
X153854000Y-106881000D02*
X145866000Y-106881000D01*
X153845000Y-106921000D02*
X150900000Y-106921000D01*
X148820000Y-106921000D02*
X145875000Y-106921000D01*
X153836000Y-106961000D02*
X150900000Y-106961000D01*
X148820000Y-106961000D02*
X145884000Y-106961000D01*
X153827000Y-107001000D02*
X150900000Y-107001000D01*
X148820000Y-107001000D02*
X145893000Y-107001000D01*
X153817000Y-107041000D02*
X150900000Y-107041000D01*
X148820000Y-107041000D02*
X145903000Y-107041000D01*
X153807000Y-107081000D02*
X150900000Y-107081000D01*
X148820000Y-107081000D02*
X145913000Y-107081000D01*
X153796000Y-107121000D02*
X150900000Y-107121000D01*
X148820000Y-107121000D02*
X145924000Y-107121000D01*
X153785000Y-107161000D02*
X150900000Y-107161000D01*
X148820000Y-107161000D02*
X145935000Y-107161000D01*
X153774000Y-107201000D02*
X150900000Y-107201000D01*
X148820000Y-107201000D02*
X145946000Y-107201000D01*
X153762000Y-107241000D02*
X150900000Y-107241000D01*
X148820000Y-107241000D02*
X145958000Y-107241000D01*
X153749000Y-107281000D02*
X150900000Y-107281000D01*
X148820000Y-107281000D02*
X145971000Y-107281000D01*
X153737000Y-107321000D02*
X150900000Y-107321000D01*
X148820000Y-107321000D02*
X145983000Y-107321000D01*
X153723000Y-107361000D02*
X150900000Y-107361000D01*
X148820000Y-107361000D02*
X145997000Y-107361000D01*
X153710000Y-107401000D02*
X150900000Y-107401000D01*
X148820000Y-107401000D02*
X146010000Y-107401000D01*
X153695000Y-107441000D02*
X150900000Y-107441000D01*
X148820000Y-107441000D02*
X146025000Y-107441000D01*
X153681000Y-107481000D02*
X150900000Y-107481000D01*
X148820000Y-107481000D02*
X146039000Y-107481000D01*
X153665000Y-107521000D02*
X150900000Y-107521000D01*
X148820000Y-107521000D02*
X146055000Y-107521000D01*
X153650000Y-107561000D02*
X150900000Y-107561000D01*
X148820000Y-107561000D02*
X146070000Y-107561000D01*
X153634000Y-107601000D02*
X150900000Y-107601000D01*
X148820000Y-107601000D02*
X146086000Y-107601000D01*
X153617000Y-107641000D02*
X150900000Y-107641000D01*
X148820000Y-107641000D02*
X146103000Y-107641000D01*
X153600000Y-107681000D02*
X150900000Y-107681000D01*
X148820000Y-107681000D02*
X146120000Y-107681000D01*
X153582000Y-107721000D02*
X150900000Y-107721000D01*
X148820000Y-107721000D02*
X146138000Y-107721000D01*
X153564000Y-107761000D02*
X150900000Y-107761000D01*
X148820000Y-107761000D02*
X146156000Y-107761000D01*
X153546000Y-107801000D02*
X150900000Y-107801000D01*
X148820000Y-107801000D02*
X146174000Y-107801000D01*
X153526000Y-107841000D02*
X150900000Y-107841000D01*
X148820000Y-107841000D02*
X146194000Y-107841000D01*
X153507000Y-107881000D02*
X150900000Y-107881000D01*
X148820000Y-107881000D02*
X146213000Y-107881000D01*
X153487000Y-107921000D02*
X150900000Y-107921000D01*
X148820000Y-107921000D02*
X146233000Y-107921000D01*
X153466000Y-107961000D02*
X150900000Y-107961000D01*
X148820000Y-107961000D02*
X146254000Y-107961000D01*
X153444000Y-108001000D02*
X150900000Y-108001000D01*
X148820000Y-108001000D02*
X146276000Y-108001000D01*
X153422000Y-108041000D02*
X150900000Y-108041000D01*
X148820000Y-108041000D02*
X146298000Y-108041000D01*
X153400000Y-108081000D02*
X150900000Y-108081000D01*
X148820000Y-108081000D02*
X146320000Y-108081000D01*
X153377000Y-108121000D02*
X150900000Y-108121000D01*
X148820000Y-108121000D02*
X146343000Y-108121000D01*
X153353000Y-108161000D02*
X150900000Y-108161000D01*
X148820000Y-108161000D02*
X146367000Y-108161000D01*
X153329000Y-108201000D02*
X150900000Y-108201000D01*
X148820000Y-108201000D02*
X146391000Y-108201000D01*
X153304000Y-108241000D02*
X150900000Y-108241000D01*
X148820000Y-108241000D02*
X146416000Y-108241000D01*
X153278000Y-108281000D02*
X150900000Y-108281000D01*
X148820000Y-108281000D02*
X146442000Y-108281000D01*
X153252000Y-108321000D02*
X150900000Y-108321000D01*
X148820000Y-108321000D02*
X146468000Y-108321000D01*
X153225000Y-108361000D02*
X150900000Y-108361000D01*
X148820000Y-108361000D02*
X146495000Y-108361000D01*
X153198000Y-108401000D02*
X150900000Y-108401000D01*
X148820000Y-108401000D02*
X146522000Y-108401000D01*
X153169000Y-108441000D02*
X150900000Y-108441000D01*
X148820000Y-108441000D02*
X146551000Y-108441000D01*
X153140000Y-108481000D02*
X150900000Y-108481000D01*
X148820000Y-108481000D02*
X146580000Y-108481000D01*
X153110000Y-108521000D02*
X150900000Y-108521000D01*
X148820000Y-108521000D02*
X146610000Y-108521000D01*
X153080000Y-108561000D02*
X150900000Y-108561000D01*
X148820000Y-108561000D02*
X146640000Y-108561000D01*
X153049000Y-108601000D02*
X150900000Y-108601000D01*
X148820000Y-108601000D02*
X146671000Y-108601000D01*
X153016000Y-108641000D02*
X150900000Y-108641000D01*
X148820000Y-108641000D02*
X146704000Y-108641000D01*
X152984000Y-108681000D02*
X150900000Y-108681000D01*
X148820000Y-108681000D02*
X146736000Y-108681000D01*
X152950000Y-108721000D02*
X150900000Y-108721000D01*
X148820000Y-108721000D02*
X146770000Y-108721000D01*
X152915000Y-108761000D02*
X150900000Y-108761000D01*
X148820000Y-108761000D02*
X146805000Y-108761000D01*
X152879000Y-108801000D02*
X150900000Y-108801000D01*
X148820000Y-108801000D02*
X146841000Y-108801000D01*
X152843000Y-108841000D02*
X150900000Y-108841000D01*
X148820000Y-108841000D02*
X146877000Y-108841000D01*
X152805000Y-108881000D02*
X150900000Y-108881000D01*
X148820000Y-108881000D02*
X146915000Y-108881000D01*
X152767000Y-108921000D02*
X150900000Y-108921000D01*
X148820000Y-108921000D02*
X146953000Y-108921000D01*
X152727000Y-108961000D02*
X150900000Y-108961000D01*
X148820000Y-108961000D02*
X146993000Y-108961000D01*
X152686000Y-109001000D02*
X147034000Y-109001000D01*
X152644000Y-109041000D02*
X147076000Y-109041000D01*
X152601000Y-109081000D02*
X147119000Y-109081000D01*
X152557000Y-109121000D02*
X147163000Y-109121000D01*
X152511000Y-109161000D02*
X147209000Y-109161000D01*
X152464000Y-109201000D02*
X147256000Y-109201000D01*
X152416000Y-109241000D02*
X147304000Y-109241000D01*
X152365000Y-109281000D02*
X147355000Y-109281000D01*
X152314000Y-109321000D02*
X147406000Y-109321000D01*
X152260000Y-109361000D02*
X147460000Y-109361000D01*
X152205000Y-109401000D02*
X147515000Y-109401000D01*
X152147000Y-109441000D02*
X147573000Y-109441000D01*
X152088000Y-109481000D02*
X147632000Y-109481000D01*
X152026000Y-109521000D02*
X147694000Y-109521000D01*
X151962000Y-109561000D02*
X147758000Y-109561000D01*
X151894000Y-109601000D02*
X147826000Y-109601000D01*
X151824000Y-109641000D02*
X147896000Y-109641000D01*
X151750000Y-109681000D02*
X147970000Y-109681000D01*
X151673000Y-109721000D02*
X148047000Y-109721000D01*
X151591000Y-109761000D02*
X148129000Y-109761000D01*
X151505000Y-109801000D02*
X148215000Y-109801000D01*
X151412000Y-109841000D02*
X148308000Y-109841000D01*
X151313000Y-109881000D02*
X148407000Y-109881000D01*
X151206000Y-109921000D02*
X148514000Y-109921000D01*
X151089000Y-109961000D02*
X148631000Y-109961000D01*
X150958000Y-110001000D02*
X148762000Y-110001000D01*
X150808000Y-110041000D02*
X148912000Y-110041000D01*
X150628000Y-110081000D02*
X149092000Y-110081000D01*
X150393000Y-110121000D02*
X149327000Y-110121000D01*
X152175000Y-101630302D02*
X152175000Y-102430302D01*
X152575000Y-102030302D02*
X151775000Y-102030302D01*
X114085000Y-105720000D02*
X114100000Y-105720000D01*
X111960000Y-105720000D02*
X111975000Y-105720000D01*
X114085000Y-110260000D02*
X114100000Y-110260000D01*
X111960000Y-110260000D02*
X111975000Y-110260000D01*
X114100000Y-110260000D02*
X114100000Y-105720000D01*
X111960000Y-110260000D02*
X111960000Y-105720000D01*
X153980000Y-117470000D02*
G75*
G03*
X153980000Y-117470000I-4120000J0D01*
G01*
X153940000Y-117470000D02*
X145780000Y-117470000D01*
X153940000Y-117510000D02*
X145780000Y-117510000D01*
X153940000Y-117550000D02*
X145780000Y-117550000D01*
X153939000Y-117590000D02*
X145781000Y-117590000D01*
X153937000Y-117630000D02*
X145783000Y-117630000D01*
X153936000Y-117670000D02*
X145784000Y-117670000D01*
X153934000Y-117710000D02*
X145786000Y-117710000D01*
X153931000Y-117750000D02*
X145789000Y-117750000D01*
X153928000Y-117790000D02*
X145792000Y-117790000D01*
X153925000Y-117830000D02*
X145795000Y-117830000D01*
X153921000Y-117870000D02*
X145799000Y-117870000D01*
X153917000Y-117910000D02*
X145803000Y-117910000D01*
X153912000Y-117950000D02*
X145808000Y-117950000D01*
X153908000Y-117990000D02*
X145812000Y-117990000D01*
X153902000Y-118030000D02*
X145818000Y-118030000D01*
X153897000Y-118070000D02*
X145823000Y-118070000D01*
X153890000Y-118110000D02*
X145830000Y-118110000D01*
X153884000Y-118150000D02*
X145836000Y-118150000D01*
X153877000Y-118191000D02*
X145843000Y-118191000D01*
X153870000Y-118231000D02*
X145850000Y-118231000D01*
X153862000Y-118271000D02*
X145858000Y-118271000D01*
X153854000Y-118311000D02*
X145866000Y-118311000D01*
X153845000Y-118351000D02*
X150900000Y-118351000D01*
X148820000Y-118351000D02*
X145875000Y-118351000D01*
X153836000Y-118391000D02*
X150900000Y-118391000D01*
X148820000Y-118391000D02*
X145884000Y-118391000D01*
X153827000Y-118431000D02*
X150900000Y-118431000D01*
X148820000Y-118431000D02*
X145893000Y-118431000D01*
X153817000Y-118471000D02*
X150900000Y-118471000D01*
X148820000Y-118471000D02*
X145903000Y-118471000D01*
X153807000Y-118511000D02*
X150900000Y-118511000D01*
X148820000Y-118511000D02*
X145913000Y-118511000D01*
X153796000Y-118551000D02*
X150900000Y-118551000D01*
X148820000Y-118551000D02*
X145924000Y-118551000D01*
X153785000Y-118591000D02*
X150900000Y-118591000D01*
X148820000Y-118591000D02*
X145935000Y-118591000D01*
X153774000Y-118631000D02*
X150900000Y-118631000D01*
X148820000Y-118631000D02*
X145946000Y-118631000D01*
X153762000Y-118671000D02*
X150900000Y-118671000D01*
X148820000Y-118671000D02*
X145958000Y-118671000D01*
X153749000Y-118711000D02*
X150900000Y-118711000D01*
X148820000Y-118711000D02*
X145971000Y-118711000D01*
X153737000Y-118751000D02*
X150900000Y-118751000D01*
X148820000Y-118751000D02*
X145983000Y-118751000D01*
X153723000Y-118791000D02*
X150900000Y-118791000D01*
X148820000Y-118791000D02*
X145997000Y-118791000D01*
X153710000Y-118831000D02*
X150900000Y-118831000D01*
X148820000Y-118831000D02*
X146010000Y-118831000D01*
X153695000Y-118871000D02*
X150900000Y-118871000D01*
X148820000Y-118871000D02*
X146025000Y-118871000D01*
X153681000Y-118911000D02*
X150900000Y-118911000D01*
X148820000Y-118911000D02*
X146039000Y-118911000D01*
X153665000Y-118951000D02*
X150900000Y-118951000D01*
X148820000Y-118951000D02*
X146055000Y-118951000D01*
X153650000Y-118991000D02*
X150900000Y-118991000D01*
X148820000Y-118991000D02*
X146070000Y-118991000D01*
X153634000Y-119031000D02*
X150900000Y-119031000D01*
X148820000Y-119031000D02*
X146086000Y-119031000D01*
X153617000Y-119071000D02*
X150900000Y-119071000D01*
X148820000Y-119071000D02*
X146103000Y-119071000D01*
X153600000Y-119111000D02*
X150900000Y-119111000D01*
X148820000Y-119111000D02*
X146120000Y-119111000D01*
X153582000Y-119151000D02*
X150900000Y-119151000D01*
X148820000Y-119151000D02*
X146138000Y-119151000D01*
X153564000Y-119191000D02*
X150900000Y-119191000D01*
X148820000Y-119191000D02*
X146156000Y-119191000D01*
X153546000Y-119231000D02*
X150900000Y-119231000D01*
X148820000Y-119231000D02*
X146174000Y-119231000D01*
X153526000Y-119271000D02*
X150900000Y-119271000D01*
X148820000Y-119271000D02*
X146194000Y-119271000D01*
X153507000Y-119311000D02*
X150900000Y-119311000D01*
X148820000Y-119311000D02*
X146213000Y-119311000D01*
X153487000Y-119351000D02*
X150900000Y-119351000D01*
X148820000Y-119351000D02*
X146233000Y-119351000D01*
X153466000Y-119391000D02*
X150900000Y-119391000D01*
X148820000Y-119391000D02*
X146254000Y-119391000D01*
X153444000Y-119431000D02*
X150900000Y-119431000D01*
X148820000Y-119431000D02*
X146276000Y-119431000D01*
X153422000Y-119471000D02*
X150900000Y-119471000D01*
X148820000Y-119471000D02*
X146298000Y-119471000D01*
X153400000Y-119511000D02*
X150900000Y-119511000D01*
X148820000Y-119511000D02*
X146320000Y-119511000D01*
X153377000Y-119551000D02*
X150900000Y-119551000D01*
X148820000Y-119551000D02*
X146343000Y-119551000D01*
X153353000Y-119591000D02*
X150900000Y-119591000D01*
X148820000Y-119591000D02*
X146367000Y-119591000D01*
X153329000Y-119631000D02*
X150900000Y-119631000D01*
X148820000Y-119631000D02*
X146391000Y-119631000D01*
X153304000Y-119671000D02*
X150900000Y-119671000D01*
X148820000Y-119671000D02*
X146416000Y-119671000D01*
X153278000Y-119711000D02*
X150900000Y-119711000D01*
X148820000Y-119711000D02*
X146442000Y-119711000D01*
X153252000Y-119751000D02*
X150900000Y-119751000D01*
X148820000Y-119751000D02*
X146468000Y-119751000D01*
X153225000Y-119791000D02*
X150900000Y-119791000D01*
X148820000Y-119791000D02*
X146495000Y-119791000D01*
X153198000Y-119831000D02*
X150900000Y-119831000D01*
X148820000Y-119831000D02*
X146522000Y-119831000D01*
X153169000Y-119871000D02*
X150900000Y-119871000D01*
X148820000Y-119871000D02*
X146551000Y-119871000D01*
X153140000Y-119911000D02*
X150900000Y-119911000D01*
X148820000Y-119911000D02*
X146580000Y-119911000D01*
X153110000Y-119951000D02*
X150900000Y-119951000D01*
X148820000Y-119951000D02*
X146610000Y-119951000D01*
X153080000Y-119991000D02*
X150900000Y-119991000D01*
X148820000Y-119991000D02*
X146640000Y-119991000D01*
X153049000Y-120031000D02*
X150900000Y-120031000D01*
X148820000Y-120031000D02*
X146671000Y-120031000D01*
X153016000Y-120071000D02*
X150900000Y-120071000D01*
X148820000Y-120071000D02*
X146704000Y-120071000D01*
X152984000Y-120111000D02*
X150900000Y-120111000D01*
X148820000Y-120111000D02*
X146736000Y-120111000D01*
X152950000Y-120151000D02*
X150900000Y-120151000D01*
X148820000Y-120151000D02*
X146770000Y-120151000D01*
X152915000Y-120191000D02*
X150900000Y-120191000D01*
X148820000Y-120191000D02*
X146805000Y-120191000D01*
X152879000Y-120231000D02*
X150900000Y-120231000D01*
X148820000Y-120231000D02*
X146841000Y-120231000D01*
X152843000Y-120271000D02*
X150900000Y-120271000D01*
X148820000Y-120271000D02*
X146877000Y-120271000D01*
X152805000Y-120311000D02*
X150900000Y-120311000D01*
X148820000Y-120311000D02*
X146915000Y-120311000D01*
X152767000Y-120351000D02*
X150900000Y-120351000D01*
X148820000Y-120351000D02*
X146953000Y-120351000D01*
X152727000Y-120391000D02*
X150900000Y-120391000D01*
X148820000Y-120391000D02*
X146993000Y-120391000D01*
X152686000Y-120431000D02*
X147034000Y-120431000D01*
X152644000Y-120471000D02*
X147076000Y-120471000D01*
X152601000Y-120511000D02*
X147119000Y-120511000D01*
X152557000Y-120551000D02*
X147163000Y-120551000D01*
X152511000Y-120591000D02*
X147209000Y-120591000D01*
X152464000Y-120631000D02*
X147256000Y-120631000D01*
X152416000Y-120671000D02*
X147304000Y-120671000D01*
X152365000Y-120711000D02*
X147355000Y-120711000D01*
X152314000Y-120751000D02*
X147406000Y-120751000D01*
X152260000Y-120791000D02*
X147460000Y-120791000D01*
X152205000Y-120831000D02*
X147515000Y-120831000D01*
X152147000Y-120871000D02*
X147573000Y-120871000D01*
X152088000Y-120911000D02*
X147632000Y-120911000D01*
X152026000Y-120951000D02*
X147694000Y-120951000D01*
X151962000Y-120991000D02*
X147758000Y-120991000D01*
X151894000Y-121031000D02*
X147826000Y-121031000D01*
X151824000Y-121071000D02*
X147896000Y-121071000D01*
X151750000Y-121111000D02*
X147970000Y-121111000D01*
X151673000Y-121151000D02*
X148047000Y-121151000D01*
X151591000Y-121191000D02*
X148129000Y-121191000D01*
X151505000Y-121231000D02*
X148215000Y-121231000D01*
X151412000Y-121271000D02*
X148308000Y-121271000D01*
X151313000Y-121311000D02*
X148407000Y-121311000D01*
X151206000Y-121351000D02*
X148514000Y-121351000D01*
X151089000Y-121391000D02*
X148631000Y-121391000D01*
X150958000Y-121431000D02*
X148762000Y-121431000D01*
X150808000Y-121471000D02*
X148912000Y-121471000D01*
X150628000Y-121511000D02*
X149092000Y-121511000D01*
X150393000Y-121551000D02*
X149327000Y-121551000D01*
X152175000Y-113060302D02*
X152175000Y-113860302D01*
X152575000Y-113460302D02*
X151775000Y-113460302D01*
X111960000Y-125500000D02*
X111960000Y-120960000D01*
X114100000Y-125500000D02*
X114100000Y-120960000D01*
X111960000Y-125500000D02*
X111975000Y-125500000D01*
X114085000Y-125500000D02*
X114100000Y-125500000D01*
X111960000Y-120960000D02*
X111975000Y-120960000D01*
X114085000Y-120960000D02*
X114100000Y-120960000D01*
X152575000Y-124890302D02*
X151775000Y-124890302D01*
X152175000Y-124490302D02*
X152175000Y-125290302D01*
X150393000Y-132981000D02*
X149327000Y-132981000D01*
X150628000Y-132941000D02*
X149092000Y-132941000D01*
X150808000Y-132901000D02*
X148912000Y-132901000D01*
X150958000Y-132861000D02*
X148762000Y-132861000D01*
X151089000Y-132821000D02*
X148631000Y-132821000D01*
X151206000Y-132781000D02*
X148514000Y-132781000D01*
X151313000Y-132741000D02*
X148407000Y-132741000D01*
X151412000Y-132701000D02*
X148308000Y-132701000D01*
X151505000Y-132661000D02*
X148215000Y-132661000D01*
X151591000Y-132621000D02*
X148129000Y-132621000D01*
X151673000Y-132581000D02*
X148047000Y-132581000D01*
X151750000Y-132541000D02*
X147970000Y-132541000D01*
X151824000Y-132501000D02*
X147896000Y-132501000D01*
X151894000Y-132461000D02*
X147826000Y-132461000D01*
X151962000Y-132421000D02*
X147758000Y-132421000D01*
X152026000Y-132381000D02*
X147694000Y-132381000D01*
X152088000Y-132341000D02*
X147632000Y-132341000D01*
X152147000Y-132301000D02*
X147573000Y-132301000D01*
X152205000Y-132261000D02*
X147515000Y-132261000D01*
X152260000Y-132221000D02*
X147460000Y-132221000D01*
X152314000Y-132181000D02*
X147406000Y-132181000D01*
X152365000Y-132141000D02*
X147355000Y-132141000D01*
X152416000Y-132101000D02*
X147304000Y-132101000D01*
X152464000Y-132061000D02*
X147256000Y-132061000D01*
X152511000Y-132021000D02*
X147209000Y-132021000D01*
X152557000Y-131981000D02*
X147163000Y-131981000D01*
X152601000Y-131941000D02*
X147119000Y-131941000D01*
X152644000Y-131901000D02*
X147076000Y-131901000D01*
X152686000Y-131861000D02*
X147034000Y-131861000D01*
X148820000Y-131821000D02*
X146993000Y-131821000D01*
X152727000Y-131821000D02*
X150900000Y-131821000D01*
X148820000Y-131781000D02*
X146953000Y-131781000D01*
X152767000Y-131781000D02*
X150900000Y-131781000D01*
X148820000Y-131741000D02*
X146915000Y-131741000D01*
X152805000Y-131741000D02*
X150900000Y-131741000D01*
X148820000Y-131701000D02*
X146877000Y-131701000D01*
X152843000Y-131701000D02*
X150900000Y-131701000D01*
X148820000Y-131661000D02*
X146841000Y-131661000D01*
X152879000Y-131661000D02*
X150900000Y-131661000D01*
X148820000Y-131621000D02*
X146805000Y-131621000D01*
X152915000Y-131621000D02*
X150900000Y-131621000D01*
X148820000Y-131581000D02*
X146770000Y-131581000D01*
X152950000Y-131581000D02*
X150900000Y-131581000D01*
X148820000Y-131541000D02*
X146736000Y-131541000D01*
X152984000Y-131541000D02*
X150900000Y-131541000D01*
X148820000Y-131501000D02*
X146704000Y-131501000D01*
X153016000Y-131501000D02*
X150900000Y-131501000D01*
X148820000Y-131461000D02*
X146671000Y-131461000D01*
X153049000Y-131461000D02*
X150900000Y-131461000D01*
X148820000Y-131421000D02*
X146640000Y-131421000D01*
X153080000Y-131421000D02*
X150900000Y-131421000D01*
X148820000Y-131381000D02*
X146610000Y-131381000D01*
X153110000Y-131381000D02*
X150900000Y-131381000D01*
X148820000Y-131341000D02*
X146580000Y-131341000D01*
X153140000Y-131341000D02*
X150900000Y-131341000D01*
X148820000Y-131301000D02*
X146551000Y-131301000D01*
X153169000Y-131301000D02*
X150900000Y-131301000D01*
X148820000Y-131261000D02*
X146522000Y-131261000D01*
X153198000Y-131261000D02*
X150900000Y-131261000D01*
X148820000Y-131221000D02*
X146495000Y-131221000D01*
X153225000Y-131221000D02*
X150900000Y-131221000D01*
X148820000Y-131181000D02*
X146468000Y-131181000D01*
X153252000Y-131181000D02*
X150900000Y-131181000D01*
X148820000Y-131141000D02*
X146442000Y-131141000D01*
X153278000Y-131141000D02*
X150900000Y-131141000D01*
X148820000Y-131101000D02*
X146416000Y-131101000D01*
X153304000Y-131101000D02*
X150900000Y-131101000D01*
X148820000Y-131061000D02*
X146391000Y-131061000D01*
X153329000Y-131061000D02*
X150900000Y-131061000D01*
X148820000Y-131021000D02*
X146367000Y-131021000D01*
X153353000Y-131021000D02*
X150900000Y-131021000D01*
X148820000Y-130981000D02*
X146343000Y-130981000D01*
X153377000Y-130981000D02*
X150900000Y-130981000D01*
X148820000Y-130941000D02*
X146320000Y-130941000D01*
X153400000Y-130941000D02*
X150900000Y-130941000D01*
X148820000Y-130901000D02*
X146298000Y-130901000D01*
X153422000Y-130901000D02*
X150900000Y-130901000D01*
X148820000Y-130861000D02*
X146276000Y-130861000D01*
X153444000Y-130861000D02*
X150900000Y-130861000D01*
X148820000Y-130821000D02*
X146254000Y-130821000D01*
X153466000Y-130821000D02*
X150900000Y-130821000D01*
X148820000Y-130781000D02*
X146233000Y-130781000D01*
X153487000Y-130781000D02*
X150900000Y-130781000D01*
X148820000Y-130741000D02*
X146213000Y-130741000D01*
X153507000Y-130741000D02*
X150900000Y-130741000D01*
X148820000Y-130701000D02*
X146194000Y-130701000D01*
X153526000Y-130701000D02*
X150900000Y-130701000D01*
X148820000Y-130661000D02*
X146174000Y-130661000D01*
X153546000Y-130661000D02*
X150900000Y-130661000D01*
X148820000Y-130621000D02*
X146156000Y-130621000D01*
X153564000Y-130621000D02*
X150900000Y-130621000D01*
X148820000Y-130581000D02*
X146138000Y-130581000D01*
X153582000Y-130581000D02*
X150900000Y-130581000D01*
X148820000Y-130541000D02*
X146120000Y-130541000D01*
X153600000Y-130541000D02*
X150900000Y-130541000D01*
X148820000Y-130501000D02*
X146103000Y-130501000D01*
X153617000Y-130501000D02*
X150900000Y-130501000D01*
X148820000Y-130461000D02*
X146086000Y-130461000D01*
X153634000Y-130461000D02*
X150900000Y-130461000D01*
X148820000Y-130421000D02*
X146070000Y-130421000D01*
X153650000Y-130421000D02*
X150900000Y-130421000D01*
X148820000Y-130381000D02*
X146055000Y-130381000D01*
X153665000Y-130381000D02*
X150900000Y-130381000D01*
X148820000Y-130341000D02*
X146039000Y-130341000D01*
X153681000Y-130341000D02*
X150900000Y-130341000D01*
X148820000Y-130301000D02*
X146025000Y-130301000D01*
X153695000Y-130301000D02*
X150900000Y-130301000D01*
X148820000Y-130261000D02*
X146010000Y-130261000D01*
X153710000Y-130261000D02*
X150900000Y-130261000D01*
X148820000Y-130221000D02*
X145997000Y-130221000D01*
X153723000Y-130221000D02*
X150900000Y-130221000D01*
X148820000Y-130181000D02*
X145983000Y-130181000D01*
X153737000Y-130181000D02*
X150900000Y-130181000D01*
X148820000Y-130141000D02*
X145971000Y-130141000D01*
X153749000Y-130141000D02*
X150900000Y-130141000D01*
X148820000Y-130101000D02*
X145958000Y-130101000D01*
X153762000Y-130101000D02*
X150900000Y-130101000D01*
X148820000Y-130061000D02*
X145946000Y-130061000D01*
X153774000Y-130061000D02*
X150900000Y-130061000D01*
X148820000Y-130021000D02*
X145935000Y-130021000D01*
X153785000Y-130021000D02*
X150900000Y-130021000D01*
X148820000Y-129981000D02*
X145924000Y-129981000D01*
X153796000Y-129981000D02*
X150900000Y-129981000D01*
X148820000Y-129941000D02*
X145913000Y-129941000D01*
X153807000Y-129941000D02*
X150900000Y-129941000D01*
X148820000Y-129901000D02*
X145903000Y-129901000D01*
X153817000Y-129901000D02*
X150900000Y-129901000D01*
X148820000Y-129861000D02*
X145893000Y-129861000D01*
X153827000Y-129861000D02*
X150900000Y-129861000D01*
X148820000Y-129821000D02*
X145884000Y-129821000D01*
X153836000Y-129821000D02*
X150900000Y-129821000D01*
X148820000Y-129781000D02*
X145875000Y-129781000D01*
X153845000Y-129781000D02*
X150900000Y-129781000D01*
X153854000Y-129741000D02*
X145866000Y-129741000D01*
X153862000Y-129701000D02*
X145858000Y-129701000D01*
X153870000Y-129661000D02*
X145850000Y-129661000D01*
X153877000Y-129621000D02*
X145843000Y-129621000D01*
X153884000Y-129580000D02*
X145836000Y-129580000D01*
X153890000Y-129540000D02*
X145830000Y-129540000D01*
X153897000Y-129500000D02*
X145823000Y-129500000D01*
X153902000Y-129460000D02*
X145818000Y-129460000D01*
X153908000Y-129420000D02*
X145812000Y-129420000D01*
X153912000Y-129380000D02*
X145808000Y-129380000D01*
X153917000Y-129340000D02*
X145803000Y-129340000D01*
X153921000Y-129300000D02*
X145799000Y-129300000D01*
X153925000Y-129260000D02*
X145795000Y-129260000D01*
X153928000Y-129220000D02*
X145792000Y-129220000D01*
X153931000Y-129180000D02*
X145789000Y-129180000D01*
X153934000Y-129140000D02*
X145786000Y-129140000D01*
X153936000Y-129100000D02*
X145784000Y-129100000D01*
X153937000Y-129060000D02*
X145783000Y-129060000D01*
X153939000Y-129020000D02*
X145781000Y-129020000D01*
X153940000Y-128980000D02*
X145780000Y-128980000D01*
X153940000Y-128940000D02*
X145780000Y-128940000D01*
X153940000Y-128900000D02*
X145780000Y-128900000D01*
X153980000Y-128900000D02*
G75*
G03*
X153980000Y-128900000I-4120000J0D01*
G01*
X72350000Y-104140000D02*
G75*
G03*
X72350000Y-104140000I-2500000J0D01*
G01*
X67290000Y-102595000D02*
X67290000Y-105685000D01*
X72840000Y-104140462D02*
G75*
G03*
X67290000Y-102595170I-2990000J462D01*
G01*
X72840000Y-104139538D02*
G75*
G02*
X67290000Y-105684830I-2990000J-462D01*
G01*
X87610000Y-102595000D02*
X87610000Y-105685000D01*
X92670000Y-104140000D02*
G75*
G03*
X92670000Y-104140000I-2500000J0D01*
G01*
X93160000Y-104139538D02*
G75*
G02*
X87610000Y-105684830I-2990000J-462D01*
G01*
X93160000Y-104140462D02*
G75*
G03*
X87610000Y-102595170I-2990000J462D01*
G01*
X119580000Y-105230000D02*
X116640000Y-105230000D01*
X116640000Y-105230000D02*
X116640000Y-110670000D01*
X116640000Y-110670000D02*
X119580000Y-110670000D01*
X119580000Y-110670000D02*
X119580000Y-105230000D01*
X118110000Y-104210000D02*
X118110000Y-105230000D01*
X118110000Y-111690000D02*
X118110000Y-110670000D01*
X119580000Y-106130000D02*
X116640000Y-106130000D01*
X119580000Y-106250000D02*
X116640000Y-106250000D01*
X119580000Y-106010000D02*
X116640000Y-106010000D01*
X119580000Y-121250000D02*
X116640000Y-121250000D01*
X119580000Y-121490000D02*
X116640000Y-121490000D01*
X119580000Y-121370000D02*
X116640000Y-121370000D01*
X118110000Y-126930000D02*
X118110000Y-125910000D01*
X118110000Y-119450000D02*
X118110000Y-120470000D01*
X119580000Y-125910000D02*
X119580000Y-120470000D01*
X116640000Y-125910000D02*
X119580000Y-125910000D01*
X116640000Y-120470000D02*
X116640000Y-125910000D01*
X119580000Y-120470000D02*
X116640000Y-120470000D01*
X71250000Y-71120000D02*
X71250000Y-68580000D01*
X74550000Y-59190000D02*
X74550000Y-61450000D01*
X72310000Y-59190000D02*
X72310000Y-61050000D01*
X87710000Y-59190000D02*
X72310000Y-59190000D01*
X87710000Y-94690000D02*
X87710000Y-59190000D01*
X72310000Y-94690000D02*
X87710000Y-94690000D01*
X72310000Y-65950000D02*
X72310000Y-94690000D01*
X73900000Y-63500000D02*
G75*
G03*
X73900000Y-63500000I-900000J0D01*
G01*
X75550000Y-63500000D02*
G75*
G03*
X75550000Y-63500000I-2550000J0D01*
G01*
X107940000Y-110264260D02*
G75*
G03*
X107940000Y-104555740I-1260000J2854260D01*
G01*
X105420000Y-110264260D02*
G75*
G02*
X105420000Y-104555740I1260000J2854260D01*
G01*
X105420000Y-125504260D02*
G75*
G02*
X105420000Y-119795740I1260000J2854260D01*
G01*
X107940000Y-125504260D02*
G75*
G03*
X107940000Y-119795740I-1260000J2854260D01*
G01*
X109220000Y-60730000D02*
X109220000Y-61500000D01*
X109220000Y-68810000D02*
X109220000Y-68040000D01*
X107850000Y-61500000D02*
X107850000Y-68040000D01*
X110590000Y-61500000D02*
X107850000Y-61500000D01*
X110590000Y-68040000D02*
X110590000Y-61500000D01*
X107850000Y-68040000D02*
X110590000Y-68040000D01*
X107850000Y-87090000D02*
X110590000Y-87090000D01*
X110590000Y-87090000D02*
X110590000Y-80550000D01*
X110590000Y-80550000D02*
X107850000Y-80550000D01*
X107850000Y-80550000D02*
X107850000Y-87090000D01*
X109220000Y-87860000D02*
X109220000Y-87090000D01*
X109220000Y-79780000D02*
X109220000Y-80550000D01*
X138430000Y-111990000D02*
X138430000Y-111220000D01*
X138430000Y-103910000D02*
X138430000Y-104680000D01*
X139800000Y-111220000D02*
X139800000Y-104680000D01*
X137060000Y-111220000D02*
X139800000Y-111220000D01*
X137060000Y-104680000D02*
X137060000Y-111220000D01*
X139800000Y-104680000D02*
X137060000Y-104680000D01*
X124690000Y-71120000D02*
X123920000Y-71120000D01*
X116610000Y-71120000D02*
X117380000Y-71120000D01*
X123920000Y-69750000D02*
X117380000Y-69750000D01*
X123920000Y-72490000D02*
X123920000Y-69750000D01*
X117380000Y-72490000D02*
X123920000Y-72490000D01*
X117380000Y-69750000D02*
X117380000Y-72490000D01*
X117380000Y-76100000D02*
X117380000Y-78840000D01*
X117380000Y-78840000D02*
X123920000Y-78840000D01*
X123920000Y-78840000D02*
X123920000Y-76100000D01*
X123920000Y-76100000D02*
X117380000Y-76100000D01*
X116610000Y-77470000D02*
X117380000Y-77470000D01*
X124690000Y-77470000D02*
X123920000Y-77470000D01*
X117380000Y-82450000D02*
X117380000Y-85190000D01*
X117380000Y-85190000D02*
X123920000Y-85190000D01*
X123920000Y-85190000D02*
X123920000Y-82450000D01*
X123920000Y-82450000D02*
X117380000Y-82450000D01*
X116610000Y-83820000D02*
X117380000Y-83820000D01*
X124690000Y-83820000D02*
X123920000Y-83820000D01*
X139800000Y-119920000D02*
X137060000Y-119920000D01*
X137060000Y-119920000D02*
X137060000Y-126460000D01*
X137060000Y-126460000D02*
X139800000Y-126460000D01*
X139800000Y-126460000D02*
X139800000Y-119920000D01*
X138430000Y-119150000D02*
X138430000Y-119920000D01*
X138430000Y-127230000D02*
X138430000Y-126460000D01*
X124690000Y-90170000D02*
X123920000Y-90170000D01*
X116610000Y-90170000D02*
X117380000Y-90170000D01*
X123920000Y-88800000D02*
X117380000Y-88800000D01*
X123920000Y-91540000D02*
X123920000Y-88800000D01*
X117380000Y-91540000D02*
X123920000Y-91540000D01*
X117380000Y-88800000D02*
X117380000Y-91540000D01*
X117380000Y-95150000D02*
X117380000Y-97890000D01*
X117380000Y-97890000D02*
X123920000Y-97890000D01*
X123920000Y-97890000D02*
X123920000Y-95150000D01*
X123920000Y-95150000D02*
X117380000Y-95150000D01*
X116610000Y-96520000D02*
X117380000Y-96520000D01*
X124690000Y-96520000D02*
X123920000Y-96520000D01*
X73760000Y-123350000D02*
X86060000Y-123350000D01*
X86060000Y-127930000D02*
X86060000Y-131070000D01*
X86060000Y-135650000D02*
X73760000Y-135650000D01*
X73760000Y-126070000D02*
X73760000Y-123350000D01*
X84589050Y-129540000D02*
G75*
G03*
X84589050Y-129540000I-4579050J0D01*
G01*
X73760000Y-135650000D02*
X73760000Y-132930000D01*
X73760000Y-131070000D02*
X73760000Y-127930000D01*
X86060000Y-132930000D02*
X86060000Y-135650000D01*
X86060000Y-123350000D02*
X86060000Y-126070000D01*
X133410000Y-110600000D02*
X133410000Y-108950000D01*
X123130000Y-110600000D02*
X133410000Y-110600000D01*
X123130000Y-105300000D02*
X123130000Y-110600000D01*
X133410000Y-105300000D02*
X123130000Y-105300000D01*
X133410000Y-106950000D02*
X133410000Y-105300000D01*
X133410000Y-108950000D02*
G75*
G02*
X133410000Y-106950000I0J1000000D01*
G01*
X133410000Y-122190000D02*
X133410000Y-120540000D01*
X133410000Y-120540000D02*
X123130000Y-120540000D01*
X123130000Y-120540000D02*
X123130000Y-125840000D01*
X123130000Y-125840000D02*
X133410000Y-125840000D01*
X133410000Y-125840000D02*
X133410000Y-124190000D01*
X133410000Y-124190000D02*
G75*
G02*
X133410000Y-122190000I0J1000000D01*
G01*
X124400000Y-62060000D02*
X125450000Y-62060000D01*
X125450000Y-61010000D02*
X125450000Y-62060000D01*
X116050000Y-55960000D02*
X116050000Y-47160000D01*
X116050000Y-47160000D02*
X125250000Y-47160000D01*
X118750000Y-61860000D02*
X116050000Y-61860000D01*
X116050000Y-61860000D02*
X116050000Y-59960000D01*
X125250000Y-47160000D02*
X125250000Y-61860000D01*
X125250000Y-61860000D02*
X122650000Y-61860000D01*
D10*
X107696000Y-51489428D02*
X107986285Y-51489428D01*
X108131428Y-51416857D01*
X108204000Y-51344285D01*
X108349142Y-51126571D01*
X108421714Y-50836285D01*
X108421714Y-50255714D01*
X108349142Y-50110571D01*
X108276571Y-50038000D01*
X108131428Y-49965428D01*
X107841142Y-49965428D01*
X107696000Y-50038000D01*
X107623428Y-50110571D01*
X107550857Y-50255714D01*
X107550857Y-50618571D01*
X107623428Y-50763714D01*
X107696000Y-50836285D01*
X107841142Y-50908857D01*
X108131428Y-50908857D01*
X108276571Y-50836285D01*
X108349142Y-50763714D01*
X108421714Y-50618571D01*
X108929714Y-50473428D02*
X109292571Y-51489428D01*
X109655428Y-50473428D01*
X112050285Y-51489428D02*
X112050285Y-49965428D01*
X112050285Y-51416857D02*
X111905142Y-51489428D01*
X111614857Y-51489428D01*
X111469714Y-51416857D01*
X111397142Y-51344285D01*
X111324571Y-51199142D01*
X111324571Y-50763714D01*
X111397142Y-50618571D01*
X111469714Y-50546000D01*
X111614857Y-50473428D01*
X111905142Y-50473428D01*
X112050285Y-50546000D01*
X113429142Y-51416857D02*
X113284000Y-51489428D01*
X112993714Y-51489428D01*
X112848571Y-51416857D01*
X112776000Y-51344285D01*
X112703428Y-51199142D01*
X112703428Y-50763714D01*
X112776000Y-50618571D01*
X112848571Y-50546000D01*
X112993714Y-50473428D01*
X113284000Y-50473428D01*
X113429142Y-50546000D01*
D15*
X98417142Y-94432380D02*
X98083809Y-93956190D01*
X97845714Y-94432380D02*
X97845714Y-93432380D01*
X98226666Y-93432380D01*
X98321904Y-93480000D01*
X98369523Y-93527619D01*
X98417142Y-93622857D01*
X98417142Y-93765714D01*
X98369523Y-93860952D01*
X98321904Y-93908571D01*
X98226666Y-93956190D01*
X97845714Y-93956190D01*
X98798095Y-93527619D02*
X98845714Y-93480000D01*
X98940952Y-93432380D01*
X99179047Y-93432380D01*
X99274285Y-93480000D01*
X99321904Y-93527619D01*
X99369523Y-93622857D01*
X99369523Y-93718095D01*
X99321904Y-93860952D01*
X98750476Y-94432380D01*
X99369523Y-94432380D01*
X100321904Y-94432380D02*
X99750476Y-94432380D01*
X100036190Y-94432380D02*
X100036190Y-93432380D01*
X99940952Y-93575238D01*
X99845714Y-93670476D01*
X99750476Y-93718095D01*
X98417142Y-90622380D02*
X98083809Y-90146190D01*
X97845714Y-90622380D02*
X97845714Y-89622380D01*
X98226666Y-89622380D01*
X98321904Y-89670000D01*
X98369523Y-89717619D01*
X98417142Y-89812857D01*
X98417142Y-89955714D01*
X98369523Y-90050952D01*
X98321904Y-90098571D01*
X98226666Y-90146190D01*
X97845714Y-90146190D01*
X98798095Y-89717619D02*
X98845714Y-89670000D01*
X98940952Y-89622380D01*
X99179047Y-89622380D01*
X99274285Y-89670000D01*
X99321904Y-89717619D01*
X99369523Y-89812857D01*
X99369523Y-89908095D01*
X99321904Y-90050952D01*
X98750476Y-90622380D01*
X99369523Y-90622380D01*
X99988571Y-89622380D02*
X100083809Y-89622380D01*
X100179047Y-89670000D01*
X100226666Y-89717619D01*
X100274285Y-89812857D01*
X100321904Y-90003333D01*
X100321904Y-90241428D01*
X100274285Y-90431904D01*
X100226666Y-90527142D01*
X100179047Y-90574761D01*
X100083809Y-90622380D01*
X99988571Y-90622380D01*
X99893333Y-90574761D01*
X99845714Y-90527142D01*
X99798095Y-90431904D01*
X99750476Y-90241428D01*
X99750476Y-90003333D01*
X99798095Y-89812857D01*
X99845714Y-89717619D01*
X99893333Y-89670000D01*
X99988571Y-89622380D01*
X98417142Y-86812380D02*
X98083809Y-86336190D01*
X97845714Y-86812380D02*
X97845714Y-85812380D01*
X98226666Y-85812380D01*
X98321904Y-85860000D01*
X98369523Y-85907619D01*
X98417142Y-86002857D01*
X98417142Y-86145714D01*
X98369523Y-86240952D01*
X98321904Y-86288571D01*
X98226666Y-86336190D01*
X97845714Y-86336190D01*
X99369523Y-86812380D02*
X98798095Y-86812380D01*
X99083809Y-86812380D02*
X99083809Y-85812380D01*
X98988571Y-85955238D01*
X98893333Y-86050476D01*
X98798095Y-86098095D01*
X99845714Y-86812380D02*
X100036190Y-86812380D01*
X100131428Y-86764761D01*
X100179047Y-86717142D01*
X100274285Y-86574285D01*
X100321904Y-86383809D01*
X100321904Y-86002857D01*
X100274285Y-85907619D01*
X100226666Y-85860000D01*
X100131428Y-85812380D01*
X99940952Y-85812380D01*
X99845714Y-85860000D01*
X99798095Y-85907619D01*
X99750476Y-86002857D01*
X99750476Y-86240952D01*
X99798095Y-86336190D01*
X99845714Y-86383809D01*
X99940952Y-86431428D01*
X100131428Y-86431428D01*
X100226666Y-86383809D01*
X100274285Y-86336190D01*
X100321904Y-86240952D01*
X98417142Y-83002380D02*
X98083809Y-82526190D01*
X97845714Y-83002380D02*
X97845714Y-82002380D01*
X98226666Y-82002380D01*
X98321904Y-82050000D01*
X98369523Y-82097619D01*
X98417142Y-82192857D01*
X98417142Y-82335714D01*
X98369523Y-82430952D01*
X98321904Y-82478571D01*
X98226666Y-82526190D01*
X97845714Y-82526190D01*
X99369523Y-83002380D02*
X98798095Y-83002380D01*
X99083809Y-83002380D02*
X99083809Y-82002380D01*
X98988571Y-82145238D01*
X98893333Y-82240476D01*
X98798095Y-82288095D01*
X99940952Y-82430952D02*
X99845714Y-82383333D01*
X99798095Y-82335714D01*
X99750476Y-82240476D01*
X99750476Y-82192857D01*
X99798095Y-82097619D01*
X99845714Y-82050000D01*
X99940952Y-82002380D01*
X100131428Y-82002380D01*
X100226666Y-82050000D01*
X100274285Y-82097619D01*
X100321904Y-82192857D01*
X100321904Y-82240476D01*
X100274285Y-82335714D01*
X100226666Y-82383333D01*
X100131428Y-82430952D01*
X99940952Y-82430952D01*
X99845714Y-82478571D01*
X99798095Y-82526190D01*
X99750476Y-82621428D01*
X99750476Y-82811904D01*
X99798095Y-82907142D01*
X99845714Y-82954761D01*
X99940952Y-83002380D01*
X100131428Y-83002380D01*
X100226666Y-82954761D01*
X100274285Y-82907142D01*
X100321904Y-82811904D01*
X100321904Y-82621428D01*
X100274285Y-82526190D01*
X100226666Y-82478571D01*
X100131428Y-82430952D01*
X98417142Y-79192380D02*
X98083809Y-78716190D01*
X97845714Y-79192380D02*
X97845714Y-78192380D01*
X98226666Y-78192380D01*
X98321904Y-78240000D01*
X98369523Y-78287619D01*
X98417142Y-78382857D01*
X98417142Y-78525714D01*
X98369523Y-78620952D01*
X98321904Y-78668571D01*
X98226666Y-78716190D01*
X97845714Y-78716190D01*
X99369523Y-79192380D02*
X98798095Y-79192380D01*
X99083809Y-79192380D02*
X99083809Y-78192380D01*
X98988571Y-78335238D01*
X98893333Y-78430476D01*
X98798095Y-78478095D01*
X99702857Y-78192380D02*
X100369523Y-78192380D01*
X99940952Y-79192380D01*
X98417142Y-75382380D02*
X98083809Y-74906190D01*
X97845714Y-75382380D02*
X97845714Y-74382380D01*
X98226666Y-74382380D01*
X98321904Y-74430000D01*
X98369523Y-74477619D01*
X98417142Y-74572857D01*
X98417142Y-74715714D01*
X98369523Y-74810952D01*
X98321904Y-74858571D01*
X98226666Y-74906190D01*
X97845714Y-74906190D01*
X99369523Y-75382380D02*
X98798095Y-75382380D01*
X99083809Y-75382380D02*
X99083809Y-74382380D01*
X98988571Y-74525238D01*
X98893333Y-74620476D01*
X98798095Y-74668095D01*
X100226666Y-74382380D02*
X100036190Y-74382380D01*
X99940952Y-74430000D01*
X99893333Y-74477619D01*
X99798095Y-74620476D01*
X99750476Y-74810952D01*
X99750476Y-75191904D01*
X99798095Y-75287142D01*
X99845714Y-75334761D01*
X99940952Y-75382380D01*
X100131428Y-75382380D01*
X100226666Y-75334761D01*
X100274285Y-75287142D01*
X100321904Y-75191904D01*
X100321904Y-74953809D01*
X100274285Y-74858571D01*
X100226666Y-74810952D01*
X100131428Y-74763333D01*
X99940952Y-74763333D01*
X99845714Y-74810952D01*
X99798095Y-74858571D01*
X99750476Y-74953809D01*
X98417142Y-71572380D02*
X98083809Y-71096190D01*
X97845714Y-71572380D02*
X97845714Y-70572380D01*
X98226666Y-70572380D01*
X98321904Y-70620000D01*
X98369523Y-70667619D01*
X98417142Y-70762857D01*
X98417142Y-70905714D01*
X98369523Y-71000952D01*
X98321904Y-71048571D01*
X98226666Y-71096190D01*
X97845714Y-71096190D01*
X99369523Y-71572380D02*
X98798095Y-71572380D01*
X99083809Y-71572380D02*
X99083809Y-70572380D01*
X98988571Y-70715238D01*
X98893333Y-70810476D01*
X98798095Y-70858095D01*
X100274285Y-70572380D02*
X99798095Y-70572380D01*
X99750476Y-71048571D01*
X99798095Y-71000952D01*
X99893333Y-70953333D01*
X100131428Y-70953333D01*
X100226666Y-71000952D01*
X100274285Y-71048571D01*
X100321904Y-71143809D01*
X100321904Y-71381904D01*
X100274285Y-71477142D01*
X100226666Y-71524761D01*
X100131428Y-71572380D01*
X99893333Y-71572380D01*
X99798095Y-71524761D01*
X99750476Y-71477142D01*
X98417142Y-67762380D02*
X98083809Y-67286190D01*
X97845714Y-67762380D02*
X97845714Y-66762380D01*
X98226666Y-66762380D01*
X98321904Y-66810000D01*
X98369523Y-66857619D01*
X98417142Y-66952857D01*
X98417142Y-67095714D01*
X98369523Y-67190952D01*
X98321904Y-67238571D01*
X98226666Y-67286190D01*
X97845714Y-67286190D01*
X99369523Y-67762380D02*
X98798095Y-67762380D01*
X99083809Y-67762380D02*
X99083809Y-66762380D01*
X98988571Y-66905238D01*
X98893333Y-67000476D01*
X98798095Y-67048095D01*
X100226666Y-67095714D02*
X100226666Y-67762380D01*
X99988571Y-66714761D02*
X99750476Y-67429047D01*
X100369523Y-67429047D01*
X98417142Y-63952380D02*
X98083809Y-63476190D01*
X97845714Y-63952380D02*
X97845714Y-62952380D01*
X98226666Y-62952380D01*
X98321904Y-63000000D01*
X98369523Y-63047619D01*
X98417142Y-63142857D01*
X98417142Y-63285714D01*
X98369523Y-63380952D01*
X98321904Y-63428571D01*
X98226666Y-63476190D01*
X97845714Y-63476190D01*
X99369523Y-63952380D02*
X98798095Y-63952380D01*
X99083809Y-63952380D02*
X99083809Y-62952380D01*
X98988571Y-63095238D01*
X98893333Y-63190476D01*
X98798095Y-63238095D01*
X99702857Y-62952380D02*
X100321904Y-62952380D01*
X99988571Y-63333333D01*
X100131428Y-63333333D01*
X100226666Y-63380952D01*
X100274285Y-63428571D01*
X100321904Y-63523809D01*
X100321904Y-63761904D01*
X100274285Y-63857142D01*
X100226666Y-63904761D01*
X100131428Y-63952380D01*
X99845714Y-63952380D01*
X99750476Y-63904761D01*
X99702857Y-63857142D01*
X98417142Y-60142380D02*
X98083809Y-59666190D01*
X97845714Y-60142380D02*
X97845714Y-59142380D01*
X98226666Y-59142380D01*
X98321904Y-59190000D01*
X98369523Y-59237619D01*
X98417142Y-59332857D01*
X98417142Y-59475714D01*
X98369523Y-59570952D01*
X98321904Y-59618571D01*
X98226666Y-59666190D01*
X97845714Y-59666190D01*
X99369523Y-60142380D02*
X98798095Y-60142380D01*
X99083809Y-60142380D02*
X99083809Y-59142380D01*
X98988571Y-59285238D01*
X98893333Y-59380476D01*
X98798095Y-59428095D01*
X99750476Y-59237619D02*
X99798095Y-59190000D01*
X99893333Y-59142380D01*
X100131428Y-59142380D01*
X100226666Y-59190000D01*
X100274285Y-59237619D01*
X100321904Y-59332857D01*
X100321904Y-59428095D01*
X100274285Y-59570952D01*
X99702857Y-60142380D01*
X100321904Y-60142380D01*
X98417142Y-56332380D02*
X98083809Y-55856190D01*
X97845714Y-56332380D02*
X97845714Y-55332380D01*
X98226666Y-55332380D01*
X98321904Y-55380000D01*
X98369523Y-55427619D01*
X98417142Y-55522857D01*
X98417142Y-55665714D01*
X98369523Y-55760952D01*
X98321904Y-55808571D01*
X98226666Y-55856190D01*
X97845714Y-55856190D01*
X99369523Y-56332380D02*
X98798095Y-56332380D01*
X99083809Y-56332380D02*
X99083809Y-55332380D01*
X98988571Y-55475238D01*
X98893333Y-55570476D01*
X98798095Y-55618095D01*
X100321904Y-56332380D02*
X99750476Y-56332380D01*
X100036190Y-56332380D02*
X100036190Y-55332380D01*
X99940952Y-55475238D01*
X99845714Y-55570476D01*
X99750476Y-55618095D01*
X98417142Y-52522380D02*
X98083809Y-52046190D01*
X97845714Y-52522380D02*
X97845714Y-51522380D01*
X98226666Y-51522380D01*
X98321904Y-51570000D01*
X98369523Y-51617619D01*
X98417142Y-51712857D01*
X98417142Y-51855714D01*
X98369523Y-51950952D01*
X98321904Y-51998571D01*
X98226666Y-52046190D01*
X97845714Y-52046190D01*
X99369523Y-52522380D02*
X98798095Y-52522380D01*
X99083809Y-52522380D02*
X99083809Y-51522380D01*
X98988571Y-51665238D01*
X98893333Y-51760476D01*
X98798095Y-51808095D01*
X99988571Y-51522380D02*
X100083809Y-51522380D01*
X100179047Y-51570000D01*
X100226666Y-51617619D01*
X100274285Y-51712857D01*
X100321904Y-51903333D01*
X100321904Y-52141428D01*
X100274285Y-52331904D01*
X100226666Y-52427142D01*
X100179047Y-52474761D01*
X100083809Y-52522380D01*
X99988571Y-52522380D01*
X99893333Y-52474761D01*
X99845714Y-52427142D01*
X99798095Y-52331904D01*
X99750476Y-52141428D01*
X99750476Y-51903333D01*
X99798095Y-51712857D01*
X99845714Y-51617619D01*
X99893333Y-51570000D01*
X99988571Y-51522380D01*
X138985714Y-91606666D02*
X139461904Y-91606666D01*
X138890476Y-91892380D02*
X139223809Y-90892380D01*
X139557142Y-91892380D01*
X140414285Y-91892380D02*
X139842857Y-91892380D01*
X140128571Y-91892380D02*
X140128571Y-90892380D01*
X140033333Y-91035238D01*
X139938095Y-91130476D01*
X139842857Y-91178095D01*
X152757142Y-104306666D02*
X152804761Y-104354285D01*
X152852380Y-104497142D01*
X152852380Y-104592380D01*
X152804761Y-104735238D01*
X152709523Y-104830476D01*
X152614285Y-104878095D01*
X152423809Y-104925714D01*
X152280952Y-104925714D01*
X152090476Y-104878095D01*
X151995238Y-104830476D01*
X151900000Y-104735238D01*
X151852380Y-104592380D01*
X151852380Y-104497142D01*
X151900000Y-104354285D01*
X151947619Y-104306666D01*
X152852380Y-103354285D02*
X152852380Y-103925714D01*
X152852380Y-103640000D02*
X151852380Y-103640000D01*
X151995238Y-103735238D01*
X152090476Y-103830476D01*
X152138095Y-103925714D01*
X113387142Y-108116666D02*
X113434761Y-108164285D01*
X113482380Y-108307142D01*
X113482380Y-108402380D01*
X113434761Y-108545238D01*
X113339523Y-108640476D01*
X113244285Y-108688095D01*
X113053809Y-108735714D01*
X112910952Y-108735714D01*
X112720476Y-108688095D01*
X112625238Y-108640476D01*
X112530000Y-108545238D01*
X112482380Y-108402380D01*
X112482380Y-108307142D01*
X112530000Y-108164285D01*
X112577619Y-108116666D01*
X112577619Y-107735714D02*
X112530000Y-107688095D01*
X112482380Y-107592857D01*
X112482380Y-107354761D01*
X112530000Y-107259523D01*
X112577619Y-107211904D01*
X112672857Y-107164285D01*
X112768095Y-107164285D01*
X112910952Y-107211904D01*
X113482380Y-107783333D01*
X113482380Y-107164285D01*
X152757142Y-115736666D02*
X152804761Y-115784285D01*
X152852380Y-115927142D01*
X152852380Y-116022380D01*
X152804761Y-116165238D01*
X152709523Y-116260476D01*
X152614285Y-116308095D01*
X152423809Y-116355714D01*
X152280952Y-116355714D01*
X152090476Y-116308095D01*
X151995238Y-116260476D01*
X151900000Y-116165238D01*
X151852380Y-116022380D01*
X151852380Y-115927142D01*
X151900000Y-115784285D01*
X151947619Y-115736666D01*
X151852380Y-115403333D02*
X151852380Y-114784285D01*
X152233333Y-115117619D01*
X152233333Y-114974761D01*
X152280952Y-114879523D01*
X152328571Y-114831904D01*
X152423809Y-114784285D01*
X152661904Y-114784285D01*
X152757142Y-114831904D01*
X152804761Y-114879523D01*
X152852380Y-114974761D01*
X152852380Y-115260476D01*
X152804761Y-115355714D01*
X152757142Y-115403333D01*
X113387142Y-123356666D02*
X113434761Y-123404285D01*
X113482380Y-123547142D01*
X113482380Y-123642380D01*
X113434761Y-123785238D01*
X113339523Y-123880476D01*
X113244285Y-123928095D01*
X113053809Y-123975714D01*
X112910952Y-123975714D01*
X112720476Y-123928095D01*
X112625238Y-123880476D01*
X112530000Y-123785238D01*
X112482380Y-123642380D01*
X112482380Y-123547142D01*
X112530000Y-123404285D01*
X112577619Y-123356666D01*
X112815714Y-122499523D02*
X113482380Y-122499523D01*
X112434761Y-122737619D02*
X113149047Y-122975714D01*
X113149047Y-122356666D01*
X152757142Y-127166666D02*
X152804761Y-127214285D01*
X152852380Y-127357142D01*
X152852380Y-127452380D01*
X152804761Y-127595238D01*
X152709523Y-127690476D01*
X152614285Y-127738095D01*
X152423809Y-127785714D01*
X152280952Y-127785714D01*
X152090476Y-127738095D01*
X151995238Y-127690476D01*
X151900000Y-127595238D01*
X151852380Y-127452380D01*
X151852380Y-127357142D01*
X151900000Y-127214285D01*
X151947619Y-127166666D01*
X151852380Y-126261904D02*
X151852380Y-126738095D01*
X152328571Y-126785714D01*
X152280952Y-126738095D01*
X152233333Y-126642857D01*
X152233333Y-126404761D01*
X152280952Y-126309523D01*
X152328571Y-126261904D01*
X152423809Y-126214285D01*
X152661904Y-126214285D01*
X152757142Y-126261904D01*
X152804761Y-126309523D01*
X152852380Y-126404761D01*
X152852380Y-126642857D01*
X152804761Y-126738095D01*
X152757142Y-126785714D01*
D12*
X67278571Y-109490000D02*
X67088095Y-109394761D01*
X66802380Y-109394761D01*
X66516666Y-109490000D01*
X66326190Y-109680476D01*
X66230952Y-109870952D01*
X66135714Y-110251904D01*
X66135714Y-110537619D01*
X66230952Y-110918571D01*
X66326190Y-111109047D01*
X66516666Y-111299523D01*
X66802380Y-111394761D01*
X66992857Y-111394761D01*
X67278571Y-111299523D01*
X67373809Y-111204285D01*
X67373809Y-110537619D01*
X66992857Y-110537619D01*
X68611904Y-109394761D02*
X68992857Y-109394761D01*
X69183333Y-109490000D01*
X69373809Y-109680476D01*
X69469047Y-110061428D01*
X69469047Y-110728095D01*
X69373809Y-111109047D01*
X69183333Y-111299523D01*
X68992857Y-111394761D01*
X68611904Y-111394761D01*
X68421428Y-111299523D01*
X68230952Y-111109047D01*
X68135714Y-110728095D01*
X68135714Y-110061428D01*
X68230952Y-109680476D01*
X68421428Y-109490000D01*
X68611904Y-109394761D01*
X70707142Y-109394761D02*
X71088095Y-109394761D01*
X71278571Y-109490000D01*
X71469047Y-109680476D01*
X71564285Y-110061428D01*
X71564285Y-110728095D01*
X71469047Y-111109047D01*
X71278571Y-111299523D01*
X71088095Y-111394761D01*
X70707142Y-111394761D01*
X70516666Y-111299523D01*
X70326190Y-111109047D01*
X70230952Y-110728095D01*
X70230952Y-110061428D01*
X70326190Y-109680476D01*
X70516666Y-109490000D01*
X70707142Y-109394761D01*
X72421428Y-111394761D02*
X72421428Y-109394761D01*
X72897619Y-109394761D01*
X73183333Y-109490000D01*
X73373809Y-109680476D01*
X73469047Y-109870952D01*
X73564285Y-110251904D01*
X73564285Y-110537619D01*
X73469047Y-110918571D01*
X73373809Y-111109047D01*
X73183333Y-111299523D01*
X72897619Y-111394761D01*
X72421428Y-111394761D01*
X88455714Y-110347142D02*
X88741428Y-110442380D01*
X88836666Y-110537619D01*
X88931904Y-110728095D01*
X88931904Y-111013809D01*
X88836666Y-111204285D01*
X88741428Y-111299523D01*
X88550952Y-111394761D01*
X87789047Y-111394761D01*
X87789047Y-109394761D01*
X88455714Y-109394761D01*
X88646190Y-109490000D01*
X88741428Y-109585238D01*
X88836666Y-109775714D01*
X88836666Y-109966190D01*
X88741428Y-110156666D01*
X88646190Y-110251904D01*
X88455714Y-110347142D01*
X87789047Y-110347142D01*
X89693809Y-110823333D02*
X90646190Y-110823333D01*
X89503333Y-111394761D02*
X90170000Y-109394761D01*
X90836666Y-111394761D01*
X91503333Y-111394761D02*
X91503333Y-109394761D01*
X91979523Y-109394761D01*
X92265238Y-109490000D01*
X92455714Y-109680476D01*
X92550952Y-109870952D01*
X92646190Y-110251904D01*
X92646190Y-110537619D01*
X92550952Y-110918571D01*
X92455714Y-111109047D01*
X92265238Y-111299523D01*
X91979523Y-111394761D01*
X91503333Y-111394761D01*
D15*
X118562380Y-108688095D02*
X117562380Y-108688095D01*
X117562380Y-108450000D01*
X117610000Y-108307142D01*
X117705238Y-108211904D01*
X117800476Y-108164285D01*
X117990952Y-108116666D01*
X118133809Y-108116666D01*
X118324285Y-108164285D01*
X118419523Y-108211904D01*
X118514761Y-108307142D01*
X118562380Y-108450000D01*
X118562380Y-108688095D01*
X117562380Y-107783333D02*
X117562380Y-107164285D01*
X117943333Y-107497619D01*
X117943333Y-107354761D01*
X117990952Y-107259523D01*
X118038571Y-107211904D01*
X118133809Y-107164285D01*
X118371904Y-107164285D01*
X118467142Y-107211904D01*
X118514761Y-107259523D01*
X118562380Y-107354761D01*
X118562380Y-107640476D01*
X118514761Y-107735714D01*
X118467142Y-107783333D01*
X120662380Y-103131904D02*
X119662380Y-103131904D01*
X120662380Y-102560476D02*
X120090952Y-102989047D01*
X119662380Y-102560476D02*
X120233809Y-103131904D01*
X118562380Y-123928095D02*
X117562380Y-123928095D01*
X117562380Y-123690000D01*
X117610000Y-123547142D01*
X117705238Y-123451904D01*
X117800476Y-123404285D01*
X117990952Y-123356666D01*
X118133809Y-123356666D01*
X118324285Y-123404285D01*
X118419523Y-123451904D01*
X118514761Y-123547142D01*
X118562380Y-123690000D01*
X118562380Y-123928095D01*
X117895714Y-122499523D02*
X118562380Y-122499523D01*
X117514761Y-122737619D02*
X118229047Y-122975714D01*
X118229047Y-122356666D01*
X120662380Y-118371904D02*
X119662380Y-118371904D01*
X120662380Y-117800476D02*
X120090952Y-118229047D01*
X119662380Y-117800476D02*
X120233809Y-118371904D01*
D12*
X78010000Y-54784761D02*
X79343333Y-54784761D01*
X78010000Y-56784761D01*
X79343333Y-56784761D01*
X80105238Y-56784761D02*
X80105238Y-54784761D01*
X81724285Y-55737142D02*
X81057619Y-55737142D01*
X81057619Y-56784761D02*
X81057619Y-54784761D01*
X82010000Y-54784761D01*
D15*
X107132380Y-107576666D02*
X107132380Y-108052857D01*
X106132380Y-108052857D01*
X107132380Y-106719523D02*
X107132380Y-107290952D01*
X107132380Y-107005238D02*
X106132380Y-107005238D01*
X106275238Y-107100476D01*
X106370476Y-107195714D01*
X106418095Y-107290952D01*
X107132380Y-122816666D02*
X107132380Y-123292857D01*
X106132380Y-123292857D01*
X106227619Y-122530952D02*
X106180000Y-122483333D01*
X106132380Y-122388095D01*
X106132380Y-122150000D01*
X106180000Y-122054761D01*
X106227619Y-122007142D01*
X106322857Y-121959523D01*
X106418095Y-121959523D01*
X106560952Y-122007142D01*
X107132380Y-122578571D01*
X107132380Y-121959523D01*
X109672380Y-64936666D02*
X109196190Y-65270000D01*
X109672380Y-65508095D02*
X108672380Y-65508095D01*
X108672380Y-65127142D01*
X108720000Y-65031904D01*
X108767619Y-64984285D01*
X108862857Y-64936666D01*
X109005714Y-64936666D01*
X109100952Y-64984285D01*
X109148571Y-65031904D01*
X109196190Y-65127142D01*
X109196190Y-65508095D01*
X109672380Y-63984285D02*
X109672380Y-64555714D01*
X109672380Y-64270000D02*
X108672380Y-64270000D01*
X108815238Y-64365238D01*
X108910476Y-64460476D01*
X108958095Y-64555714D01*
X109672380Y-83986666D02*
X109196190Y-84320000D01*
X109672380Y-84558095D02*
X108672380Y-84558095D01*
X108672380Y-84177142D01*
X108720000Y-84081904D01*
X108767619Y-84034285D01*
X108862857Y-83986666D01*
X109005714Y-83986666D01*
X109100952Y-84034285D01*
X109148571Y-84081904D01*
X109196190Y-84177142D01*
X109196190Y-84558095D01*
X108767619Y-83605714D02*
X108720000Y-83558095D01*
X108672380Y-83462857D01*
X108672380Y-83224761D01*
X108720000Y-83129523D01*
X108767619Y-83081904D01*
X108862857Y-83034285D01*
X108958095Y-83034285D01*
X109100952Y-83081904D01*
X109672380Y-83653333D01*
X109672380Y-83034285D01*
X138882380Y-108116666D02*
X138406190Y-108450000D01*
X138882380Y-108688095D02*
X137882380Y-108688095D01*
X137882380Y-108307142D01*
X137930000Y-108211904D01*
X137977619Y-108164285D01*
X138072857Y-108116666D01*
X138215714Y-108116666D01*
X138310952Y-108164285D01*
X138358571Y-108211904D01*
X138406190Y-108307142D01*
X138406190Y-108688095D01*
X137882380Y-107783333D02*
X137882380Y-107164285D01*
X138263333Y-107497619D01*
X138263333Y-107354761D01*
X138310952Y-107259523D01*
X138358571Y-107211904D01*
X138453809Y-107164285D01*
X138691904Y-107164285D01*
X138787142Y-107211904D01*
X138834761Y-107259523D01*
X138882380Y-107354761D01*
X138882380Y-107640476D01*
X138834761Y-107735714D01*
X138787142Y-107783333D01*
X120483333Y-71572380D02*
X120150000Y-71096190D01*
X119911904Y-71572380D02*
X119911904Y-70572380D01*
X120292857Y-70572380D01*
X120388095Y-70620000D01*
X120435714Y-70667619D01*
X120483333Y-70762857D01*
X120483333Y-70905714D01*
X120435714Y-71000952D01*
X120388095Y-71048571D01*
X120292857Y-71096190D01*
X119911904Y-71096190D01*
X121340476Y-70905714D02*
X121340476Y-71572380D01*
X121102380Y-70524761D02*
X120864285Y-71239047D01*
X121483333Y-71239047D01*
X120483333Y-77922380D02*
X120150000Y-77446190D01*
X119911904Y-77922380D02*
X119911904Y-76922380D01*
X120292857Y-76922380D01*
X120388095Y-76970000D01*
X120435714Y-77017619D01*
X120483333Y-77112857D01*
X120483333Y-77255714D01*
X120435714Y-77350952D01*
X120388095Y-77398571D01*
X120292857Y-77446190D01*
X119911904Y-77446190D01*
X121388095Y-76922380D02*
X120911904Y-76922380D01*
X120864285Y-77398571D01*
X120911904Y-77350952D01*
X121007142Y-77303333D01*
X121245238Y-77303333D01*
X121340476Y-77350952D01*
X121388095Y-77398571D01*
X121435714Y-77493809D01*
X121435714Y-77731904D01*
X121388095Y-77827142D01*
X121340476Y-77874761D01*
X121245238Y-77922380D01*
X121007142Y-77922380D01*
X120911904Y-77874761D01*
X120864285Y-77827142D01*
X120483333Y-84272380D02*
X120150000Y-83796190D01*
X119911904Y-84272380D02*
X119911904Y-83272380D01*
X120292857Y-83272380D01*
X120388095Y-83320000D01*
X120435714Y-83367619D01*
X120483333Y-83462857D01*
X120483333Y-83605714D01*
X120435714Y-83700952D01*
X120388095Y-83748571D01*
X120292857Y-83796190D01*
X119911904Y-83796190D01*
X121340476Y-83272380D02*
X121150000Y-83272380D01*
X121054761Y-83320000D01*
X121007142Y-83367619D01*
X120911904Y-83510476D01*
X120864285Y-83700952D01*
X120864285Y-84081904D01*
X120911904Y-84177142D01*
X120959523Y-84224761D01*
X121054761Y-84272380D01*
X121245238Y-84272380D01*
X121340476Y-84224761D01*
X121388095Y-84177142D01*
X121435714Y-84081904D01*
X121435714Y-83843809D01*
X121388095Y-83748571D01*
X121340476Y-83700952D01*
X121245238Y-83653333D01*
X121054761Y-83653333D01*
X120959523Y-83700952D01*
X120911904Y-83748571D01*
X120864285Y-83843809D01*
X138882380Y-123356666D02*
X138406190Y-123690000D01*
X138882380Y-123928095D02*
X137882380Y-123928095D01*
X137882380Y-123547142D01*
X137930000Y-123451904D01*
X137977619Y-123404285D01*
X138072857Y-123356666D01*
X138215714Y-123356666D01*
X138310952Y-123404285D01*
X138358571Y-123451904D01*
X138406190Y-123547142D01*
X138406190Y-123928095D01*
X137882380Y-123023333D02*
X137882380Y-122356666D01*
X138882380Y-122785238D01*
X120483333Y-90622380D02*
X120150000Y-90146190D01*
X119911904Y-90622380D02*
X119911904Y-89622380D01*
X120292857Y-89622380D01*
X120388095Y-89670000D01*
X120435714Y-89717619D01*
X120483333Y-89812857D01*
X120483333Y-89955714D01*
X120435714Y-90050952D01*
X120388095Y-90098571D01*
X120292857Y-90146190D01*
X119911904Y-90146190D01*
X121054761Y-90050952D02*
X120959523Y-90003333D01*
X120911904Y-89955714D01*
X120864285Y-89860476D01*
X120864285Y-89812857D01*
X120911904Y-89717619D01*
X120959523Y-89670000D01*
X121054761Y-89622380D01*
X121245238Y-89622380D01*
X121340476Y-89670000D01*
X121388095Y-89717619D01*
X121435714Y-89812857D01*
X121435714Y-89860476D01*
X121388095Y-89955714D01*
X121340476Y-90003333D01*
X121245238Y-90050952D01*
X121054761Y-90050952D01*
X120959523Y-90098571D01*
X120911904Y-90146190D01*
X120864285Y-90241428D01*
X120864285Y-90431904D01*
X120911904Y-90527142D01*
X120959523Y-90574761D01*
X121054761Y-90622380D01*
X121245238Y-90622380D01*
X121340476Y-90574761D01*
X121388095Y-90527142D01*
X121435714Y-90431904D01*
X121435714Y-90241428D01*
X121388095Y-90146190D01*
X121340476Y-90098571D01*
X121245238Y-90050952D01*
X120483333Y-96972380D02*
X120150000Y-96496190D01*
X119911904Y-96972380D02*
X119911904Y-95972380D01*
X120292857Y-95972380D01*
X120388095Y-96020000D01*
X120435714Y-96067619D01*
X120483333Y-96162857D01*
X120483333Y-96305714D01*
X120435714Y-96400952D01*
X120388095Y-96448571D01*
X120292857Y-96496190D01*
X119911904Y-96496190D01*
X120959523Y-96972380D02*
X121150000Y-96972380D01*
X121245238Y-96924761D01*
X121292857Y-96877142D01*
X121388095Y-96734285D01*
X121435714Y-96543809D01*
X121435714Y-96162857D01*
X121388095Y-96067619D01*
X121340476Y-96020000D01*
X121245238Y-95972380D01*
X121054761Y-95972380D01*
X120959523Y-96020000D01*
X120911904Y-96067619D01*
X120864285Y-96162857D01*
X120864285Y-96400952D01*
X120911904Y-96496190D01*
X120959523Y-96543809D01*
X121054761Y-96591428D01*
X121245238Y-96591428D01*
X121340476Y-96543809D01*
X121388095Y-96496190D01*
X121435714Y-96400952D01*
D12*
X75787619Y-120189523D02*
X76073333Y-120284761D01*
X76549523Y-120284761D01*
X76740000Y-120189523D01*
X76835238Y-120094285D01*
X76930476Y-119903809D01*
X76930476Y-119713333D01*
X76835238Y-119522857D01*
X76740000Y-119427619D01*
X76549523Y-119332380D01*
X76168571Y-119237142D01*
X75978095Y-119141904D01*
X75882857Y-119046666D01*
X75787619Y-118856190D01*
X75787619Y-118665714D01*
X75882857Y-118475238D01*
X75978095Y-118380000D01*
X76168571Y-118284761D01*
X76644761Y-118284761D01*
X76930476Y-118380000D01*
X77501904Y-118284761D02*
X78644761Y-118284761D01*
X78073333Y-120284761D02*
X78073333Y-118284761D01*
X79216190Y-119713333D02*
X80168571Y-119713333D01*
X79025714Y-120284761D02*
X79692380Y-118284761D01*
X80359047Y-120284761D01*
X82168571Y-120284761D02*
X81501904Y-119332380D01*
X81025714Y-120284761D02*
X81025714Y-118284761D01*
X81787619Y-118284761D01*
X81978095Y-118380000D01*
X82073333Y-118475238D01*
X82168571Y-118665714D01*
X82168571Y-118951428D01*
X82073333Y-119141904D01*
X81978095Y-119237142D01*
X81787619Y-119332380D01*
X81025714Y-119332380D01*
X82740000Y-118284761D02*
X83882857Y-118284761D01*
X83311428Y-120284761D02*
X83311428Y-118284761D01*
D15*
X127722380Y-108711904D02*
X128531904Y-108711904D01*
X128627142Y-108664285D01*
X128674761Y-108616666D01*
X128722380Y-108521428D01*
X128722380Y-108330952D01*
X128674761Y-108235714D01*
X128627142Y-108188095D01*
X128531904Y-108140476D01*
X127722380Y-108140476D01*
X128722380Y-107140476D02*
X128722380Y-107711904D01*
X128722380Y-107426190D02*
X127722380Y-107426190D01*
X127865238Y-107521428D01*
X127960476Y-107616666D01*
X128008095Y-107711904D01*
X127722380Y-123951904D02*
X128531904Y-123951904D01*
X128627142Y-123904285D01*
X128674761Y-123856666D01*
X128722380Y-123761428D01*
X128722380Y-123570952D01*
X128674761Y-123475714D01*
X128627142Y-123428095D01*
X128531904Y-123380476D01*
X127722380Y-123380476D01*
X127817619Y-122951904D02*
X127770000Y-122904285D01*
X127722380Y-122809047D01*
X127722380Y-122570952D01*
X127770000Y-122475714D01*
X127817619Y-122428095D01*
X127912857Y-122380476D01*
X128008095Y-122380476D01*
X128150952Y-122428095D01*
X128722380Y-122999523D01*
X128722380Y-122380476D01*
X120316666Y-50252380D02*
X120316666Y-50966666D01*
X120269047Y-51109523D01*
X120173809Y-51204761D01*
X120030952Y-51252380D01*
X119935714Y-51252380D01*
X120745238Y-50347619D02*
X120792857Y-50300000D01*
X120888095Y-50252380D01*
X121126190Y-50252380D01*
X121221428Y-50300000D01*
X121269047Y-50347619D01*
X121316666Y-50442857D01*
X121316666Y-50538095D01*
X121269047Y-50680952D01*
X120697619Y-51252380D01*
X121316666Y-51252380D01*
M02*
