G04 #@! TF.GenerationSoftware,KiCad,Pcbnew,(5.1.6)-1*
G04 #@! TF.CreationDate,2020-09-03T19:38:07+03:00*
G04 #@! TF.ProjectId,4116 dram tester,34313136-2064-4726-916d-207465737465,rev?*
G04 #@! TF.SameCoordinates,Original*
G04 #@! TF.FileFunction,Soldermask,Bot*
G04 #@! TF.FilePolarity,Negative*
%FSLAX46Y46*%
G04 Gerber Fmt 4.6, Leading zero omitted, Abs format (unit mm)*
G04 Created by KiCad (PCBNEW (5.1.6)-1) date 2020-09-03 19:38:07*
%MOMM*%
%LPD*%
G01*
G04 APERTURE LIST*
%ADD10C,0.100000*%
G04 APERTURE END LIST*
D10*
G36*
X154045256Y-136821298D02*
G01*
X154151579Y-136842447D01*
X154452042Y-136966903D01*
X154722451Y-137147585D01*
X154952415Y-137377549D01*
X155133097Y-137647958D01*
X155257553Y-137948421D01*
X155321000Y-138267391D01*
X155321000Y-138592609D01*
X155257553Y-138911579D01*
X155133097Y-139212042D01*
X154952415Y-139482451D01*
X154722451Y-139712415D01*
X154452042Y-139893097D01*
X154151579Y-140017553D01*
X154045256Y-140038702D01*
X153832611Y-140081000D01*
X153507389Y-140081000D01*
X153294744Y-140038702D01*
X153188421Y-140017553D01*
X152887958Y-139893097D01*
X152617549Y-139712415D01*
X152387585Y-139482451D01*
X152206903Y-139212042D01*
X152082447Y-138911579D01*
X152019000Y-138592609D01*
X152019000Y-138267391D01*
X152082447Y-137948421D01*
X152206903Y-137647958D01*
X152387585Y-137377549D01*
X152617549Y-137147585D01*
X152887958Y-136966903D01*
X153188421Y-136842447D01*
X153294744Y-136821298D01*
X153507389Y-136779000D01*
X153832611Y-136779000D01*
X154045256Y-136821298D01*
G37*
G36*
X66415256Y-136821298D02*
G01*
X66521579Y-136842447D01*
X66822042Y-136966903D01*
X67092451Y-137147585D01*
X67322415Y-137377549D01*
X67503097Y-137647958D01*
X67627553Y-137948421D01*
X67691000Y-138267391D01*
X67691000Y-138592609D01*
X67627553Y-138911579D01*
X67503097Y-139212042D01*
X67322415Y-139482451D01*
X67092451Y-139712415D01*
X66822042Y-139893097D01*
X66521579Y-140017553D01*
X66415256Y-140038702D01*
X66202611Y-140081000D01*
X65877389Y-140081000D01*
X65664744Y-140038702D01*
X65558421Y-140017553D01*
X65257958Y-139893097D01*
X64987549Y-139712415D01*
X64757585Y-139482451D01*
X64576903Y-139212042D01*
X64452447Y-138911579D01*
X64389000Y-138592609D01*
X64389000Y-138267391D01*
X64452447Y-137948421D01*
X64576903Y-137647958D01*
X64757585Y-137377549D01*
X64987549Y-137147585D01*
X65257958Y-136966903D01*
X65558421Y-136842447D01*
X65664744Y-136821298D01*
X65877389Y-136779000D01*
X66202611Y-136779000D01*
X66415256Y-136821298D01*
G37*
G36*
X86854739Y-131028707D02*
G01*
X86950329Y-131038122D01*
X87134306Y-131093931D01*
X87134309Y-131093932D01*
X87224225Y-131141994D01*
X87303860Y-131184559D01*
X87326448Y-131203097D01*
X87452476Y-131306524D01*
X87536546Y-131408965D01*
X87574441Y-131455140D01*
X87577581Y-131461015D01*
X87665068Y-131624691D01*
X87665069Y-131624694D01*
X87720878Y-131808671D01*
X87739722Y-132000000D01*
X87720878Y-132191329D01*
X87665069Y-132375306D01*
X87665068Y-132375309D01*
X87617006Y-132465225D01*
X87574441Y-132544860D01*
X87536546Y-132591035D01*
X87452476Y-132693476D01*
X87350035Y-132777546D01*
X87303860Y-132815441D01*
X87224225Y-132858006D01*
X87134309Y-132906068D01*
X87134306Y-132906069D01*
X86950329Y-132961878D01*
X86854739Y-132971293D01*
X86806945Y-132976000D01*
X85513055Y-132976000D01*
X85465261Y-132971293D01*
X85369671Y-132961878D01*
X85185694Y-132906069D01*
X85185691Y-132906068D01*
X85095775Y-132858006D01*
X85016140Y-132815441D01*
X84969965Y-132777546D01*
X84867524Y-132693476D01*
X84783454Y-132591035D01*
X84745559Y-132544860D01*
X84702994Y-132465225D01*
X84654932Y-132375309D01*
X84654931Y-132375306D01*
X84599122Y-132191329D01*
X84580278Y-132000000D01*
X84599122Y-131808671D01*
X84654931Y-131624694D01*
X84654932Y-131624691D01*
X84742419Y-131461015D01*
X84745559Y-131455140D01*
X84783454Y-131408965D01*
X84867524Y-131306524D01*
X84993552Y-131203097D01*
X85016140Y-131184559D01*
X85095775Y-131141994D01*
X85185691Y-131093932D01*
X85185694Y-131093931D01*
X85369671Y-131038122D01*
X85465261Y-131028707D01*
X85513055Y-131024000D01*
X86806945Y-131024000D01*
X86854739Y-131028707D01*
G37*
G36*
X74354739Y-131028707D02*
G01*
X74450329Y-131038122D01*
X74634306Y-131093931D01*
X74634309Y-131093932D01*
X74724225Y-131141994D01*
X74803860Y-131184559D01*
X74826448Y-131203097D01*
X74952476Y-131306524D01*
X75036546Y-131408965D01*
X75074441Y-131455140D01*
X75077581Y-131461015D01*
X75165068Y-131624691D01*
X75165069Y-131624694D01*
X75220878Y-131808671D01*
X75239722Y-132000000D01*
X75220878Y-132191329D01*
X75165069Y-132375306D01*
X75165068Y-132375309D01*
X75117006Y-132465225D01*
X75074441Y-132544860D01*
X75036546Y-132591035D01*
X74952476Y-132693476D01*
X74850035Y-132777546D01*
X74803860Y-132815441D01*
X74724225Y-132858006D01*
X74634309Y-132906068D01*
X74634306Y-132906069D01*
X74450329Y-132961878D01*
X74354739Y-132971293D01*
X74306945Y-132976000D01*
X73013055Y-132976000D01*
X72965261Y-132971293D01*
X72869671Y-132961878D01*
X72685694Y-132906069D01*
X72685691Y-132906068D01*
X72595775Y-132858006D01*
X72516140Y-132815441D01*
X72469965Y-132777546D01*
X72367524Y-132693476D01*
X72283454Y-132591035D01*
X72245559Y-132544860D01*
X72202994Y-132465225D01*
X72154932Y-132375309D01*
X72154931Y-132375306D01*
X72099122Y-132191329D01*
X72080278Y-132000000D01*
X72099122Y-131808671D01*
X72154931Y-131624694D01*
X72154932Y-131624691D01*
X72242419Y-131461015D01*
X72245559Y-131455140D01*
X72283454Y-131408965D01*
X72367524Y-131306524D01*
X72493552Y-131203097D01*
X72516140Y-131184559D01*
X72595775Y-131141994D01*
X72685691Y-131093932D01*
X72685694Y-131093931D01*
X72869671Y-131038122D01*
X72965261Y-131028707D01*
X73013055Y-131024000D01*
X74306945Y-131024000D01*
X74354739Y-131028707D01*
G37*
G36*
X150108228Y-129981703D02*
G01*
X150263100Y-130045853D01*
X150402481Y-130138985D01*
X150521015Y-130257519D01*
X150614147Y-130396900D01*
X150678297Y-130551772D01*
X150711000Y-130716184D01*
X150711000Y-130883816D01*
X150678297Y-131048228D01*
X150614147Y-131203100D01*
X150521015Y-131342481D01*
X150402481Y-131461015D01*
X150263100Y-131554147D01*
X150108228Y-131618297D01*
X149943816Y-131651000D01*
X149776184Y-131651000D01*
X149611772Y-131618297D01*
X149456900Y-131554147D01*
X149317519Y-131461015D01*
X149198985Y-131342481D01*
X149105853Y-131203100D01*
X149041703Y-131048228D01*
X149009000Y-130883816D01*
X149009000Y-130716184D01*
X149041703Y-130551772D01*
X149105853Y-130396900D01*
X149198985Y-130257519D01*
X149317519Y-130138985D01*
X149456900Y-130045853D01*
X149611772Y-129981703D01*
X149776184Y-129949000D01*
X149943816Y-129949000D01*
X150108228Y-129981703D01*
G37*
G36*
X118334549Y-127141116D02*
G01*
X118445734Y-127163232D01*
X118513561Y-127191327D01*
X118650933Y-127248228D01*
X118655203Y-127249997D01*
X118843720Y-127375960D01*
X119004040Y-127536280D01*
X119087385Y-127661015D01*
X119130004Y-127724799D01*
X119216768Y-127934267D01*
X119261000Y-128156635D01*
X119261000Y-128383365D01*
X119216768Y-128605733D01*
X119131131Y-128812481D01*
X119130003Y-128815203D01*
X119004040Y-129003720D01*
X118843720Y-129164040D01*
X118655203Y-129290003D01*
X118445734Y-129376768D01*
X118334549Y-129398884D01*
X118223365Y-129421000D01*
X117996635Y-129421000D01*
X117885451Y-129398884D01*
X117774266Y-129376768D01*
X117564797Y-129290003D01*
X117376280Y-129164040D01*
X117215960Y-129003720D01*
X117089997Y-128815203D01*
X117088870Y-128812481D01*
X117003232Y-128605733D01*
X116959000Y-128383365D01*
X116959000Y-128156635D01*
X117003232Y-127934267D01*
X117089996Y-127724799D01*
X117132615Y-127661015D01*
X117215960Y-127536280D01*
X117376280Y-127375960D01*
X117564797Y-127249997D01*
X117569068Y-127248228D01*
X117706439Y-127191327D01*
X117774266Y-127163232D01*
X117885451Y-127141116D01*
X117996635Y-127119000D01*
X118223365Y-127119000D01*
X118334549Y-127141116D01*
G37*
G36*
X138678228Y-127451703D02*
G01*
X138833100Y-127515853D01*
X138972481Y-127608985D01*
X139091015Y-127727519D01*
X139184147Y-127866900D01*
X139248297Y-128021772D01*
X139281000Y-128186184D01*
X139281000Y-128353816D01*
X139248297Y-128518228D01*
X139184147Y-128673100D01*
X139091015Y-128812481D01*
X138972481Y-128931015D01*
X138833100Y-129024147D01*
X138678228Y-129088297D01*
X138513816Y-129121000D01*
X138346184Y-129121000D01*
X138181772Y-129088297D01*
X138026900Y-129024147D01*
X137887519Y-128931015D01*
X137768985Y-128812481D01*
X137675853Y-128673100D01*
X137611703Y-128518228D01*
X137579000Y-128353816D01*
X137579000Y-128186184D01*
X137611703Y-128021772D01*
X137675853Y-127866900D01*
X137768985Y-127727519D01*
X137887519Y-127608985D01*
X138026900Y-127515853D01*
X138181772Y-127451703D01*
X138346184Y-127419000D01*
X138513816Y-127419000D01*
X138678228Y-127451703D01*
G37*
G36*
X74354739Y-126028707D02*
G01*
X74450329Y-126038122D01*
X74634306Y-126093931D01*
X74634309Y-126093932D01*
X74724225Y-126141994D01*
X74803860Y-126184559D01*
X74850035Y-126222454D01*
X74952476Y-126306524D01*
X75021815Y-126391015D01*
X75074441Y-126455140D01*
X75075713Y-126457520D01*
X75165068Y-126624691D01*
X75165069Y-126624694D01*
X75220878Y-126808671D01*
X75239722Y-127000000D01*
X75220878Y-127191329D01*
X75203081Y-127249997D01*
X75165068Y-127375309D01*
X75124234Y-127451703D01*
X75074441Y-127544860D01*
X75036546Y-127591035D01*
X74952476Y-127693476D01*
X74850035Y-127777546D01*
X74803860Y-127815441D01*
X74737333Y-127851000D01*
X74634309Y-127906068D01*
X74634306Y-127906069D01*
X74450329Y-127961878D01*
X74354739Y-127971293D01*
X74306945Y-127976000D01*
X73013055Y-127976000D01*
X72965261Y-127971293D01*
X72869671Y-127961878D01*
X72685694Y-127906069D01*
X72685691Y-127906068D01*
X72582667Y-127851000D01*
X72516140Y-127815441D01*
X72469965Y-127777546D01*
X72367524Y-127693476D01*
X72283454Y-127591035D01*
X72245559Y-127544860D01*
X72195766Y-127451703D01*
X72154932Y-127375309D01*
X72116919Y-127249997D01*
X72099122Y-127191329D01*
X72080278Y-127000000D01*
X72099122Y-126808671D01*
X72154931Y-126624694D01*
X72154932Y-126624691D01*
X72244287Y-126457520D01*
X72245559Y-126455140D01*
X72298185Y-126391015D01*
X72367524Y-126306524D01*
X72469965Y-126222454D01*
X72516140Y-126184559D01*
X72595775Y-126141994D01*
X72685691Y-126093932D01*
X72685694Y-126093931D01*
X72869671Y-126038122D01*
X72965261Y-126028707D01*
X73013055Y-126024000D01*
X74306945Y-126024000D01*
X74354739Y-126028707D01*
G37*
G36*
X86854739Y-126028707D02*
G01*
X86950329Y-126038122D01*
X87134306Y-126093931D01*
X87134309Y-126093932D01*
X87224225Y-126141994D01*
X87303860Y-126184559D01*
X87350035Y-126222454D01*
X87452476Y-126306524D01*
X87521815Y-126391015D01*
X87574441Y-126455140D01*
X87575713Y-126457520D01*
X87665068Y-126624691D01*
X87665069Y-126624694D01*
X87720878Y-126808671D01*
X87739722Y-127000000D01*
X87720878Y-127191329D01*
X87703081Y-127249997D01*
X87665068Y-127375309D01*
X87624234Y-127451703D01*
X87574441Y-127544860D01*
X87536546Y-127591035D01*
X87452476Y-127693476D01*
X87350035Y-127777546D01*
X87303860Y-127815441D01*
X87237333Y-127851000D01*
X87134309Y-127906068D01*
X87134306Y-127906069D01*
X86950329Y-127961878D01*
X86854739Y-127971293D01*
X86806945Y-127976000D01*
X85513055Y-127976000D01*
X85465261Y-127971293D01*
X85369671Y-127961878D01*
X85185694Y-127906069D01*
X85185691Y-127906068D01*
X85082667Y-127851000D01*
X85016140Y-127815441D01*
X84969965Y-127777546D01*
X84867524Y-127693476D01*
X84783454Y-127591035D01*
X84745559Y-127544860D01*
X84695766Y-127451703D01*
X84654932Y-127375309D01*
X84616919Y-127249997D01*
X84599122Y-127191329D01*
X84580278Y-127000000D01*
X84599122Y-126808671D01*
X84654931Y-126624694D01*
X84654932Y-126624691D01*
X84744287Y-126457520D01*
X84745559Y-126455140D01*
X84798185Y-126391015D01*
X84867524Y-126306524D01*
X84969965Y-126222454D01*
X85016140Y-126184559D01*
X85095775Y-126141994D01*
X85185691Y-126093932D01*
X85185694Y-126093931D01*
X85369671Y-126038122D01*
X85465261Y-126028707D01*
X85513055Y-126024000D01*
X86806945Y-126024000D01*
X86854739Y-126028707D01*
G37*
G36*
X124708228Y-126181703D02*
G01*
X124863100Y-126245853D01*
X125002481Y-126338985D01*
X125121015Y-126457519D01*
X125214147Y-126596900D01*
X125278297Y-126751772D01*
X125311000Y-126916184D01*
X125311000Y-127083816D01*
X125278297Y-127248228D01*
X125214147Y-127403100D01*
X125121015Y-127542481D01*
X125002481Y-127661015D01*
X124863100Y-127754147D01*
X124708228Y-127818297D01*
X124543816Y-127851000D01*
X124376184Y-127851000D01*
X124211772Y-127818297D01*
X124056900Y-127754147D01*
X123917519Y-127661015D01*
X123798985Y-127542481D01*
X123705853Y-127403100D01*
X123641703Y-127248228D01*
X123609000Y-127083816D01*
X123609000Y-126916184D01*
X123641703Y-126751772D01*
X123705853Y-126596900D01*
X123798985Y-126457519D01*
X123917519Y-126338985D01*
X124056900Y-126245853D01*
X124211772Y-126181703D01*
X124376184Y-126149000D01*
X124543816Y-126149000D01*
X124708228Y-126181703D01*
G37*
G36*
X150711000Y-127851000D02*
G01*
X149009000Y-127851000D01*
X149009000Y-126149000D01*
X150711000Y-126149000D01*
X150711000Y-127851000D01*
G37*
G36*
X132328228Y-126181703D02*
G01*
X132483100Y-126245853D01*
X132622481Y-126338985D01*
X132741015Y-126457519D01*
X132834147Y-126596900D01*
X132898297Y-126751772D01*
X132931000Y-126916184D01*
X132931000Y-127083816D01*
X132898297Y-127248228D01*
X132834147Y-127403100D01*
X132741015Y-127542481D01*
X132622481Y-127661015D01*
X132483100Y-127754147D01*
X132328228Y-127818297D01*
X132163816Y-127851000D01*
X131996184Y-127851000D01*
X131831772Y-127818297D01*
X131676900Y-127754147D01*
X131537519Y-127661015D01*
X131418985Y-127542481D01*
X131325853Y-127403100D01*
X131261703Y-127248228D01*
X131229000Y-127083816D01*
X131229000Y-126916184D01*
X131261703Y-126751772D01*
X131325853Y-126596900D01*
X131418985Y-126457519D01*
X131537519Y-126338985D01*
X131676900Y-126245853D01*
X131831772Y-126181703D01*
X131996184Y-126149000D01*
X132163816Y-126149000D01*
X132328228Y-126181703D01*
G37*
G36*
X127248228Y-126181703D02*
G01*
X127403100Y-126245853D01*
X127542481Y-126338985D01*
X127661015Y-126457519D01*
X127754147Y-126596900D01*
X127818297Y-126751772D01*
X127851000Y-126916184D01*
X127851000Y-127083816D01*
X127818297Y-127248228D01*
X127754147Y-127403100D01*
X127661015Y-127542481D01*
X127542481Y-127661015D01*
X127403100Y-127754147D01*
X127248228Y-127818297D01*
X127083816Y-127851000D01*
X126916184Y-127851000D01*
X126751772Y-127818297D01*
X126596900Y-127754147D01*
X126457519Y-127661015D01*
X126338985Y-127542481D01*
X126245853Y-127403100D01*
X126181703Y-127248228D01*
X126149000Y-127083816D01*
X126149000Y-126916184D01*
X126181703Y-126751772D01*
X126245853Y-126596900D01*
X126338985Y-126457519D01*
X126457519Y-126338985D01*
X126596900Y-126245853D01*
X126751772Y-126181703D01*
X126916184Y-126149000D01*
X127083816Y-126149000D01*
X127248228Y-126181703D01*
G37*
G36*
X129788228Y-126181703D02*
G01*
X129943100Y-126245853D01*
X130082481Y-126338985D01*
X130201015Y-126457519D01*
X130294147Y-126596900D01*
X130358297Y-126751772D01*
X130391000Y-126916184D01*
X130391000Y-127083816D01*
X130358297Y-127248228D01*
X130294147Y-127403100D01*
X130201015Y-127542481D01*
X130082481Y-127661015D01*
X129943100Y-127754147D01*
X129788228Y-127818297D01*
X129623816Y-127851000D01*
X129456184Y-127851000D01*
X129291772Y-127818297D01*
X129136900Y-127754147D01*
X128997519Y-127661015D01*
X128878985Y-127542481D01*
X128785853Y-127403100D01*
X128721703Y-127248228D01*
X128689000Y-127083816D01*
X128689000Y-126916184D01*
X128721703Y-126751772D01*
X128785853Y-126596900D01*
X128878985Y-126457519D01*
X128997519Y-126338985D01*
X129136900Y-126245853D01*
X129291772Y-126181703D01*
X129456184Y-126149000D01*
X129623816Y-126149000D01*
X129788228Y-126181703D01*
G37*
G36*
X113278228Y-124911703D02*
G01*
X113433100Y-124975853D01*
X113572481Y-125068985D01*
X113691015Y-125187519D01*
X113784147Y-125326900D01*
X113848297Y-125481772D01*
X113881000Y-125646184D01*
X113881000Y-125813816D01*
X113848297Y-125978228D01*
X113784147Y-126133100D01*
X113691015Y-126272481D01*
X113572481Y-126391015D01*
X113433100Y-126484147D01*
X113278228Y-126548297D01*
X113113816Y-126581000D01*
X112946184Y-126581000D01*
X112781772Y-126548297D01*
X112626900Y-126484147D01*
X112487519Y-126391015D01*
X112368985Y-126272481D01*
X112275853Y-126133100D01*
X112211703Y-125978228D01*
X112179000Y-125813816D01*
X112179000Y-125646184D01*
X112211703Y-125481772D01*
X112275853Y-125326900D01*
X112368985Y-125187519D01*
X112487519Y-125068985D01*
X112626900Y-124975853D01*
X112781772Y-124911703D01*
X112946184Y-124879000D01*
X113113816Y-124879000D01*
X113278228Y-124911703D01*
G37*
G36*
X106986564Y-123639389D02*
G01*
X107177833Y-123718615D01*
X107177835Y-123718616D01*
X107349973Y-123833635D01*
X107496365Y-123980027D01*
X107611385Y-124152167D01*
X107690611Y-124343436D01*
X107731000Y-124546484D01*
X107731000Y-124753516D01*
X107690611Y-124956564D01*
X107611385Y-125147833D01*
X107611384Y-125147835D01*
X107496365Y-125319973D01*
X107349973Y-125466365D01*
X107177835Y-125581384D01*
X107177834Y-125581385D01*
X107177833Y-125581385D01*
X106986564Y-125660611D01*
X106783516Y-125701000D01*
X106576484Y-125701000D01*
X106373436Y-125660611D01*
X106182167Y-125581385D01*
X106182166Y-125581385D01*
X106182165Y-125581384D01*
X106010027Y-125466365D01*
X105863635Y-125319973D01*
X105748616Y-125147835D01*
X105748615Y-125147833D01*
X105669389Y-124956564D01*
X105629000Y-124753516D01*
X105629000Y-124546484D01*
X105669389Y-124343436D01*
X105748615Y-124152167D01*
X105863635Y-123980027D01*
X106010027Y-123833635D01*
X106182165Y-123718616D01*
X106182167Y-123718615D01*
X106373436Y-123639389D01*
X106576484Y-123599000D01*
X106783516Y-123599000D01*
X106986564Y-123639389D01*
G37*
G36*
X106986564Y-119639389D02*
G01*
X107177833Y-119718615D01*
X107177835Y-119718616D01*
X107349973Y-119833635D01*
X107496365Y-119980027D01*
X107599345Y-120134147D01*
X107611385Y-120152167D01*
X107690611Y-120343436D01*
X107731000Y-120546484D01*
X107731000Y-120753516D01*
X107690611Y-120956564D01*
X107611385Y-121147833D01*
X107611384Y-121147835D01*
X107496365Y-121319973D01*
X107349973Y-121466365D01*
X107177835Y-121581384D01*
X107177834Y-121581385D01*
X107177833Y-121581385D01*
X106986564Y-121660611D01*
X106783516Y-121701000D01*
X106576484Y-121701000D01*
X106373436Y-121660611D01*
X106182167Y-121581385D01*
X106182166Y-121581385D01*
X106182165Y-121581384D01*
X106010027Y-121466365D01*
X105863635Y-121319973D01*
X105748616Y-121147835D01*
X105748615Y-121147833D01*
X105669389Y-120956564D01*
X105629000Y-120753516D01*
X105629000Y-120546484D01*
X105669389Y-120343436D01*
X105748615Y-120152167D01*
X105760656Y-120134147D01*
X105863635Y-119980027D01*
X106010027Y-119833635D01*
X106182165Y-119718616D01*
X106182167Y-119718615D01*
X106373436Y-119639389D01*
X106576484Y-119599000D01*
X106783516Y-119599000D01*
X106986564Y-119639389D01*
G37*
G36*
X113278228Y-119911703D02*
G01*
X113433100Y-119975853D01*
X113572481Y-120068985D01*
X113691015Y-120187519D01*
X113784147Y-120326900D01*
X113848297Y-120481772D01*
X113881000Y-120646184D01*
X113881000Y-120813816D01*
X113848297Y-120978228D01*
X113784147Y-121133100D01*
X113691015Y-121272481D01*
X113572481Y-121391015D01*
X113433100Y-121484147D01*
X113278228Y-121548297D01*
X113113816Y-121581000D01*
X112946184Y-121581000D01*
X112781772Y-121548297D01*
X112626900Y-121484147D01*
X112487519Y-121391015D01*
X112368985Y-121272481D01*
X112275853Y-121133100D01*
X112211703Y-120978228D01*
X112179000Y-120813816D01*
X112179000Y-120646184D01*
X112211703Y-120481772D01*
X112275853Y-120326900D01*
X112368985Y-120187519D01*
X112487519Y-120068985D01*
X112626900Y-119975853D01*
X112781772Y-119911703D01*
X112946184Y-119879000D01*
X113113816Y-119879000D01*
X113278228Y-119911703D01*
G37*
G36*
X127248228Y-118561703D02*
G01*
X127403100Y-118625853D01*
X127542481Y-118718985D01*
X127661015Y-118837519D01*
X127754147Y-118976900D01*
X127818297Y-119131772D01*
X127851000Y-119296184D01*
X127851000Y-119463816D01*
X127818297Y-119628228D01*
X127754147Y-119783100D01*
X127661015Y-119922481D01*
X127542481Y-120041015D01*
X127403100Y-120134147D01*
X127248228Y-120198297D01*
X127083816Y-120231000D01*
X126916184Y-120231000D01*
X126751772Y-120198297D01*
X126596900Y-120134147D01*
X126457519Y-120041015D01*
X126338985Y-119922481D01*
X126245853Y-119783100D01*
X126181703Y-119628228D01*
X126149000Y-119463816D01*
X126149000Y-119296184D01*
X126181703Y-119131772D01*
X126245853Y-118976900D01*
X126338985Y-118837519D01*
X126457519Y-118718985D01*
X126596900Y-118625853D01*
X126751772Y-118561703D01*
X126916184Y-118529000D01*
X127083816Y-118529000D01*
X127248228Y-118561703D01*
G37*
G36*
X129788228Y-118561703D02*
G01*
X129943100Y-118625853D01*
X130082481Y-118718985D01*
X130201015Y-118837519D01*
X130294147Y-118976900D01*
X130358297Y-119131772D01*
X130391000Y-119296184D01*
X130391000Y-119463816D01*
X130358297Y-119628228D01*
X130294147Y-119783100D01*
X130201015Y-119922481D01*
X130082481Y-120041015D01*
X129943100Y-120134147D01*
X129788228Y-120198297D01*
X129623816Y-120231000D01*
X129456184Y-120231000D01*
X129291772Y-120198297D01*
X129136900Y-120134147D01*
X128997519Y-120041015D01*
X128878985Y-119922481D01*
X128785853Y-119783100D01*
X128721703Y-119628228D01*
X128689000Y-119463816D01*
X128689000Y-119296184D01*
X128721703Y-119131772D01*
X128785853Y-118976900D01*
X128878985Y-118837519D01*
X128997519Y-118718985D01*
X129136900Y-118625853D01*
X129291772Y-118561703D01*
X129456184Y-118529000D01*
X129623816Y-118529000D01*
X129788228Y-118561703D01*
G37*
G36*
X132931000Y-120231000D02*
G01*
X131229000Y-120231000D01*
X131229000Y-118529000D01*
X132931000Y-118529000D01*
X132931000Y-120231000D01*
G37*
G36*
X124708228Y-118561703D02*
G01*
X124863100Y-118625853D01*
X125002481Y-118718985D01*
X125121015Y-118837519D01*
X125214147Y-118976900D01*
X125278297Y-119131772D01*
X125311000Y-119296184D01*
X125311000Y-119463816D01*
X125278297Y-119628228D01*
X125214147Y-119783100D01*
X125121015Y-119922481D01*
X125002481Y-120041015D01*
X124863100Y-120134147D01*
X124708228Y-120198297D01*
X124543816Y-120231000D01*
X124376184Y-120231000D01*
X124211772Y-120198297D01*
X124056900Y-120134147D01*
X123917519Y-120041015D01*
X123798985Y-119922481D01*
X123705853Y-119783100D01*
X123641703Y-119628228D01*
X123609000Y-119463816D01*
X123609000Y-119296184D01*
X123641703Y-119131772D01*
X123705853Y-118976900D01*
X123798985Y-118837519D01*
X123917519Y-118718985D01*
X124056900Y-118625853D01*
X124211772Y-118561703D01*
X124376184Y-118529000D01*
X124543816Y-118529000D01*
X124708228Y-118561703D01*
G37*
G36*
X150108228Y-118551703D02*
G01*
X150263100Y-118615853D01*
X150402481Y-118708985D01*
X150521015Y-118827519D01*
X150614147Y-118966900D01*
X150678297Y-119121772D01*
X150711000Y-119286184D01*
X150711000Y-119453816D01*
X150678297Y-119618228D01*
X150614147Y-119773100D01*
X150521015Y-119912481D01*
X150402481Y-120031015D01*
X150263100Y-120124147D01*
X150108228Y-120188297D01*
X149943816Y-120221000D01*
X149776184Y-120221000D01*
X149611772Y-120188297D01*
X149456900Y-120124147D01*
X149317519Y-120031015D01*
X149198985Y-119912481D01*
X149105853Y-119773100D01*
X149041703Y-119618228D01*
X149009000Y-119453816D01*
X149009000Y-119286184D01*
X149041703Y-119121772D01*
X149105853Y-118966900D01*
X149198985Y-118827519D01*
X149317519Y-118708985D01*
X149456900Y-118615853D01*
X149611772Y-118551703D01*
X149776184Y-118519000D01*
X149943816Y-118519000D01*
X150108228Y-118551703D01*
G37*
G36*
X119261000Y-119261000D02*
G01*
X116959000Y-119261000D01*
X116959000Y-116959000D01*
X119261000Y-116959000D01*
X119261000Y-119261000D01*
G37*
G36*
X138678228Y-117291703D02*
G01*
X138833100Y-117355853D01*
X138972481Y-117448985D01*
X139091015Y-117567519D01*
X139184147Y-117706900D01*
X139248297Y-117861772D01*
X139281000Y-118026184D01*
X139281000Y-118193816D01*
X139248297Y-118358228D01*
X139184147Y-118513100D01*
X139091015Y-118652481D01*
X138972481Y-118771015D01*
X138833100Y-118864147D01*
X138678228Y-118928297D01*
X138513816Y-118961000D01*
X138346184Y-118961000D01*
X138181772Y-118928297D01*
X138026900Y-118864147D01*
X137887519Y-118771015D01*
X137768985Y-118652481D01*
X137675853Y-118513100D01*
X137611703Y-118358228D01*
X137579000Y-118193816D01*
X137579000Y-118026184D01*
X137611703Y-117861772D01*
X137675853Y-117706900D01*
X137768985Y-117567519D01*
X137887519Y-117448985D01*
X138026900Y-117355853D01*
X138181772Y-117291703D01*
X138346184Y-117259000D01*
X138513816Y-117259000D01*
X138678228Y-117291703D01*
G37*
G36*
X150711000Y-116421000D02*
G01*
X149009000Y-116421000D01*
X149009000Y-114719000D01*
X150711000Y-114719000D01*
X150711000Y-116421000D01*
G37*
G36*
X118334549Y-111901116D02*
G01*
X118445734Y-111923232D01*
X118593850Y-111984584D01*
X118650933Y-112008228D01*
X118655203Y-112009997D01*
X118843720Y-112135960D01*
X119004040Y-112296280D01*
X119087385Y-112421015D01*
X119130004Y-112484799D01*
X119216768Y-112694267D01*
X119261000Y-112916635D01*
X119261000Y-113143365D01*
X119216768Y-113365733D01*
X119131131Y-113572481D01*
X119130003Y-113575203D01*
X119004040Y-113763720D01*
X118843720Y-113924040D01*
X118655203Y-114050003D01*
X118445734Y-114136768D01*
X118334549Y-114158884D01*
X118223365Y-114181000D01*
X117996635Y-114181000D01*
X117885451Y-114158884D01*
X117774266Y-114136768D01*
X117564797Y-114050003D01*
X117376280Y-113924040D01*
X117215960Y-113763720D01*
X117089997Y-113575203D01*
X117088870Y-113572481D01*
X117003232Y-113365733D01*
X116959000Y-113143365D01*
X116959000Y-112916635D01*
X117003232Y-112694267D01*
X117089996Y-112484799D01*
X117132615Y-112421015D01*
X117215960Y-112296280D01*
X117376280Y-112135960D01*
X117564797Y-112009997D01*
X117569068Y-112008228D01*
X117626150Y-111984584D01*
X117774266Y-111923232D01*
X117885451Y-111901116D01*
X117996635Y-111879000D01*
X118223365Y-111879000D01*
X118334549Y-111901116D01*
G37*
G36*
X138678228Y-112211703D02*
G01*
X138833100Y-112275853D01*
X138972481Y-112368985D01*
X139091015Y-112487519D01*
X139184147Y-112626900D01*
X139248297Y-112781772D01*
X139281000Y-112946184D01*
X139281000Y-113113816D01*
X139248297Y-113278228D01*
X139184147Y-113433100D01*
X139091015Y-113572481D01*
X138972481Y-113691015D01*
X138833100Y-113784147D01*
X138678228Y-113848297D01*
X138513816Y-113881000D01*
X138346184Y-113881000D01*
X138181772Y-113848297D01*
X138026900Y-113784147D01*
X137887519Y-113691015D01*
X137768985Y-113572481D01*
X137675853Y-113433100D01*
X137611703Y-113278228D01*
X137579000Y-113113816D01*
X137579000Y-112946184D01*
X137611703Y-112781772D01*
X137675853Y-112626900D01*
X137768985Y-112487519D01*
X137887519Y-112368985D01*
X138026900Y-112275853D01*
X138181772Y-112211703D01*
X138346184Y-112179000D01*
X138513816Y-112179000D01*
X138678228Y-112211703D01*
G37*
G36*
X132328228Y-110941703D02*
G01*
X132483100Y-111005853D01*
X132622481Y-111098985D01*
X132741015Y-111217519D01*
X132834147Y-111356900D01*
X132898297Y-111511772D01*
X132931000Y-111676184D01*
X132931000Y-111843816D01*
X132898297Y-112008228D01*
X132834147Y-112163100D01*
X132741015Y-112302481D01*
X132622481Y-112421015D01*
X132483100Y-112514147D01*
X132328228Y-112578297D01*
X132163816Y-112611000D01*
X131996184Y-112611000D01*
X131831772Y-112578297D01*
X131676900Y-112514147D01*
X131537519Y-112421015D01*
X131418985Y-112302481D01*
X131325853Y-112163100D01*
X131261703Y-112008228D01*
X131229000Y-111843816D01*
X131229000Y-111676184D01*
X131261703Y-111511772D01*
X131325853Y-111356900D01*
X131418985Y-111217519D01*
X131537519Y-111098985D01*
X131676900Y-111005853D01*
X131831772Y-110941703D01*
X131996184Y-110909000D01*
X132163816Y-110909000D01*
X132328228Y-110941703D01*
G37*
G36*
X129788228Y-110941703D02*
G01*
X129943100Y-111005853D01*
X130082481Y-111098985D01*
X130201015Y-111217519D01*
X130294147Y-111356900D01*
X130358297Y-111511772D01*
X130391000Y-111676184D01*
X130391000Y-111843816D01*
X130358297Y-112008228D01*
X130294147Y-112163100D01*
X130201015Y-112302481D01*
X130082481Y-112421015D01*
X129943100Y-112514147D01*
X129788228Y-112578297D01*
X129623816Y-112611000D01*
X129456184Y-112611000D01*
X129291772Y-112578297D01*
X129136900Y-112514147D01*
X128997519Y-112421015D01*
X128878985Y-112302481D01*
X128785853Y-112163100D01*
X128721703Y-112008228D01*
X128689000Y-111843816D01*
X128689000Y-111676184D01*
X128721703Y-111511772D01*
X128785853Y-111356900D01*
X128878985Y-111217519D01*
X128997519Y-111098985D01*
X129136900Y-111005853D01*
X129291772Y-110941703D01*
X129456184Y-110909000D01*
X129623816Y-110909000D01*
X129788228Y-110941703D01*
G37*
G36*
X124708228Y-110941703D02*
G01*
X124863100Y-111005853D01*
X125002481Y-111098985D01*
X125121015Y-111217519D01*
X125214147Y-111356900D01*
X125278297Y-111511772D01*
X125311000Y-111676184D01*
X125311000Y-111843816D01*
X125278297Y-112008228D01*
X125214147Y-112163100D01*
X125121015Y-112302481D01*
X125002481Y-112421015D01*
X124863100Y-112514147D01*
X124708228Y-112578297D01*
X124543816Y-112611000D01*
X124376184Y-112611000D01*
X124211772Y-112578297D01*
X124056900Y-112514147D01*
X123917519Y-112421015D01*
X123798985Y-112302481D01*
X123705853Y-112163100D01*
X123641703Y-112008228D01*
X123609000Y-111843816D01*
X123609000Y-111676184D01*
X123641703Y-111511772D01*
X123705853Y-111356900D01*
X123798985Y-111217519D01*
X123917519Y-111098985D01*
X124056900Y-111005853D01*
X124211772Y-110941703D01*
X124376184Y-110909000D01*
X124543816Y-110909000D01*
X124708228Y-110941703D01*
G37*
G36*
X127248228Y-110941703D02*
G01*
X127403100Y-111005853D01*
X127542481Y-111098985D01*
X127661015Y-111217519D01*
X127754147Y-111356900D01*
X127818297Y-111511772D01*
X127851000Y-111676184D01*
X127851000Y-111843816D01*
X127818297Y-112008228D01*
X127754147Y-112163100D01*
X127661015Y-112302481D01*
X127542481Y-112421015D01*
X127403100Y-112514147D01*
X127248228Y-112578297D01*
X127083816Y-112611000D01*
X126916184Y-112611000D01*
X126751772Y-112578297D01*
X126596900Y-112514147D01*
X126457519Y-112421015D01*
X126338985Y-112302481D01*
X126245853Y-112163100D01*
X126181703Y-112008228D01*
X126149000Y-111843816D01*
X126149000Y-111676184D01*
X126181703Y-111511772D01*
X126245853Y-111356900D01*
X126338985Y-111217519D01*
X126457519Y-111098985D01*
X126596900Y-111005853D01*
X126751772Y-110941703D01*
X126916184Y-110909000D01*
X127083816Y-110909000D01*
X127248228Y-110941703D01*
G37*
G36*
X113278228Y-109671703D02*
G01*
X113433100Y-109735853D01*
X113572481Y-109828985D01*
X113691015Y-109947519D01*
X113784147Y-110086900D01*
X113848297Y-110241772D01*
X113881000Y-110406184D01*
X113881000Y-110573816D01*
X113848297Y-110738228D01*
X113784147Y-110893100D01*
X113691015Y-111032481D01*
X113572481Y-111151015D01*
X113433100Y-111244147D01*
X113278228Y-111308297D01*
X113113816Y-111341000D01*
X112946184Y-111341000D01*
X112781772Y-111308297D01*
X112626900Y-111244147D01*
X112487519Y-111151015D01*
X112368985Y-111032481D01*
X112275853Y-110893100D01*
X112211703Y-110738228D01*
X112179000Y-110573816D01*
X112179000Y-110406184D01*
X112211703Y-110241772D01*
X112275853Y-110086900D01*
X112368985Y-109947519D01*
X112487519Y-109828985D01*
X112626900Y-109735853D01*
X112781772Y-109671703D01*
X112946184Y-109639000D01*
X113113816Y-109639000D01*
X113278228Y-109671703D01*
G37*
G36*
X106986564Y-108399389D02*
G01*
X107177833Y-108478615D01*
X107177835Y-108478616D01*
X107183619Y-108482481D01*
X107349973Y-108593635D01*
X107496365Y-108740027D01*
X107611385Y-108912167D01*
X107690611Y-109103436D01*
X107731000Y-109306484D01*
X107731000Y-109513516D01*
X107690611Y-109716564D01*
X107611385Y-109907833D01*
X107611384Y-109907835D01*
X107496365Y-110079973D01*
X107349973Y-110226365D01*
X107177835Y-110341384D01*
X107177834Y-110341385D01*
X107177833Y-110341385D01*
X106986564Y-110420611D01*
X106783516Y-110461000D01*
X106576484Y-110461000D01*
X106373436Y-110420611D01*
X106182167Y-110341385D01*
X106182166Y-110341385D01*
X106182165Y-110341384D01*
X106010027Y-110226365D01*
X105863635Y-110079973D01*
X105748616Y-109907835D01*
X105748615Y-109907833D01*
X105669389Y-109716564D01*
X105629000Y-109513516D01*
X105629000Y-109306484D01*
X105669389Y-109103436D01*
X105748615Y-108912167D01*
X105863635Y-108740027D01*
X106010027Y-108593635D01*
X106176381Y-108482481D01*
X106182165Y-108478616D01*
X106182167Y-108478615D01*
X106373436Y-108399389D01*
X106576484Y-108359000D01*
X106783516Y-108359000D01*
X106986564Y-108399389D01*
G37*
G36*
X150108228Y-107121703D02*
G01*
X150263100Y-107185853D01*
X150402481Y-107278985D01*
X150521015Y-107397519D01*
X150614147Y-107536900D01*
X150678297Y-107691772D01*
X150711000Y-107856184D01*
X150711000Y-108023816D01*
X150678297Y-108188228D01*
X150614147Y-108343100D01*
X150521015Y-108482481D01*
X150402481Y-108601015D01*
X150263100Y-108694147D01*
X150108228Y-108758297D01*
X149943816Y-108791000D01*
X149776184Y-108791000D01*
X149611772Y-108758297D01*
X149456900Y-108694147D01*
X149317519Y-108601015D01*
X149198985Y-108482481D01*
X149105853Y-108343100D01*
X149041703Y-108188228D01*
X149009000Y-108023816D01*
X149009000Y-107856184D01*
X149041703Y-107691772D01*
X149105853Y-107536900D01*
X149198985Y-107397519D01*
X149317519Y-107278985D01*
X149456900Y-107185853D01*
X149611772Y-107121703D01*
X149776184Y-107089000D01*
X149943816Y-107089000D01*
X150108228Y-107121703D01*
G37*
G36*
X106986564Y-104399389D02*
G01*
X107177833Y-104478615D01*
X107177835Y-104478616D01*
X107349973Y-104593635D01*
X107496365Y-104740027D01*
X107599345Y-104894147D01*
X107611385Y-104912167D01*
X107690611Y-105103436D01*
X107731000Y-105306484D01*
X107731000Y-105513516D01*
X107690611Y-105716564D01*
X107611385Y-105907833D01*
X107611384Y-105907835D01*
X107496365Y-106079973D01*
X107349973Y-106226365D01*
X107177835Y-106341384D01*
X107177834Y-106341385D01*
X107177833Y-106341385D01*
X106986564Y-106420611D01*
X106783516Y-106461000D01*
X106576484Y-106461000D01*
X106373436Y-106420611D01*
X106182167Y-106341385D01*
X106182166Y-106341385D01*
X106182165Y-106341384D01*
X106010027Y-106226365D01*
X105863635Y-106079973D01*
X105748616Y-105907835D01*
X105748615Y-105907833D01*
X105669389Y-105716564D01*
X105629000Y-105513516D01*
X105629000Y-105306484D01*
X105669389Y-105103436D01*
X105748615Y-104912167D01*
X105760656Y-104894147D01*
X105863635Y-104740027D01*
X106010027Y-104593635D01*
X106182165Y-104478616D01*
X106182167Y-104478615D01*
X106373436Y-104399389D01*
X106576484Y-104359000D01*
X106783516Y-104359000D01*
X106986564Y-104399389D01*
G37*
G36*
X113278228Y-104671703D02*
G01*
X113433100Y-104735853D01*
X113572481Y-104828985D01*
X113691015Y-104947519D01*
X113784147Y-105086900D01*
X113848297Y-105241772D01*
X113881000Y-105406184D01*
X113881000Y-105573816D01*
X113848297Y-105738228D01*
X113784147Y-105893100D01*
X113691015Y-106032481D01*
X113572481Y-106151015D01*
X113433100Y-106244147D01*
X113278228Y-106308297D01*
X113113816Y-106341000D01*
X112946184Y-106341000D01*
X112781772Y-106308297D01*
X112626900Y-106244147D01*
X112487519Y-106151015D01*
X112368985Y-106032481D01*
X112275853Y-105893100D01*
X112211703Y-105738228D01*
X112179000Y-105573816D01*
X112179000Y-105406184D01*
X112211703Y-105241772D01*
X112275853Y-105086900D01*
X112368985Y-104947519D01*
X112487519Y-104828985D01*
X112626900Y-104735853D01*
X112781772Y-104671703D01*
X112946184Y-104639000D01*
X113113816Y-104639000D01*
X113278228Y-104671703D01*
G37*
G36*
X69531000Y-105091000D02*
G01*
X67629000Y-105091000D01*
X67629000Y-103189000D01*
X69531000Y-103189000D01*
X69531000Y-105091000D01*
G37*
G36*
X71397395Y-103225546D02*
G01*
X71570466Y-103297234D01*
X71570467Y-103297235D01*
X71726227Y-103401310D01*
X71858690Y-103533773D01*
X71901284Y-103597520D01*
X71962766Y-103689534D01*
X72034454Y-103862605D01*
X72071000Y-104046333D01*
X72071000Y-104233667D01*
X72034454Y-104417395D01*
X71962766Y-104590466D01*
X71911081Y-104667818D01*
X71858690Y-104746227D01*
X71726227Y-104878690D01*
X71703092Y-104894148D01*
X71570466Y-104982766D01*
X71397395Y-105054454D01*
X71213667Y-105091000D01*
X71026333Y-105091000D01*
X70842605Y-105054454D01*
X70669534Y-104982766D01*
X70536908Y-104894148D01*
X70513773Y-104878690D01*
X70381310Y-104746227D01*
X70328919Y-104667818D01*
X70277234Y-104590466D01*
X70205546Y-104417395D01*
X70169000Y-104233667D01*
X70169000Y-104046333D01*
X70205546Y-103862605D01*
X70277234Y-103689534D01*
X70338716Y-103597520D01*
X70381310Y-103533773D01*
X70513773Y-103401310D01*
X70669533Y-103297235D01*
X70669534Y-103297234D01*
X70842605Y-103225546D01*
X71026333Y-103189000D01*
X71213667Y-103189000D01*
X71397395Y-103225546D01*
G37*
G36*
X91717395Y-103225546D02*
G01*
X91890466Y-103297234D01*
X91890467Y-103297235D01*
X92046227Y-103401310D01*
X92178690Y-103533773D01*
X92221284Y-103597520D01*
X92282766Y-103689534D01*
X92354454Y-103862605D01*
X92391000Y-104046333D01*
X92391000Y-104233667D01*
X92354454Y-104417395D01*
X92282766Y-104590466D01*
X92231081Y-104667818D01*
X92178690Y-104746227D01*
X92046227Y-104878690D01*
X92023092Y-104894148D01*
X91890466Y-104982766D01*
X91717395Y-105054454D01*
X91533667Y-105091000D01*
X91346333Y-105091000D01*
X91162605Y-105054454D01*
X90989534Y-104982766D01*
X90856908Y-104894148D01*
X90833773Y-104878690D01*
X90701310Y-104746227D01*
X90648919Y-104667818D01*
X90597234Y-104590466D01*
X90525546Y-104417395D01*
X90489000Y-104233667D01*
X90489000Y-104046333D01*
X90525546Y-103862605D01*
X90597234Y-103689534D01*
X90658716Y-103597520D01*
X90701310Y-103533773D01*
X90833773Y-103401310D01*
X90989533Y-103297235D01*
X90989534Y-103297234D01*
X91162605Y-103225546D01*
X91346333Y-103189000D01*
X91533667Y-103189000D01*
X91717395Y-103225546D01*
G37*
G36*
X89851000Y-105091000D02*
G01*
X87949000Y-105091000D01*
X87949000Y-103189000D01*
X89851000Y-103189000D01*
X89851000Y-105091000D01*
G37*
G36*
X150711000Y-104991000D02*
G01*
X149009000Y-104991000D01*
X149009000Y-103289000D01*
X150711000Y-103289000D01*
X150711000Y-104991000D01*
G37*
G36*
X132931000Y-104991000D02*
G01*
X131229000Y-104991000D01*
X131229000Y-103289000D01*
X132931000Y-103289000D01*
X132931000Y-104991000D01*
G37*
G36*
X129788228Y-103321703D02*
G01*
X129943100Y-103385853D01*
X130082481Y-103478985D01*
X130201015Y-103597519D01*
X130294147Y-103736900D01*
X130358297Y-103891772D01*
X130391000Y-104056184D01*
X130391000Y-104223816D01*
X130358297Y-104388228D01*
X130294147Y-104543100D01*
X130201015Y-104682481D01*
X130082481Y-104801015D01*
X129943100Y-104894147D01*
X129788228Y-104958297D01*
X129623816Y-104991000D01*
X129456184Y-104991000D01*
X129291772Y-104958297D01*
X129136900Y-104894147D01*
X128997519Y-104801015D01*
X128878985Y-104682481D01*
X128785853Y-104543100D01*
X128721703Y-104388228D01*
X128689000Y-104223816D01*
X128689000Y-104056184D01*
X128721703Y-103891772D01*
X128785853Y-103736900D01*
X128878985Y-103597519D01*
X128997519Y-103478985D01*
X129136900Y-103385853D01*
X129291772Y-103321703D01*
X129456184Y-103289000D01*
X129623816Y-103289000D01*
X129788228Y-103321703D01*
G37*
G36*
X127248228Y-103321703D02*
G01*
X127403100Y-103385853D01*
X127542481Y-103478985D01*
X127661015Y-103597519D01*
X127754147Y-103736900D01*
X127818297Y-103891772D01*
X127851000Y-104056184D01*
X127851000Y-104223816D01*
X127818297Y-104388228D01*
X127754147Y-104543100D01*
X127661015Y-104682481D01*
X127542481Y-104801015D01*
X127403100Y-104894147D01*
X127248228Y-104958297D01*
X127083816Y-104991000D01*
X126916184Y-104991000D01*
X126751772Y-104958297D01*
X126596900Y-104894147D01*
X126457519Y-104801015D01*
X126338985Y-104682481D01*
X126245853Y-104543100D01*
X126181703Y-104388228D01*
X126149000Y-104223816D01*
X126149000Y-104056184D01*
X126181703Y-103891772D01*
X126245853Y-103736900D01*
X126338985Y-103597519D01*
X126457519Y-103478985D01*
X126596900Y-103385853D01*
X126751772Y-103321703D01*
X126916184Y-103289000D01*
X127083816Y-103289000D01*
X127248228Y-103321703D01*
G37*
G36*
X124708228Y-103321703D02*
G01*
X124863100Y-103385853D01*
X125002481Y-103478985D01*
X125121015Y-103597519D01*
X125214147Y-103736900D01*
X125278297Y-103891772D01*
X125311000Y-104056184D01*
X125311000Y-104223816D01*
X125278297Y-104388228D01*
X125214147Y-104543100D01*
X125121015Y-104682481D01*
X125002481Y-104801015D01*
X124863100Y-104894147D01*
X124708228Y-104958297D01*
X124543816Y-104991000D01*
X124376184Y-104991000D01*
X124211772Y-104958297D01*
X124056900Y-104894147D01*
X123917519Y-104801015D01*
X123798985Y-104682481D01*
X123705853Y-104543100D01*
X123641703Y-104388228D01*
X123609000Y-104223816D01*
X123609000Y-104056184D01*
X123641703Y-103891772D01*
X123705853Y-103736900D01*
X123798985Y-103597519D01*
X123917519Y-103478985D01*
X124056900Y-103385853D01*
X124211772Y-103321703D01*
X124376184Y-103289000D01*
X124543816Y-103289000D01*
X124708228Y-103321703D01*
G37*
G36*
X119261000Y-104021000D02*
G01*
X116959000Y-104021000D01*
X116959000Y-101719000D01*
X119261000Y-101719000D01*
X119261000Y-104021000D01*
G37*
G36*
X138678228Y-102051703D02*
G01*
X138833100Y-102115853D01*
X138972481Y-102208985D01*
X139091015Y-102327519D01*
X139184147Y-102466900D01*
X139248297Y-102621772D01*
X139281000Y-102786184D01*
X139281000Y-102953816D01*
X139248297Y-103118228D01*
X139184147Y-103273100D01*
X139091015Y-103412481D01*
X138972481Y-103531015D01*
X138833100Y-103624147D01*
X138678228Y-103688297D01*
X138513816Y-103721000D01*
X138346184Y-103721000D01*
X138181772Y-103688297D01*
X138026900Y-103624147D01*
X137887519Y-103531015D01*
X137768985Y-103412481D01*
X137675853Y-103273100D01*
X137611703Y-103118228D01*
X137579000Y-102953816D01*
X137579000Y-102786184D01*
X137611703Y-102621772D01*
X137675853Y-102466900D01*
X137768985Y-102327519D01*
X137887519Y-102208985D01*
X138026900Y-102115853D01*
X138181772Y-102051703D01*
X138346184Y-102019000D01*
X138513816Y-102019000D01*
X138678228Y-102051703D01*
G37*
G36*
X115818228Y-95701703D02*
G01*
X115973100Y-95765853D01*
X116112481Y-95858985D01*
X116231015Y-95977519D01*
X116324147Y-96116900D01*
X116388297Y-96271772D01*
X116421000Y-96436184D01*
X116421000Y-96603816D01*
X116388297Y-96768228D01*
X116324147Y-96923100D01*
X116231015Y-97062481D01*
X116112481Y-97181015D01*
X115973100Y-97274147D01*
X115818228Y-97338297D01*
X115653816Y-97371000D01*
X115486184Y-97371000D01*
X115321772Y-97338297D01*
X115166900Y-97274147D01*
X115027519Y-97181015D01*
X114908985Y-97062481D01*
X114815853Y-96923100D01*
X114751703Y-96768228D01*
X114719000Y-96603816D01*
X114719000Y-96436184D01*
X114751703Y-96271772D01*
X114815853Y-96116900D01*
X114908985Y-95977519D01*
X115027519Y-95858985D01*
X115166900Y-95765853D01*
X115321772Y-95701703D01*
X115486184Y-95669000D01*
X115653816Y-95669000D01*
X115818228Y-95701703D01*
G37*
G36*
X125978228Y-95701703D02*
G01*
X126133100Y-95765853D01*
X126272481Y-95858985D01*
X126391015Y-95977519D01*
X126484147Y-96116900D01*
X126548297Y-96271772D01*
X126581000Y-96436184D01*
X126581000Y-96603816D01*
X126548297Y-96768228D01*
X126484147Y-96923100D01*
X126391015Y-97062481D01*
X126272481Y-97181015D01*
X126133100Y-97274147D01*
X125978228Y-97338297D01*
X125813816Y-97371000D01*
X125646184Y-97371000D01*
X125481772Y-97338297D01*
X125326900Y-97274147D01*
X125187519Y-97181015D01*
X125068985Y-97062481D01*
X124975853Y-96923100D01*
X124911703Y-96768228D01*
X124879000Y-96603816D01*
X124879000Y-96436184D01*
X124911703Y-96271772D01*
X124975853Y-96116900D01*
X125068985Y-95977519D01*
X125187519Y-95858985D01*
X125326900Y-95765853D01*
X125481772Y-95701703D01*
X125646184Y-95669000D01*
X125813816Y-95669000D01*
X125978228Y-95701703D01*
G37*
G36*
X104388228Y-93161703D02*
G01*
X104543100Y-93225853D01*
X104682481Y-93318985D01*
X104801015Y-93437519D01*
X104894147Y-93576900D01*
X104958297Y-93731772D01*
X104991000Y-93896184D01*
X104991000Y-94063816D01*
X104958297Y-94228228D01*
X104894147Y-94383100D01*
X104801015Y-94522481D01*
X104682481Y-94641015D01*
X104543100Y-94734147D01*
X104388228Y-94798297D01*
X104223816Y-94831000D01*
X104056184Y-94831000D01*
X103891772Y-94798297D01*
X103736900Y-94734147D01*
X103597519Y-94641015D01*
X103478985Y-94522481D01*
X103385853Y-94383100D01*
X103321703Y-94228228D01*
X103289000Y-94063816D01*
X103289000Y-93896184D01*
X103321703Y-93731772D01*
X103385853Y-93576900D01*
X103478985Y-93437519D01*
X103597519Y-93318985D01*
X103736900Y-93225853D01*
X103891772Y-93161703D01*
X104056184Y-93129000D01*
X104223816Y-93129000D01*
X104388228Y-93161703D01*
G37*
G36*
X94228228Y-93161703D02*
G01*
X94383100Y-93225853D01*
X94522481Y-93318985D01*
X94641015Y-93437519D01*
X94734147Y-93576900D01*
X94798297Y-93731772D01*
X94831000Y-93896184D01*
X94831000Y-94063816D01*
X94798297Y-94228228D01*
X94734147Y-94383100D01*
X94641015Y-94522481D01*
X94522481Y-94641015D01*
X94383100Y-94734147D01*
X94228228Y-94798297D01*
X94063816Y-94831000D01*
X93896184Y-94831000D01*
X93731772Y-94798297D01*
X93576900Y-94734147D01*
X93437519Y-94641015D01*
X93318985Y-94522481D01*
X93225853Y-94383100D01*
X93161703Y-94228228D01*
X93129000Y-94063816D01*
X93129000Y-93896184D01*
X93161703Y-93731772D01*
X93225853Y-93576900D01*
X93318985Y-93437519D01*
X93437519Y-93318985D01*
X93576900Y-93225853D01*
X93731772Y-93161703D01*
X93896184Y-93129000D01*
X94063816Y-93129000D01*
X94228228Y-93161703D01*
G37*
G36*
X104388228Y-89351703D02*
G01*
X104543100Y-89415853D01*
X104682481Y-89508985D01*
X104801015Y-89627519D01*
X104894147Y-89766900D01*
X104958297Y-89921772D01*
X104991000Y-90086184D01*
X104991000Y-90253816D01*
X104958297Y-90418228D01*
X104894147Y-90573100D01*
X104801015Y-90712481D01*
X104682481Y-90831015D01*
X104543100Y-90924147D01*
X104388228Y-90988297D01*
X104223816Y-91021000D01*
X104056184Y-91021000D01*
X103891772Y-90988297D01*
X103736900Y-90924147D01*
X103597519Y-90831015D01*
X103478985Y-90712481D01*
X103385853Y-90573100D01*
X103321703Y-90418228D01*
X103289000Y-90253816D01*
X103289000Y-90086184D01*
X103321703Y-89921772D01*
X103385853Y-89766900D01*
X103478985Y-89627519D01*
X103597519Y-89508985D01*
X103736900Y-89415853D01*
X103891772Y-89351703D01*
X104056184Y-89319000D01*
X104223816Y-89319000D01*
X104388228Y-89351703D01*
G37*
G36*
X115818228Y-89351703D02*
G01*
X115973100Y-89415853D01*
X116112481Y-89508985D01*
X116231015Y-89627519D01*
X116324147Y-89766900D01*
X116388297Y-89921772D01*
X116421000Y-90086184D01*
X116421000Y-90253816D01*
X116388297Y-90418228D01*
X116324147Y-90573100D01*
X116231015Y-90712481D01*
X116112481Y-90831015D01*
X115973100Y-90924147D01*
X115818228Y-90988297D01*
X115653816Y-91021000D01*
X115486184Y-91021000D01*
X115321772Y-90988297D01*
X115166900Y-90924147D01*
X115027519Y-90831015D01*
X114908985Y-90712481D01*
X114815853Y-90573100D01*
X114751703Y-90418228D01*
X114719000Y-90253816D01*
X114719000Y-90086184D01*
X114751703Y-89921772D01*
X114815853Y-89766900D01*
X114908985Y-89627519D01*
X115027519Y-89508985D01*
X115166900Y-89415853D01*
X115321772Y-89351703D01*
X115486184Y-89319000D01*
X115653816Y-89319000D01*
X115818228Y-89351703D01*
G37*
G36*
X125978228Y-89351703D02*
G01*
X126133100Y-89415853D01*
X126272481Y-89508985D01*
X126391015Y-89627519D01*
X126484147Y-89766900D01*
X126548297Y-89921772D01*
X126581000Y-90086184D01*
X126581000Y-90253816D01*
X126548297Y-90418228D01*
X126484147Y-90573100D01*
X126391015Y-90712481D01*
X126272481Y-90831015D01*
X126133100Y-90924147D01*
X125978228Y-90988297D01*
X125813816Y-91021000D01*
X125646184Y-91021000D01*
X125481772Y-90988297D01*
X125326900Y-90924147D01*
X125187519Y-90831015D01*
X125068985Y-90712481D01*
X124975853Y-90573100D01*
X124911703Y-90418228D01*
X124879000Y-90253816D01*
X124879000Y-90086184D01*
X124911703Y-89921772D01*
X124975853Y-89766900D01*
X125068985Y-89627519D01*
X125187519Y-89508985D01*
X125326900Y-89415853D01*
X125481772Y-89351703D01*
X125646184Y-89319000D01*
X125813816Y-89319000D01*
X125978228Y-89351703D01*
G37*
G36*
X94228228Y-89351703D02*
G01*
X94383100Y-89415853D01*
X94522481Y-89508985D01*
X94641015Y-89627519D01*
X94734147Y-89766900D01*
X94798297Y-89921772D01*
X94831000Y-90086184D01*
X94831000Y-90253816D01*
X94798297Y-90418228D01*
X94734147Y-90573100D01*
X94641015Y-90712481D01*
X94522481Y-90831015D01*
X94383100Y-90924147D01*
X94228228Y-90988297D01*
X94063816Y-91021000D01*
X93896184Y-91021000D01*
X93731772Y-90988297D01*
X93576900Y-90924147D01*
X93437519Y-90831015D01*
X93318985Y-90712481D01*
X93225853Y-90573100D01*
X93161703Y-90418228D01*
X93129000Y-90253816D01*
X93129000Y-90086184D01*
X93161703Y-89921772D01*
X93225853Y-89766900D01*
X93318985Y-89627519D01*
X93437519Y-89508985D01*
X93576900Y-89415853D01*
X93731772Y-89351703D01*
X93896184Y-89319000D01*
X94063816Y-89319000D01*
X94228228Y-89351703D01*
G37*
G36*
X132328228Y-89351703D02*
G01*
X132483100Y-89415853D01*
X132622481Y-89508985D01*
X132741015Y-89627519D01*
X132834147Y-89766900D01*
X132898297Y-89921772D01*
X132931000Y-90086184D01*
X132931000Y-90253816D01*
X132898297Y-90418228D01*
X132834147Y-90573100D01*
X132741015Y-90712481D01*
X132622481Y-90831015D01*
X132483100Y-90924147D01*
X132328228Y-90988297D01*
X132163816Y-91021000D01*
X131996184Y-91021000D01*
X131831772Y-90988297D01*
X131676900Y-90924147D01*
X131537519Y-90831015D01*
X131418985Y-90712481D01*
X131325853Y-90573100D01*
X131261703Y-90418228D01*
X131229000Y-90253816D01*
X131229000Y-90086184D01*
X131261703Y-89921772D01*
X131325853Y-89766900D01*
X131418985Y-89627519D01*
X131537519Y-89508985D01*
X131676900Y-89415853D01*
X131831772Y-89351703D01*
X131996184Y-89319000D01*
X132163816Y-89319000D01*
X132328228Y-89351703D01*
G37*
G36*
X148171000Y-91021000D02*
G01*
X146469000Y-91021000D01*
X146469000Y-89319000D01*
X148171000Y-89319000D01*
X148171000Y-91021000D01*
G37*
G36*
X109468228Y-88081703D02*
G01*
X109623100Y-88145853D01*
X109762481Y-88238985D01*
X109881015Y-88357519D01*
X109974147Y-88496900D01*
X110038297Y-88651772D01*
X110071000Y-88816184D01*
X110071000Y-88983816D01*
X110038297Y-89148228D01*
X109974147Y-89303100D01*
X109881015Y-89442481D01*
X109762481Y-89561015D01*
X109623100Y-89654147D01*
X109468228Y-89718297D01*
X109303816Y-89751000D01*
X109136184Y-89751000D01*
X108971772Y-89718297D01*
X108816900Y-89654147D01*
X108677519Y-89561015D01*
X108558985Y-89442481D01*
X108465853Y-89303100D01*
X108401703Y-89148228D01*
X108369000Y-88983816D01*
X108369000Y-88816184D01*
X108401703Y-88651772D01*
X108465853Y-88496900D01*
X108558985Y-88357519D01*
X108677519Y-88238985D01*
X108816900Y-88145853D01*
X108971772Y-88081703D01*
X109136184Y-88049000D01*
X109303816Y-88049000D01*
X109468228Y-88081703D01*
G37*
G36*
X132328228Y-86811703D02*
G01*
X132483100Y-86875853D01*
X132622481Y-86968985D01*
X132741015Y-87087519D01*
X132834147Y-87226900D01*
X132898297Y-87381772D01*
X132931000Y-87546184D01*
X132931000Y-87713816D01*
X132898297Y-87878228D01*
X132834147Y-88033100D01*
X132741015Y-88172481D01*
X132622481Y-88291015D01*
X132483100Y-88384147D01*
X132328228Y-88448297D01*
X132163816Y-88481000D01*
X131996184Y-88481000D01*
X131831772Y-88448297D01*
X131676900Y-88384147D01*
X131537519Y-88291015D01*
X131418985Y-88172481D01*
X131325853Y-88033100D01*
X131261703Y-87878228D01*
X131229000Y-87713816D01*
X131229000Y-87546184D01*
X131261703Y-87381772D01*
X131325853Y-87226900D01*
X131418985Y-87087519D01*
X131537519Y-86968985D01*
X131676900Y-86875853D01*
X131831772Y-86811703D01*
X131996184Y-86779000D01*
X132163816Y-86779000D01*
X132328228Y-86811703D01*
G37*
G36*
X147568228Y-86811703D02*
G01*
X147723100Y-86875853D01*
X147862481Y-86968985D01*
X147981015Y-87087519D01*
X148074147Y-87226900D01*
X148138297Y-87381772D01*
X148171000Y-87546184D01*
X148171000Y-87713816D01*
X148138297Y-87878228D01*
X148074147Y-88033100D01*
X147981015Y-88172481D01*
X147862481Y-88291015D01*
X147723100Y-88384147D01*
X147568228Y-88448297D01*
X147403816Y-88481000D01*
X147236184Y-88481000D01*
X147071772Y-88448297D01*
X146916900Y-88384147D01*
X146777519Y-88291015D01*
X146658985Y-88172481D01*
X146565853Y-88033100D01*
X146501703Y-87878228D01*
X146469000Y-87713816D01*
X146469000Y-87546184D01*
X146501703Y-87381772D01*
X146565853Y-87226900D01*
X146658985Y-87087519D01*
X146777519Y-86968985D01*
X146916900Y-86875853D01*
X147071772Y-86811703D01*
X147236184Y-86779000D01*
X147403816Y-86779000D01*
X147568228Y-86811703D01*
G37*
G36*
X76555629Y-86862719D02*
G01*
X76631142Y-86870156D01*
X76776476Y-86914243D01*
X76776479Y-86914244D01*
X76910416Y-86985835D01*
X77027817Y-87082183D01*
X77124165Y-87199584D01*
X77195756Y-87333521D01*
X77195757Y-87333524D01*
X77239844Y-87478858D01*
X77254730Y-87630000D01*
X77239844Y-87781142D01*
X77195757Y-87926476D01*
X77195756Y-87926479D01*
X77124165Y-88060416D01*
X77027817Y-88177817D01*
X76910416Y-88274165D01*
X76776479Y-88345756D01*
X76776476Y-88345757D01*
X76631142Y-88389844D01*
X76555629Y-88397281D01*
X76517873Y-88401000D01*
X75882127Y-88401000D01*
X75844371Y-88397281D01*
X75768858Y-88389844D01*
X75623524Y-88345757D01*
X75623521Y-88345756D01*
X75489584Y-88274165D01*
X75372183Y-88177817D01*
X75275835Y-88060416D01*
X75204244Y-87926479D01*
X75204243Y-87926476D01*
X75160156Y-87781142D01*
X75145270Y-87630000D01*
X75160156Y-87478858D01*
X75204243Y-87333524D01*
X75204244Y-87333521D01*
X75275835Y-87199584D01*
X75372183Y-87082183D01*
X75489584Y-86985835D01*
X75623521Y-86914244D01*
X75623524Y-86914243D01*
X75768858Y-86870156D01*
X75844371Y-86862719D01*
X75882127Y-86859000D01*
X76517873Y-86859000D01*
X76555629Y-86862719D01*
G37*
G36*
X84175629Y-86862719D02*
G01*
X84251142Y-86870156D01*
X84396476Y-86914243D01*
X84396479Y-86914244D01*
X84530416Y-86985835D01*
X84647817Y-87082183D01*
X84744165Y-87199584D01*
X84815756Y-87333521D01*
X84815757Y-87333524D01*
X84859844Y-87478858D01*
X84874730Y-87630000D01*
X84859844Y-87781142D01*
X84815757Y-87926476D01*
X84815756Y-87926479D01*
X84744165Y-88060416D01*
X84647817Y-88177817D01*
X84530416Y-88274165D01*
X84396479Y-88345756D01*
X84396476Y-88345757D01*
X84251142Y-88389844D01*
X84175629Y-88397281D01*
X84137873Y-88401000D01*
X83502127Y-88401000D01*
X83464371Y-88397281D01*
X83388858Y-88389844D01*
X83243524Y-88345757D01*
X83243521Y-88345756D01*
X83109584Y-88274165D01*
X82992183Y-88177817D01*
X82895835Y-88060416D01*
X82824244Y-87926479D01*
X82824243Y-87926476D01*
X82780156Y-87781142D01*
X82765270Y-87630000D01*
X82780156Y-87478858D01*
X82824243Y-87333524D01*
X82824244Y-87333521D01*
X82895835Y-87199584D01*
X82992183Y-87082183D01*
X83109584Y-86985835D01*
X83243521Y-86914244D01*
X83243524Y-86914243D01*
X83388858Y-86870156D01*
X83464371Y-86862719D01*
X83502127Y-86859000D01*
X84137873Y-86859000D01*
X84175629Y-86862719D01*
G37*
G36*
X94228228Y-85541703D02*
G01*
X94383100Y-85605853D01*
X94522481Y-85698985D01*
X94641015Y-85817519D01*
X94734147Y-85956900D01*
X94798297Y-86111772D01*
X94831000Y-86276184D01*
X94831000Y-86443816D01*
X94798297Y-86608228D01*
X94734147Y-86763100D01*
X94641015Y-86902481D01*
X94522481Y-87021015D01*
X94383100Y-87114147D01*
X94228228Y-87178297D01*
X94063816Y-87211000D01*
X93896184Y-87211000D01*
X93731772Y-87178297D01*
X93576900Y-87114147D01*
X93437519Y-87021015D01*
X93318985Y-86902481D01*
X93225853Y-86763100D01*
X93161703Y-86608228D01*
X93129000Y-86443816D01*
X93129000Y-86276184D01*
X93161703Y-86111772D01*
X93225853Y-85956900D01*
X93318985Y-85817519D01*
X93437519Y-85698985D01*
X93576900Y-85605853D01*
X93731772Y-85541703D01*
X93896184Y-85509000D01*
X94063816Y-85509000D01*
X94228228Y-85541703D01*
G37*
G36*
X104388228Y-85541703D02*
G01*
X104543100Y-85605853D01*
X104682481Y-85698985D01*
X104801015Y-85817519D01*
X104894147Y-85956900D01*
X104958297Y-86111772D01*
X104991000Y-86276184D01*
X104991000Y-86443816D01*
X104958297Y-86608228D01*
X104894147Y-86763100D01*
X104801015Y-86902481D01*
X104682481Y-87021015D01*
X104543100Y-87114147D01*
X104388228Y-87178297D01*
X104223816Y-87211000D01*
X104056184Y-87211000D01*
X103891772Y-87178297D01*
X103736900Y-87114147D01*
X103597519Y-87021015D01*
X103478985Y-86902481D01*
X103385853Y-86763100D01*
X103321703Y-86608228D01*
X103289000Y-86443816D01*
X103289000Y-86276184D01*
X103321703Y-86111772D01*
X103385853Y-85956900D01*
X103478985Y-85817519D01*
X103597519Y-85698985D01*
X103736900Y-85605853D01*
X103891772Y-85541703D01*
X104056184Y-85509000D01*
X104223816Y-85509000D01*
X104388228Y-85541703D01*
G37*
G36*
X147568228Y-84271703D02*
G01*
X147723100Y-84335853D01*
X147862481Y-84428985D01*
X147981015Y-84547519D01*
X148074147Y-84686900D01*
X148138297Y-84841772D01*
X148171000Y-85006184D01*
X148171000Y-85173816D01*
X148138297Y-85338228D01*
X148074147Y-85493100D01*
X147981015Y-85632481D01*
X147862481Y-85751015D01*
X147723100Y-85844147D01*
X147568228Y-85908297D01*
X147403816Y-85941000D01*
X147236184Y-85941000D01*
X147071772Y-85908297D01*
X146916900Y-85844147D01*
X146777519Y-85751015D01*
X146658985Y-85632481D01*
X146565853Y-85493100D01*
X146501703Y-85338228D01*
X146469000Y-85173816D01*
X146469000Y-85006184D01*
X146501703Y-84841772D01*
X146565853Y-84686900D01*
X146658985Y-84547519D01*
X146777519Y-84428985D01*
X146916900Y-84335853D01*
X147071772Y-84271703D01*
X147236184Y-84239000D01*
X147403816Y-84239000D01*
X147568228Y-84271703D01*
G37*
G36*
X132328228Y-84271703D02*
G01*
X132483100Y-84335853D01*
X132622481Y-84428985D01*
X132741015Y-84547519D01*
X132834147Y-84686900D01*
X132898297Y-84841772D01*
X132931000Y-85006184D01*
X132931000Y-85173816D01*
X132898297Y-85338228D01*
X132834147Y-85493100D01*
X132741015Y-85632481D01*
X132622481Y-85751015D01*
X132483100Y-85844147D01*
X132328228Y-85908297D01*
X132163816Y-85941000D01*
X131996184Y-85941000D01*
X131831772Y-85908297D01*
X131676900Y-85844147D01*
X131537519Y-85751015D01*
X131418985Y-85632481D01*
X131325853Y-85493100D01*
X131261703Y-85338228D01*
X131229000Y-85173816D01*
X131229000Y-85006184D01*
X131261703Y-84841772D01*
X131325853Y-84686900D01*
X131418985Y-84547519D01*
X131537519Y-84428985D01*
X131676900Y-84335853D01*
X131831772Y-84271703D01*
X131996184Y-84239000D01*
X132163816Y-84239000D01*
X132328228Y-84271703D01*
G37*
G36*
X76555629Y-84322719D02*
G01*
X76631142Y-84330156D01*
X76776476Y-84374243D01*
X76776479Y-84374244D01*
X76910416Y-84445835D01*
X77027817Y-84542183D01*
X77124165Y-84659584D01*
X77195756Y-84793521D01*
X77195757Y-84793524D01*
X77239844Y-84938858D01*
X77254730Y-85090000D01*
X77239844Y-85241142D01*
X77195757Y-85386476D01*
X77195756Y-85386479D01*
X77124165Y-85520416D01*
X77027817Y-85637817D01*
X76910416Y-85734165D01*
X76776479Y-85805756D01*
X76776476Y-85805757D01*
X76631142Y-85849844D01*
X76555629Y-85857281D01*
X76517873Y-85861000D01*
X75882127Y-85861000D01*
X75844371Y-85857281D01*
X75768858Y-85849844D01*
X75623524Y-85805757D01*
X75623521Y-85805756D01*
X75489584Y-85734165D01*
X75372183Y-85637817D01*
X75275835Y-85520416D01*
X75204244Y-85386479D01*
X75204243Y-85386476D01*
X75160156Y-85241142D01*
X75145270Y-85090000D01*
X75160156Y-84938858D01*
X75204243Y-84793524D01*
X75204244Y-84793521D01*
X75275835Y-84659584D01*
X75372183Y-84542183D01*
X75489584Y-84445835D01*
X75623521Y-84374244D01*
X75623524Y-84374243D01*
X75768858Y-84330156D01*
X75844371Y-84322719D01*
X75882127Y-84319000D01*
X76517873Y-84319000D01*
X76555629Y-84322719D01*
G37*
G36*
X84175629Y-84322719D02*
G01*
X84251142Y-84330156D01*
X84396476Y-84374243D01*
X84396479Y-84374244D01*
X84530416Y-84445835D01*
X84647817Y-84542183D01*
X84744165Y-84659584D01*
X84815756Y-84793521D01*
X84815757Y-84793524D01*
X84859844Y-84938858D01*
X84874730Y-85090000D01*
X84859844Y-85241142D01*
X84815757Y-85386476D01*
X84815756Y-85386479D01*
X84744165Y-85520416D01*
X84647817Y-85637817D01*
X84530416Y-85734165D01*
X84396479Y-85805756D01*
X84396476Y-85805757D01*
X84251142Y-85849844D01*
X84175629Y-85857281D01*
X84137873Y-85861000D01*
X83502127Y-85861000D01*
X83464371Y-85857281D01*
X83388858Y-85849844D01*
X83243524Y-85805757D01*
X83243521Y-85805756D01*
X83109584Y-85734165D01*
X82992183Y-85637817D01*
X82895835Y-85520416D01*
X82824244Y-85386479D01*
X82824243Y-85386476D01*
X82780156Y-85241142D01*
X82765270Y-85090000D01*
X82780156Y-84938858D01*
X82824243Y-84793524D01*
X82824244Y-84793521D01*
X82895835Y-84659584D01*
X82992183Y-84542183D01*
X83109584Y-84445835D01*
X83243521Y-84374244D01*
X83243524Y-84374243D01*
X83388858Y-84330156D01*
X83464371Y-84322719D01*
X83502127Y-84319000D01*
X84137873Y-84319000D01*
X84175629Y-84322719D01*
G37*
G36*
X125978228Y-83001703D02*
G01*
X126133100Y-83065853D01*
X126272481Y-83158985D01*
X126391015Y-83277519D01*
X126484147Y-83416900D01*
X126548297Y-83571772D01*
X126581000Y-83736184D01*
X126581000Y-83903816D01*
X126548297Y-84068228D01*
X126484147Y-84223100D01*
X126391015Y-84362481D01*
X126272481Y-84481015D01*
X126133100Y-84574147D01*
X125978228Y-84638297D01*
X125813816Y-84671000D01*
X125646184Y-84671000D01*
X125481772Y-84638297D01*
X125326900Y-84574147D01*
X125187519Y-84481015D01*
X125068985Y-84362481D01*
X124975853Y-84223100D01*
X124911703Y-84068228D01*
X124879000Y-83903816D01*
X124879000Y-83736184D01*
X124911703Y-83571772D01*
X124975853Y-83416900D01*
X125068985Y-83277519D01*
X125187519Y-83158985D01*
X125326900Y-83065853D01*
X125481772Y-83001703D01*
X125646184Y-82969000D01*
X125813816Y-82969000D01*
X125978228Y-83001703D01*
G37*
G36*
X115818228Y-83001703D02*
G01*
X115973100Y-83065853D01*
X116112481Y-83158985D01*
X116231015Y-83277519D01*
X116324147Y-83416900D01*
X116388297Y-83571772D01*
X116421000Y-83736184D01*
X116421000Y-83903816D01*
X116388297Y-84068228D01*
X116324147Y-84223100D01*
X116231015Y-84362481D01*
X116112481Y-84481015D01*
X115973100Y-84574147D01*
X115818228Y-84638297D01*
X115653816Y-84671000D01*
X115486184Y-84671000D01*
X115321772Y-84638297D01*
X115166900Y-84574147D01*
X115027519Y-84481015D01*
X114908985Y-84362481D01*
X114815853Y-84223100D01*
X114751703Y-84068228D01*
X114719000Y-83903816D01*
X114719000Y-83736184D01*
X114751703Y-83571772D01*
X114815853Y-83416900D01*
X114908985Y-83277519D01*
X115027519Y-83158985D01*
X115166900Y-83065853D01*
X115321772Y-83001703D01*
X115486184Y-82969000D01*
X115653816Y-82969000D01*
X115818228Y-83001703D01*
G37*
G36*
X94228228Y-81731703D02*
G01*
X94383100Y-81795853D01*
X94522481Y-81888985D01*
X94641015Y-82007519D01*
X94734147Y-82146900D01*
X94798297Y-82301772D01*
X94831000Y-82466184D01*
X94831000Y-82633816D01*
X94798297Y-82798228D01*
X94734147Y-82953100D01*
X94641015Y-83092481D01*
X94522481Y-83211015D01*
X94383100Y-83304147D01*
X94228228Y-83368297D01*
X94063816Y-83401000D01*
X93896184Y-83401000D01*
X93731772Y-83368297D01*
X93576900Y-83304147D01*
X93437519Y-83211015D01*
X93318985Y-83092481D01*
X93225853Y-82953100D01*
X93161703Y-82798228D01*
X93129000Y-82633816D01*
X93129000Y-82466184D01*
X93161703Y-82301772D01*
X93225853Y-82146900D01*
X93318985Y-82007519D01*
X93437519Y-81888985D01*
X93576900Y-81795853D01*
X93731772Y-81731703D01*
X93896184Y-81699000D01*
X94063816Y-81699000D01*
X94228228Y-81731703D01*
G37*
G36*
X132328228Y-81731703D02*
G01*
X132483100Y-81795853D01*
X132622481Y-81888985D01*
X132741015Y-82007519D01*
X132834147Y-82146900D01*
X132898297Y-82301772D01*
X132931000Y-82466184D01*
X132931000Y-82633816D01*
X132898297Y-82798228D01*
X132834147Y-82953100D01*
X132741015Y-83092481D01*
X132622481Y-83211015D01*
X132483100Y-83304147D01*
X132328228Y-83368297D01*
X132163816Y-83401000D01*
X131996184Y-83401000D01*
X131831772Y-83368297D01*
X131676900Y-83304147D01*
X131537519Y-83211015D01*
X131418985Y-83092481D01*
X131325853Y-82953100D01*
X131261703Y-82798228D01*
X131229000Y-82633816D01*
X131229000Y-82466184D01*
X131261703Y-82301772D01*
X131325853Y-82146900D01*
X131418985Y-82007519D01*
X131537519Y-81888985D01*
X131676900Y-81795853D01*
X131831772Y-81731703D01*
X131996184Y-81699000D01*
X132163816Y-81699000D01*
X132328228Y-81731703D01*
G37*
G36*
X147568228Y-81731703D02*
G01*
X147723100Y-81795853D01*
X147862481Y-81888985D01*
X147981015Y-82007519D01*
X148074147Y-82146900D01*
X148138297Y-82301772D01*
X148171000Y-82466184D01*
X148171000Y-82633816D01*
X148138297Y-82798228D01*
X148074147Y-82953100D01*
X147981015Y-83092481D01*
X147862481Y-83211015D01*
X147723100Y-83304147D01*
X147568228Y-83368297D01*
X147403816Y-83401000D01*
X147236184Y-83401000D01*
X147071772Y-83368297D01*
X146916900Y-83304147D01*
X146777519Y-83211015D01*
X146658985Y-83092481D01*
X146565853Y-82953100D01*
X146501703Y-82798228D01*
X146469000Y-82633816D01*
X146469000Y-82466184D01*
X146501703Y-82301772D01*
X146565853Y-82146900D01*
X146658985Y-82007519D01*
X146777519Y-81888985D01*
X146916900Y-81795853D01*
X147071772Y-81731703D01*
X147236184Y-81699000D01*
X147403816Y-81699000D01*
X147568228Y-81731703D01*
G37*
G36*
X104388228Y-81731703D02*
G01*
X104543100Y-81795853D01*
X104682481Y-81888985D01*
X104801015Y-82007519D01*
X104894147Y-82146900D01*
X104958297Y-82301772D01*
X104991000Y-82466184D01*
X104991000Y-82633816D01*
X104958297Y-82798228D01*
X104894147Y-82953100D01*
X104801015Y-83092481D01*
X104682481Y-83211015D01*
X104543100Y-83304147D01*
X104388228Y-83368297D01*
X104223816Y-83401000D01*
X104056184Y-83401000D01*
X103891772Y-83368297D01*
X103736900Y-83304147D01*
X103597519Y-83211015D01*
X103478985Y-83092481D01*
X103385853Y-82953100D01*
X103321703Y-82798228D01*
X103289000Y-82633816D01*
X103289000Y-82466184D01*
X103321703Y-82301772D01*
X103385853Y-82146900D01*
X103478985Y-82007519D01*
X103597519Y-81888985D01*
X103736900Y-81795853D01*
X103891772Y-81731703D01*
X104056184Y-81699000D01*
X104223816Y-81699000D01*
X104388228Y-81731703D01*
G37*
G36*
X84175629Y-81782719D02*
G01*
X84251142Y-81790156D01*
X84396476Y-81834243D01*
X84396479Y-81834244D01*
X84530416Y-81905835D01*
X84647817Y-82002183D01*
X84744165Y-82119584D01*
X84815756Y-82253521D01*
X84815757Y-82253524D01*
X84859844Y-82398858D01*
X84874730Y-82550000D01*
X84859844Y-82701142D01*
X84815757Y-82846476D01*
X84815756Y-82846479D01*
X84744165Y-82980416D01*
X84647817Y-83097817D01*
X84530416Y-83194165D01*
X84396479Y-83265756D01*
X84396476Y-83265757D01*
X84251142Y-83309844D01*
X84175629Y-83317281D01*
X84137873Y-83321000D01*
X83502127Y-83321000D01*
X83464371Y-83317281D01*
X83388858Y-83309844D01*
X83243524Y-83265757D01*
X83243521Y-83265756D01*
X83109584Y-83194165D01*
X82992183Y-83097817D01*
X82895835Y-82980416D01*
X82824244Y-82846479D01*
X82824243Y-82846476D01*
X82780156Y-82701142D01*
X82765270Y-82550000D01*
X82780156Y-82398858D01*
X82824243Y-82253524D01*
X82824244Y-82253521D01*
X82895835Y-82119584D01*
X82992183Y-82002183D01*
X83109584Y-81905835D01*
X83243521Y-81834244D01*
X83243524Y-81834243D01*
X83388858Y-81790156D01*
X83464371Y-81782719D01*
X83502127Y-81779000D01*
X84137873Y-81779000D01*
X84175629Y-81782719D01*
G37*
G36*
X76555629Y-81782719D02*
G01*
X76631142Y-81790156D01*
X76776476Y-81834243D01*
X76776479Y-81834244D01*
X76910416Y-81905835D01*
X77027817Y-82002183D01*
X77124165Y-82119584D01*
X77195756Y-82253521D01*
X77195757Y-82253524D01*
X77239844Y-82398858D01*
X77254730Y-82550000D01*
X77239844Y-82701142D01*
X77195757Y-82846476D01*
X77195756Y-82846479D01*
X77124165Y-82980416D01*
X77027817Y-83097817D01*
X76910416Y-83194165D01*
X76776479Y-83265756D01*
X76776476Y-83265757D01*
X76631142Y-83309844D01*
X76555629Y-83317281D01*
X76517873Y-83321000D01*
X75882127Y-83321000D01*
X75844371Y-83317281D01*
X75768858Y-83309844D01*
X75623524Y-83265757D01*
X75623521Y-83265756D01*
X75489584Y-83194165D01*
X75372183Y-83097817D01*
X75275835Y-82980416D01*
X75204244Y-82846479D01*
X75204243Y-82846476D01*
X75160156Y-82701142D01*
X75145270Y-82550000D01*
X75160156Y-82398858D01*
X75204243Y-82253524D01*
X75204244Y-82253521D01*
X75275835Y-82119584D01*
X75372183Y-82002183D01*
X75489584Y-81905835D01*
X75623521Y-81834244D01*
X75623524Y-81834243D01*
X75768858Y-81790156D01*
X75844371Y-81782719D01*
X75882127Y-81779000D01*
X76517873Y-81779000D01*
X76555629Y-81782719D01*
G37*
G36*
X147568228Y-79191703D02*
G01*
X147723100Y-79255853D01*
X147862481Y-79348985D01*
X147981015Y-79467519D01*
X148074147Y-79606900D01*
X148138297Y-79761772D01*
X148171000Y-79926184D01*
X148171000Y-80093816D01*
X148138297Y-80258228D01*
X148074147Y-80413100D01*
X147981015Y-80552481D01*
X147862481Y-80671015D01*
X147723100Y-80764147D01*
X147568228Y-80828297D01*
X147403816Y-80861000D01*
X147236184Y-80861000D01*
X147071772Y-80828297D01*
X146916900Y-80764147D01*
X146777519Y-80671015D01*
X146658985Y-80552481D01*
X146565853Y-80413100D01*
X146501703Y-80258228D01*
X146469000Y-80093816D01*
X146469000Y-79926184D01*
X146501703Y-79761772D01*
X146565853Y-79606900D01*
X146658985Y-79467519D01*
X146777519Y-79348985D01*
X146916900Y-79255853D01*
X147071772Y-79191703D01*
X147236184Y-79159000D01*
X147403816Y-79159000D01*
X147568228Y-79191703D01*
G37*
G36*
X132328228Y-79191703D02*
G01*
X132483100Y-79255853D01*
X132622481Y-79348985D01*
X132741015Y-79467519D01*
X132834147Y-79606900D01*
X132898297Y-79761772D01*
X132931000Y-79926184D01*
X132931000Y-80093816D01*
X132898297Y-80258228D01*
X132834147Y-80413100D01*
X132741015Y-80552481D01*
X132622481Y-80671015D01*
X132483100Y-80764147D01*
X132328228Y-80828297D01*
X132163816Y-80861000D01*
X131996184Y-80861000D01*
X131831772Y-80828297D01*
X131676900Y-80764147D01*
X131537519Y-80671015D01*
X131418985Y-80552481D01*
X131325853Y-80413100D01*
X131261703Y-80258228D01*
X131229000Y-80093816D01*
X131229000Y-79926184D01*
X131261703Y-79761772D01*
X131325853Y-79606900D01*
X131418985Y-79467519D01*
X131537519Y-79348985D01*
X131676900Y-79255853D01*
X131831772Y-79191703D01*
X131996184Y-79159000D01*
X132163816Y-79159000D01*
X132328228Y-79191703D01*
G37*
G36*
X84175629Y-79242719D02*
G01*
X84251142Y-79250156D01*
X84396476Y-79294243D01*
X84396479Y-79294244D01*
X84530416Y-79365835D01*
X84647817Y-79462183D01*
X84744165Y-79579584D01*
X84815756Y-79713521D01*
X84815757Y-79713524D01*
X84859844Y-79858858D01*
X84874730Y-80010000D01*
X84859844Y-80161142D01*
X84815757Y-80306476D01*
X84815756Y-80306479D01*
X84744165Y-80440416D01*
X84647817Y-80557817D01*
X84530416Y-80654165D01*
X84396479Y-80725756D01*
X84396476Y-80725757D01*
X84251142Y-80769844D01*
X84175629Y-80777281D01*
X84137873Y-80781000D01*
X83502127Y-80781000D01*
X83464371Y-80777281D01*
X83388858Y-80769844D01*
X83243524Y-80725757D01*
X83243521Y-80725756D01*
X83109584Y-80654165D01*
X82992183Y-80557817D01*
X82895835Y-80440416D01*
X82824244Y-80306479D01*
X82824243Y-80306476D01*
X82780156Y-80161142D01*
X82765270Y-80010000D01*
X82780156Y-79858858D01*
X82824243Y-79713524D01*
X82824244Y-79713521D01*
X82895835Y-79579584D01*
X82992183Y-79462183D01*
X83109584Y-79365835D01*
X83243521Y-79294244D01*
X83243524Y-79294243D01*
X83388858Y-79250156D01*
X83464371Y-79242719D01*
X83502127Y-79239000D01*
X84137873Y-79239000D01*
X84175629Y-79242719D01*
G37*
G36*
X76555629Y-79242719D02*
G01*
X76631142Y-79250156D01*
X76776476Y-79294243D01*
X76776479Y-79294244D01*
X76910416Y-79365835D01*
X77027817Y-79462183D01*
X77124165Y-79579584D01*
X77195756Y-79713521D01*
X77195757Y-79713524D01*
X77239844Y-79858858D01*
X77254730Y-80010000D01*
X77239844Y-80161142D01*
X77195757Y-80306476D01*
X77195756Y-80306479D01*
X77124165Y-80440416D01*
X77027817Y-80557817D01*
X76910416Y-80654165D01*
X76776479Y-80725756D01*
X76776476Y-80725757D01*
X76631142Y-80769844D01*
X76555629Y-80777281D01*
X76517873Y-80781000D01*
X75882127Y-80781000D01*
X75844371Y-80777281D01*
X75768858Y-80769844D01*
X75623524Y-80725757D01*
X75623521Y-80725756D01*
X75489584Y-80654165D01*
X75372183Y-80557817D01*
X75275835Y-80440416D01*
X75204244Y-80306479D01*
X75204243Y-80306476D01*
X75160156Y-80161142D01*
X75145270Y-80010000D01*
X75160156Y-79858858D01*
X75204243Y-79713524D01*
X75204244Y-79713521D01*
X75275835Y-79579584D01*
X75372183Y-79462183D01*
X75489584Y-79365835D01*
X75623521Y-79294244D01*
X75623524Y-79294243D01*
X75768858Y-79250156D01*
X75844371Y-79242719D01*
X75882127Y-79239000D01*
X76517873Y-79239000D01*
X76555629Y-79242719D01*
G37*
G36*
X94228228Y-77921703D02*
G01*
X94383100Y-77985853D01*
X94522481Y-78078985D01*
X94641015Y-78197519D01*
X94734147Y-78336900D01*
X94798297Y-78491772D01*
X94831000Y-78656184D01*
X94831000Y-78823816D01*
X94798297Y-78988228D01*
X94734147Y-79143100D01*
X94641015Y-79282481D01*
X94522481Y-79401015D01*
X94383100Y-79494147D01*
X94228228Y-79558297D01*
X94063816Y-79591000D01*
X93896184Y-79591000D01*
X93731772Y-79558297D01*
X93576900Y-79494147D01*
X93437519Y-79401015D01*
X93318985Y-79282481D01*
X93225853Y-79143100D01*
X93161703Y-78988228D01*
X93129000Y-78823816D01*
X93129000Y-78656184D01*
X93161703Y-78491772D01*
X93225853Y-78336900D01*
X93318985Y-78197519D01*
X93437519Y-78078985D01*
X93576900Y-77985853D01*
X93731772Y-77921703D01*
X93896184Y-77889000D01*
X94063816Y-77889000D01*
X94228228Y-77921703D01*
G37*
G36*
X109468228Y-77921703D02*
G01*
X109623100Y-77985853D01*
X109762481Y-78078985D01*
X109881015Y-78197519D01*
X109974147Y-78336900D01*
X110038297Y-78491772D01*
X110071000Y-78656184D01*
X110071000Y-78823816D01*
X110038297Y-78988228D01*
X109974147Y-79143100D01*
X109881015Y-79282481D01*
X109762481Y-79401015D01*
X109623100Y-79494147D01*
X109468228Y-79558297D01*
X109303816Y-79591000D01*
X109136184Y-79591000D01*
X108971772Y-79558297D01*
X108816900Y-79494147D01*
X108677519Y-79401015D01*
X108558985Y-79282481D01*
X108465853Y-79143100D01*
X108401703Y-78988228D01*
X108369000Y-78823816D01*
X108369000Y-78656184D01*
X108401703Y-78491772D01*
X108465853Y-78336900D01*
X108558985Y-78197519D01*
X108677519Y-78078985D01*
X108816900Y-77985853D01*
X108971772Y-77921703D01*
X109136184Y-77889000D01*
X109303816Y-77889000D01*
X109468228Y-77921703D01*
G37*
G36*
X104388228Y-77921703D02*
G01*
X104543100Y-77985853D01*
X104682481Y-78078985D01*
X104801015Y-78197519D01*
X104894147Y-78336900D01*
X104958297Y-78491772D01*
X104991000Y-78656184D01*
X104991000Y-78823816D01*
X104958297Y-78988228D01*
X104894147Y-79143100D01*
X104801015Y-79282481D01*
X104682481Y-79401015D01*
X104543100Y-79494147D01*
X104388228Y-79558297D01*
X104223816Y-79591000D01*
X104056184Y-79591000D01*
X103891772Y-79558297D01*
X103736900Y-79494147D01*
X103597519Y-79401015D01*
X103478985Y-79282481D01*
X103385853Y-79143100D01*
X103321703Y-78988228D01*
X103289000Y-78823816D01*
X103289000Y-78656184D01*
X103321703Y-78491772D01*
X103385853Y-78336900D01*
X103478985Y-78197519D01*
X103597519Y-78078985D01*
X103736900Y-77985853D01*
X103891772Y-77921703D01*
X104056184Y-77889000D01*
X104223816Y-77889000D01*
X104388228Y-77921703D01*
G37*
G36*
X115818228Y-76651703D02*
G01*
X115973100Y-76715853D01*
X116112481Y-76808985D01*
X116231015Y-76927519D01*
X116324147Y-77066900D01*
X116388297Y-77221772D01*
X116421000Y-77386184D01*
X116421000Y-77553816D01*
X116388297Y-77718228D01*
X116324147Y-77873100D01*
X116231015Y-78012481D01*
X116112481Y-78131015D01*
X115973100Y-78224147D01*
X115818228Y-78288297D01*
X115653816Y-78321000D01*
X115486184Y-78321000D01*
X115321772Y-78288297D01*
X115166900Y-78224147D01*
X115027519Y-78131015D01*
X114908985Y-78012481D01*
X114815853Y-77873100D01*
X114751703Y-77718228D01*
X114719000Y-77553816D01*
X114719000Y-77386184D01*
X114751703Y-77221772D01*
X114815853Y-77066900D01*
X114908985Y-76927519D01*
X115027519Y-76808985D01*
X115166900Y-76715853D01*
X115321772Y-76651703D01*
X115486184Y-76619000D01*
X115653816Y-76619000D01*
X115818228Y-76651703D01*
G37*
G36*
X125978228Y-76651703D02*
G01*
X126133100Y-76715853D01*
X126272481Y-76808985D01*
X126391015Y-76927519D01*
X126484147Y-77066900D01*
X126548297Y-77221772D01*
X126581000Y-77386184D01*
X126581000Y-77553816D01*
X126548297Y-77718228D01*
X126484147Y-77873100D01*
X126391015Y-78012481D01*
X126272481Y-78131015D01*
X126133100Y-78224147D01*
X125978228Y-78288297D01*
X125813816Y-78321000D01*
X125646184Y-78321000D01*
X125481772Y-78288297D01*
X125326900Y-78224147D01*
X125187519Y-78131015D01*
X125068985Y-78012481D01*
X124975853Y-77873100D01*
X124911703Y-77718228D01*
X124879000Y-77553816D01*
X124879000Y-77386184D01*
X124911703Y-77221772D01*
X124975853Y-77066900D01*
X125068985Y-76927519D01*
X125187519Y-76808985D01*
X125326900Y-76715853D01*
X125481772Y-76651703D01*
X125646184Y-76619000D01*
X125813816Y-76619000D01*
X125978228Y-76651703D01*
G37*
G36*
X147568228Y-76651703D02*
G01*
X147723100Y-76715853D01*
X147862481Y-76808985D01*
X147981015Y-76927519D01*
X148074147Y-77066900D01*
X148138297Y-77221772D01*
X148171000Y-77386184D01*
X148171000Y-77553816D01*
X148138297Y-77718228D01*
X148074147Y-77873100D01*
X147981015Y-78012481D01*
X147862481Y-78131015D01*
X147723100Y-78224147D01*
X147568228Y-78288297D01*
X147403816Y-78321000D01*
X147236184Y-78321000D01*
X147071772Y-78288297D01*
X146916900Y-78224147D01*
X146777519Y-78131015D01*
X146658985Y-78012481D01*
X146565853Y-77873100D01*
X146501703Y-77718228D01*
X146469000Y-77553816D01*
X146469000Y-77386184D01*
X146501703Y-77221772D01*
X146565853Y-77066900D01*
X146658985Y-76927519D01*
X146777519Y-76808985D01*
X146916900Y-76715853D01*
X147071772Y-76651703D01*
X147236184Y-76619000D01*
X147403816Y-76619000D01*
X147568228Y-76651703D01*
G37*
G36*
X132328228Y-76651703D02*
G01*
X132483100Y-76715853D01*
X132622481Y-76808985D01*
X132741015Y-76927519D01*
X132834147Y-77066900D01*
X132898297Y-77221772D01*
X132931000Y-77386184D01*
X132931000Y-77553816D01*
X132898297Y-77718228D01*
X132834147Y-77873100D01*
X132741015Y-78012481D01*
X132622481Y-78131015D01*
X132483100Y-78224147D01*
X132328228Y-78288297D01*
X132163816Y-78321000D01*
X131996184Y-78321000D01*
X131831772Y-78288297D01*
X131676900Y-78224147D01*
X131537519Y-78131015D01*
X131418985Y-78012481D01*
X131325853Y-77873100D01*
X131261703Y-77718228D01*
X131229000Y-77553816D01*
X131229000Y-77386184D01*
X131261703Y-77221772D01*
X131325853Y-77066900D01*
X131418985Y-76927519D01*
X131537519Y-76808985D01*
X131676900Y-76715853D01*
X131831772Y-76651703D01*
X131996184Y-76619000D01*
X132163816Y-76619000D01*
X132328228Y-76651703D01*
G37*
G36*
X76555629Y-76702719D02*
G01*
X76631142Y-76710156D01*
X76776476Y-76754243D01*
X76776479Y-76754244D01*
X76910416Y-76825835D01*
X77027817Y-76922183D01*
X77124165Y-77039584D01*
X77195756Y-77173521D01*
X77195757Y-77173524D01*
X77239844Y-77318858D01*
X77254730Y-77470000D01*
X77239844Y-77621142D01*
X77195757Y-77766476D01*
X77195756Y-77766479D01*
X77124165Y-77900416D01*
X77027817Y-78017817D01*
X76910416Y-78114165D01*
X76776479Y-78185756D01*
X76776476Y-78185757D01*
X76631142Y-78229844D01*
X76555629Y-78237281D01*
X76517873Y-78241000D01*
X75882127Y-78241000D01*
X75844371Y-78237281D01*
X75768858Y-78229844D01*
X75623524Y-78185757D01*
X75623521Y-78185756D01*
X75489584Y-78114165D01*
X75372183Y-78017817D01*
X75275835Y-77900416D01*
X75204244Y-77766479D01*
X75204243Y-77766476D01*
X75160156Y-77621142D01*
X75145270Y-77470000D01*
X75160156Y-77318858D01*
X75204243Y-77173524D01*
X75204244Y-77173521D01*
X75275835Y-77039584D01*
X75372183Y-76922183D01*
X75489584Y-76825835D01*
X75623521Y-76754244D01*
X75623524Y-76754243D01*
X75768858Y-76710156D01*
X75844371Y-76702719D01*
X75882127Y-76699000D01*
X76517873Y-76699000D01*
X76555629Y-76702719D01*
G37*
G36*
X84175629Y-76702719D02*
G01*
X84251142Y-76710156D01*
X84396476Y-76754243D01*
X84396479Y-76754244D01*
X84530416Y-76825835D01*
X84647817Y-76922183D01*
X84744165Y-77039584D01*
X84815756Y-77173521D01*
X84815757Y-77173524D01*
X84859844Y-77318858D01*
X84874730Y-77470000D01*
X84859844Y-77621142D01*
X84815757Y-77766476D01*
X84815756Y-77766479D01*
X84744165Y-77900416D01*
X84647817Y-78017817D01*
X84530416Y-78114165D01*
X84396479Y-78185756D01*
X84396476Y-78185757D01*
X84251142Y-78229844D01*
X84175629Y-78237281D01*
X84137873Y-78241000D01*
X83502127Y-78241000D01*
X83464371Y-78237281D01*
X83388858Y-78229844D01*
X83243524Y-78185757D01*
X83243521Y-78185756D01*
X83109584Y-78114165D01*
X82992183Y-78017817D01*
X82895835Y-77900416D01*
X82824244Y-77766479D01*
X82824243Y-77766476D01*
X82780156Y-77621142D01*
X82765270Y-77470000D01*
X82780156Y-77318858D01*
X82824243Y-77173524D01*
X82824244Y-77173521D01*
X82895835Y-77039584D01*
X82992183Y-76922183D01*
X83109584Y-76825835D01*
X83243521Y-76754244D01*
X83243524Y-76754243D01*
X83388858Y-76710156D01*
X83464371Y-76702719D01*
X83502127Y-76699000D01*
X84137873Y-76699000D01*
X84175629Y-76702719D01*
G37*
G36*
X132328228Y-74111703D02*
G01*
X132483100Y-74175853D01*
X132622481Y-74268985D01*
X132741015Y-74387519D01*
X132834147Y-74526900D01*
X132898297Y-74681772D01*
X132931000Y-74846184D01*
X132931000Y-75013816D01*
X132898297Y-75178228D01*
X132834147Y-75333100D01*
X132741015Y-75472481D01*
X132622481Y-75591015D01*
X132483100Y-75684147D01*
X132328228Y-75748297D01*
X132163816Y-75781000D01*
X131996184Y-75781000D01*
X131831772Y-75748297D01*
X131676900Y-75684147D01*
X131537519Y-75591015D01*
X131418985Y-75472481D01*
X131325853Y-75333100D01*
X131261703Y-75178228D01*
X131229000Y-75013816D01*
X131229000Y-74846184D01*
X131261703Y-74681772D01*
X131325853Y-74526900D01*
X131418985Y-74387519D01*
X131537519Y-74268985D01*
X131676900Y-74175853D01*
X131831772Y-74111703D01*
X131996184Y-74079000D01*
X132163816Y-74079000D01*
X132328228Y-74111703D01*
G37*
G36*
X94228228Y-74111703D02*
G01*
X94383100Y-74175853D01*
X94522481Y-74268985D01*
X94641015Y-74387519D01*
X94734147Y-74526900D01*
X94798297Y-74681772D01*
X94831000Y-74846184D01*
X94831000Y-75013816D01*
X94798297Y-75178228D01*
X94734147Y-75333100D01*
X94641015Y-75472481D01*
X94522481Y-75591015D01*
X94383100Y-75684147D01*
X94228228Y-75748297D01*
X94063816Y-75781000D01*
X93896184Y-75781000D01*
X93731772Y-75748297D01*
X93576900Y-75684147D01*
X93437519Y-75591015D01*
X93318985Y-75472481D01*
X93225853Y-75333100D01*
X93161703Y-75178228D01*
X93129000Y-75013816D01*
X93129000Y-74846184D01*
X93161703Y-74681772D01*
X93225853Y-74526900D01*
X93318985Y-74387519D01*
X93437519Y-74268985D01*
X93576900Y-74175853D01*
X93731772Y-74111703D01*
X93896184Y-74079000D01*
X94063816Y-74079000D01*
X94228228Y-74111703D01*
G37*
G36*
X104388228Y-74111703D02*
G01*
X104543100Y-74175853D01*
X104682481Y-74268985D01*
X104801015Y-74387519D01*
X104894147Y-74526900D01*
X104958297Y-74681772D01*
X104991000Y-74846184D01*
X104991000Y-75013816D01*
X104958297Y-75178228D01*
X104894147Y-75333100D01*
X104801015Y-75472481D01*
X104682481Y-75591015D01*
X104543100Y-75684147D01*
X104388228Y-75748297D01*
X104223816Y-75781000D01*
X104056184Y-75781000D01*
X103891772Y-75748297D01*
X103736900Y-75684147D01*
X103597519Y-75591015D01*
X103478985Y-75472481D01*
X103385853Y-75333100D01*
X103321703Y-75178228D01*
X103289000Y-75013816D01*
X103289000Y-74846184D01*
X103321703Y-74681772D01*
X103385853Y-74526900D01*
X103478985Y-74387519D01*
X103597519Y-74268985D01*
X103736900Y-74175853D01*
X103891772Y-74111703D01*
X104056184Y-74079000D01*
X104223816Y-74079000D01*
X104388228Y-74111703D01*
G37*
G36*
X147568228Y-74111703D02*
G01*
X147723100Y-74175853D01*
X147862481Y-74268985D01*
X147981015Y-74387519D01*
X148074147Y-74526900D01*
X148138297Y-74681772D01*
X148171000Y-74846184D01*
X148171000Y-75013816D01*
X148138297Y-75178228D01*
X148074147Y-75333100D01*
X147981015Y-75472481D01*
X147862481Y-75591015D01*
X147723100Y-75684147D01*
X147568228Y-75748297D01*
X147403816Y-75781000D01*
X147236184Y-75781000D01*
X147071772Y-75748297D01*
X146916900Y-75684147D01*
X146777519Y-75591015D01*
X146658985Y-75472481D01*
X146565853Y-75333100D01*
X146501703Y-75178228D01*
X146469000Y-75013816D01*
X146469000Y-74846184D01*
X146501703Y-74681772D01*
X146565853Y-74526900D01*
X146658985Y-74387519D01*
X146777519Y-74268985D01*
X146916900Y-74175853D01*
X147071772Y-74111703D01*
X147236184Y-74079000D01*
X147403816Y-74079000D01*
X147568228Y-74111703D01*
G37*
G36*
X84175629Y-74162719D02*
G01*
X84251142Y-74170156D01*
X84396476Y-74214243D01*
X84396479Y-74214244D01*
X84530416Y-74285835D01*
X84647817Y-74382183D01*
X84744165Y-74499584D01*
X84815756Y-74633521D01*
X84815757Y-74633524D01*
X84859844Y-74778858D01*
X84874730Y-74930000D01*
X84859844Y-75081142D01*
X84815757Y-75226476D01*
X84815756Y-75226479D01*
X84744165Y-75360416D01*
X84647817Y-75477817D01*
X84530416Y-75574165D01*
X84396479Y-75645756D01*
X84396476Y-75645757D01*
X84251142Y-75689844D01*
X84175629Y-75697281D01*
X84137873Y-75701000D01*
X83502127Y-75701000D01*
X83464371Y-75697281D01*
X83388858Y-75689844D01*
X83243524Y-75645757D01*
X83243521Y-75645756D01*
X83109584Y-75574165D01*
X82992183Y-75477817D01*
X82895835Y-75360416D01*
X82824244Y-75226479D01*
X82824243Y-75226476D01*
X82780156Y-75081142D01*
X82765270Y-74930000D01*
X82780156Y-74778858D01*
X82824243Y-74633524D01*
X82824244Y-74633521D01*
X82895835Y-74499584D01*
X82992183Y-74382183D01*
X83109584Y-74285835D01*
X83243521Y-74214244D01*
X83243524Y-74214243D01*
X83388858Y-74170156D01*
X83464371Y-74162719D01*
X83502127Y-74159000D01*
X84137873Y-74159000D01*
X84175629Y-74162719D01*
G37*
G36*
X76555629Y-74162719D02*
G01*
X76631142Y-74170156D01*
X76776476Y-74214243D01*
X76776479Y-74214244D01*
X76910416Y-74285835D01*
X77027817Y-74382183D01*
X77124165Y-74499584D01*
X77195756Y-74633521D01*
X77195757Y-74633524D01*
X77239844Y-74778858D01*
X77254730Y-74930000D01*
X77239844Y-75081142D01*
X77195757Y-75226476D01*
X77195756Y-75226479D01*
X77124165Y-75360416D01*
X77027817Y-75477817D01*
X76910416Y-75574165D01*
X76776479Y-75645756D01*
X76776476Y-75645757D01*
X76631142Y-75689844D01*
X76555629Y-75697281D01*
X76517873Y-75701000D01*
X75882127Y-75701000D01*
X75844371Y-75697281D01*
X75768858Y-75689844D01*
X75623524Y-75645757D01*
X75623521Y-75645756D01*
X75489584Y-75574165D01*
X75372183Y-75477817D01*
X75275835Y-75360416D01*
X75204244Y-75226479D01*
X75204243Y-75226476D01*
X75160156Y-75081142D01*
X75145270Y-74930000D01*
X75160156Y-74778858D01*
X75204243Y-74633524D01*
X75204244Y-74633521D01*
X75275835Y-74499584D01*
X75372183Y-74382183D01*
X75489584Y-74285835D01*
X75623521Y-74214244D01*
X75623524Y-74214243D01*
X75768858Y-74170156D01*
X75844371Y-74162719D01*
X75882127Y-74159000D01*
X76517873Y-74159000D01*
X76555629Y-74162719D01*
G37*
G36*
X147568228Y-71571703D02*
G01*
X147723100Y-71635853D01*
X147862481Y-71728985D01*
X147981015Y-71847519D01*
X148074147Y-71986900D01*
X148138297Y-72141772D01*
X148171000Y-72306184D01*
X148171000Y-72473816D01*
X148138297Y-72638228D01*
X148074147Y-72793100D01*
X147981015Y-72932481D01*
X147862481Y-73051015D01*
X147723100Y-73144147D01*
X147568228Y-73208297D01*
X147403816Y-73241000D01*
X147236184Y-73241000D01*
X147071772Y-73208297D01*
X146916900Y-73144147D01*
X146777519Y-73051015D01*
X146658985Y-72932481D01*
X146565853Y-72793100D01*
X146501703Y-72638228D01*
X146469000Y-72473816D01*
X146469000Y-72306184D01*
X146501703Y-72141772D01*
X146565853Y-71986900D01*
X146658985Y-71847519D01*
X146777519Y-71728985D01*
X146916900Y-71635853D01*
X147071772Y-71571703D01*
X147236184Y-71539000D01*
X147403816Y-71539000D01*
X147568228Y-71571703D01*
G37*
G36*
X132328228Y-71571703D02*
G01*
X132483100Y-71635853D01*
X132622481Y-71728985D01*
X132741015Y-71847519D01*
X132834147Y-71986900D01*
X132898297Y-72141772D01*
X132931000Y-72306184D01*
X132931000Y-72473816D01*
X132898297Y-72638228D01*
X132834147Y-72793100D01*
X132741015Y-72932481D01*
X132622481Y-73051015D01*
X132483100Y-73144147D01*
X132328228Y-73208297D01*
X132163816Y-73241000D01*
X131996184Y-73241000D01*
X131831772Y-73208297D01*
X131676900Y-73144147D01*
X131537519Y-73051015D01*
X131418985Y-72932481D01*
X131325853Y-72793100D01*
X131261703Y-72638228D01*
X131229000Y-72473816D01*
X131229000Y-72306184D01*
X131261703Y-72141772D01*
X131325853Y-71986900D01*
X131418985Y-71847519D01*
X131537519Y-71728985D01*
X131676900Y-71635853D01*
X131831772Y-71571703D01*
X131996184Y-71539000D01*
X132163816Y-71539000D01*
X132328228Y-71571703D01*
G37*
G36*
X84175629Y-71622719D02*
G01*
X84251142Y-71630156D01*
X84396476Y-71674243D01*
X84396479Y-71674244D01*
X84530416Y-71745835D01*
X84647817Y-71842183D01*
X84744165Y-71959584D01*
X84815756Y-72093521D01*
X84815757Y-72093524D01*
X84859844Y-72238858D01*
X84874730Y-72390000D01*
X84859844Y-72541142D01*
X84815757Y-72686476D01*
X84815756Y-72686479D01*
X84744165Y-72820416D01*
X84647817Y-72937817D01*
X84530416Y-73034165D01*
X84396479Y-73105756D01*
X84396476Y-73105757D01*
X84251142Y-73149844D01*
X84175629Y-73157281D01*
X84137873Y-73161000D01*
X83502127Y-73161000D01*
X83464371Y-73157281D01*
X83388858Y-73149844D01*
X83243524Y-73105757D01*
X83243521Y-73105756D01*
X83109584Y-73034165D01*
X82992183Y-72937817D01*
X82895835Y-72820416D01*
X82824244Y-72686479D01*
X82824243Y-72686476D01*
X82780156Y-72541142D01*
X82765270Y-72390000D01*
X82780156Y-72238858D01*
X82824243Y-72093524D01*
X82824244Y-72093521D01*
X82895835Y-71959584D01*
X82992183Y-71842183D01*
X83109584Y-71745835D01*
X83243521Y-71674244D01*
X83243524Y-71674243D01*
X83388858Y-71630156D01*
X83464371Y-71622719D01*
X83502127Y-71619000D01*
X84137873Y-71619000D01*
X84175629Y-71622719D01*
G37*
G36*
X76555629Y-71622719D02*
G01*
X76631142Y-71630156D01*
X76776476Y-71674243D01*
X76776479Y-71674244D01*
X76910416Y-71745835D01*
X77027817Y-71842183D01*
X77124165Y-71959584D01*
X77195756Y-72093521D01*
X77195757Y-72093524D01*
X77239844Y-72238858D01*
X77254730Y-72390000D01*
X77239844Y-72541142D01*
X77195757Y-72686476D01*
X77195756Y-72686479D01*
X77124165Y-72820416D01*
X77027817Y-72937817D01*
X76910416Y-73034165D01*
X76776479Y-73105756D01*
X76776476Y-73105757D01*
X76631142Y-73149844D01*
X76555629Y-73157281D01*
X76517873Y-73161000D01*
X75882127Y-73161000D01*
X75844371Y-73157281D01*
X75768858Y-73149844D01*
X75623524Y-73105757D01*
X75623521Y-73105756D01*
X75489584Y-73034165D01*
X75372183Y-72937817D01*
X75275835Y-72820416D01*
X75204244Y-72686479D01*
X75204243Y-72686476D01*
X75160156Y-72541142D01*
X75145270Y-72390000D01*
X75160156Y-72238858D01*
X75204243Y-72093524D01*
X75204244Y-72093521D01*
X75275835Y-71959584D01*
X75372183Y-71842183D01*
X75489584Y-71745835D01*
X75623521Y-71674244D01*
X75623524Y-71674243D01*
X75768858Y-71630156D01*
X75844371Y-71622719D01*
X75882127Y-71619000D01*
X76517873Y-71619000D01*
X76555629Y-71622719D01*
G37*
G36*
X104388228Y-70301703D02*
G01*
X104543100Y-70365853D01*
X104682481Y-70458985D01*
X104801015Y-70577519D01*
X104894147Y-70716900D01*
X104958297Y-70871772D01*
X104991000Y-71036184D01*
X104991000Y-71203816D01*
X104958297Y-71368228D01*
X104894147Y-71523100D01*
X104801015Y-71662481D01*
X104682481Y-71781015D01*
X104543100Y-71874147D01*
X104388228Y-71938297D01*
X104223816Y-71971000D01*
X104056184Y-71971000D01*
X103891772Y-71938297D01*
X103736900Y-71874147D01*
X103597519Y-71781015D01*
X103478985Y-71662481D01*
X103385853Y-71523100D01*
X103321703Y-71368228D01*
X103289000Y-71203816D01*
X103289000Y-71036184D01*
X103321703Y-70871772D01*
X103385853Y-70716900D01*
X103478985Y-70577519D01*
X103597519Y-70458985D01*
X103736900Y-70365853D01*
X103891772Y-70301703D01*
X104056184Y-70269000D01*
X104223816Y-70269000D01*
X104388228Y-70301703D01*
G37*
G36*
X94228228Y-70301703D02*
G01*
X94383100Y-70365853D01*
X94522481Y-70458985D01*
X94641015Y-70577519D01*
X94734147Y-70716900D01*
X94798297Y-70871772D01*
X94831000Y-71036184D01*
X94831000Y-71203816D01*
X94798297Y-71368228D01*
X94734147Y-71523100D01*
X94641015Y-71662481D01*
X94522481Y-71781015D01*
X94383100Y-71874147D01*
X94228228Y-71938297D01*
X94063816Y-71971000D01*
X93896184Y-71971000D01*
X93731772Y-71938297D01*
X93576900Y-71874147D01*
X93437519Y-71781015D01*
X93318985Y-71662481D01*
X93225853Y-71523100D01*
X93161703Y-71368228D01*
X93129000Y-71203816D01*
X93129000Y-71036184D01*
X93161703Y-70871772D01*
X93225853Y-70716900D01*
X93318985Y-70577519D01*
X93437519Y-70458985D01*
X93576900Y-70365853D01*
X93731772Y-70301703D01*
X93896184Y-70269000D01*
X94063816Y-70269000D01*
X94228228Y-70301703D01*
G37*
G36*
X125978228Y-70301703D02*
G01*
X126133100Y-70365853D01*
X126272481Y-70458985D01*
X126391015Y-70577519D01*
X126484147Y-70716900D01*
X126548297Y-70871772D01*
X126581000Y-71036184D01*
X126581000Y-71203816D01*
X126548297Y-71368228D01*
X126484147Y-71523100D01*
X126391015Y-71662481D01*
X126272481Y-71781015D01*
X126133100Y-71874147D01*
X125978228Y-71938297D01*
X125813816Y-71971000D01*
X125646184Y-71971000D01*
X125481772Y-71938297D01*
X125326900Y-71874147D01*
X125187519Y-71781015D01*
X125068985Y-71662481D01*
X124975853Y-71523100D01*
X124911703Y-71368228D01*
X124879000Y-71203816D01*
X124879000Y-71036184D01*
X124911703Y-70871772D01*
X124975853Y-70716900D01*
X125068985Y-70577519D01*
X125187519Y-70458985D01*
X125326900Y-70365853D01*
X125481772Y-70301703D01*
X125646184Y-70269000D01*
X125813816Y-70269000D01*
X125978228Y-70301703D01*
G37*
G36*
X115818228Y-70301703D02*
G01*
X115973100Y-70365853D01*
X116112481Y-70458985D01*
X116231015Y-70577519D01*
X116324147Y-70716900D01*
X116388297Y-70871772D01*
X116421000Y-71036184D01*
X116421000Y-71203816D01*
X116388297Y-71368228D01*
X116324147Y-71523100D01*
X116231015Y-71662481D01*
X116112481Y-71781015D01*
X115973100Y-71874147D01*
X115818228Y-71938297D01*
X115653816Y-71971000D01*
X115486184Y-71971000D01*
X115321772Y-71938297D01*
X115166900Y-71874147D01*
X115027519Y-71781015D01*
X114908985Y-71662481D01*
X114815853Y-71523100D01*
X114751703Y-71368228D01*
X114719000Y-71203816D01*
X114719000Y-71036184D01*
X114751703Y-70871772D01*
X114815853Y-70716900D01*
X114908985Y-70577519D01*
X115027519Y-70458985D01*
X115166900Y-70365853D01*
X115321772Y-70301703D01*
X115486184Y-70269000D01*
X115653816Y-70269000D01*
X115818228Y-70301703D01*
G37*
G36*
X147568228Y-69031703D02*
G01*
X147723100Y-69095853D01*
X147862481Y-69188985D01*
X147981015Y-69307519D01*
X148074147Y-69446900D01*
X148138297Y-69601772D01*
X148171000Y-69766184D01*
X148171000Y-69933816D01*
X148138297Y-70098228D01*
X148074147Y-70253100D01*
X147981015Y-70392481D01*
X147862481Y-70511015D01*
X147723100Y-70604147D01*
X147568228Y-70668297D01*
X147403816Y-70701000D01*
X147236184Y-70701000D01*
X147071772Y-70668297D01*
X146916900Y-70604147D01*
X146777519Y-70511015D01*
X146658985Y-70392481D01*
X146565853Y-70253100D01*
X146501703Y-70098228D01*
X146469000Y-69933816D01*
X146469000Y-69766184D01*
X146501703Y-69601772D01*
X146565853Y-69446900D01*
X146658985Y-69307519D01*
X146777519Y-69188985D01*
X146916900Y-69095853D01*
X147071772Y-69031703D01*
X147236184Y-68999000D01*
X147403816Y-68999000D01*
X147568228Y-69031703D01*
G37*
G36*
X132328228Y-69031703D02*
G01*
X132483100Y-69095853D01*
X132622481Y-69188985D01*
X132741015Y-69307519D01*
X132834147Y-69446900D01*
X132898297Y-69601772D01*
X132931000Y-69766184D01*
X132931000Y-69933816D01*
X132898297Y-70098228D01*
X132834147Y-70253100D01*
X132741015Y-70392481D01*
X132622481Y-70511015D01*
X132483100Y-70604147D01*
X132328228Y-70668297D01*
X132163816Y-70701000D01*
X131996184Y-70701000D01*
X131831772Y-70668297D01*
X131676900Y-70604147D01*
X131537519Y-70511015D01*
X131418985Y-70392481D01*
X131325853Y-70253100D01*
X131261703Y-70098228D01*
X131229000Y-69933816D01*
X131229000Y-69766184D01*
X131261703Y-69601772D01*
X131325853Y-69446900D01*
X131418985Y-69307519D01*
X131537519Y-69188985D01*
X131676900Y-69095853D01*
X131831772Y-69031703D01*
X131996184Y-68999000D01*
X132163816Y-68999000D01*
X132328228Y-69031703D01*
G37*
G36*
X109468228Y-69031703D02*
G01*
X109623100Y-69095853D01*
X109762481Y-69188985D01*
X109881015Y-69307519D01*
X109974147Y-69446900D01*
X110038297Y-69601772D01*
X110071000Y-69766184D01*
X110071000Y-69933816D01*
X110038297Y-70098228D01*
X109974147Y-70253100D01*
X109881015Y-70392481D01*
X109762481Y-70511015D01*
X109623100Y-70604147D01*
X109468228Y-70668297D01*
X109303816Y-70701000D01*
X109136184Y-70701000D01*
X108971772Y-70668297D01*
X108816900Y-70604147D01*
X108677519Y-70511015D01*
X108558985Y-70392481D01*
X108465853Y-70253100D01*
X108401703Y-70098228D01*
X108369000Y-69933816D01*
X108369000Y-69766184D01*
X108401703Y-69601772D01*
X108465853Y-69446900D01*
X108558985Y-69307519D01*
X108677519Y-69188985D01*
X108816900Y-69095853D01*
X108971772Y-69031703D01*
X109136184Y-68999000D01*
X109303816Y-68999000D01*
X109468228Y-69031703D01*
G37*
G36*
X84175629Y-69082719D02*
G01*
X84251142Y-69090156D01*
X84396476Y-69134243D01*
X84396479Y-69134244D01*
X84530416Y-69205835D01*
X84647817Y-69302183D01*
X84744165Y-69419584D01*
X84815756Y-69553521D01*
X84815757Y-69553524D01*
X84859844Y-69698858D01*
X84874730Y-69850000D01*
X84859844Y-70001142D01*
X84815757Y-70146476D01*
X84815756Y-70146479D01*
X84744165Y-70280416D01*
X84647817Y-70397817D01*
X84530416Y-70494165D01*
X84396479Y-70565756D01*
X84396476Y-70565757D01*
X84251142Y-70609844D01*
X84175629Y-70617281D01*
X84137873Y-70621000D01*
X83502127Y-70621000D01*
X83464371Y-70617281D01*
X83388858Y-70609844D01*
X83243524Y-70565757D01*
X83243521Y-70565756D01*
X83109584Y-70494165D01*
X82992183Y-70397817D01*
X82895835Y-70280416D01*
X82824244Y-70146479D01*
X82824243Y-70146476D01*
X82780156Y-70001142D01*
X82765270Y-69850000D01*
X82780156Y-69698858D01*
X82824243Y-69553524D01*
X82824244Y-69553521D01*
X82895835Y-69419584D01*
X82992183Y-69302183D01*
X83109584Y-69205835D01*
X83243521Y-69134244D01*
X83243524Y-69134243D01*
X83388858Y-69090156D01*
X83464371Y-69082719D01*
X83502127Y-69079000D01*
X84137873Y-69079000D01*
X84175629Y-69082719D01*
G37*
G36*
X77251000Y-70621000D02*
G01*
X75149000Y-70621000D01*
X75149000Y-69079000D01*
X77251000Y-69079000D01*
X77251000Y-70621000D01*
G37*
G36*
X147568228Y-66491703D02*
G01*
X147723100Y-66555853D01*
X147862481Y-66648985D01*
X147981015Y-66767519D01*
X148074147Y-66906900D01*
X148138297Y-67061772D01*
X148171000Y-67226184D01*
X148171000Y-67393816D01*
X148138297Y-67558228D01*
X148074147Y-67713100D01*
X147981015Y-67852481D01*
X147862481Y-67971015D01*
X147723100Y-68064147D01*
X147568228Y-68128297D01*
X147403816Y-68161000D01*
X147236184Y-68161000D01*
X147071772Y-68128297D01*
X146916900Y-68064147D01*
X146777519Y-67971015D01*
X146658985Y-67852481D01*
X146565853Y-67713100D01*
X146501703Y-67558228D01*
X146469000Y-67393816D01*
X146469000Y-67226184D01*
X146501703Y-67061772D01*
X146565853Y-66906900D01*
X146658985Y-66767519D01*
X146777519Y-66648985D01*
X146916900Y-66555853D01*
X147071772Y-66491703D01*
X147236184Y-66459000D01*
X147403816Y-66459000D01*
X147568228Y-66491703D01*
G37*
G36*
X132328228Y-66491703D02*
G01*
X132483100Y-66555853D01*
X132622481Y-66648985D01*
X132741015Y-66767519D01*
X132834147Y-66906900D01*
X132898297Y-67061772D01*
X132931000Y-67226184D01*
X132931000Y-67393816D01*
X132898297Y-67558228D01*
X132834147Y-67713100D01*
X132741015Y-67852481D01*
X132622481Y-67971015D01*
X132483100Y-68064147D01*
X132328228Y-68128297D01*
X132163816Y-68161000D01*
X131996184Y-68161000D01*
X131831772Y-68128297D01*
X131676900Y-68064147D01*
X131537519Y-67971015D01*
X131418985Y-67852481D01*
X131325853Y-67713100D01*
X131261703Y-67558228D01*
X131229000Y-67393816D01*
X131229000Y-67226184D01*
X131261703Y-67061772D01*
X131325853Y-66906900D01*
X131418985Y-66767519D01*
X131537519Y-66648985D01*
X131676900Y-66555853D01*
X131831772Y-66491703D01*
X131996184Y-66459000D01*
X132163816Y-66459000D01*
X132328228Y-66491703D01*
G37*
G36*
X104388228Y-66491703D02*
G01*
X104543100Y-66555853D01*
X104682481Y-66648985D01*
X104801015Y-66767519D01*
X104894147Y-66906900D01*
X104958297Y-67061772D01*
X104991000Y-67226184D01*
X104991000Y-67393816D01*
X104958297Y-67558228D01*
X104894147Y-67713100D01*
X104801015Y-67852481D01*
X104682481Y-67971015D01*
X104543100Y-68064147D01*
X104388228Y-68128297D01*
X104223816Y-68161000D01*
X104056184Y-68161000D01*
X103891772Y-68128297D01*
X103736900Y-68064147D01*
X103597519Y-67971015D01*
X103478985Y-67852481D01*
X103385853Y-67713100D01*
X103321703Y-67558228D01*
X103289000Y-67393816D01*
X103289000Y-67226184D01*
X103321703Y-67061772D01*
X103385853Y-66906900D01*
X103478985Y-66767519D01*
X103597519Y-66648985D01*
X103736900Y-66555853D01*
X103891772Y-66491703D01*
X104056184Y-66459000D01*
X104223816Y-66459000D01*
X104388228Y-66491703D01*
G37*
G36*
X94228228Y-66491703D02*
G01*
X94383100Y-66555853D01*
X94522481Y-66648985D01*
X94641015Y-66767519D01*
X94734147Y-66906900D01*
X94798297Y-67061772D01*
X94831000Y-67226184D01*
X94831000Y-67393816D01*
X94798297Y-67558228D01*
X94734147Y-67713100D01*
X94641015Y-67852481D01*
X94522481Y-67971015D01*
X94383100Y-68064147D01*
X94228228Y-68128297D01*
X94063816Y-68161000D01*
X93896184Y-68161000D01*
X93731772Y-68128297D01*
X93576900Y-68064147D01*
X93437519Y-67971015D01*
X93318985Y-67852481D01*
X93225853Y-67713100D01*
X93161703Y-67558228D01*
X93129000Y-67393816D01*
X93129000Y-67226184D01*
X93161703Y-67061772D01*
X93225853Y-66906900D01*
X93318985Y-66767519D01*
X93437519Y-66648985D01*
X93576900Y-66555853D01*
X93731772Y-66491703D01*
X93896184Y-66459000D01*
X94063816Y-66459000D01*
X94228228Y-66491703D01*
G37*
G36*
X132328228Y-63951703D02*
G01*
X132483100Y-64015853D01*
X132622481Y-64108985D01*
X132741015Y-64227519D01*
X132834147Y-64366900D01*
X132898297Y-64521772D01*
X132931000Y-64686184D01*
X132931000Y-64853816D01*
X132898297Y-65018228D01*
X132834147Y-65173100D01*
X132741015Y-65312481D01*
X132622481Y-65431015D01*
X132483100Y-65524147D01*
X132328228Y-65588297D01*
X132163816Y-65621000D01*
X131996184Y-65621000D01*
X131831772Y-65588297D01*
X131676900Y-65524147D01*
X131537519Y-65431015D01*
X131418985Y-65312481D01*
X131325853Y-65173100D01*
X131261703Y-65018228D01*
X131229000Y-64853816D01*
X131229000Y-64686184D01*
X131261703Y-64521772D01*
X131325853Y-64366900D01*
X131418985Y-64227519D01*
X131537519Y-64108985D01*
X131676900Y-64015853D01*
X131831772Y-63951703D01*
X131996184Y-63919000D01*
X132163816Y-63919000D01*
X132328228Y-63951703D01*
G37*
G36*
X147568228Y-63951703D02*
G01*
X147723100Y-64015853D01*
X147862481Y-64108985D01*
X147981015Y-64227519D01*
X148074147Y-64366900D01*
X148138297Y-64521772D01*
X148171000Y-64686184D01*
X148171000Y-64853816D01*
X148138297Y-65018228D01*
X148074147Y-65173100D01*
X147981015Y-65312481D01*
X147862481Y-65431015D01*
X147723100Y-65524147D01*
X147568228Y-65588297D01*
X147403816Y-65621000D01*
X147236184Y-65621000D01*
X147071772Y-65588297D01*
X146916900Y-65524147D01*
X146777519Y-65431015D01*
X146658985Y-65312481D01*
X146565853Y-65173100D01*
X146501703Y-65018228D01*
X146469000Y-64853816D01*
X146469000Y-64686184D01*
X146501703Y-64521772D01*
X146565853Y-64366900D01*
X146658985Y-64227519D01*
X146777519Y-64108985D01*
X146916900Y-64015853D01*
X147071772Y-63951703D01*
X147236184Y-63919000D01*
X147403816Y-63919000D01*
X147568228Y-63951703D01*
G37*
G36*
X94228228Y-62681703D02*
G01*
X94383100Y-62745853D01*
X94522481Y-62838985D01*
X94641015Y-62957519D01*
X94734147Y-63096900D01*
X94798297Y-63251772D01*
X94831000Y-63416184D01*
X94831000Y-63583816D01*
X94798297Y-63748228D01*
X94734147Y-63903100D01*
X94641015Y-64042481D01*
X94522481Y-64161015D01*
X94383100Y-64254147D01*
X94228228Y-64318297D01*
X94063816Y-64351000D01*
X93896184Y-64351000D01*
X93731772Y-64318297D01*
X93576900Y-64254147D01*
X93437519Y-64161015D01*
X93318985Y-64042481D01*
X93225853Y-63903100D01*
X93161703Y-63748228D01*
X93129000Y-63583816D01*
X93129000Y-63416184D01*
X93161703Y-63251772D01*
X93225853Y-63096900D01*
X93318985Y-62957519D01*
X93437519Y-62838985D01*
X93576900Y-62745853D01*
X93731772Y-62681703D01*
X93896184Y-62649000D01*
X94063816Y-62649000D01*
X94228228Y-62681703D01*
G37*
G36*
X104388228Y-62681703D02*
G01*
X104543100Y-62745853D01*
X104682481Y-62838985D01*
X104801015Y-62957519D01*
X104894147Y-63096900D01*
X104958297Y-63251772D01*
X104991000Y-63416184D01*
X104991000Y-63583816D01*
X104958297Y-63748228D01*
X104894147Y-63903100D01*
X104801015Y-64042481D01*
X104682481Y-64161015D01*
X104543100Y-64254147D01*
X104388228Y-64318297D01*
X104223816Y-64351000D01*
X104056184Y-64351000D01*
X103891772Y-64318297D01*
X103736900Y-64254147D01*
X103597519Y-64161015D01*
X103478985Y-64042481D01*
X103385853Y-63903100D01*
X103321703Y-63748228D01*
X103289000Y-63583816D01*
X103289000Y-63416184D01*
X103321703Y-63251772D01*
X103385853Y-63096900D01*
X103478985Y-62957519D01*
X103597519Y-62838985D01*
X103736900Y-62745853D01*
X103891772Y-62681703D01*
X104056184Y-62649000D01*
X104223816Y-62649000D01*
X104388228Y-62681703D01*
G37*
G36*
X132328228Y-61411703D02*
G01*
X132483100Y-61475853D01*
X132622481Y-61568985D01*
X132741015Y-61687519D01*
X132834147Y-61826900D01*
X132898297Y-61981772D01*
X132931000Y-62146184D01*
X132931000Y-62313816D01*
X132898297Y-62478228D01*
X132834147Y-62633100D01*
X132741015Y-62772481D01*
X132622481Y-62891015D01*
X132483100Y-62984147D01*
X132328228Y-63048297D01*
X132163816Y-63081000D01*
X131996184Y-63081000D01*
X131831772Y-63048297D01*
X131676900Y-62984147D01*
X131537519Y-62891015D01*
X131418985Y-62772481D01*
X131325853Y-62633100D01*
X131261703Y-62478228D01*
X131229000Y-62313816D01*
X131229000Y-62146184D01*
X131261703Y-61981772D01*
X131325853Y-61826900D01*
X131418985Y-61687519D01*
X131537519Y-61568985D01*
X131676900Y-61475853D01*
X131831772Y-61411703D01*
X131996184Y-61379000D01*
X132163816Y-61379000D01*
X132328228Y-61411703D01*
G37*
G36*
X147568228Y-61411703D02*
G01*
X147723100Y-61475853D01*
X147862481Y-61568985D01*
X147981015Y-61687519D01*
X148074147Y-61826900D01*
X148138297Y-61981772D01*
X148171000Y-62146184D01*
X148171000Y-62313816D01*
X148138297Y-62478228D01*
X148074147Y-62633100D01*
X147981015Y-62772481D01*
X147862481Y-62891015D01*
X147723100Y-62984147D01*
X147568228Y-63048297D01*
X147403816Y-63081000D01*
X147236184Y-63081000D01*
X147071772Y-63048297D01*
X146916900Y-62984147D01*
X146777519Y-62891015D01*
X146658985Y-62772481D01*
X146565853Y-62633100D01*
X146501703Y-62478228D01*
X146469000Y-62313816D01*
X146469000Y-62146184D01*
X146501703Y-61981772D01*
X146565853Y-61826900D01*
X146658985Y-61687519D01*
X146777519Y-61568985D01*
X146916900Y-61475853D01*
X147071772Y-61411703D01*
X147236184Y-61379000D01*
X147403816Y-61379000D01*
X147568228Y-61411703D01*
G37*
G36*
X122451000Y-62761000D02*
G01*
X118849000Y-62761000D01*
X118849000Y-59159000D01*
X122451000Y-59159000D01*
X122451000Y-62761000D01*
G37*
G36*
X132328228Y-58871703D02*
G01*
X132483100Y-58935853D01*
X132622481Y-59028985D01*
X132741015Y-59147519D01*
X132834147Y-59286900D01*
X132898297Y-59441772D01*
X132931000Y-59606184D01*
X132931000Y-59773816D01*
X132898297Y-59938228D01*
X132834147Y-60093100D01*
X132741015Y-60232481D01*
X132622481Y-60351015D01*
X132483100Y-60444147D01*
X132328228Y-60508297D01*
X132163816Y-60541000D01*
X131996184Y-60541000D01*
X131831772Y-60508297D01*
X131676900Y-60444147D01*
X131537519Y-60351015D01*
X131418985Y-60232481D01*
X131325853Y-60093100D01*
X131261703Y-59938228D01*
X131229000Y-59773816D01*
X131229000Y-59606184D01*
X131261703Y-59441772D01*
X131325853Y-59286900D01*
X131418985Y-59147519D01*
X131537519Y-59028985D01*
X131676900Y-58935853D01*
X131831772Y-58871703D01*
X131996184Y-58839000D01*
X132163816Y-58839000D01*
X132328228Y-58871703D01*
G37*
G36*
X147568228Y-58871703D02*
G01*
X147723100Y-58935853D01*
X147862481Y-59028985D01*
X147981015Y-59147519D01*
X148074147Y-59286900D01*
X148138297Y-59441772D01*
X148171000Y-59606184D01*
X148171000Y-59773816D01*
X148138297Y-59938228D01*
X148074147Y-60093100D01*
X147981015Y-60232481D01*
X147862481Y-60351015D01*
X147723100Y-60444147D01*
X147568228Y-60508297D01*
X147403816Y-60541000D01*
X147236184Y-60541000D01*
X147071772Y-60508297D01*
X146916900Y-60444147D01*
X146777519Y-60351015D01*
X146658985Y-60232481D01*
X146565853Y-60093100D01*
X146501703Y-59938228D01*
X146469000Y-59773816D01*
X146469000Y-59606184D01*
X146501703Y-59441772D01*
X146565853Y-59286900D01*
X146658985Y-59147519D01*
X146777519Y-59028985D01*
X146916900Y-58935853D01*
X147071772Y-58871703D01*
X147236184Y-58839000D01*
X147403816Y-58839000D01*
X147568228Y-58871703D01*
G37*
G36*
X104388228Y-58871703D02*
G01*
X104543100Y-58935853D01*
X104682481Y-59028985D01*
X104801015Y-59147519D01*
X104894147Y-59286900D01*
X104958297Y-59441772D01*
X104991000Y-59606184D01*
X104991000Y-59773816D01*
X104958297Y-59938228D01*
X104894147Y-60093100D01*
X104801015Y-60232481D01*
X104682481Y-60351015D01*
X104543100Y-60444147D01*
X104388228Y-60508297D01*
X104223816Y-60541000D01*
X104056184Y-60541000D01*
X103891772Y-60508297D01*
X103736900Y-60444147D01*
X103597519Y-60351015D01*
X103478985Y-60232481D01*
X103385853Y-60093100D01*
X103321703Y-59938228D01*
X103289000Y-59773816D01*
X103289000Y-59606184D01*
X103321703Y-59441772D01*
X103385853Y-59286900D01*
X103478985Y-59147519D01*
X103597519Y-59028985D01*
X103736900Y-58935853D01*
X103891772Y-58871703D01*
X104056184Y-58839000D01*
X104223816Y-58839000D01*
X104388228Y-58871703D01*
G37*
G36*
X94228228Y-58871703D02*
G01*
X94383100Y-58935853D01*
X94522481Y-59028985D01*
X94641015Y-59147519D01*
X94734147Y-59286900D01*
X94798297Y-59441772D01*
X94831000Y-59606184D01*
X94831000Y-59773816D01*
X94798297Y-59938228D01*
X94734147Y-60093100D01*
X94641015Y-60232481D01*
X94522481Y-60351015D01*
X94383100Y-60444147D01*
X94228228Y-60508297D01*
X94063816Y-60541000D01*
X93896184Y-60541000D01*
X93731772Y-60508297D01*
X93576900Y-60444147D01*
X93437519Y-60351015D01*
X93318985Y-60232481D01*
X93225853Y-60093100D01*
X93161703Y-59938228D01*
X93129000Y-59773816D01*
X93129000Y-59606184D01*
X93161703Y-59441772D01*
X93225853Y-59286900D01*
X93318985Y-59147519D01*
X93437519Y-59028985D01*
X93576900Y-58935853D01*
X93731772Y-58871703D01*
X93896184Y-58839000D01*
X94063816Y-58839000D01*
X94228228Y-58871703D01*
G37*
G36*
X109468228Y-58871703D02*
G01*
X109623100Y-58935853D01*
X109762481Y-59028985D01*
X109881015Y-59147519D01*
X109974147Y-59286900D01*
X110038297Y-59441772D01*
X110071000Y-59606184D01*
X110071000Y-59773816D01*
X110038297Y-59938228D01*
X109974147Y-60093100D01*
X109881015Y-60232481D01*
X109762481Y-60351015D01*
X109623100Y-60444147D01*
X109468228Y-60508297D01*
X109303816Y-60541000D01*
X109136184Y-60541000D01*
X108971772Y-60508297D01*
X108816900Y-60444147D01*
X108677519Y-60351015D01*
X108558985Y-60232481D01*
X108465853Y-60093100D01*
X108401703Y-59938228D01*
X108369000Y-59773816D01*
X108369000Y-59606184D01*
X108401703Y-59441772D01*
X108465853Y-59286900D01*
X108558985Y-59147519D01*
X108677519Y-59028985D01*
X108816900Y-58935853D01*
X108971772Y-58871703D01*
X109136184Y-58839000D01*
X109303816Y-58839000D01*
X109468228Y-58871703D01*
G37*
G36*
X117076366Y-56175695D02*
G01*
X117233460Y-56223349D01*
X117378231Y-56300731D01*
X117505128Y-56404872D01*
X117609269Y-56531769D01*
X117686651Y-56676540D01*
X117734305Y-56833634D01*
X117751000Y-57003140D01*
X117751000Y-58916860D01*
X117734305Y-59086366D01*
X117686651Y-59243460D01*
X117609269Y-59388231D01*
X117505128Y-59515128D01*
X117378231Y-59619269D01*
X117233460Y-59696651D01*
X117076366Y-59744305D01*
X116906860Y-59761000D01*
X114993140Y-59761000D01*
X114823634Y-59744305D01*
X114666540Y-59696651D01*
X114521769Y-59619269D01*
X114394872Y-59515128D01*
X114290731Y-59388231D01*
X114213349Y-59243460D01*
X114165695Y-59086366D01*
X114149000Y-58916860D01*
X114149000Y-57003140D01*
X114165695Y-56833634D01*
X114213349Y-56676540D01*
X114290731Y-56531769D01*
X114394872Y-56404872D01*
X114521769Y-56300731D01*
X114666540Y-56223349D01*
X114823634Y-56175695D01*
X114993140Y-56159000D01*
X116906860Y-56159000D01*
X117076366Y-56175695D01*
G37*
G36*
X132328228Y-56331703D02*
G01*
X132483100Y-56395853D01*
X132622481Y-56488985D01*
X132741015Y-56607519D01*
X132834147Y-56746900D01*
X132898297Y-56901772D01*
X132931000Y-57066184D01*
X132931000Y-57233816D01*
X132898297Y-57398228D01*
X132834147Y-57553100D01*
X132741015Y-57692481D01*
X132622481Y-57811015D01*
X132483100Y-57904147D01*
X132328228Y-57968297D01*
X132163816Y-58001000D01*
X131996184Y-58001000D01*
X131831772Y-57968297D01*
X131676900Y-57904147D01*
X131537519Y-57811015D01*
X131418985Y-57692481D01*
X131325853Y-57553100D01*
X131261703Y-57398228D01*
X131229000Y-57233816D01*
X131229000Y-57066184D01*
X131261703Y-56901772D01*
X131325853Y-56746900D01*
X131418985Y-56607519D01*
X131537519Y-56488985D01*
X131676900Y-56395853D01*
X131831772Y-56331703D01*
X131996184Y-56299000D01*
X132163816Y-56299000D01*
X132328228Y-56331703D01*
G37*
G36*
X147568228Y-56331703D02*
G01*
X147723100Y-56395853D01*
X147862481Y-56488985D01*
X147981015Y-56607519D01*
X148074147Y-56746900D01*
X148138297Y-56901772D01*
X148171000Y-57066184D01*
X148171000Y-57233816D01*
X148138297Y-57398228D01*
X148074147Y-57553100D01*
X147981015Y-57692481D01*
X147862481Y-57811015D01*
X147723100Y-57904147D01*
X147568228Y-57968297D01*
X147403816Y-58001000D01*
X147236184Y-58001000D01*
X147071772Y-57968297D01*
X146916900Y-57904147D01*
X146777519Y-57811015D01*
X146658985Y-57692481D01*
X146565853Y-57553100D01*
X146501703Y-57398228D01*
X146469000Y-57233816D01*
X146469000Y-57066184D01*
X146501703Y-56901772D01*
X146565853Y-56746900D01*
X146658985Y-56607519D01*
X146777519Y-56488985D01*
X146916900Y-56395853D01*
X147071772Y-56331703D01*
X147236184Y-56299000D01*
X147403816Y-56299000D01*
X147568228Y-56331703D01*
G37*
G36*
X94228228Y-55061703D02*
G01*
X94383100Y-55125853D01*
X94522481Y-55218985D01*
X94641015Y-55337519D01*
X94734147Y-55476900D01*
X94798297Y-55631772D01*
X94831000Y-55796184D01*
X94831000Y-55963816D01*
X94798297Y-56128228D01*
X94734147Y-56283100D01*
X94641015Y-56422481D01*
X94522481Y-56541015D01*
X94383100Y-56634147D01*
X94228228Y-56698297D01*
X94063816Y-56731000D01*
X93896184Y-56731000D01*
X93731772Y-56698297D01*
X93576900Y-56634147D01*
X93437519Y-56541015D01*
X93318985Y-56422481D01*
X93225853Y-56283100D01*
X93161703Y-56128228D01*
X93129000Y-55963816D01*
X93129000Y-55796184D01*
X93161703Y-55631772D01*
X93225853Y-55476900D01*
X93318985Y-55337519D01*
X93437519Y-55218985D01*
X93576900Y-55125853D01*
X93731772Y-55061703D01*
X93896184Y-55029000D01*
X94063816Y-55029000D01*
X94228228Y-55061703D01*
G37*
G36*
X104388228Y-55061703D02*
G01*
X104543100Y-55125853D01*
X104682481Y-55218985D01*
X104801015Y-55337519D01*
X104894147Y-55476900D01*
X104958297Y-55631772D01*
X104991000Y-55796184D01*
X104991000Y-55963816D01*
X104958297Y-56128228D01*
X104894147Y-56283100D01*
X104801015Y-56422481D01*
X104682481Y-56541015D01*
X104543100Y-56634147D01*
X104388228Y-56698297D01*
X104223816Y-56731000D01*
X104056184Y-56731000D01*
X103891772Y-56698297D01*
X103736900Y-56634147D01*
X103597519Y-56541015D01*
X103478985Y-56422481D01*
X103385853Y-56283100D01*
X103321703Y-56128228D01*
X103289000Y-55963816D01*
X103289000Y-55796184D01*
X103321703Y-55631772D01*
X103385853Y-55476900D01*
X103478985Y-55337519D01*
X103597519Y-55218985D01*
X103736900Y-55125853D01*
X103891772Y-55061703D01*
X104056184Y-55029000D01*
X104223816Y-55029000D01*
X104388228Y-55061703D01*
G37*
G36*
X121876979Y-53423293D02*
G01*
X122010625Y-53463834D01*
X122133784Y-53529664D01*
X122241740Y-53618260D01*
X122330336Y-53726216D01*
X122396166Y-53849375D01*
X122436707Y-53983021D01*
X122451000Y-54128140D01*
X122451000Y-55791860D01*
X122436707Y-55936979D01*
X122396166Y-56070625D01*
X122330336Y-56193784D01*
X122241740Y-56301740D01*
X122133784Y-56390336D01*
X122010625Y-56456166D01*
X121876979Y-56496707D01*
X121731860Y-56511000D01*
X119568140Y-56511000D01*
X119423021Y-56496707D01*
X119289375Y-56456166D01*
X119166216Y-56390336D01*
X119058260Y-56301740D01*
X118969664Y-56193784D01*
X118903834Y-56070625D01*
X118863293Y-55936979D01*
X118849000Y-55791860D01*
X118849000Y-54128140D01*
X118863293Y-53983021D01*
X118903834Y-53849375D01*
X118969664Y-53726216D01*
X119058260Y-53618260D01*
X119166216Y-53529664D01*
X119289375Y-53463834D01*
X119423021Y-53423293D01*
X119568140Y-53409000D01*
X121731860Y-53409000D01*
X121876979Y-53423293D01*
G37*
G36*
X147568228Y-53791703D02*
G01*
X147723100Y-53855853D01*
X147862481Y-53948985D01*
X147981015Y-54067519D01*
X148074147Y-54206900D01*
X148138297Y-54361772D01*
X148171000Y-54526184D01*
X148171000Y-54693816D01*
X148138297Y-54858228D01*
X148074147Y-55013100D01*
X147981015Y-55152481D01*
X147862481Y-55271015D01*
X147723100Y-55364147D01*
X147568228Y-55428297D01*
X147403816Y-55461000D01*
X147236184Y-55461000D01*
X147071772Y-55428297D01*
X146916900Y-55364147D01*
X146777519Y-55271015D01*
X146658985Y-55152481D01*
X146565853Y-55013100D01*
X146501703Y-54858228D01*
X146469000Y-54693816D01*
X146469000Y-54526184D01*
X146501703Y-54361772D01*
X146565853Y-54206900D01*
X146658985Y-54067519D01*
X146777519Y-53948985D01*
X146916900Y-53855853D01*
X147071772Y-53791703D01*
X147236184Y-53759000D01*
X147403816Y-53759000D01*
X147568228Y-53791703D01*
G37*
G36*
X132328228Y-53791703D02*
G01*
X132483100Y-53855853D01*
X132622481Y-53948985D01*
X132741015Y-54067519D01*
X132834147Y-54206900D01*
X132898297Y-54361772D01*
X132931000Y-54526184D01*
X132931000Y-54693816D01*
X132898297Y-54858228D01*
X132834147Y-55013100D01*
X132741015Y-55152481D01*
X132622481Y-55271015D01*
X132483100Y-55364147D01*
X132328228Y-55428297D01*
X132163816Y-55461000D01*
X131996184Y-55461000D01*
X131831772Y-55428297D01*
X131676900Y-55364147D01*
X131537519Y-55271015D01*
X131418985Y-55152481D01*
X131325853Y-55013100D01*
X131261703Y-54858228D01*
X131229000Y-54693816D01*
X131229000Y-54526184D01*
X131261703Y-54361772D01*
X131325853Y-54206900D01*
X131418985Y-54067519D01*
X131537519Y-53948985D01*
X131676900Y-53855853D01*
X131831772Y-53791703D01*
X131996184Y-53759000D01*
X132163816Y-53759000D01*
X132328228Y-53791703D01*
G37*
G36*
X104388228Y-51251703D02*
G01*
X104543100Y-51315853D01*
X104682481Y-51408985D01*
X104801015Y-51527519D01*
X104894147Y-51666900D01*
X104958297Y-51821772D01*
X104991000Y-51986184D01*
X104991000Y-52153816D01*
X104958297Y-52318228D01*
X104894147Y-52473100D01*
X104801015Y-52612481D01*
X104682481Y-52731015D01*
X104543100Y-52824147D01*
X104388228Y-52888297D01*
X104223816Y-52921000D01*
X104056184Y-52921000D01*
X103891772Y-52888297D01*
X103736900Y-52824147D01*
X103597519Y-52731015D01*
X103478985Y-52612481D01*
X103385853Y-52473100D01*
X103321703Y-52318228D01*
X103289000Y-52153816D01*
X103289000Y-51986184D01*
X103321703Y-51821772D01*
X103385853Y-51666900D01*
X103478985Y-51527519D01*
X103597519Y-51408985D01*
X103736900Y-51315853D01*
X103891772Y-51251703D01*
X104056184Y-51219000D01*
X104223816Y-51219000D01*
X104388228Y-51251703D01*
G37*
G36*
X94228228Y-51251703D02*
G01*
X94383100Y-51315853D01*
X94522481Y-51408985D01*
X94641015Y-51527519D01*
X94734147Y-51666900D01*
X94798297Y-51821772D01*
X94831000Y-51986184D01*
X94831000Y-52153816D01*
X94798297Y-52318228D01*
X94734147Y-52473100D01*
X94641015Y-52612481D01*
X94522481Y-52731015D01*
X94383100Y-52824147D01*
X94228228Y-52888297D01*
X94063816Y-52921000D01*
X93896184Y-52921000D01*
X93731772Y-52888297D01*
X93576900Y-52824147D01*
X93437519Y-52731015D01*
X93318985Y-52612481D01*
X93225853Y-52473100D01*
X93161703Y-52318228D01*
X93129000Y-52153816D01*
X93129000Y-51986184D01*
X93161703Y-51821772D01*
X93225853Y-51666900D01*
X93318985Y-51527519D01*
X93437519Y-51408985D01*
X93576900Y-51315853D01*
X93731772Y-51251703D01*
X93896184Y-51219000D01*
X94063816Y-51219000D01*
X94228228Y-51251703D01*
G37*
G36*
X154045256Y-47921298D02*
G01*
X154151579Y-47942447D01*
X154452042Y-48066903D01*
X154722451Y-48247585D01*
X154952415Y-48477549D01*
X155133097Y-48747958D01*
X155257553Y-49048421D01*
X155321000Y-49367391D01*
X155321000Y-49692609D01*
X155257553Y-50011579D01*
X155133097Y-50312042D01*
X154952415Y-50582451D01*
X154722451Y-50812415D01*
X154452042Y-50993097D01*
X154151579Y-51117553D01*
X154045256Y-51138702D01*
X153832611Y-51181000D01*
X153507389Y-51181000D01*
X153294744Y-51138702D01*
X153188421Y-51117553D01*
X152887958Y-50993097D01*
X152617549Y-50812415D01*
X152387585Y-50582451D01*
X152206903Y-50312042D01*
X152082447Y-50011579D01*
X152019000Y-49692609D01*
X152019000Y-49367391D01*
X152082447Y-49048421D01*
X152206903Y-48747958D01*
X152387585Y-48477549D01*
X152617549Y-48247585D01*
X152887958Y-48066903D01*
X153188421Y-47942447D01*
X153294744Y-47921298D01*
X153507389Y-47879000D01*
X153832611Y-47879000D01*
X154045256Y-47921298D01*
G37*
G36*
X66415256Y-47921298D02*
G01*
X66521579Y-47942447D01*
X66822042Y-48066903D01*
X67092451Y-48247585D01*
X67322415Y-48477549D01*
X67503097Y-48747958D01*
X67627553Y-49048421D01*
X67691000Y-49367391D01*
X67691000Y-49692609D01*
X67627553Y-50011579D01*
X67503097Y-50312042D01*
X67322415Y-50582451D01*
X67092451Y-50812415D01*
X66822042Y-50993097D01*
X66521579Y-51117553D01*
X66415256Y-51138702D01*
X66202611Y-51181000D01*
X65877389Y-51181000D01*
X65664744Y-51138702D01*
X65558421Y-51117553D01*
X65257958Y-50993097D01*
X64987549Y-50812415D01*
X64757585Y-50582451D01*
X64576903Y-50312042D01*
X64452447Y-50011579D01*
X64389000Y-49692609D01*
X64389000Y-49367391D01*
X64452447Y-49048421D01*
X64576903Y-48747958D01*
X64757585Y-48477549D01*
X64987549Y-48247585D01*
X65257958Y-48066903D01*
X65558421Y-47942447D01*
X65664744Y-47921298D01*
X65877389Y-47879000D01*
X66202611Y-47879000D01*
X66415256Y-47921298D01*
G37*
M02*
