M48
; DRILL file {KiCad (5.1.6)-1} date 09/03/20 19:38:15
; FORMAT={-:-/ absolute / inch / decimal}
; #@! TF.CreationDate,2020-09-03T19:38:15+03:00
; #@! TF.GenerationSoftware,Kicad,Pcbnew,(5.1.6)-1
FMAT,2
INCH
T1C0.0157
T2C0.0315
T3C0.0354
T4C0.0394
T5C0.0433
T6C0.0512
T7C0.1260
%
G90
G05
T1
X4.1903Y-2.6946
X5.5145Y-3.4224
T2
X4.55Y-3.8
X4.95Y-3.8
X4.55Y-3.55
X4.95Y-3.55
X3.7Y-3.7
X4.1Y-3.7
X3.7Y-2.5
X4.1Y-2.5
X4.3Y-3.1
X4.3Y-3.5
X5.45Y-4.05
X5.45Y-4.45
X4.55Y-3.05
X4.95Y-3.05
X3.7Y-2.65
X4.1Y-2.65
X3.7Y-3.1
X4.1Y-3.1
X4.45Y-4.7531
X4.45Y-4.95
X4.3Y-2.35
X4.3Y-2.75
X3.7Y-3.55
X4.1Y-3.55
X3.7Y-2.2
X4.1Y-2.2
X3.7Y-3.4
X4.1Y-3.4
X5.9Y-5.0
X5.9Y-5.1496
X4.9Y-4.7
X4.9Y-5.0
X5.0Y-4.7
X5.0Y-5.0
X5.1Y-4.7
X5.1Y-5.0
X5.2Y-4.7
X5.2Y-5.0
X3.7Y-2.35
X4.1Y-2.35
X3.7Y-2.8
X4.1Y-2.8
X4.45Y-4.1531
X4.45Y-4.35
X4.9Y-4.1
X4.9Y-4.4
X5.0Y-4.1
X5.0Y-4.4
X5.1Y-4.1
X5.1Y-4.4
X5.2Y-4.1
X5.2Y-4.4
X5.45Y-4.65
X5.45Y-5.05
X4.55Y-3.3
X4.95Y-3.3
X5.2Y-2.15
X5.2Y-2.25
X5.2Y-2.35
X5.2Y-2.45
X5.2Y-2.55
X5.2Y-2.65
X5.2Y-2.75
X5.2Y-2.85
X5.2Y-2.95
X5.2Y-3.05
X5.2Y-3.15
X5.2Y-3.25
X5.2Y-3.35
X5.2Y-3.45
X5.2Y-3.55
X5.8Y-2.15
X5.8Y-2.25
X5.8Y-2.35
X5.8Y-2.45
X5.8Y-2.55
X5.8Y-2.65
X5.8Y-2.75
X5.8Y-2.85
X5.8Y-2.95
X5.8Y-3.05
X5.8Y-3.15
X5.8Y-3.25
X5.8Y-3.35
X5.8Y-3.45
X5.8Y-3.55
X5.9Y-4.1
X5.9Y-4.2496
X3.7Y-2.95
X4.1Y-2.95
X4.55Y-2.8
X4.95Y-2.8
X5.9Y-4.55
X5.9Y-4.6996
X3.7Y-3.25
X4.1Y-3.25
X3.7Y-2.05
X4.1Y-2.05
T3
X3.5Y-4.1
X3.6Y-4.1
X2.7Y-4.1
X2.8Y-4.1
T4
X4.2Y-4.15
X4.2Y-4.3075
X3.0Y-2.75
X3.0Y-2.85
X3.0Y-2.95
X3.0Y-3.05
X3.0Y-3.15
X3.0Y-3.25
X3.0Y-3.35
X3.0Y-3.45
X3.3Y-2.75
X3.3Y-2.85
X3.3Y-2.95
X3.3Y-3.05
X3.3Y-3.15
X3.3Y-3.25
X3.3Y-3.35
X3.3Y-3.45
X4.2Y-4.75
X4.2Y-4.9075
T5
X4.65Y-4.65
X4.65Y-5.05
X4.65Y-4.05
X4.65Y-4.45
T6
X2.9Y-5.0
X2.9Y-5.1969
X3.3921Y-5.0
X3.3921Y-5.1969
T7
X2.6Y-1.95
X2.6Y-5.45
X6.05Y-5.45
X6.05Y-1.95
T4
G00X4.565Y-2.2425
M15
G01X4.565Y-2.3213
M16
G05
G00X4.7894Y-2.1638
M15
G01X4.7106Y-2.1638
M16
G05
G00X4.7894Y-2.4
M15
G01X4.7106Y-2.4
M16
G05
T0
M30
